<svg xmlns="http://www.w3.org/2000/svg" width="600" height="600" viewBox="0 0 600 600" fill="none">
    <path d="M300 600C465.685 600 600 465.685 600 300C600 134.315 465.685 0 300 0C134.315 0 0 134.315 0 300C0 465.685 134.315 600 300 600Z" fill="url(#paint0_radial_440_36)"/>
    <g transform="matrix(6,0,0,6,166.5,168.5)">
        <path d="M21.1941 0V17.3812C21.1941 18.0976 20.3301 18.4612 19.8188 17.9581L11.6709 9.95244L15.0859 1.03626C15.3238 0.412862 15.9226 0 16.5924 0H21.1913H21.1941Z" fill="white"/>
        <path d="M21.194 23.6668V33.4306C21.194 34.0759 20.4202 34.4094 19.9526 33.9665L7.32617 22.0099L11.031 12.3418L20.2425 21.392C20.8522 21.9907 21.1967 22.811 21.1967 23.6641L21.194 23.6668Z" fill="white"/>
        <path d="M21.1944 39.4124V43.7899H1.61485C0.482893 43.7899 -0.29635 42.6552 0.108309 41.5998L6.68403 24.4482L20.2975 37.3372C20.869 37.8786 21.1916 38.6277 21.1916 39.4152L21.1944 39.4124Z" fill="white"/>
        <path d="M23.2837 0V17.3812C23.2837 18.0976 24.1477 18.4612 24.659 17.9581L32.8069 9.95244L29.3919 1.03626C29.154 0.412862 28.5552 0 27.8853 0H23.2864H23.2837Z" fill="white"/>
        <path d="M23.2836 23.6668V33.4306C23.2836 34.0759 24.0573 34.4094 24.5249 33.9665L37.1514 22.0099L33.4465 12.3418L24.2351 21.392C23.6253 21.9907 23.2808 22.811 23.2808 23.6641L23.2836 23.6668Z" fill="white"/>
        <path d="M23.284 39.4124V43.7899H42.8635C43.9955 43.7899 44.7747 42.6552 44.3701 41.5998L37.7944 24.4482L24.1809 37.3372C23.6094 37.8786 23.2868 38.6277 23.2868 39.4152L23.284 39.4124Z" fill="white"/>
    </g>
    <defs>
        <radialGradient id="paint0_radial_440_36" cx="0" cy="0" r="1" gradientUnits="userSpaceOnUse" gradientTransform="translate(196 143.5) rotate(54.1675) scale(497.082)">
            <stop stop-color="white"/>
            <stop stop-color="#9A9350" offset="1"/>
        </radialGradient>
    </defs>
</svg>