<svg id="Calque_2" data-name="Calque 2" xmlns="http://www.w3.org/2000/svg" viewBox="0 0 600 600">
    <g transform="matrix(0.5,0,0,0.5,0,0)">
        <circle fill="white" cx="300" cy="300" r="300"/>
        <path fill="#b5bec7" d="M332.15,594.71c-14.7,1.53-49.17,1.73-63.65,0-1.5-.18-15.58-2.69-11.77-7.01l59.57-33.51c73.73-7.58,124.64-37.19,175.03-88.84,5.69-5.83,10.47-15.53,16.82-20.85,15.73-13.17,45.26-24.39,63.33-35.59-28.12,81.55-102.69,148.03-185.11,172.86-13.79,4.16-40.76,11.55-54.21,12.95Z"/>
        <path fill="#b5bec7" d="M322.72,6.55c1.3,5.86-3.08,4.79-6.24,6.6-19.72,11.29-47.48,30.83-67.11,39.02-27.15,11.32-50.24,13.89-78.26,30.13-26.5,15.36-39.17,34.06-60.72,49.98-20.68,15.27-51.95,26.99-74.1,41.34-3.4-1.43-.14-4.46.7-6.36,28.26-63.94,97.21-120.53,162.55-143.63,21.07-7.45,43.05-10.31,64.23-17.07h58.94Z"/>
        <path fill="#b5bec7" d="M4.45,286.52l42.42-21.16c-1.33,8.57,3,25.28-2.37,31.73-5.22,6.26-31.67,16.86-40.06,22.37v-32.94Z"/>
        <path fill="#b5bec7" d="M593.84,270.05v30.58l-42.42,21.16c1.48-10.12-3.86-25.03,3.78-32.67,6.12-6.12,29.47-17.09,38.64-19.08Z"/>
        <circle fill="url(#paint0_radial_440_36)" cx="299.04" cy="300.88" r="230.41"/>
        <path fill="#b5bec7" d="M402.88,25.4c-8.84,5.98-37.65,26.91-46.15,28.2-11.48,1.75-30.67-7.11-43.43-4.73l53.65-32.48c11.25-2.1,25.18,6.18,35.94,9.01Z"/>
        <path fill="#b5bec7" d="M9.19,253.58c-1.21-1.62,3.6-25.75,4.85-29.25,4.91-13.72,45.18-28.41,57.63-38.93-4.45,9.27-9.3,32.81-14.34,39.78-1.63,2.26-46.47,30.63-48.14,28.4Z"/>
        <path fill="#b5bec7" d="M263.79,550.03c4.02,3.48-1.62,4.22-3.08,5.23-5.42,3.76-41.58,24.71-45.43,25.32-4.39.7-32.2-7.58-34-9.43-3.53-3.61,1.18-4.06,3.03-5.24,5.16-3.3,38.02-22.07,41.1-22.49,1.93-.26,36.92,5.33,38.39,6.6Z"/>
        <path fill="#b5bec7" d="M591.47,333.58c-1.15,9.09-1.33,27.29-6.98,34.18-2.09,2.55-47.58,28.96-49.58,26.96l11.69-36.54,44.87-24.6Z"/>
        <path fill="#b5bec7" d="M461.8,53.65c1.07,1.29.36,3.27-1.45,4.86-1.79,1.58-35.68,20.27-37.83,20.44-6.99.58-20.05-12.57-29.08-11.25-1.34-5.42,1.07-3.86,2.98-5.36,3.35-2.63,36.49-22.14,38.71-22.49,1.48-.23,25.71,12.65,26.67,13.8Z"/>
        <path fill="#b5bec7" d="M190.69,533.51c-1.32,1.78-35.09,15.43-39.32,20.74-7.45-3.71-30.82-12.65-20.43-20.34,4.87-3.61,25.59-16.34,30.52-16.82,6.12-.59,33.27,10.98,29.23,16.42Z"/>
        <path fill="#b5bec7" d="M13.9,375.92c.56-6.57-7.61-22.84-4.39-27.9,1.1-1.72,31.69-15.11,36.14-19.17,3.34.67,6.91,25.1,4.89,28.27-1.51,2.35-34.22,20.88-36.64,18.8Z"/>
        <path fill="#b5bec7" d="M506.61,95.92c-8.8.31-29.69,19.71-36.2,18.47-1.45-.28-22.05-18.45-20.37-20.76,9.41-.07,30.11-18.85,36.57-18.89,4.09-.03,22.1,18.34,20,21.18Z"/>
        <path fill="#b5bec7" d="M582.04,213.57c-1.53,8.74,7.43,18.17,3.64,25.88-1.72,3.51-32.42,21.07-36.77,17.83-1.98-1.48-5.66-24.67-4.24-26.9,1.11-1.74,35.6-18.53,37.37-16.81Z"/>
        <path fill="#b5bec7" d="M136.38,500.49c-1.09,1.55-32.08,16.87-33.96,16.71-4.76-.42-15.92-12.53-17.94-17.79-.02-5.08,28.74-20.59,34.23-20.04,4.87.49,20.99,16.41,17.67,21.13Z"/>
        <path fill="#b5bec7" d="M60.91,385.44l9.55,25.74c-8.76.57-30.65,20.52-37.45,16.21-1.82-1.15-9.42-21.4-6.98-25.25,1.04-1.64,33.15-17.89,34.88-16.7Z"/>
        <path fill="#b5bec7" d="M98.74,458.22c-22.67,8.87-37.06,32.1-49.36-3.26.44-1.91,30.68-20.48,33.74-19.89,3.3.64,16.88,21.32,15.62,23.15Z"/>
        <path fill="#b5bec7" d="M492.48,133.64c11.33-2.24,28.32-22.4,39.05-14.34,1.41,1.06,10.57,13.95,10.58,15.49.04,4.13-32.14,22.76-34.16,22.29-1.37-.32-16.99-21.33-15.47-23.44Z"/>
        <path fill="#b5bec7" d="M560.82,161.82c-1.17,7.66,10.45,19.05,6.67,25.46-.99,1.68-32.21,18.52-34.75,16.72-1.03-.73-9.77-21.11-8.61-23.35,1.76-3.4,33.99-21.23,36.69-18.84Z"/>
        <path fill="#fcfdfb" d="M315.67,157.15c-1.76,7.22-11.95,35.35-8.46,40.1,1.38,1.88,16.48,5.43,17.76,4.51,1.67-1.2,8.33-34.49,9.55-39.94.91-.81,22.06,4.86,23.63,5.88,6.21,4.07-9.63,35.53-6.12,41.19,2.82,4.54,31.23,13.19,41.4,27.06,15.55,21.18,6.84,62.11-21.21,67.06,2.92,9.27,14.23,11.96,19.33,21.86,12.2,23.64-2.69,64.38-27.83,74.35-21.51,8.53-40.18,3.11-62.12,2.71-.01,5.78-7.9,39.61-10.89,39.91-13.06-5.87-24.06,2.04-21.97-15.04,2.32-18.98,18.26-36.35-12.04-36.77-1.54,5.45-7.96,38.66-9.64,39.83-3.65,2.54-20.13-5.32-25.74-4.54-1-8.92,12.52-36.9,8.45-42.48-3.43-4.71-47.57-9.29-48.16-15.07,2.21-3.59,10.4-26.2,11.58-27.08,2.27-1.69,25.2,11.31,29.22-.17,8.2-33.63,18.76-67.23,26.04-101.04.93-4.33,3.32-11.66,3.2-15.42-.56-17.01-29-12.86-30.22-18.86,3.55-5.03,3.51-19.16,5.69-22.29,5.6-8.04,41.08,10.26,51.72,7.31,10.56-24.91-.04-47.91,36.8-33.06ZM296.8,227.69l-10.82,49.52c16.28,6.65,54.91,14.98,63.23-5.4,12.43-30.46-30.65-40.91-52.41-44.11ZM266.23,359.35c20.08,4.82,63.18,17,75.04-6.09,16.11-31.35-39.16-47.74-61.91-48.09l-13.13,54.18Z"/>
    </g>
    <g transform="matrix(0.5,0,0,0.5,300,150)">
        <path d="M300 600a300 300 0 100-600 300 300 0 000 600z" fill="#fce1bc"/>
        <path d="M300 600a300 300 0 100-600 300 300 0 000 600z" fill="url(#a)" fill-opacity=".3"/>
        <g fill="#595563">
            <path d="M479 135.1l-15.5 15.6c77 84.2 77 213.4 0 297.6L479 464a242.8 242.8 0 000-329.2zM151.3 136.5c84.3-77.1 213.4-77.1 297.7 0l15.5-15.6a242.8 242.8 0 00-329.2 0zM136.8 448.5c-77-84.2-77-213.3 0-297.6l-15.5-15.5a242.8 242.8 0 00-.1 329.2zM448.8 462.9c-84.2 77-213.4 77-297.6 0l-15.6 15.6a242.8 242.8 0 00329.2 0z"/>
        </g>
        <path d="M391.5 242.4c-3.1-32.5-31.2-43.4-66.6-46.7v-44.8h-27.4v44c-7.2 0-14.6 0-22 .2V151h-27.2v45.2h-55.6v29.3s20.3-.4 20 0c7.5-.9 14.4 4.5 15.5 12V361c-.2 2.6-1.4 5-3.3 6.7s-4.5 2.6-7 2.4c.3.3-20 0-20 0l-5.4 32.7h55.4v45.9h27.4v-45.2h21.9v45h27.5V403c46.3-2.8 78.6-14.2 82.6-57.6 3.3-34.9-13.1-50.4-39.4-56.7 16-8.2 26-22.5 23.6-46.3zM353.1 340c0 34-58.3 30.2-76.9 30.2v-60.4c18.6 0 77-5.3 77 30.2zm-12.7-85.2c0 31.2-48.7 27.4-64.1 27.4v-55c15.4.1 64.1-4.8 64.1 27.6z" fill="#e39552"/>
    </g>
    <g transform="matrix(0.5,0,0,0.5,0,300)">
        <circle fill="white" cx="300" cy="300" r="295" stroke="#1C5A5D" stroke-width='10'/>
        <circle fill="url(#gradient)" cx="300" cy="300" r="295" stroke="#1C5A5D" stroke-width='10'/>
        <g transform="matrix(2.4,0,0,2.4,0,0)">
        <path fill="white" d="M137.33,50.05l-4.95,21.91,10.98,2.05,4.95-20.6,12.98,2.68-4.92,22.89c8.35,1.8,18.46,6.97,23.43,14.08,8.34,11.93,2.7,32.59-12.43,35.95,13.04,9.43,16.56,19.57,10.48,34.97-8.65,21.89-27.68,18.57-47.44,17.07l-5.06,21.96-12.97-3.03c-.9-3.69,5.39-21.22,3.9-22.91-.33-.38-9.17-2.46-9.84-1.99l-6.05,21.51c-2.48-1.05-12.34-1.87-12.92-4.16-.72-2.88,6.49-18.71,4.46-21.48-1.33-1.82-20.24-4.36-23.87-6.15-1.17-.58-1.71-.73-1.73-2.24,0-.72,5.39-12.72,6-13.1,3.37-2.1,12.3,4.97,15.47-.49l15.09-58.9c3.33-10.85-7.82-11.57-15.55-13.06.96-2.35,2.77-14.63,4.47-14.81l26.53,6.82,5.02-22.01,13.97,3.05ZM154.05,114.7c1.26-1.42,3.33-7.16,3.25-9.11-.51-12.04-19.69-15.83-28.93-17.59-.44,4.09-7.36,24.81-5.91,26.89,7.81,2.59,25.45,6.74,31.58-.19ZM118.99,129.07c-1.36.45-1.22,1.45-1.63,2.43-1.42,3.44-5.39,19.49-5.8,23.27-.13,1.16-.53,2.15.23,3.26,1.07,1.56,20.17,5.02,23.07,5.05,5.67.04,15.83-2.39,17.28-8.79,2.96-13.05-7.39-18.19-17.83-21.75-2.31-.79-13.87-3.95-15.33-3.47Z"/>
        </g>
    </g>

    <defs>
        <radialGradient id="paint0_radial_440_36" cx="0" cy="0" r="1" gradientUnits="userSpaceOnUse" gradientTransform="translate(196 143.5) rotate(54.1675) scale(497.082)">
            <stop stop-color="#f4941d80"/>
            <stop stop-color="#f4941d" offset="1"/>
        </radialGradient>
        <radialGradient id="a" cx="0" cy="0" gradientTransform="rotate(54.2 -42.3 263.4) scale(497.082)" gradientUnits="userSpaceOnUse" r="1">
            <stop offset="0" stop-color="#ffefd8"/>
            <stop offset="1" stop-color="#d99231"/>
        </radialGradient>
        <radialGradient id="gradient" cx="0" cy="0" r="1" gradientUnits="userSpaceOnUse" gradientTransform="translate(196 143.5) rotate(54.1675) scale(497.082)">
            <stop stop-color="#ffefd8"/>
            <stop offset="1" stop-color="#d99231"/>
        </radialGradient>
    </defs>
</svg>