<svg id="Calque_2" data-name="Calque 2" xmlns="http://www.w3.org/2000/svg" viewBox="0 0 600 600">
  <defs>
  <radialGradient id="paint0_radial_440_36" cx="0" cy="0" r="1" gradientUnits="userSpaceOnUse" gradientTransform="translate(196 143.5) rotate(54.1675) scale(497.082)">
            <stop stop-color="#231c47"/>
            <stop offset="1"/>
        </radialGradient>
    <style>
      .cls-1 {
        fill: #aa8056;
      }

      .cls-2 {
        fill: #7a77f7;
      }

      .cls-3 {
        fill: #221b46;
      }

      .cls-4 {
        fill: #251d48;
      }

      .cls-5 {
        fill: #231c47;
      }

      .cls-6 {
        fill: #2b244e;
      }

      .cls-7 {
        fill: #fde78f;
      }

      .cls-8 {
        fill: #bbbaf4;
      }

      .cls-9 {
        fill: #625fe8;
      }

      .cls-10 {
        fill: #171336;
      }

      .cls-11 {
        fill: #3d3bc4;
      }

      .cls-12 {
        fill: #f8cf54;
      }

      .cls-13 {
        fill: #9493f7;
      }

      .cls-14 {
        fill: #f0ab41;
      }

      .cls-15 {
        fill: #fdfcfc;
      }
    </style>
  </defs>
  <g id="Calque_1-2" data-name="Calque 1">
    <circle fill="url(#paint0_radial_440_36)" cx="300" cy="300" r="300"/>
    <g>
      <path class="cls-8" d="M428.57,403.2c.82.77-.87,11.15-.01,12.01.9.9,13.82-.93,14.72-.03,3.21,3.21-8.73,16.01,14.68,12.01v14.42c1.62.12,3.28-.11,4.9-.02,1.91.11,7.03-.38,7.35-.01,1.02,1.16-.99,13.47-.02,14.43.98.96,13.55-1.01,14.72-.02.34.29-.08,5.36-.02,7.21.06,1.6-.07,3.2,0,4.8.3,7.02.32,14.59,0,21.6h-34.29c.35-1.81.6-2.06,2.45-2.4,4.08-.75,10.09.24,14.69,0,4.87-.25,9.84.2,14.71.01-.05-4.79.07-9.62-.01-14.41-.07-4,.08-8.02.01-12.01-4.89-.06-9.82.09-14.71.01-.2-4.78.16-9.63.01-14.41-4.07-.07-8.18.09-12.26.01-.82-.01-1.63,0-2.45,0v-14.41c-4.06-.07-8.16.09-12.24.01-.82-.01-1.63.03-2.45,0v-12.01s-12.24.01-12.24.01c-.03-.8.01-1.6,0-2.4-.07-4,.08-8.02.01-12.01h-12.26c-.02-.79.03-1.59,0-2.39s.02-1.6,0-2.4c2.83,3.23,14.15,1.89,14.69,2.4Z"/>
      <path class="cls-9" d="M453.06,446.4c.82,0,1.63-.01,2.45,0v14.41c4.06.06,8.16-.07,12.24-.01.16,3.98,0,8.01,0,12,4.87-.25,9.81.18,14.69,0,.08,4.79-.03,9.63.01,14.41-4.87.18-9.84-.27-14.71-.01v-14.4c-5.87.31-11.18,2.2-14.69,2.4-4.05.23-8.18-.14-12.24,0v-4.8h12.26c1.7-12.63-1.6-9.64-12.26-9.6v-14.4c4.08,0,8.16,0,12.24,0Z"/>
      <path class="cls-13" d="M413.88,432v12.01c4.06.06,8.16-.08,12.24-.01.2,4.78-.16,9.63-.01,14.41h14.71s0,2.39,0,2.39v14.4c-1.62.06-3.28.06-4.9,0v-12.01s-14.69.01-14.69.01c0-.8,0-1.6,0-2.4,0-4,.03-8.02.01-12.01h-12.26s0-2.39,0-2.39v-12c1.39-.15,3.59-2.31,4.9-2.4Z"/>
      <path class="cls-11" d="M467.76,472.8v14.4c-4.61.24-10.61-.75-14.69,0v-12c3.51-.2,8.82-2.09,14.69-2.4Z"/>
      <path class="cls-8" d="M139.59,129.6c1.63-.04,3.27.02,4.9,0,30.16-.41,60.46.31,90.62-.01.15,6.38-.23,12.84-.01,19.21.17,4.93-1.11,15.95,0,19.2,1.77,5.18,13.02.97,14.71,2.39.33.28-.08,5.36-.02,7.21.13,3.99-.13,8.01,0,12,.1,3.18.08,6.42,0,9.6-.04,1.59.11,3.22,0,4.8-5.77-4.34-.46-26.91-2.44-28.81-.79-.76-11.66.53-14.71.01v-43.2h-110.2c-.05-.44-1.99-1.48-2.45-2.4,3.25-1.06,14.65.11,19.59,0Z"/>
      <path class="cls-12" d="M244.9,148.8c-2.23,8.85,10.76.64,7.07,10.53-2.42,6.51-11.36,6.02-16.87,8.67-1.11-3.25.17-14.27,0-19.2h9.8Z"/>
      <path class="cls-14" d="M151.84,244.8c-.7,5.49,1.17,12.45-.04,17.55-.1.43-2.88,2.11-4.86,6.45l-7.3-1.23,4.85,6.03c-2.05,4.04-4.49,5.79-4.9,9.6-.14-.21-4.25.95-4.94-1.57-1.33-4.88.03-18.35.04-24.83,0-3.2,0-6.4,0-9.6l7.35-2.4c3.26.04,6.54-.13,9.8,0Z"/>
      <path class="cls-10" d="M134.69,244.8v2.4c0,3.2,0,6.4,0,9.6-7.04-1.1-19.26,3.71-17.14-4.8.43-.56-.11-5.31,0-7.2h17.14Z"/>
      <path class="cls-13" d="M122.45,132c2.82,23.34,0,56.94,0,81.6v28.8c-1.15.16-2.18,1.25-2.45,2.4h-2.45c1.78-29.58-.58-61.27,0-91.2.03-1.6-.05-3.2,0-4.8.2-5.94-.46-11.93.21-17.87.23-1.52,1.3-1.02,2.24-1.33.46.92,2.4,1.96,2.45,2.4Z"/>
      <path class="cls-9" d="M340.41,336c.81.03,1.63-.02,2.45,0,0,4,0,8,0,12,4.08,0,8.16,0,12.24,0,.34,1.81.6,2.07,2.45,2.4-.33,3.93.48,8.1,0,12,4.08,0,8.16,0,12.24,0,.61,3.25,2.42,2.23,2.45,2.4.53,2.79-.73,11.31-.01,12.01.43.42,9.6-.1,12.26-.01.15,2.65-.49,11.55-.01,12.01.71.7,9.41-.53,12.26-.01.17.03-.42,1.84,2.45,2.4v12h14.69c.03.8-.02,1.6,0,2.4.08,3.99.07,8.01,0,12h12.24c.01.8-.03,1.6,0,2.4.15,3.99-.09,8.01,0,12,4.03-.15,8.21-.15,12.24,0,.81.03,1.63-.01,2.45,0v12c-4.89-.06-9.8.08-14.69,0-.17-3.99.09-8.01,0-12-4.06.15-8.2-.28-12.24,0-1.31.09-3.51,2.25-4.9,2.4-.81.09-1.65-.1-2.45,0-2.28.28-4.97,0-7.35,0v-4.8h14.71c.06-3.98-.08-8-.01-12-4.88,0-9.83.2-14.69,0v-14.4c-4.87,0-9.84.24-14.69,0-.06-4,.07-8.02.02-12.01h-12.26c-.24-1.14-1.27-2.16-2.45-2.39l.02-9.62-12.26.02c-.34-1.82-.59-2.06-2.45-2.4-.83-5.07,1.88-9.82,2.45-14.4h-14.71s.01-14.4.01-14.4h-12.26s.01-12,.01-12c3.26.13,6.54-.13,9.8,0Z"/>
      <path class="cls-2" d="M440.82,432c4.08.07,8.19-.08,12.26-.01v14.41c-4.1,0-8.18,0-12.26,0v-14.4Z"/>
      <path class="cls-2" d="M455.51,446.4c4.08.07,8.19-.08,12.26-.01.15,4.78-.21,9.63-.01,14.41,4.89.07,9.82-.07,14.71-.01.06,3.99-.08,8.01-.01,12.01-4.88.18-9.82-.25-14.69,0,0-3.99.16-8.02,0-12-4.08-.06-8.19.07-12.26.01v-14.41Z"/>
      <path class="cls-2" d="M399.18,391.2c7.81,1.52,11.34-4.11,14.69,7.2.03.8-.02,1.6,0,2.4s-.03,1.6,0,2.4h-14.69v-12Z"/>
      <path class="cls-2" d="M413.88,405.6h12.26c.07,3.98-.09,8-.01,12h-12.24c.07-3.99.08-8.01,0-12Z"/>
      <path class="cls-2" d="M426.12,420h12.26s-.01,12-.01,12c-4.03-.15-8.22-.15-12.24,0-.09-3.99.15-8.01,0-12Z"/>
      <path class="cls-13" d="M401.63,386.4c19.77-4.5,12.85,12.59,14.7,14.39,1.02.99,10.68-1.98,12.24,2.41-.54-.51-11.87.83-14.69-2.4-.02-.8.03-1.6,0-2.4-.08-2.25.41-9.27.02-9.61-1.37-1.21-10.55,2.54-12.26-2.39Z"/>
      <path class="cls-11" d="M426.12,432c.09,3.99-.17,8.01,0,12,4.89.08,9.8-.06,14.69,0v14.4h-14.71c-.15-4.77.22-9.62.01-14.4-4.08-.07-8.19.08-12.26.01v-12.01c4.06-.28,8.2.15,12.26,0Z"/>
      <path class="cls-11" d="M440.82,460.8c10.65-.04,13.96-3.03,12.26,9.59h-12.26v-9.59Z"/>
      <path class="cls-3" d="M408.98,436.8l-2.45-2.4c.8-.1,1.64.09,2.45,0v2.4Z"/>
      <path class="cls-7" d="M328.16,204c-1.78,5.45,1.95,9.31,7.35,9.6.81.04,1.63-.03,2.45,0-2.26,4.6,5.87,6.84,9.8,7.2.43,5.99-.68,12.24-.11,18.2.3,3.18,2.52,5.4,2.56,5.8.08.79-.08,1.61,0,2.4-6.71,1.47-11.31,5.83-13.46-2.39-.84,3.52-10.34,9.39-10.63,10.05-1.19,2.75,2.96,8.21,2.17,12.42-.68,3.62-3.72-4.07-2.58,8.72.14,1.58-.17,3.23,0,4.8-9.67.52-7.16,7.6-7.35,14.4-1.59-.5-3.48-2.18-4.9-2.4-10.33-10.74-.5-9.01,0-11.17,1.13-4.93-1.26-11.49-.04-16.09.55-2.07,4.43-1.38,4.69-1.73,3.52-4.75-7.9-7.35-8.81-10.01-1.3-3.8-.16-10.61-.84-11.31-.37-.39-6.53.08-9.57-1.34-7.66-3.59-20.94-20.94-34.41-13.15v-14.4c3.58.6,13.09-1.11,14.55.27,1.03.97-1.3,6.55,1.48,7.09,8.55,1.67,20.02-1.28,30.5,2.23,1.24.41,6.44,5.97,7.32,4.8,1.33-8.53-6.35-20.6,4.92-24,.93-.28,3.63-.15,4.9,0Z"/>
      <path class="cls-12" d="M301.22,184.8c.22.15-.11,1.73,2.45,4.8.26.32-.42,1.97,1.22,2.35l1.22-2.35c3.55-.61,9.28.88,12.24,0l.07,3.19c5.78,2.49,5.55,5.18,4.83,11.21-11.27,3.4-3.6,15.47-4.92,24-.89,1.17-6.09-4.38-7.32-4.8,2.72-11.38-11.26-8.23-17.86-11.89-.53-.3-8.66-6.87-9.08-7.31-.37-.39-5.23-8.14-4.9-9.6l-4.9-9.6c4.52-.01,25.84-.76,26.94,0ZM303.67,204c-.15,7.81,4.74,8.21,4.9,0,.15-7.81-4.74-8.21-4.9,0Z"/>
      <path class="cls-12" d="M325.71,276l12.23-2.41c-.18,3.15.37,6.48.01,9.61-2.24-.6-10.75-2.48-12.24-2.4-.17-1.57.14-3.22,0-4.8Z"/>
      <path class="cls-12" d="M357.55,268.8c-.21,1.79,2.38,4.11,2.45,4.8.42,4.02-1,9.43-.09,12.84.75,2.81,4.49,1.17,4.98,1.56.41.32-.37,1.8,0,2.4-.88.73-1.75,1.49-2.45,2.4-3.97,5.18-1.35,9.44-2.81,11.65-.8,1.21-5.51,1.22-7.7,2.72-1.59,1.09-1.53,4.52-3.41,4.88-4.95.96-10.64-1.37-15.46-2.45-.06-.16-2.28-2.36-2.45-2.4,2.91-5.36,1.22-12.59,2.55-17.49.67-2.46,4.03.09,4.8-6.51,5.57,1.5,16.49,11.32,12.2-3.18-.13-.43-2.93-2.97-4.85-6.42l3.23-.08c1.85-6.44,7.78-3.92,9.02-4.72Z"/>
      <path class="cls-8" d="M288.98,278.4c23.35-4.36,14.31,10.86,17.23,14.35.6.72,5.32-.25,7.26.05,1.42.22,3.31,1.9,4.9,2.4-.07,2.37-.15,4.84,0,7.2.58,9.31,4.49,2.95,12.24,4.8.17.04,2.39,2.24,2.45,2.4.71,2.07-.82,8.87-.02,9.61.96.9,11.29-.93,12.28-.03.41.38-.13,7.34-.02,9.61.08,1.59-.13,3.21-.02,4.8h14.71c-.39,3.09-4.87,7.65-1.42,12.17,2.84,4.02,12.83,1.42,13.68,2.23.9.86-.92,11.13-.02,12.02s13.78-.94,14.72-.03-.96,13.5-.03,14.42,13.81-.94,14.72-.03-.9,9.47-.01,12.01c1.71,4.93,10.9,1.18,12.26,2.39.39.34-.1,7.36-.02,9.61-3.36-11.31-6.89-5.68-14.69-7.2-2.87-.56-2.28-2.37-2.45-2.4v-12.01c-4.05-.11-8.17.15-12.24.01-.58-10.61,1.72-17.31-12.24-12-.03-.17-1.84.85-2.45-2.4-.53-2.8.73-11.31.01-12.01s-9.4.53-12.26.01c-1.85-.33-2.11-.59-2.45-2.4-.53-2.81.73-11.3.01-12.01-.43-.43-9.62.06-12.26.01-.82-.02-1.63.03-2.45,0v-14.41c-4.06-.06-8.16.08-12.24.01-.07-4,.08-8.02.01-12.01-4.88-.15-9.83.21-14.71.01v-12.01c-4.05-.16-8.18.22-12.24.01-.2-4.78.16-9.63.01-14.41-4.06-.16-8.19.22-12.26.01.03-1.59-.09-3.21,0-4.8Z"/>
      <path class="cls-14" d="M325.71,276c-1.15-12.79,1.9-5.1,2.58-8.72.79-4.21-3.37-9.67-2.17-12.42.29-.67,9.79-6.54,10.63-10.05,2.14,8.22,6.75,3.87,13.46,2.39.24,2.25.38,11.53-.01,11.99-3.95,4.66-5.01-4.5-6.49-4.81-9.58-2.04-11.3-.9-10.64,7.23.57,6.92,1.77,4.35,7.35,7.2.71.36,3.19-.52,4.28.55,1.44,1.43.27,3.62.62,4.25,1.92,3.44,4.73,5.99,4.85,6.42,4.29,14.51-6.63,4.69-12.2,3.18.36-3.12-.19-6.46-.01-9.61l-12.23,2.41Z"/>
      <path class="cls-14" d="M337.96,283.2c-.77,6.6-4.13,4.05-4.8,6.51-1.33,4.9.36,12.13-2.55,17.49-7.75-1.85-11.66,4.51-12.24-4.8h9.8c-.9-7.2-1.67-14.39-2.45-21.6,1.49-.08,10,1.8,12.24,2.4Z"/>
      <path class="cls-14" d="M369.8,261.6c.49.43-1.71,8.84,4.9,2.4l2.43,1.23c.44,2.69-.42,5.86.02,8.37h-17.14c-.07-.69-2.66-3.01-2.45-4.8,3.48-2.24,4.02-14.31,12.24-7.2Z"/>
      <path class="cls-12" d="M345.31,328.8l14.68-4.79c-.23,3.13.4,6.48.01,9.59h-14.71c-.11-1.59.1-3.21.02-4.8Z"/>
      <path class="cls-6" d="M369.8,307.2c8.14-.22,16.35.15,24.49,0-1.74,5.17-30.22,1.15-36.72,2.38-.14-4.34,9.12-2.29,12.23-2.38Z"/>
      <path class="cls-6" d="M333.06,261.6c7.35-1.02,8.38.05,7.35,7.2-5.57-2.85-6.78-.28-7.35-7.2Z"/>
      <path class="cls-6" d="M303.67,189.6h2.45l-1.22,2.35c-1.65-.38-.96-2.04-1.22-2.35Z"/>
      <path class="cls-14" d="M364.9,292.8h-2.45c.7-.91,1.56-1.67,2.45-2.4.36.59-.37,1.84,0,2.4Z"/>
      <path class="cls-1" d="M303.67,170.4c-5.58-.7-12.73,1.17-17.9-.06-1.15-.27-3.71-8.11-11.51-4.75v-7.18c11.24,4.37,15.03-4.64,15.95-4.85,5.23-1.17,6.13,10.38,13.46,9.64-.06,2.4.06,4.8,0,7.2Z"/>
      <path class="cls-14" d="M264.49,184.8c3.25-.14,6.54.01,9.8,0l4.9,9.6c-9.07-2.95-15.18,3.2-20.86,4.82-1.8.51,1.29-9.65-8.53-.02.08-3.18.1-6.42,0-9.6,3.02-7.01,8.38-4.52,14.69-4.8Z"/>
      <path class="cls-12" d="M264.49,184.8c-6.31.28-11.68-2.21-14.69,4.8-.13-3.99.13-8.01,0-12,6.87-.39,14.9-1.38,14.69,7.2Z"/>
      <path class="cls-2" d="M164.08,172.8c-.27,5.84-.84,38.6.34,40.46,2.04,3.22,19.45,2.91,24.15,2.74.19,15.34,5.79,11.57,17.14,12-.5,8.99,2.79,13.16-8.44,14.52-2.82.34-17.87.56-18.5-.11-1.12-1.19,2.77-11.88-4.01-14.08-5.53-1.8-18.33-.03-25.37-.33v-55.21c4.86-.13,9.81.18,14.69.01Z"/>
      <path class="cls-2" d="M122.45,132h110.2v43.2c3.05.52,13.92-.77,14.71-.01,1.98,1.9-3.33,24.47,2.44,28.81-.06.8.08,1.61,0,2.4s.13,1.63,0,2.4c-.17,1-4.13,3.38-2.44,7.19,3.01.56,13.93-.76,14.69,0,.46.46-.14,9.38-.01,12.01.37,7.94-.08,16.04,0,24,.02,1.6-.02,3.2,0,4.8h12.24c-.45,2.86.15,6.49,0,9.6-.08,1.59.03,3.2,0,4.8,4.84.39,9.84-.27,14.69,0-.37,2.14.14,4.86,0,7.2-.09,1.59.03,3.21,0,4.8,4.06.21,8.2-.17,12.26-.01.15,4.78-.21,9.63-.01,14.41,4.07.21,8.2-.17,12.26-.01v12.01c4.87.2,9.81-.16,14.69-.01.06,3.99-.08,8.01-.01,12.01,4.08.07,8.19-.08,12.26-.01v14.41c-3.27-.13-6.55.13-9.81,0-.81-.03-1.63.02-2.45,0-.06-4.8.08-9.6,0-14.4-4.08-.07-8.17.08-12.24,0-.82-.02-1.63.02-2.45,0,0-4,0-8,0-12-4.07-.16-8.17.09-12.24,0-.03-3.99.17-8.02,0-12-4.05-.21-8.18.02-12.24,0-.09-4.78-.09-9.62,0-14.4-4.86-.25-9.82.04-14.69,0-.04-3.99-.06-8.01,0-12-4.51-.36-8.24-1.87-12.24-2.4-.05-4,.05-8,0-12h-14.69c-.01-.8.03-1.6,0-2.4-.29-8.76.21-17.65.01-26.41-8.96-.09-18,.15-26.95.01-.08-3.99.17-8.01,0-12-.2-4.78.16-9.63.01-14.41-4.89,0-9.81.01-14.71.01v-28.81c-13.81.37-27.82-.47-41.63.01.18-3.99-.16-8.03-.01-12.01,2.12-2.13,48.02,2.98,54.01-1.07,4.79-3.24,1.84-13.32-1.34-13.32h-79.59c-2.78,20.3-4.44,46.7-2.45,67.2h-12.24c0-24.66,2.82-58.26,0-81.6Z"/>
      <path class="cls-11" d="M134.69,213.6c.35,3.6,4.16,9.22,2.46,14.39,4.05.22,8.17-.17,12.23,0,7.05.31,19.84-1.46,25.37.33,6.78,2.2,2.89,12.89,4.01,14.08.63.66,15.67.45,18.5.11,11.23-1.36,7.95-5.52,8.44-14.52,4.88.18,9.81-.07,14.69,0,.18,8.77-.13,17.64-.01,26.41h26.95c.03.79-.01,1.59,0,2.39.07,4-.08,8.02-.01,12.01,4.74.43,10.13-.62,14.71-.01.06,4.79-.14,9.61,0,14.4,4.06.17,8.17-.03,12.24,0,.05,4.79-.19,9.62,0,14.4,4.87-.17,9.81-.02,14.69,0,.08,3.99-.21,8.02,0,12,4.07.15,8.17-.09,12.24,0,.03,3.99-.17,8.02,0,12,4.05.23,8.18-.08,12.24,0,.82.02,1.63-.02,2.45,0v14.41c4.06.07,8.16-.09,12.24-.01.82.02,1.63-.03,2.45,0v12.01s12.24-.01,12.24-.01v14.41s14.69-.01,14.69-.01c-.57,4.58-3.28,9.33-2.45,14.4-2.86-.52-11.55.72-12.26.01-2.7-2.66,5.54-11.45-4.88-12.01-3.25-.18-6.54.12-9.8,0,1.09-13.03-.96-15.78-14.69-14.4-1.92-2.89-2.73-6.15-2.45-9.6.02-.27,3.49-1.98,2.44-4.78-16.71,1.68-11.69-1.26-12.24-14.42-4.06-.23-8.2.19-12.26.01-.16-3.98.23-8.03.01-12.01-3.25-.12-6.55.2-9.8,0-1.62-.1-3.28.06-4.9,0-.11-3.98.16-8.01,0-12-2.41.08-4.97-.27-7.35,0-7.72,2.08-4.7-7.66-4.9-14.4-3.06-.12-14.19.52-14.71.01-2.69-2.64,5.52-11.51-4.88-12.01s-21.28.36-31.84,0c-.18-1.07-4.29-2.13-4.82-4.2-.76-2.96.52-9.58-.07-10.22-1.56-1.71-39.71,2.54-46.54-2.38.14-2.34-.37-5.06,0-7.2.05-.26,3.55-1.66,2.44-4.78-12.27,1.19-27.36-1.69-39.17-.02v-28.8h12.24Z"/>
      <path class="cls-14" d="M195.92,300c1.97,25.69,11.07,12.24,16.82,17.25.48.42,3.96,9.6,5.22,11.55-7.81.93-3.39,4.23-6.15,4.82-6.04,1.29-.57-4.57-8.55-4.82-1.63-.05-3.27.03-4.9,0-.13-.87.27-2.07,0-2.4l-1.22-2.35-1.22,2.35h-2.45c-.28-.7-4.56-4.73-4.9-4.8v-12c0-3.81.48-8.43,0-12h2.45c1.48.91,2.54,2.63,4.9,2.4Z"/>
      <path class="cls-1" d="M176.33,319.2c.61.32.85,3.37,3.54,3.84,2.28.4,6.16-1.93,8.7-1.44.34.07,4.62,4.1,4.9,4.8,1.34,3.33-3.32,8.77,4.9,7.2.23,4.77-.12,9.63-.01,14.41-7.3,2.53-6.67-4.02-9.19-4.73-2.7-.77-6.53.45-7.94-.07-.38-.14-4.73-6.13-4.82-6.52-1.47-6.52,3.52-14.47-4.98-12.68.01-1.55.19-3.29,0-4.8,1.45.31,4.01-.47,4.9,0Z"/>
      <path class="cls-12" d="M200.82,268.8c-.27,1.52.4,3.63,0,4.8-3.54,10.26-6.1,10.68-4.9,26.4-2.36.23-3.42-1.49-4.9-2.4s-2.54-2.63-4.9-2.4c-.65-5.08-2.63-9.85-2.03-15.09.76-6.59,10.32-6.55,6.93-16.11,3.51-.55,7.02,3.05,9.8,4.8Z"/>
      <path class="cls-10" d="M173.88,259.2l1.22,2.35,1.22-2.35c.82,0,1.63,0,2.45,0v12c-6.52-.08-13.09.07-19.61.01-.07-3.99.09-8.01.01-12.01,4.9,0,9.8,0,14.69,0Z"/>
      <path class="cls-7" d="M178.78,259.2c8.15.05,16.35-.05,24.49.01,1.95,4.19-2.14,7.79-2.45,9.59-2.78-1.75-6.29-5.35-9.8-4.8-2.57.4-7.27,8.99-7.81,9.27-2.6,1.32-3.98-2.06-4.43-2.07v-12Z"/>
      <path class="cls-8" d="M159.18,254.4c6.84,4.92,44.98.67,46.54,2.38.59.64-.69,7.26.07,10.22.53,2.06,4.64,3.13,4.82,4.2.13.81-2.39,4.9-2.45,7.2l-7.35-4.8c.4-1.17-.27-3.28,0-4.8.32-1.8,4.41-5.4,2.45-9.59-8.14-.06-16.35.04-24.49-.01-.82,0-1.63,0-2.45,0h-2.45c-4.9,0-9.8,0-14.69,0-.03-1.58-.1-3.22,0-4.8Z"/>
      <path class="cls-3" d="M188.57,309.6v12c-2.54-.49-6.42,1.84-8.7,1.44-2.69-.47-2.93-3.52-3.54-3.84,3.59-5.49,3.91-11.14,12.24-9.6Z"/>
      <path class="cls-8" d="M122.45,242.4c11.81-1.68,26.91,1.21,39.17.02,1.11,3.12-2.39,4.52-2.44,4.78-1.18-3.13-4.67-2.29-7.35-2.4-3.25-.13-6.54.04-9.8,0-2.45-.03-4.9,0-7.35,0h-14.69c.26-1.15,1.3-2.24,2.45-2.4Z"/>
      <path class="cls-12" d="M146.94,268.8c-.79,1.73-1.61,3.16-2.45,4.8l-4.85-6.03,7.3,1.23Z"/>
      <path class="cls-1" d="M191.02,297.6h-2.45c-.08-.62-2.36-1.72-2.45-2.4,2.36-.23,3.42,1.49,4.9,2.4Z"/>
      <path class="cls-4" d="M142.04,244.8l-7.35,2.4v-2.4c2.45,0,4.9-.03,7.35,0Z"/>
      <path class="cls-14" d="M279.18,350.4c.2-.39,4.58-6.91,4.94-7.15,5.27-3.52,4.3,4.19,6.09,4.79,5.41,1.84,2.19-6.86,8.56-4.84,1.1,7.33,4.82,2.48,4.9,9.6.14,12.41,5.09,8.4,4.95,13.21-.11,3.69-4.37,1.99-4.95,13.19h-2.45l-2.45,2.4h-2.45c-2.06-7.84-14.2-5.65-16.71-7.76-1.19-1,.95-8.11-5.3-6.69.38-3.47,8.87-6.1,9.66-8.88,1.16-4.08,1.8-9.36-4.79-7.88Z"/>
      <path class="cls-13" d="M337.96,364.8c10.42.56,2.19,9.35,4.88,12.01.71.7,9.4-.54,12.26-.01,1.85.34,2.1.58,2.45,2.4.45,2.36-.65,9.03-.02,9.61.8.74,9.39-.57,12.26-.01,1.18.23,2.21,1.24,2.45,2.4.57,2.79-.75,11.29-.01,12.01.47.46,9.56-.15,12.26-.01.07,4.8-.07,9.63-.01,14.41,4.88.14,9.83-.21,14.71-.01v16.8h-4.9c-.14-3.99.12-8.03.02-12.01-5.88,2.13-10.96-1.74-14.71-2.39v-12.01s-12.24.01-12.24.01c-.02-.8.07-1.61,0-2.4-.26-3.05.57-6.92,0-9.6-.38-1.81-.58-2.04-2.45-2.4-3.43-.66-8.37.27-12.24,0-.09-2.62.46-11.59.01-12.01-2.34-2.2-19.66,5.75-14.71-16.79Z"/>
      <path class="cls-12" d="M303.67,340.8h7.35c-.28,3.45.53,6.71,2.45,9.6-2.29.23-6.29,3.36-9.8,2.4-.08-7.12-3.8-2.27-4.9-9.6-.12-.78.08-1.61,0-2.4h4.9Z"/>
      <path class="cls-12" d="M227.76,328.8c7.8,1.21,5.36,7.53,17.14,9.6l-12.23,9.61c-.3,6.37,2.4,2.7,4.89,9.59,5.79,1.28,9.06,5.79,15.7,4.85,3.43-.49,6.27-3.94,10.12-4.74s14.58.78,15.75-.21c.93-.79-.61-5.79.05-7.1,6.59-1.49,5.94,3.79,4.79,7.88-.78,2.77-9.27,5.41-9.66,8.88,6.25-1.42,4.11,5.69,5.3,6.69,2.51,2.11,14.64-.08,16.71,7.76h-22.04c.2-3.67-.76-3.08-2.45-4.8-7.6-7.75-15.3-5.15-22.04-7.2-12.66-3.86-9.11-3.31-12.24-12-2.26-.5-9.17.72-9.78-.01-.66-.78.68-5.5.01-7.85-.79-2.77-4.51-.79-4.95-2.95-1.16-5.69,3.83-2.77,4.67-3.75,3.63-4.27-6.8-6.97-8.79-10.13-1.12-1.78-.47-3.67-.75-4.1,2.54-.3,7.36-.38,9.8,0Z"/>
      <path class="cls-4" d="M171.43,324c8.49-1.79,3.5,6.17,4.98,12.68.09.39,4.43,6.38,4.82,6.52-8.75-2.37-3.2,7.72-4.91,9.6-4.18,4.58-4.95-3.68-5.46-4.17-1.54-1.47-3.71-.29-4.32-.63v-12c7.4,1.2,4.86-6.59,4.9-12Z"/>
      <path class="cls-1" d="M166.53,348c-8.3-4.65-11.7-4.63-9.78-16.79l9.78,4.79v12Z"/>
      <path class="cls-4" d="M198.37,326.4c.27.33-.13,1.53,0,2.4.22,1.5-.07,3.23,0,4.8-8.21,1.57-3.55-3.87-4.9-7.2h2.45c.8.18,2.2-.3,2.45,0Z"/>
      <path class="cls-11" d="M372.24,391.2h12.26c.06,3.98-.08,8-.02,12,4.85.24,9.82,0,14.69,0v14.4c4.87.2,9.81,0,14.69,0-.07,4,.08,8.02.01,12.01h-14.71v-12.01c-4.88-.2-9.83.16-14.71.01-.06-4.79.09-9.62.01-14.41-2.7-.13-11.79.47-12.26.01-.74-.72.58-9.23.01-12.01Z"/>
      <path class="cls-15" d="M264.49,228c13.47-7.79,26.75,9.56,34.41,13.15,3.04,1.42,9.2.95,9.57,1.34.68.7-.46,7.51.84,11.31.91,2.66,12.33,5.26,8.81,10.01-.26.35-4.14-.34-4.69,1.73-1.22,4.6,1.17,11.15.04,16.09-.5,2.16-10.33.42,0,11.17-1.94-.3-6.65.68-7.26-.05-2.92-3.49,6.12-18.71-17.23-14.35.14-2.34-.37-5.06,0-7.2.05-.26,3.55-1.64,2.44-4.78l-17.13-.02c.15-3.11-.45-6.74,0-9.6.04-.26,3.54-1.72,2.44-4.78l-14.68-.02c-.08-7.96.37-16.06,0-24h2.45Z"/>
      <path class="cls-14" d="M284.08,204c.42.44,8.54,7.01,9.08,7.31,6.61,3.66,20.58.51,17.86,11.89-10.48-3.52-21.95-.56-30.5-2.23-2.78-.54-.46-6.12-1.48-7.09-1.45-1.38-10.97.32-14.55-.27-3.34-.56-11.52-3.02-14.69-4.8.13-.77-.08-1.61,0-2.4,10.4-4.76,23.02-1.53,34.29-2.4Z"/>
      <path class="cls-8" d="M264.49,213.6v14.4h-2.45c-.12-2.64.48-11.55.01-12.01-.76-.76-11.69.57-14.69,0-1.7-3.81,2.26-6.19,2.44-7.19,3.17,1.78,11.36,4.24,14.69,4.8Z"/>
      <path class="cls-6" d="M335.51,213.6c-5.39-.29-9.12-4.15-7.35-9.6,6.73.78,7.8,2.95,7.35,9.6Z"/>
      <path class="cls-7" d="M303.67,204c.15-8.21,5.04-7.81,4.9,0h-4.9Z"/>
      <path class="cls-14" d="M308.57,204c-.15,8.21-5.04,7.81-4.9,0h4.9Z"/>
      <path class="cls-2" d="M384.49,376.8c4.08.14,8.19-.12,12.26-.01v12.01c-2.86-.52-11.56.71-12.27.01-.47-.46.16-9.36.01-12.01-2.66-.09-11.83.44-12.26.01-.72-.7.55-9.22.01-12.01,13.96-5.31,11.66,1.39,12.24,12Z"/>
      <path class="cls-2" d="M357.55,350.4c2.86.52,11.54-.72,12.26-.01s-.54,9.21-.01,12.01c-4.08,0-8.16,0-12.24,0,.48-3.9-.33-8.07,0-12Z"/>
      <path class="cls-2" d="M342.86,336c2.64.05,11.83-.44,12.26-.01.72.71-.54,9.21-.01,12.01-4.08,0-8.16,0-12.24,0,0-4,0-8,0-12Z"/>
      <path class="cls-13" d="M134.69,213.6c-1.99-20.5-.34-46.9,2.45-67.2h79.59c3.18,0,6.13,10.08,1.34,13.32-5.99,4.04-51.88-1.06-54.01,1.07-.15,3.98.2,8.03.01,12.01-4.88.17-9.83-.14-14.71-.01v55.21c-4.05-.18-8.16.22-12.22,0,1.7-5.18-2.11-10.8-2.46-14.39Z"/>
      <path class="cls-13" d="M164.08,172.8c13.82-.48,27.82.35,41.65-.01v28.81s-14.69.01-14.69.01c1.85,4.64-2.5,11.8-2.46,14.39-4.69.16-22.11.48-24.15-2.74-1.18-1.86-.61-34.62-.34-40.46ZM191.03,189.61c-21.46-3.97-21.46,13.55,0,9.58v-9.58Z"/>
      <path class="cls-9" d="M220.41,216c.17,3.99-.08,8.01,0,12,8.96.14,18-.1,26.95-.01.2,8.77-.3,17.65-.01,26.41h-26.95c-.12-8.76.2-17.63.01-26.4-4.89-.07-9.81.18-14.69,0,.22-3.98-.18-8.04-.01-12.01h14.71Z"/>
      <path class="cls-8" d="M205.71,201.6c4.89,0,9.82-.02,14.71-.01.15,4.78-.22,9.63-.01,14.41h-14.71c-.17,3.96.24,8.02.01,12-11.36-.43-16.95,3.34-17.14-12-.03-2.59,4.32-9.75,2.46-14.39h14.68Z"/>
      <path class="cls-9" d="M262.04,256.8c.05,4-.05,8,0,12,4.01.53,7.74,2.04,12.24,2.4-.06,3.99-.04,8.01,0,12,4.88.04,9.83-.25,14.69,0-.09,4.78-.09,9.62,0,14.4,4.06.02,8.2-.21,12.24,0,.17,3.98-.03,8.01,0,12,4.07.09,8.18-.16,12.24,0,0,4,0,8,0,12-4.06-.08-8.2.23-12.24,0-.17-3.98.03-8.01,0-12-4.08-.09-8.17.15-12.24,0-.21-3.98.08-8.01,0-12-4.88-.02-9.82-.17-14.69,0-.19-4.78.05-9.61,0-14.4-4.07-.03-8.18.17-12.24,0-.14-4.79.06-9.61,0-14.4-4.58-.61-9.97.45-14.71.01-.06-3.99.08-8.01.01-12.01h14.69Z"/>
      <path class="cls-8" d="M262.04,252l14.68.02c1.1,3.07-2.4,4.52-2.44,4.78h-12.24c-.02-1.6.02-3.2,0-4.8Z"/>
      <path class="cls-15" d="M242.45,271.2v14.41c23.75-4.93,11.24,11.04,14.7,14.39,4.12,1.96,8.3-2.24,9.79-2.4,2.38-.27,4.93.08,7.35,0,.16,3.99-.11,8.02,0,12-.55-.54-2.51.37-2.45,1.2.18,2.62,3.6-.07,2.45-1.2,1.62.06,3.27-.1,4.9,0,10.94,6.37-2.39,14.95,14.69,16.8-6.1,3.73-12.62,5.58-18.79,8.01-.86.34-.9,3.58-2.5,3.93-6.23,1.38-16.61-3.73-15.48,4.83h-2.38c1.04-7.53-5.49-4.01-9.83-4.78-11.78-2.07-9.34-8.39-17.14-9.6-.3-4.64-7.22-9.79-8.91-12.88-6.77-12.38-11.04-22.54-10.69-37.52.05-2.3,2.58-6.39,2.45-7.2,10.56.36,21.3-.51,31.84,0Z"/>
      <path class="cls-8" d="M242.45,271.2c10.4.51,2.2,9.37,4.88,12.01.52.51,11.65-.14,14.71-.01.2,6.74-2.83,16.48,4.9,14.4-1.48.17-5.66,4.36-9.79,2.4-3.46-3.35,9.05-19.32-14.72-14.39v-14.41Z"/>
      <path class="cls-7" d="M208.16,278.4c-.35,14.99,3.92,25.14,10.69,37.52,1.69,3.09,8.61,8.23,8.91,12.88-2.43-.38-7.26-.3-9.8,0-1.26-1.95-4.74-11.13-5.22-11.55-5.75-5.01-14.85,8.45-16.82-17.25-1.21-15.72,1.36-16.14,4.9-26.4l7.35,4.8Z"/>
      <path class="cls-1" d="M198.37,326.4c-.25-.3-1.64.18-2.45,0l1.22-2.35,1.22,2.35Z"/>
      <polygon class="cls-4" points="173.88 259.2 176.33 259.2 175.1 261.55 173.88 259.2"/>
      <path class="cls-8" d="M288.98,309.6c.21,3.98-.18,8.03-.01,12.01,4.06.18,8.2-.24,12.26-.01.55,13.16-4.48,16.1,12.24,14.42,1.05,2.8-2.42,4.52-2.44,4.78-.15-3.69-7.19-3.68-7.35,0h-4.9c-.94-9.25,4.01-13.44-4.9-14.4-17.08-1.85-3.75-10.43-14.69-16.8,3.24.2,6.54-.12,9.8,0Z"/>
      <path class="cls-9" d="M328.16,321.6c.08,4.8-.06,9.6,0,14.4-4.08-.08-8.19.08-12.26.01v-14.41c4.09.08,8.18-.07,12.26,0Z"/>
      <path class="cls-7" d="M293.88,326.4c8.91.96,3.96,5.15,4.9,14.4.08.79-.12,1.62,0,2.4-6.37-2.03-3.15,6.67-8.56,4.84-1.78-.61-.81-8.31-6.09-4.79-.36.24-4.75,6.77-4.94,7.15-.66,1.31.88,6.31-.05,7.1-1.17.99-11.72-.63-15.75.21s-6.69,4.25-10.12,4.74c-6.64.94-9.91-3.57-15.7-4.85-2.49-6.88-5.18-3.22-4.89-9.59l12.23-9.61c4.35.76,10.87-2.75,9.83,4.78h2.38c-1.13-8.56,9.25-3.45,15.48-4.83,1.6-.35,1.63-3.59,2.5-3.93,6.17-2.43,12.69-4.28,18.79-8.01Z"/>
      <polygon class="cls-4" points="301.22 381.6 298.78 381.6 301.22 379.2 301.22 381.6"/>
      <path class="cls-11" d="M357.55,379.2l12.26-.02-.02,9.62c-2.87-.56-11.46.75-12.26.01-.63-.59.46-7.25.02-9.61Z"/>
      <path class="cls-3" d="M367.35,396l-2.45-2.4c1.87.36,2.07.59,2.45,2.4Z"/>
      <path class="cls-7" d="M311.02,340.8h-7.35c.16-3.68,7.19-3.69,7.35,0Z"/>
      <path class="cls-8" d="M274.29,266.4l17.13.02c1.11,3.15-2.39,4.52-2.44,4.78-4.86-.27-9.86.39-14.69,0,.03-1.6-.08-3.21,0-4.8Z"/>
      <path class="cls-8" d="M191.03,189.61v9.58c-21.46,3.97-21.46-13.55,0-9.58Z"/>
      <path class="cls-8" d="M274.29,309.6c1.15,1.13-2.27,3.82-2.45,1.2-.06-.83,1.9-1.74,2.45-1.2Z"/>
    </g>
  </g>
</svg>