<svg xmlns="http://www.w3.org/2000/svg" width="600" height="600" viewBox="0 0 600 600" fill="none">
	<path d="M300 600C465.685 600 600 465.685 600 300C600 134.315 465.685 0 300 0C134.315 0 0 134.315 0 300C0 465.685 134.315 600 300 600Z" fill="url(#paint0_radial_440_44)" />
	<g transform="matrix(12,0,0,12,169.55,145)">
		<path d="M 4.2611 24.0476 V 14.9955 H 0 V 11.3089 H 4.2611 V 9.9993 H 0 V 6.3953 H 4.2611 V 0.5254 H 13.9407 C 16.4777 0.5254 18.3557 1.1221 19.5735 2.3152 C 20.7913 3.497 21.4008 5.3206 21.4008 7.7864 C 21.4008 9.6556 20.9517 11.1583 20.052 12.2948 C 19.1522 13.4197 17.902 14.2027 16.2957 14.642 L 21.7418 24.0476 H 16.7055 L 11.7036 15.0134 H 8.8025 V 24.0476 H 4.2611 Z M 8.8025 11.3157 H 14.5388 C 15.9612 11.3157 16.6728 10.5327 16.6728 8.9682 V 6.5527 C 16.6728 5.7648 16.5136 5.2022 16.194 4.8635 C 15.8877 4.5148 15.3353 4.3399 14.5388 4.3399 H 8.8025 V 11.3157 Z" fill="white" />
	</g>
	<defs>
		<radialGradient id="paint0_radial_440_44" cx="0" cy="0" r="1" gradientUnits="userSpaceOnUse" gradientTransform="translate(196 143.5) rotate(54.1675) scale(497.082)">
			<stop stop-color="#323638" />
			<stop offset="1" />
		</radialGradient>
	</defs>
</svg>
