<svg fill="none" viewBox="0 0 600 600" xmlns="http://www.w3.org/2000/svg">
    <radialGradient id="a" cx="0" cy="0" gradientTransform="rotate(54.2 -42.3 263.4) scale(497.082)" gradientUnits="userSpaceOnUse" r="1">
        <stop offset="0" stop-color="#d6edff"/>
        <stop offset="1" stop-color="#2775c9"/>
    </radialGradient>
    <path d="M300 600a300.2 300.2 0 00294.2-358.5A299.8 299.8 0 0050.6 133.3 300.2 300.2 0 00300 600z" fill="#bcddf8"/>
    <path d="M300 600a300 300 0 100-600 300 300 0 000 600z" fill="url(#a)" fill-opacity=".3"/>
    <path d="M241.4,464.7c-90.75-33.24-137.37-133.76-104.13-224.51,5.19-14.17,12.19-27.61,20.83-39.99,20.53-29.38,49.62-51.73,83.3-64,4.35-1.99,7.23-6.23,7.5-11v-16.4c.2-1.4,0-2.9-.7-4.2-.57-1.34-1.5-2.48-2.7-3.3-2.38-1.74-5.53-2.05-8.2-.8-110.43,35.07-171.53,153.03-136.46,263.46,6.9,21.72,17.28,42.16,30.76,60.54,26.3,35.8,63.3,62.5,105.7,76,2.67,1.25,5.82.94,8.2-.8,1.14-.84,2.06-1.94,2.7-3.2.6-1.4.9-2.8.7-4.3v-16.3c0-2.4-.9-4.7-2.2-6.6-1.2-2.2-3-3.7-5.3-4.6ZM365.6,100.3c-2.67-1.25-5.82-.94-8.2.8-1.2,1-2.2,2-2.8,3.3-.62,1.31-.87,2.76-.7,4.2v16.4c.2,4.8,3.11,9.06,7.5,11,90.77,33.2,137.44,133.69,104.24,224.46-5.19,14.19-12.19,27.65-20.84,40.04-20.56,29.4-49.68,51.75-83.4,64-2.22.86-4.13,2.35-5.5,4.3-1.32,1.99-2.01,4.32-2,6.7v16.4c-.2,1.4.1,2.9.7,4.2.59,1.35,1.57,2.49,2.8,3.3,2.38,1.74,5.53,2.05,8.2.8,110.43-35.09,171.51-153.05,136.42-263.48-20.63-64.92-71.5-115.79-136.42-136.42Z" fill="#2775c9"/>
    <path d="M177.73,286.76v-15.27h153.17v15.27h-153.17ZM177.73,325.43v-15.27h153.17v15.27h-153.17ZM395,361.73c-13.19,36.98-46.66,54.28-87.66,54.28-69.76,0-100.39-45.8-100.39-114.67,0-74.3,39.59-116.36,103.22-116.36,53.26,0,79.18,26.8,84.84,53.26h-24.03c-8.96-22.05-29.7-36.3-61.74-36.3-49.02,0-76.83,31.55-76.83,98.72,0,60.39,24.03,98.38,76.35,98.38,30.64,0,50.9-13.23,62.68-37.32h23.57Z" fill="#2775c9"/>
</svg>