<svg id="Calque_2" data-name="Calque 2" xmlns="http://www.w3.org/2000/svg" viewBox="0 0 600 600">
    <circle fill="url(#paint0_radial_440_36)" cx="300" cy="300" r="300"/>
      <path fill="#0078FC" d="M314.43,144.03c-.46,2.2,1.08,1.48,2.46,1.79,31.07,7.12,54.47,30.95,59.92,62.56l.17,70.01c2.56,4.75,8.24,3.73,13.09,5.63,3.11,1.22,5.55,3.12,8.19,5.07l8.98,13.25v133.36l-5.59,8.83c-1.9,2.81-4.81,4.57-7.41,6.62l-8.83,4.82h-170.01l-12.5-6.61c-3.99-3.2-5.75-7.11-8.02-11.52-.55-1.08-.01-2.6-2.1-2.15v-133.36c2.01.42,1.6-.97,2.12-2.13,3.66-8.19,6.76-13.08,15.62-16.4,3.43-1.28,11.63-1.62,12.53-4.63,2.73-35.13-8.1-74.5,14.64-104.67,10.89-14.44,27.1-24.28,44.5-28.84,1.38-.36,3.08.83,2.61-1.64h29.63ZM292.42,162.18c-26.6,3-49.64,27.29-51.33,53.95-1.3,20.58.72,42.86.42,63.59.84,1.43,2.3,1.68,3.86,1.6,35.24-2.43,74.49,3.07,109.26,0,2.44-.22,5.1-.38,5.08-3.5-2.39-24.71,5.22-60.51-6.15-82.84-11.53-22.63-35.68-35.67-61.13-32.8ZM221.44,299.42c-7.02,1.12-10.03,4.96-10.72,11.89,2,37.13-2.69,77.08-.04,113.88.61,8.46,2.27,11.86,11.31,12.87,53.62-.85,107.65,1.56,161.05-1.22,4.6-1.37,5.9-4.86,6.29-9.3,3.3-37.24-2.56-79.29,0-117.04-.29-7.84-5.76-10.69-12.87-11.3l-155.01.23Z"/>
      <path fill="#0078FC" d="M298.64,330.58c15.51-2.24,8.43,18.68,10.51,26.55.7,2.66,5.97,8.07,7.41,11.3,11.59,26.02-22.75,40.2-33.22,18.4-2.6-5.4-3.44-9.84-1.06-15.65,1.42-3.46,5.01-5.4,6.75-8.06,5.76-8.8-4.01-30.58,9.6-32.55Z"/>
    <defs>
        <radialGradient id="paint0_radial_440_36" cx="0" cy="0" r="1" gradientUnits="userSpaceOnUse" gradientTransform="translate(196 143.5) rotate(54.1675) scale(497.082)">
            <stop stop-color="white"/>
            <stop stop-color="#0078FC" offset="1"/>
        </radialGradient>
    </defs>
</svg>