<svg xmlns="http://www.w3.org/2000/svg" viewBox="0 0 720 720">
    <g>
        <circle cx="360" cy="360" r="360" fill="rgb(145,5,155)" />
        <g fill="rgb(250,250,250)">
            <path d="m 374 617 l -2 -362 l 113 0 c 96 0 110 2 113 17 c 4 19 -194 353 -210 358 c -7 3 -14 -5 -14 -13 z" />
            <path d="m 127 464 c -7 -2 -11 -12 -7 -21 c 8 -21 202 -354 214 -350 c 14 -3 11 63 11 188 l 0 187 l -106 0 c -58 1 -108 -1 -112 -4 z"></path>
        </g>
    </g>
    <g transform="scale(9)">
        <circle cx="16" cy="16" r="16" fill="#627EEA"/>
        <g fill="#FFF" fill-rule="nonzero">
            <path fill-opacity=".602" d="M16.498 4v8.87l7.497 3.35z"/>
            <path d="M16.498 4L9 16.22l7.498-3.35z"/>
            <path fill-opacity=".602" d="M16.498 21.968v6.027L24 17.616z"/>
            <path d="M16.498 27.995v-6.028L9 17.616z"/>
            <path fill-opacity=".2" d="M16.498 20.573l7.497-4.353-7.497-3.348z"/>
            <path fill-opacity=".602" d="M9 16.22l7.498 4.353v-7.701z"/>
        </g>
    </g>
</svg>