<svg xmlns="http://www.w3.org/2000/svg" viewBox="0 0 600 600" fill="none">
    <path d="M300 600C465.685 600 600 465.685 600 300C600 134.315 465.685 0 300 0C134.315 0 0 134.315 0 300C0 465.685 134.315 600 300 600Z" fill="url(#paint0_radial_440_36)"/>
    <g transform="matrix(0.3,0,0,0.3,0,0)">
        <path xmlns="http://www.w3.org/2000/svg" fill="white" d="M759.5,441.2h144c5.5,0,9.9,4.5,9.9,10v210.4c0,5.6,4.5,10,10,10h184.9c5.5,0,10-4.4,10-10V451.2   c0-5.5,4.4-10,10-10h143.9c5.5,0,10,4.5,10,10v210.4c0,5.6,4.4,10,10,10h176c5.6,0,10,4.5,10,10v143.6c0,5.6-4.4,10-10,10h-176   c-5.6,0-10,4.5-10,10v223.5c0,5.5,4.4,10,10,10h176c5.6,0,10,4.4,10,10v143.6c0,5.5-4.4,10-10,10h-176c-5.6,0-10,4.5-10,10v210.4   c0,5.5-4.5,10-10,10h-143.9c-5.6,0-10-4.5-10-10v-210.4c0-5.6-4.5-10-10-10H923.5c-5.5,0-10,4.5-10,10v210.4c0,5.5-4.4,10-9.9,10   h-144c-5.5,0-10-4.5-10-10v-210.4c0-5.6-4.4-10-10-10h-176c-5.6,0-10-4.5-10-10v-143.6c0-5.6,4.4-10,10-10h176c5.6,0,10-4.5,10-10   V845.2c0-5.5-4.4-10-10-10h-176c-5.6,0-10-4.4-10-10V681.6c0-5.5,4.4-10,10-10h176c5.6,0,10-4.4,10-10V451.2   C749.4,445.7,754,441.2,759.5,441.2L759.5,441.2z M1118.4,1068.8V845.2c0-5.5-4.5-10-10-10H923.5c-5.5,0-10,4.5-10,10v223.5   c0,5.5,4.5,10,10,10h184.9C1113.9,1078.8,1118.4,1074.2,1118.4,1068.8z"/>    </g>
    <defs>
        <radialGradient id="paint0_radial_440_36" cx="0" cy="0" r="1" gradientUnits="userSpaceOnUse" gradientTransform="translate(196 143.5) rotate(54.1675) scale(497.082)">
            <stop stop-color="#323638"/>
            <stop offset="1"/>
        </radialGradient>
    </defs>
</svg>