<svg xmlns="http://www.w3.org/2000/svg" width="600" height="600" viewBox="0 0 600 600" fill="none">
    <path d="M300 600C465.685 600 600 465.685 600 300C600 134.315 465.685 0 300 0C134.315 0 0 134.315 0 300C0 465.685 134.315 600 300 600Z" fill="url(#paint0_radial_440_36)"/>
    <path fill="white" d="M187.17,251.02c6.05-13.42,11.44-25.86,20.11-37.89,46.92-65.14,154.1-78.59,207.9-15.12,2.26,2.67,10.54,13.68,10.33,16.3-.06.8-.61,1.8-1.15,2.43l-30.76,20.8c-5.16,1.79-9.13-7.89-12.42-11.52-36.62-40.43-100.67-36.77-132.33,7.7-3.62,5.08-7.51,11.39-9.18,17.32h84.5c.11,0,1.5,1.39,1.5,1.5v30.5c-.98-.32-2.17,1-2.5,1h-93.5c-.28,6.87-1.43,13.6-1.04,20.54.12,2.22,1.2,12.46,2.54,12.46h94.5v30.5c0,.11-1.39,1.5-1.5,1.5h-84.5c19.41,40.43,59.64,61.95,104.21,49.71,14.57-4,30.06-13.66,39.76-25.24,2.29-2.74,7.23-12.13,9.75-12.31,4.64-.34,29.38,17.66,35.82,19.83,2.35,3.73-7.71,16.3-10.51,19.54-25.34,29.27-71.51,44.59-109.57,42.52-53.7-2.92-101.8-44.07-118.45-94.05h-69c-1.63-10.17-1.63-21.83,0-32h60c-.5-10.96-2.26-22.13,0-33h-59.5c-.11,0-1.5-1.39-1.5-1.5v-30c0-.11,1.39-1.5,1.5-1.5h65Z"/>
    <defs>
        <radialGradient id="paint0_radial_440_36" cx="0" cy="0" r="1" gradientUnits="userSpaceOnUse" gradientTransform="translate(196 143.5) rotate(54.1675) scale(497.082)">
            <stop stop-color="white"/>
            <stop stop-color="#007fbc" offset="1"/>
        </radialGradient>
    </defs>
</svg>