<svg viewBox="0 0 600 600" xmlns="http://www.w3.org/2000/svg">
    <path d="M300 600a300 300 0 1 0 0-600 300 300 0 0 0 0 600z" fill="#865FEE"/>
    <path d="M534 256c0-21-16-38-36-38h-63c-4-10-12-19-22-22v-14c0-20-16-36-36-36h-8c-14 0-26 8-32 20-6-12-18-20-32-20h-8c-19 0-35 15-36 33H154c-20 0-36 16-36 36v4c-12 3-22 13-26 25-15 5-26 18-26 35v14c0 16 10 29 24 34v92c0 20 16 36 36 36h32c14 0 26-8 32-19 3 1 6 1 9 1h32c3 0 5 0 8-1 6 11 18 19 32 19h32c8 0 15-2 20-6 6 4 13 7 21 7h32c20 0 36-16 36-36v-23h86c20 0 36-16 36-36v-61c0-6-2-11-5-16 3-5 5-10 5-16v-11z" fill="#111629"/>
    <path d="M377 389h-32c-5 0-8 4-8 8v22c0 5 4 8 8 8h32c5 0 8-4 8-8v-22c0-5-4-8-8-8z" fill="#fff"/>
    <path d="M502 270c2 0 4-2 4-4v-11c0-6-4-9-8-9h-80c-5 0-8-4-8-8v-8c0-5-4-8-8-8h-8c-5 0-8-4-8-8v-32c0-5-4-8-8-8h-8c-5 0-8 4-8 8v8c0 5-4 8-8 8h-32c-5 0-8-4-8-8v-8c0-5-4-8-8-8h-8c-5 0-8 4-8 8v17c0 5-4 8-8 8H154c-5 0-8 4-8 8v23c0 5-4 8-8 8h-12c-5 0-8 4-8 8v8c0 5-4 8-8 8h-8c-5 0-8 4-8 8v14c0 5 4 8 8 8h8c5 0 8 4 8 8v110c0 5 4 8 8 8h32c5 0 8-4 8-8v-43c0-5 4-9 9-9h7c5 0 9 4 9 9v25c0 5 4 8 8 8h32c5 0 8-4 8-8v-25c0-5 4-9 9-9h7c5 0 8 4 8 8v43c0 5 4 8 8 8h32c5 0 8-4 8-8v-46c0-4-3-6-6-6h-9c-5 0-8-4-8-8V254c0-5 4-8 8-8h8c5 0 8 4 8 8v81c0 5 4 8 8 8h8c5 0 8 4 8 8v8c0 5 4 8 8 8h154c5 0 8-4 8-8v-61c0-2-2-4-4-4-5 0-8-4-8-8v-8c0-5 4-8 8-8zm-59 8c0-5 4-8 8-8h8c5 0 8 4 8 8v8c0 5-4 8-8 8h-8c-5 0-8-4-8-8v-8zm-83-24c0-5 4-8 8-8h8c5 0 8 4 8 8v8c0 5-4 8-8 8h-8c-5 0-8-4-8-8v-8z" fill="#fff"/>
</svg>