<svg fill="none" viewBox="0 0 600 600" xmlns="http://www.w3.org/2000/svg">
    <radialGradient id="a" cx="0" cy="0" gradientTransform="rotate(54.2 -42.3 263.4) scale(497.082)" gradientUnits="userSpaceOnUse" r="1">
        <stop offset="0" stop-color="#eee809"/>
        <stop offset="1" stop-color="#cda727"/>
    </radialGradient>
    <path d="M300 600a300.2 300.2 0 00294.2-358.5A299.8 299.8 0 0050.6 133.3 300.2 300.2 0 00300 600z" fill="#e6cb23"/>
    <path d="M300 600a300 300 0 100-600 300 300 0 000 600z" fill="url(#a)" fill-opacity=".3"/>
    <g fill="#ffffff" transform="scale(5,5)">
        <path d="m71.61 33.87h.07c.73.13 1.44.29 2.1.47h.09c.71.19 1.4.4 2 .63h.07c.68.24 1.34.51 2 .79.66.3 1.3.63 1.9 1l1.21.72.26.16.15.1.78.49.34.23.21.14.63.43.4.28.17.13.59.42.43.33.09.06.61.48.52.41.6.49.5.43.58.51.5.44.56.53.48.45.54.54.43.44c.18.18.36.37.53.56l.09.09.35.37.42.47.24.27.26.3.44.52.24.29.21.25.71.9c.06.08.12.15.17.23.26.34.5.67.72 1l.17.25.21.31.21.3c1.64-5.35 1.6-9.91-.1-12.85a7.78 7.78 0 0 0 -5.68-3.74l-3.85-.68c-6.71-1.13-12.5-2.11-18-6-6.34-4.43-12.33-4.26-18.31.53 1 .06 2 .15 3 .24h.18.11c1 .11 2 .23 2.9.37h.25c1 .15 1.92.31 2.8.48h.2c1 .18 1.86.38 2.7.58h.14c.91.23 1.79.46 2.6.71h.08c.88.27 1.73.55 2.52.84s1.59.61 2.36.95h.08c.72.31 1.45.66 2.16 1"/>
        <path d="m76.35 36.92.42.34c.28.22.55.46.88.75l.14.12.28.26c.35.32.7.67 1 1l.07.08.09.08c.37.4.73.82 1.09 1.26l.18.23.12.15c.28.35.5.65.7.93l.27.4.07.1.57.89.31.54c.16.28.32.58.51.94l.06.12.21.41c.15.32.31.68.49 1.12a1.11 1.11 0 0 1 .07.16c0 .08.07.16.11.25.21.52.4 1 .57 1.58l.06.2a.83.83 0 0 0 0 .15c.14.46.26.89.37 1.29l.09.4v.2c.1.41.17.78.24 1.12s.08.44.11.66.12.75.16 1.14v.07c0 .2 0 .4.07.6 0 .36.07.76.11 1.26v.2.39 1.91s0 1.33-.09 2.06v.41a2.45 2.45 0 0 0 0 .27c0 .51-.1.93-.16 1.36 0 .2-.06.39-.09.59v.2c-.06.36-.13.79-.22 1.21l-.18.81c-.1.4-.2.79-.31 1.16s-.15.54-.23.8-.24.72-.39 1.15v.14c-.08.2-.15.41-.23.61-.16.41-.33.81-.5 1.18a2.44 2.44 0 0 1 -.1.24l-.18.42c-.21.44-.45.9-.74 1.44l-.07.14c0 .07-.07.13-.1.2-.19.34-.39.68-.61 1 .16-.16.31-.33.46-.49l.06-.07.19-.2.24-.25c.51-.57 1-1.16 1.5-1.73.61-.73 1.22-1.49 1.8-2.25.14-.17.26-.34.38-.51l.26-.34.2-.27c.28-.37.58-.76.85-1.14l.43-.63.24-.35.23-.33q.34-.48.66-1l.42-.67c.07-.12.15-.24.23-.36l.21-.34c.19-.3.39-.61.57-.91s.26-.46.39-.68.13-.24.2-.35l.18-.32c.18-.3.36-.61.52-.92s.25-.47.37-.71l.32-.63c.16-.3.32-.6.47-.91l.32-.69c0-.11.09-.22.14-.33l.19-.23c.15-.3.29-.61.41-.92s.19-.45.28-.68l.13-.33.06-.16c.11-.28.22-.55.32-.83l-.22-.36v-.06l-.3-.48-.34-.51-.11-.15-.29-.42-.37-.51-.17-.09c-.11-.15-.21-.3-.33-.44l-.34-.45-.17-.21-.32-.4c-.11-.14-.23-.28-.35-.41l-.2-.24-.29-.35-.38-.42-.15-.17-.39-.43c-.11-.13-.23-.25-.35-.37l-.27-.28-.35-.36-.38-.38-.27-.26-.35-.34-.4-.37-.28-.26-.38-.36-.42-.37-.31-.27-.32-.31-.43-.35-.34-.28-.33-.27-.43-.33-.36-.27-.33-.26-.48-.35-.35-.25-.32-.23-.54-.37-.33-.22-.3-.2-.68-.44-.27-.17-.23-.14c-.4-.25-.81-.49-1.2-.71s-1.1-.59-1.73-.87a2.17 2.17 0 0 0 -.35-.15l-.23-.1-.41-.17"/>
        <path d="m47.74 29.94-.74.76-.11.11-.82.85-.1.1-.91 1-.06.04-1 1.15c-.36.4-.73.84-1.14 1.33l-.25.3-.11.14c-.25.3-.5.61-.74.92l-.37.48-.66.89-.38.52c-.23.31-.44.62-.66.93l-.09.14-.23.33c-.29.43-.57.85-.83 1.27v.07l-.05.07c-.28.45-.57.92-.87 1.42l-.14.25-.12.2c-.18.33-.37.66-.56 1-.08.15-.16.29-.23.44v.09c-.17.31-.33.62-.49.93l-.28.55c-.16.32-.31.64-.46 1l-.09.19-.15.3c-.18.4-.36.82-.54 1.24l-.26.05a1.12 1.12 0 0 1 0 .13c-.2.46-.39 1-.58 1.45a2.6 2.6 0 0 0 -.1.25l-.06.17c-.13.35-.26.69-.38 1l-.18.53-.3.94c-.06.18-.11.36-.17.54l-.27 1v.15l-.09.35c-.1.36-.19.74-.29 1.16v.12a.75.75 0 0 0 0 .16c-.11.48-.21 1-.29 1.43a1.7 1.7 0 0 0 0 .22v.16l-.17 1c0 .13 0 .25-.05.38v.12c0 .31-.08.62-.11.92s0 .35-.05.52 0 .62-.07.92v.16.32 1.06a.86.86 0 0 1 0 .16v.15 1.35.18.14c0 .39 0 .71.06 1v.32.14c0 .29.05.57.09.85s0 .33.06.48.09.56.13.84v.12.33c.06.27.12.57.2.91v.14.19c.08.33.17.66.26 1-.07-.47-.14-1-.2-1.47 0 0 0-.09 0-.14v-.17c-.06-.57-.1-1.16-.14-1.81 0-.12 0-.23 0-.34v-.13q0-.69 0-1.32v-.63c0-.4 0-.83.05-1.29v-.16-.38c0-.64.09-1.23.16-1.8v-.14-.11c.06-.53.14-1.05.23-1.55l.09-.46v-.13c.08-.4.16-.81.26-1.22 0-.2.09-.4.14-.6.1-.43.23-.88.37-1.36 0-.05 0-.11 0-.17a1.55 1.55 0 0 0 .07-.23c.17-.55.36-1.12.57-1.69l.11-.27.06-.18c.18-.45.34-.86.51-1.24.08-.19.16-.37.25-.56.17-.37.34-.74.55-1.15l-.02-.16.18-.35c.31-.59.6-1.1.88-1.57s.71-1.12 1.15-1.76l.08-.11.09-.13c.36-.52.76-1 1.2-1.58l.25-.3c.41-.5.84-1 1.27-1.45l.2-.21.08-.09c.5-.51 1-1 1.39-1.37l.12-.11.11-.1c.44-.4.91-.8 1.37-1.19l.11-.09.15-.12c.44-.36.94-.73 1.5-1.13l.11-.08.3-.22c.48-.33 1-.66 1.51-1l.48-.29c.55-.33 1.06-.62 1.56-.89l.31-.16.17-.08c.53-.28 1-.52 1.52-.74l.48-.22c.48-.21 1-.42 1.53-.62l.16-.06.33-.13c.52-.19 1.07-.38 1.7-.57l.55-.17c.57-.17 1.16-.32 1.74-.46l.41-.09h.11c.67-.14 1.27-.26 1.83-.36h.23.15c.6-.1 1.21-.18 1.79-.24h.13.16c.6-.05 1.25-.09 2-.12h2c-.48-.18-.94-.34-1.4-.49h-.11-.09c-.51-.17-1-.33-1.64-.5h-.14l-.27-.08-1.86-.48h-.22-.15l-1.72-.37h-.15-.23c-.64-.13-1.32-.25-2-.36h-.29-.16l-1.96-.7h-.27c-.68-.08-1.4-.16-2.2-.23l-.53-.08c-.87-.08-1.61-.13-2.31-.17h-.95"/>
        <path d="m39.91 87 .46.07h.23l.45.06c.16 0 .33 0 .49.06h.39l.48.06h.5.43.48.53.48.46.6.51.4.65.52.4.92.71 1.66a35.25 35.25 0 0 0 19.27-5.47 28.6 28.6 0 0 0 13.46-24.1c0-.65 0-1.3 0-1.93a2.28 2.28 0 0 0 0-.26c0-.07 0-.14 0-.21 0-.46-.06-.94-.11-1.39 0-.11 0-.22 0-.33a2 2 0 0 1 0-.24v-.18c0-.34-.1-.7-.16-1a3 3 0 0 0 -.06-.32l-.06-.25v-.18c-.06-.33-.13-.66-.21-1 0-.12-.06-.24-.1-.36a2.17 2.17 0 0 0 -.07-.24v-.21c-.08-.28-.16-.57-.25-.85s-.37.27-.37.14l-.09-.24-.08-.23q-.12-.37-.27-.75c0-.13-.11-.26-.17-.39s-.07-.17-.11-.25l-.1-.24c-.1-.22-.19-.44-.3-.65s-.13-.26-.2-.39l-.13-.24-.12-.22c-.11-.21-.21-.42-.33-.61l-.24-.39-.15-.22-.14-.23c-.11-.18-.23-.38-.36-.56l-.28-.38-.17-.22-.15-.21-.39-.52-.33-.38-.18-.2-.17-.2q-.21-.26-.42-.48l-.37-.38-.2-.19-.19-.19c-.15-.15-.29-.3-.45-.44l-.41-.36-.21-.18-.29-.18-.47-.41-.43-.34-.23-.17-.22-.17-.5-.37-.51-.29-.25-.16-.24-.17-.51-.33-.59-.34-.24-.14-.25-.14-.49-.28h-.35l-.27-.05h-.35-.41-.32-.34-.4-.33l-.3-.39h-.4-.36-2.24-.39-.42-.34-.38-.43-.33-.4l-.44.06h-.34-.38l-.45.07-.33.06-.38.06-.43.08-.36.08-.38.07-.43.1-.36.08-.37.09-.44.12-.33.09-.4.1-.41.13-.38.11-.37.12-.42.14-.34.12-.4.14-.41.15-.36.14-.38.15-.4.17-.34.14-.39.17-.39.17-.35.17-.39.18-.36.18-.37.19-.38.2-.35.2-.38.2-.37.21-.35.22-.35.2-.37.24-.35.22-.33.22-.38.26-.32.23-.33.23c-.13.09-.26.18-.38.28a3.92 3.92 0 0 0 -.32.25l-.31.24-.38.29-.28.24-.32.27-.38.33-.28.25-.3.28-.37.34a3.7 3.7 0 0 1 -.28.28l-.29.3-.35.35-.24.26-.15.17-.14.41-.34.38-.25.3-.29.34-.31.38-.26.33-.27.35-.29.37-.3.44-.12.17c0 .07-.09.13-.13.19l-.22.31c-.25.38-.5.77-.73 1.15a32.9 32.9 0 0 0 -1.84 29.41c.28.66.59 1.32.92 2l.19.35.15.26.06.11c.2.38.42.77.64 1.14.09.15.2.3.29.45l.18.26.13.2c.18.28.36.57.56.84s.24.32.36.47l.19.25.14.18c.15.2.31.41.48.61m19.06-5.62a21.05 21.05 0 0 1 -17.77-9.62c-6.22-9.6-3.52-22.09 6.26-29a21 21 0 0 1 17.6-3.52 17.61 17.61 0 0 1 11.66 9.88c6.08 13.28 1.19 24.12-6.35 29a21.05 21.05 0 0 1 -11.4 3.26"/>
        <path d="m41.58 88.86a23.62 23.62 0 0 0 6.42 4.55c11.78 5.7 16.5 1.4 23.64-5.09 4.44-4 9.47-8.63 17.43-12.06 4.63-2 7.57-4.83 8.75-8.45 1.5-4.64-.21-9.54-2-12.89a.36.36 0 0 1 0 .09c0 .06-.05.13-.08.19-.13.32-.27.64-.41.95s-.37.87-.57 1.28l-.46 1-.65 1.28-.53 1c-.26.47-.53.94-.73 1.29l-.06.1-.52.88c-.26.44-.54.87-.82 1.31l-.13.2-.48.76c-.31.46-.65.94-.94 1.36l-.21.31-.41.59c-.37.51-.75 1-1.12 1.5l-.23.3-.33.45c-.61.78-1.21 1.53-1.8 2.24a53.28 53.28 0 0 1 -13.58 11.69 36.4 36.4 0 0 1 -17.3 5.61c-.94.07-1.89.1-2.82.1h-2.49-.48l-2.3-.1h-.37c-.78 0-1.47-.09-2.12-.15h-.18l-2.08-.21"/>
        <path d="m29.49 46.41h.09a63 63 0 0 1 -3.93 14c-3.4 7.67-3.93 13.77-1.56 18.13 2.11 3.89 6.64 6.58 13.46 8l-.17-.24-.11-.17c-.31-.44-.58-.85-.84-1.26l-.36-.59c-.25-.41-.49-.85-.74-1.31l-.1-.19-.18-.34c-.34-.67-.62-1.27-.87-1.84-.08-.11-.16-.21-.23-.32l-.13-.18-.13-.1a4.73 4.73 0 0 1 -.28-.39c-.09-.13-.18-.26-.26-.4l-.23-.35-.26-.41-.23-.4-.2-.38c-.08-.14-.16-.28-.23-.42l-.22-.44-.17-.37-.21-.44c-.07-.16-.13-.32-.19-.47l-.16-.4c-.06-.14-.12-.28-.17-.43s-.11-.31-.16-.47l-.07-.23c0-.07 0-.14-.08-.22a4.13 4.13 0 0 1 -.14-.42c-.05-.17-.1-.34-.14-.52l-.11-.39a3.45 3.45 0 0 1 -.12-.46c0-.18-.09-.37-.13-.55l-.09-.44-.09-.43c0-.19-.07-.39-.1-.58l-.07-.43c0-.14 0-.28-.06-.43s-.05-.4-.07-.61l-.05-.43c0-.14 0-.28 0-.43s0-.42 0-.63v-.43a3.11 3.11 0 0 1 0-.43c0-.22 0-.44 0-.67v-.85c0-.23 0-.47 0-.71v-.43c0-.13 0-.27 0-.4s0-.51.06-.77v-.18c0-.08 0-.16 0-.24s0-.25 0-.37.05-.5.08-.75v-.23a1.79 1.79 0 0 0 0-.23c0-.12 0-.25 0-.38s.08-.55.13-.82v-.19-.22l.06-.36.18-.94v-.12a1.7 1.7 0 0 0 0-.22c0-.11 0-.22.07-.33.07-.33.15-.66.24-1v-.1c0-.07 0-.14.05-.21s.05-.2.07-.3l.3-1.07v-.07l.06-.22a2.76 2.76 0 0 1 .08-.27c.1-.35.21-.69.33-1v-.12a1.46 1.46 0 0 0 .07-.19c0-.09 0-.19.08-.28l.4-1.11v-.06a1.46 1.46 0 0 0 .07-.19c0-.09.06-.18.1-.27.15-.4.31-.79.48-1.22a1.34 1.34 0 0 0 .07-.18 2.29 2.29 0 0 1 .1-.23c.18-.44.38-.89.55-1.27l.08-.17c0-.06.05-.12.08-.19.2-.44.42-.88.62-1.3a1 1 0 0 0 .07-.15l.09-.17c.24-.48.49-1 .7-1.35l.07-.13.07-.14c.27-.5.55-1 .76-1.35a.83.83 0 0 0 .07-.13l.08-.12c.24-.41.5-.86.85-1.4l.05-.09.07-.11c.26-.41.55-.86.91-1.39l.4-.21c.29-.42.61-.88 1-1.39l.06-.08.06-.09c.33-.45.68-.92 1.08-1.44l.08-.1c.37-.47.76-1 1.17-1.47.43-.52.86-1 1.28-1.5l.72-.8.18-.2.52-.57.17-.19 1.17-1.21c-12.75.2-14.08 7.05-15.9 16.51z"/>
    </g>
</svg>