<svg xmlns="http://www.w3.org/2000/svg" viewBox="0 0 720 720">
	<circle cx="360" cy="360" r="360" fill="#91059b" />
	<circle cx="360" cy="360" r="360" fill="url(#gradient)" fill-opacity=".3" />
	<g fill="#ffffff" transform="translate(111 104)">
		<path d="m262 432-1-253 79 0c67 0 77 1 79 12 3 13-136 247-147 251-5 2-10-4-10-9z" />
		<path d="m89 325c-5-1-8-8-5-15 6-15 141-248 150-245 10-2 8 44 8 132l0 131-74 0c-41 1-76-1-78-3z" />
	</g>
	<defs>
		<radialGradient id="gradient" cx="0" cy="0" gradientTransform="rotate(54.2 -42.3 263.4) scale(497.082)" gradientUnits="userSpaceOnUse" r="1">
			<stop offset="0" stop-color="#fcd9ff" />
			<stop offset="1" stop-color="#ce32d9" />
		</radialGradient>
	</defs>
</svg>
