<svg viewBox="0 0 600 600" xmlns="http://www.w3.org/2000/svg">
    <path d="M300 600a300 300 0 1 0 0-600 300 300 0 0 0 0 600z" fill="#26E99A"/>
    <g fill="#111629">
        <path d="M243.3552 157.5966H195.933c-6.5592 0-11.8758 5.3202-11.8758 11.8836v47.4576c0 6.5622-5.316 11.8824-11.874 11.8824h-47.808c-6.5586 0-11.8752 5.3208-11.8752 11.8842V359.385c0 6.5634 5.3166 11.8836 11.8752 11.8836h47.808c6.558 0 11.874 5.3208 11.874 11.8842v47.457c0 6.5628 5.3166 11.883 11.8758 11.883h47.4222c6.5586 0 11.8752-5.3202 11.8752-11.883v-47.457c0-6.5634 5.3166-11.8842 11.8746-11.8842h130.47V300.045h-130.47c-6.558 0-11.8746-5.3202-11.8746-11.8836V169.4802c0-6.5634-5.3166-11.8836-11.8752-11.8836Zm225.396 273.0096v-47.4564c0-6.5634-5.3166-11.8836-11.8746-11.8836l-59.3016.0024.0036 59.3376c0 6.5634 5.3166 11.8836 11.8752 11.8836h47.4228c6.558 0 11.8746-5.3202 11.8746-11.8836Z"/>
        <path d="M468.747 228.729c0-39.3366-31.8648-71.2248-71.1726-71.2248H338.277c-6.558 0-11.8746 5.3202-11.8746 11.8842v47.457c0 6.5634 5.3166 11.8836 11.8746 11.8836h47.4222c6.5586 0 11.8752 5.3202 11.8752 11.883v59.442h59.2968c6.5592 0 11.8758-5.3202 11.8758-11.883v-59.442Z"/>
    </g>
</svg>