<svg xmlns="http://www.w3.org/2000/svg" viewBox="0 0 600 600" fill="none">
  <defs>
    <radialGradient id="inner-gradient">
        <stop stop-color="#3f79ca"/>
        <stop stop-color="#182d4b" offset="1"/>
    </radialGradient>
  </defs>
  <g transform="matrix(1.2,0,0,1.2,0,0)">
      <path fill="#e8c787" d="M443.63,92.64c-9.84-12.09-20.77-23.23-32.68-33.29C367.52,22.64,311.34.5,250,.5s-117.73,22.22-161.21,59.06c-11.88,10.08-22.81,21.24-32.63,33.34C21.35,135.79.5,190.46.5,250s22.14,117.52,58.86,160.96c10.06,11.9,21.21,22.85,33.29,32.68,42.93,34.93,97.7,55.87,157.35,55.87s114.21-20.85,157.09-55.66c12.1-9.81,23.27-20.74,33.34-32.63,36.85-43.48,59.07-99.75,59.07-161.21s-20.93-114.42-55.87-157.35Z"/>
      <path fill="#1b2940" d="M444.02,92.33h0c-1.23-1.51-2.48-3.01-3.75-4.5-2.53-2.97-5.13-5.88-7.8-8.72-6.67-7.12-13.74-13.84-21.19-20.14h0C367.75,22.18,311.47,0,250,0s-117.96,22.26-161.53,59.18h0c-4.46,3.79-8.8,7.73-12.98,11.81-1.4,1.36-2.78,2.74-4.14,4.13-5.46,5.57-10.65,11.4-15.57,17.46C20.9,135.56,0,190.34,0,250s22.18,117.75,58.97,161.29c5.04,5.96,10.35,11.69,15.92,17.15,5.57,5.46,11.39,10.67,17.44,15.59,43.02,35,97.89,55.98,157.67,55.98s114.44-20.9,157.41-55.77h0c12.13-9.83,23.32-20.78,33.41-32.7,36.93-43.57,59.19-99.95,59.19-161.53s-20.98-114.65-55.98-157.67ZM426.9,397.61l-60.71-60.71c-9.39,12.54-20.76,23.5-33.66,32.44l60.93,60.93c-39.36,31.37-89.22,50.12-143.46,50.12s-104.32-18.83-143.72-50.33l60.92-60.92c-12.87-8.96-24.22-19.96-33.58-32.52l-60.72,60.72c-33.27-39.94-53.3-91.31-53.3-147.37s18.75-104.1,50.12-143.46l60.94,60.94c8.93-12.9,19.89-24.27,32.44-33.66l-60.71-60.71c39.98-33.4,91.45-53.5,147.61-53.5s107.42,20.02,147.36,53.29l-60.72,60.72c12.56,9.37,23.56,20.72,32.51,33.59l60.92-60.93c31.49,39.4,50.33,89.36,50.33,143.72s-20.1,107.64-53.51,147.62Z"/>
      <path fill="#162944" d="M347.93,226.04l-97.87-44.33-98,44.33L250.06,64l97.87,162.05Z"/>
      <path fill="#b2822d" d="M250.7,96.41l59.18,98.64-59.18-26.97v-71.67Z"/>
      <path fill="#e8c787" d="M190.11,195.04l60.59-98.64v71.65l-60.59,26.99Z"/>
      <path fill="#162944" d="M347.93,272.55l-97.87,163.46-98-163.46,98,44.72,97.87-44.72Z"/>
      <path fill="#b2822d" d="M250.7,403.59l29.59-49.32,29.59-49.32-59.18,26.99v71.65Z"/>
      <path fill="#e8c787" d="M190.11,304.96l60.59,98.64v-71.65l-60.59-26.99Z"/>
      <circle fill="#162944" cx="250" cy="250" r="55.77"/>
      <circle fill="url(#inner-gradient)" cx="250" cy="250" r="43"/>
  </g>
</svg>