<svg xmlns="http://www.w3.org/2000/svg" viewBox="0 0 600 600">
    <defs>
        <radialGradient id="gradient" cx="0" cy="0" r="1" gradientUnits="userSpaceOnUse" gradientTransform="translate(196 143.5) rotate(54.1675) scale(497.082)">
            <stop stop-color="white"/>
            <stop stop-color="#B0B0B0" offset="1"/>
        </radialGradient>
    </defs>
    <circle fill="url(#gradient)" cx="300" cy="300" r="300"/>
    <path d="M296.64,328.8l.82,18.44c0,12.51-3.23,22.33-9.68,29.47h99.76v44.3h-175.4v-44.3h16.9c6.23-1.65,9.52-7.3,9.84-16.96l.16-8.72-.82-22.23h-26.58v-42.66h25.27l-.98-35.6c0-22.42,6.69-39.95,20.1-52.59,13.4-12.63,31.53-18.95,54.39-18.95,24.5,0,43.61,6.29,57.34,18.87,13.73,12.58,20.59,29.65,20.59,51.19h-54.14c0-17.17-7.44-25.76-22.31-25.76-5.58,0-10.07,2.21-13.45,6.65-3.39,4.42-5.09,11.29-5.09,20.59l1.48,35.6h50.37v42.66h-48.57Z"/>
    <circle fill="#69e2dc" cx="476.11" cy="473.61" r="80.33"/>
    <path d="M451.79,516.76h-20.74v-86.3h20.74v86.3Z"/>
    <path d="M466.25,516.76v-86.3h31c11.1,0,19.55,2.04,25.34,6.1,5.79,4.07,8.68,9.98,8.68,17.72,0,4.47-1.03,8.28-3.08,11.44-2.06,3.16-5.08,5.49-9.07,6.99,4.5,1.19,7.96,3.4,10.37,6.64,2.41,3.24,3.62,7.19,3.62,11.85,0,8.46-2.68,14.81-8.03,19.05-5.35,4.25-13.29,6.41-23.8,6.49h-35.03ZM487.06,466.44h10.85c4.54-.04,7.78-.87,9.72-2.5,1.93-1.62,2.9-4.02,2.9-7.19,0-3.65-1.05-6.27-3.14-7.88-2.1-1.61-5.47-2.41-10.14-2.41h-10.19v19.97ZM487.06,480.07v20.68h13.63c3.75,0,6.64-.86,8.65-2.58,2.02-1.72,3.02-4.14,3.02-7.26,0-7.19-3.58-10.81-10.73-10.85h-14.58Z"/>

</svg>