<svg xmlns="http://www.w3.org/2000/svg" viewBox="0 0 600 600">
    <path d="M300 600C465.685 600 600 465.685 600 300C600 134.315 465.685 0 300 0C134.315 0 0 134.315 0 300C0 465.685 134.315 600 300 600Z" fill="#1A82FF"/>
    <path d="M300 600C465.685 600 600 465.685 600 300C600 134.315 465.685 0 300 0C134.315 0 0 134.315 0 300C0 465.685 134.315 600 300 600Z" fill="url(#paint0_radial_440_36)"/>
   <g transform="matrix(9.83,0,0,9.83,0,0)" fill="none" fill-rule="evenodd">
        <path fill="#FFF" d="M37.82 25.947c.217 1.083.33 2.272.33 3.556 0 6.91-3.242 11.036-8.671 11.036-2.265 0-4.176-.725-5.617-2.107l18.902-18.928c-.506-.898-1.083-1.737-1.733-2.505-.274-.322-.56-.623-.854-.916l.002-.002c-.039-.039-.08-.075-.118-.113-.087-.085-.172-.174-.26-.257l-.005.005C37.052 13.153 33.523 11.8 29.48 11.8c-4.674 0-8.66 1.798-11.529 5.2-2.697 3.197-4.182 7.638-4.182 12.502 0 3.232.659 6.274 1.89 8.89l5.485-5.49c-.19-1.041-.287-2.175-.287-3.4 0-3.181.646-5.753 1.921-7.645 1.496-2.219 3.813-3.392 6.702-3.392 2.248 0 4.12.71 5.543 2.03l-18.863 18.89c.518.943 1.117 1.82 1.791 2.62.135.16.275.313.415.465l.004.005c.161.176.327.347.495.514l.063.063c.054.053.106.11.16.16l.006-.004c2.746 2.615 6.301 3.995 10.386 3.995 4.676 0 8.67-1.797 11.552-5.198 2.712-3.203 4.206-7.643 4.206-12.503 0-3.283-.683-6.371-1.961-9.018l-5.456 5.462z" transform="translate(-924 -443) translate(250 175) translate(675 269)"/>
   </g>
    <defs>
        <radialGradient id="paint0_radial_440_36" cx="0" cy="0" r="1" gradientUnits="userSpaceOnUse" gradientTransform="translate(196 143.5) rotate(54.1675) scale(497.082)">
            <stop stop-color="#FFFFFFB0"/>
            <stop stop-color="#FFFFFF00" offset="1"/>
        </radialGradient>
    </defs>
</svg>