<svg  xmlns="http://www.w3.org/2000/svg" width="600" height="600" viewBox="0 0 600 600" fill="none">
   <g transform="matrix(0.3,0,0,0.3,0,0)">
        <g id="l7FDnbaiIp3TmPcwi5jGBjh" fill="rgb(22,30,83)" style="transform: none;">
            <g>
                <path id="p18y75QAyX" d="M810 1976 c-343 -72 -622 -310 -739 -628 -48 -131 -56 -177 -55 -353 0 -156 3 -178 28 -260 115 -380 391 -633 776 -711 113 -23 321 -15 435 16 169 46 321 134 446 259 389 390 389 1012 0 1402 -125 124 -282 216 -448 261 -100 26 -345 34 -443 14z m-9 -536 l22 -60 73 0 74 0 0 34 c0 19 -4 46 -10 60 -8 22 -7 26 8 26 13 0 24 -17 39 -57 l20 -58 64 -12 c84 -17 113 -29 179 -75 63 -43 118 -110 151 -183 18 -39 23 -69 24 -135 0 -75 -4 -93 -31 -151 -18 -37 -48 -84 -68 -106 -43 -48 -44 -69 -11 -151 30 -73 30 -74 9 -70 -9 2 -26 28 -38 58 -19 47 -26 55 -51 58 -16 2 -46 -2 -67 -9 -37 -12 -38 -13 -38 -61 0 -61 -21 -65 -44 -7 l-16 40 -109 -3 -109 -3 -149 394 c-81 216 -149 397 -151 402 -2 5 42 9 98 9 l102 0 -5 38 c-3 20 -8 47 -12 60 -5 16 -3 22 8 22 10 0 24 -22 38 -60z"></path>
                <path id="pHCdnt700" d="M650 1293 c0 -24 43 -153 117 -350 l118 -312 72 -6 c39 -4 76 -4 82 -1 6 4 11 20 11 36 0 25 -82 254 -210 588 l-32 82 -79 0 -79 0 0 -37z"></path>
                <path id="p8e8YbQFc" d="M870 1294 c0 -21 47 -161 116 -345 l117 -309 37 0 c20 0 51 5 69 11 27 10 31 16 31 47 0 20 -46 159 -112 334 l-112 298 -73 0 -73 0 0 -36z"></path>
                <path id="prShjAn28" d="M1080 1288 c1 -29 32 -124 93 -288 l93 -245 39 0 c39 0 41 2 69 59 26 52 30 69 30 155 1 131 -19 188 -93 262 -59 58 -141 99 -201 99 -29 0 -30 -2 -30 -42z"></path>
            </g>
        </g>
        <g id="l3UD2NJs5SduLsq2UaK8n1e" fill="rgb(255,187,81)" style="transform: none;">
            <g>
                <path id="pVurIdaXp" d="M700 1520 c0 -5 9 -32 19 -60 l19 -50 -109 0 c-60 0 -109 -3 -109 -7 1 -5 74 -201 164 -438 142 -375 165 -430 182 -427 10 2 58 6 106 9 l87 5 17 -41 16 -41 55 0 c53 0 55 1 49 23 -20 68 -19 71 15 84 39 15 42 13 67 -52 l20 -50 57 -3 c65 -4 64 -13 15 115 l-27 72 29 28 c16 15 46 62 66 102 36 73 37 77 37 190 0 99 -4 123 -23 166 -34 73 -89 140 -152 183 -66 46 -95 58 -179 75 l-64 12 -20 58 -21 57 -58 0 c-32 0 -58 -2 -58 -4 0 -2 6 -19 14 -37 32 -79 32 -79 -17 -79 l-44 0 -22 60 -22 60 -55 0 c-29 0 -54 -4 -54 -10z m114 -312 c117 -305 204 -544 198 -550 -4 -3 -27 -4 -52 -1 l-46 5 -117 312 c-64 171 -117 314 -117 319 0 4 22 7 49 7 l49 0 36 -92z m284 -206 c62 -165 112 -301 112 -305 0 -7 -70 -30 -75 -25 -5 5 -235 614 -235 622 0 3 19 6 43 6 l43 0 112 -298z m128 247 c133 -82 187 -269 117 -407 -15 -31 -32 -57 -38 -56 -9 1 -194 475 -195 501 0 15 66 -7 116 -38z"></path>
            </g>
        </g>
   </g>
   <path d="M300 600a300 300 0 100-600 300 300 0 000 600z" fill="url(#paint0_radial_440_36)" fill-opacity=".25" />

    <defs>
        <radialGradient id="paint0_radial_440_36" cx="0" cy="0" r="1" gradientUnits="userSpaceOnUse" gradientTransform="translate(196 143.5) rotate(54.1675) scale(497.082)">
            <stop stop-color="#ffffff"/>
            <stop offset="1"/>
        </radialGradient>
    </defs>
</svg>