<svg xmlns="http://www.w3.org/2000/svg" viewBox="0 0 600 600" fill="none">
    <path d="M300 600C465.685 600 600 465.685 600 300C600 134.315 465.685 0 300 0C134.315 0 0 134.315 0 300C0 465.685 134.315 600 300 600Z" fill="url(#background)"/>
    <g transform="matrix(2.353,0,0,2.353,0,0)">
    <path fill="#a4a4a4" d="m143.78,26.57c10.46,1.66,20.56,4.92,30.01,9.7l-6.3,12.46c10.23,5.18,19.32,12.28,26.78,20.84l10.52-9.18c6.96,7.99,12.62,16.96,16.81,26.65l-12.8,5.54c4.41,10.2,6.94,21.41,7.19,33.17l13.96-.3c.01.72.02,1.45.02,2.17,0,10.62-1.62,21.1-4.83,31.14l-13.29-4.24c-3.51,11.01-9.12,21.08-16.36,29.75l10.7,8.95c-6.78,8.12-14.74,15.11-23.66,20.79l-7.49-11.78c-9.47,6.03-20.15,10.29-31.6,12.36l2.47,13.75c-5.97,1.08-12.1,1.62-18.22,1.62-4.42,0-8.88-.29-13.24-.85l1.79-13.85c-11.58-1.5-22.45-5.24-32.18-10.78l-6.91,12.14c-9.18-5.23-17.47-11.82-24.65-19.6l10.25-9.46c-7.67-8.32-13.76-18.11-17.81-28.9l-13.06,4.9c-3.71-9.89-5.85-20.28-6.36-30.88l13.92-.68c-.07-1.44-.11-2.89-.11-4.35,0-10.26,1.77-20.09,4.98-29.25l-13.17-4.62c3.5-9.98,8.52-19.33,14.91-27.79l11.12,8.42c6.87-9.09,15.45-16.8,25.26-22.67l-7.15-11.98c9.1-5.44,18.94-9.41,29.24-11.8l3.15,13.61c6.43-1.49,13.12-2.3,20-2.3,4.73,0,9.38.38,13.91,1.1l2.18-13.78m-8.85-12.19l-1.66,10.52-.6,3.82c-1.66-.08-3.32-.13-4.97-.13-3.96,0-7.94.24-11.9.73l-.88-3.78-2.4-10.38-10.37,2.4c-11.38,2.64-22.25,7.02-32.3,13.03l-9.14,5.46,5.46,9.14,1.98,3.32c-4.51,3.4-8.71,7.16-12.57,11.28l-3.08-2.33-8.49-6.43-6.42,8.5c-7.06,9.34-12.6,19.67-16.47,30.69l-3.52,10.05,10.05,3.53,3.66,1.29c-1.28,5.5-2.09,11.09-2.42,16.74l-3.85.19-10.63.52.52,10.64c.57,11.71,2.93,23.18,7.03,34.11l3.74,9.97,9.97-3.74,3.62-1.36c2.54,5.05,5.5,9.85,8.87,14.4l-2.84,2.62-7.83,7.22,7.22,7.83c7.92,8.59,17.08,15.87,27.21,21.64l9.25,5.27,5.27-9.26,1.92-3.38c5.19,2.25,10.55,4.05,16.06,5.38l-.5,3.86-1.37,10.57,10.56,1.37c4.81.62,9.73.94,14.6.94,6.74,0,13.51-.6,20.1-1.79l10.48-1.89-1.88-10.48-.69-3.83c5.43-1.6,10.69-3.66,15.77-6.17l2.08,3.28,5.71,8.99,8.98-5.72c9.84-6.26,18.62-13.98,26.11-22.94l6.83-8.17-8.17-6.83-2.97-2.48c3.15-4.71,5.87-9.66,8.16-14.83l3.69,1.18,10.14,3.24,3.24-10.15c3.54-11.09,5.33-22.66,5.33-34.38,0-.8,0-1.6-.03-2.39l-.22-10.66-10.65.23-3.87.08c-.72-5.62-1.91-11.14-3.58-16.53l3.56-1.54,9.77-4.23-4.23-9.78c-4.63-10.71-10.87-20.61-18.56-29.42l-7-8.03-8.02,7-2.92,2.55c-4.15-3.84-8.6-7.31-13.33-10.38l1.75-3.47,4.81-9.51-9.5-4.81c-10.44-5.28-21.6-8.89-33.15-10.72l-10.52-1.66h0Z"/>
    <polygon fill="#e92c2c" points="158.3 135.57 127.74 153.51 127.74 153.52 127.74 153.51 97.21 135.57 127.74 178.37 127.74 178.37 127.74 178.37 158.3 135.57"/>
    <polygon fill="#e92c2c" class="cls-3" points="127.74 147.77 127.74 147.76 127.74 147.76 127.74 147.76 127.74 147.77 158.28 129.81 158.28 129.81 158.28 129.81 127.74 79.42 127.74 79.42 127.74 79.42 97.21 129.81 97.21 129.81 97.21 129.81 127.74 147.77"/>
    <path fill="#e92c2c" d="m106.03,187.1c-33.22-11.93-50.25-49-37.9-81.8,6.39-17.89,20.44-31.53,37.9-37.92,1.7-.85,2.56-2.13,2.56-4.26v-5.96c0-1.7-.85-2.98-2.56-3.41-.43,0-1.28,0-1.7.43-40.46,12.78-62.6,55.81-49.82,96.29,7.67,23.86,25.98,42.18,49.82,49.85,1.7.85,3.41,0,3.83-1.7.43-.43.43-.85.43-1.7v-5.96c0-1.28-1.28-2.98-2.56-3.83Zm45.14-132.93c-1.7-.85-3.41,0-3.83,1.7-.43.43-.43.85-.43,1.7v5.96c0,1.7,1.28,3.41,2.56,4.26,33.22,11.93,50.25,49,37.9,81.8-6.39,17.89-20.44,31.53-37.9,37.92-1.7.85-2.56,2.13-2.56,4.26v5.96c0,1.7.85,2.98,2.56,3.41.43,0,1.28,0,1.7-.43,40.45-12.78,62.6-55.81,49.82-96.29-7.67-24.29-26.4-42.61-49.82-50.27Z"/>
    </g>
    <defs>
        <radialGradient id="background" cx="0" cy="0" r="1" gradientUnits="userSpaceOnUse" gradientTransform="translate(196 143.5) rotate(54.1675) scale(497.082)">
            <stop stop-color="#323638"/>
            <stop offset="1"/>
        </radialGradient>
    </defs>
</svg>