<svg xmlns="http://www.w3.org/2000/svg" width="600" height="600" viewBox="0 0 600 600" fill="none">
    <path d="M300 600C465.685 600 600 465.685 600 300C600 134.315 465.685 0 300 0C134.315 0 0 134.315 0 300C0 465.685 134.315 600 300 600Z" fill="url(#paint0_radial_440_36)"/>
    <g transform="matrix(3.278,0,0,3.278,0,0)">
        <path d="M115.316 43L45 141.992H66.5885L137.269 43H115.316Z" fill="white"/>
        <path d="M68.8375 43L89.5265 72.1696L78.7322 88.0804L46.7992 43H68.8375Z" fill="url(#paint1_linear)"/>
        <path d="M117.411 142L94.4737 109.737L105.268 94.2679L139 142H117.411Z" fill="url(#paint2_linear)"/>
    </g>
    <defs>
        <radialGradient id="paint0_radial_440_36" cx="0" cy="0" r="1" gradientUnits="userSpaceOnUse" gradientTransform="translate(196 143.5) rotate(54.1675) scale(497.082)">
            <stop stop-color="#323638"/>
            <stop offset="1"/>
        </radialGradient>
        <linearGradient id="paint1_linear" x1="63.8901" y1="49.1875" x2="92.8951" y2="84.8205" gradientUnits="userSpaceOnUse">
            <stop stop-color="white"/>
            <stop offset="1" stop-color="white" stop-opacity="0.55"/>
        </linearGradient>
        <linearGradient id="paint2_linear" x1="122.359" y1="134.487" x2="86.7873" y2="85.6863" gradientUnits="userSpaceOnUse">
            <stop stop-color="#6966FF"/>
            <stop offset="1" stop-color="#6966FF" stop-opacity="0.36"/>
        </linearGradient>
    </defs>
</svg>