<svg xmlns="http://www.w3.org/2000/svg" viewBox="0 0 600 600" fill="none">
    <path d="M300 600C465.685 600 600 465.685 600 300C600 134.315 465.685 0 300 0C134.315 0 0 134.315 0 300C0 465.685 134.315 600 300 600Z" fill="url(#paint0_radial_440_36)"/>
    <g transform="matrix(2,0,0,2,0,0)">
        <path fill-rule="evenodd" clip-rule="evenodd" d="M231.076 105.316L214.021 88.1132L204.738 97.5434C204.701 97.5066 204.664 97.4698 204.628 97.4329L197.076 105.058L150.625 152.135L121.229 122.335C115.151 128.67 111.136 136.996 110.252 146.205L150.625 187.13L196.303 140.827C196.892 143.774 197.187 146.831 197.187 149.962C197.187 175.969 176.005 197.15 149.999 197.15C123.992 197.15 102.811 175.969 102.811 149.962C102.811 123.955 123.992 102.774 149.999 102.774C160.681 102.774 170.554 106.347 178.473 112.352L198.697 91.8337C185.509 80.7827 168.528 74.0784 149.999 74.0784C108.189 74.0784 74.1519 108.116 74.1519 149.925C74.1519 191.772 108.189 225.772 149.999 225.772C191.808 225.772 225.846 191.735 225.846 149.925C225.846 138.432 223.267 127.565 218.699 117.804L231.076 105.316Z" fill="white"/>    </g>
    <defs>
        <radialGradient id="paint0_radial_440_36" cx="0" cy="0" r="1" gradientUnits="userSpaceOnUse" gradientTransform="translate(196 143.5) rotate(54.1675) scale(497.082)">
            <stop stop-color="#323638"/>
            <stop offset="1"/>
        </radialGradient>
    </defs>
</svg>