<svg xmlns="http://www.w3.org/2000/svg" viewBox="0 0 600 600">
    <defs>
        <linearGradient id="c" x1="0.907" y1="0.227" x2="0.163" y2="0.853" gradientUnits="objectBoundingBox">
            <stop offset="0" stop-color="#b6509e"/>
            <stop offset="1" stop-color="#2ebac6"/>
        </linearGradient>
        <radialGradient id="paint0_radial_701_33" cx="0" cy="0" r="1" gradientUnits="userSpaceOnUse" gradientTransform="translate(13.0667 9.56667) rotate(54.1675) scale(33.1388)">
            <stop offset="0.230743" stop-color="white"/>
            <stop offset="1" stop-color="#D6D9DF"/>
        </radialGradient>
        <filter id="blur" color-interpolation-filters="linear" x="-50%" y="-50%" width="200%" height="200%">
            <feGaussianBlur in="SourceGraphic" stdDeviation="36"/>
        </filter>
        <mask id="circle">
            <circle cx="300" cy="300" r="300" fill="white"/>
        </mask>
    </defs>
    <g mask="url(#circle)" filter="url(#blur)" transform="translate(240 240) rotate(180 180 180)">
        <rect x="-360" width="660" height="660" fill="#042977"/>
        <rect x="300" width="360" height="660" fill="#ef4545"/>
        <polygon points="0,0, 600,0, 600,120, 300,300, 0,120" fill="#fbbe25"/>
    </g>
    <path d="M20 40C31.0457 40 40 31.0457 40 20C40 8.95433 31.0457 0 20 0C8.95433 0 0 8.95433 0 20C0 31.0457 8.95433 40 20 40Z" fill="url(#paint0_radial_701_33)" transform="matrix(12,0,0,12,60,60)" />
    <path d="M378.1 341.6c0-40.8-24.8-54.5-72.8-61.2-35.5-5-42.3-13.5-42.3-30 0-16.6 12-26.8 35-26.8 20.9 0 33 7.3 37.9 24a8.4 8.4 0 003.2 4.7 8.8 8.8 0 005.3 1.8h18.3c1.3 0 2.4-.1 3.5-.7a8.1 8.1 0 004.7-8.7C365 218 347 202 318.9 197v-28a8.7 8.7 0 00-8.7-8.8h-17.5a8.7 8.7 0 00-8.7 8.7V196c-35 4.9-57 28-57 57.6 0 38.3 23.2 53.2 72 59.8 33.2 5.4 42.6 12.6 42.6 31.4s-16 31.5-38.6 31.5c-30.5 0-40.8-13.3-44.3-30.6a9 9 0 00-3-5 8.6 8.6 0 00-5.5-2h-20c-1.1 0-2.4.2-3.4.6-1.1.6-2 1.3-2.9 2.2a8.1 8.1 0 00-1.8 6.6c5 29.1 23.7 50.5 61.9 55.6v27.6a8.7 8.7 0 008.7 8.8h17.5a8.7 8.7 0 008.7-8.8v-27.8c36.2-5.6 59.2-30.6 59.2-61.9z" fill="url(#c)"/>
</svg>