<svg xmlns="http://www.w3.org/2000/svg" viewBox="0 0 600 600">
  <defs>
    <radialGradient id="gradient-2" cx="0" cy="0" r="1" gradientUnits="userSpaceOnUse" gradientTransform="translate(196 143.5) rotate(54.1675) scale(497.082)">
      <stop stop-color="white"/>
      <stop offset="1" stop-color="#f0b90b"/>
    </radialGradient>
  </defs>
  <g><ellipse fill="url(#gradient-2)" cx="300" cy="300" rx="300"/>
    <path fill="white" d="M100.24,116.69c-47.73,50.53-74.25,117.24-74.15,186.52-.1,65.99,23.97,129.76,67.72,179.44l17.78-17.65c-38.66-44.88-59.86-102.01-59.77-161.06-.09-62.7,23.81-123.09,66.86-168.96l-18.43-18.29h-.01ZM471.98,485.77c-46.2,42.74-107.03,66.47-170.18,66.38-62.35.09-122.47-23.04-168.47-64.83l-17.66,17.53c50.62,46,116.78,71.48,185.4,71.38,69.78.09,136.97-26.25,187.87-73.65l-16.96-16.84h0ZM510.53,480.12l-17.01-16.89c37.72-44.62,58.36-101.03,58.28-159.29,0-64.45-24.73-123.15-65.3-167.28l17.67-17.53c46.33,50.26,71.98,115.94,71.88,184.07.09,64.84-23.15,127.57-65.53,176.9h0ZM141.35,113.58l-18.47-18.34c49.68-42.09,112.87-65.16,178.17-65.07,66.47-.1,130.72,23.8,180.76,67.25l-17.78,17.65c-45.2-38.38-102.75-59.43-162.23-59.34-58.67-.09-115.49,20.4-160.43,57.85h-.01Z"/>
    <path fill="#76808f" d="M299.7,128.53v127.69l-106.8,48.16,106.8-175.86h0Z"/>
    <path fill="#76808f" d="M299.7,256.2v110.9l-106.8-62.74s106.8-48.16,106.8-48.16ZM299.7,389.16v86.16l-106.8-148.9,106.8,62.74ZM299.7,128.52v127.69l106.8,48.17s-106.8-175.86-106.8-175.86Z"/>
    <path fill="#76808f" d="M299.7,256.2v110.9l106.8-62.74s-106.8-48.16-106.8-48.16ZM299.7,389.16v86.16l106.8-148.9s-106.8,62.74-106.8,62.74Z"/>
  </g>
</svg>