<svg xmlns="http://www.w3.org/2000/svg" width="600" height="600" viewBox="0 0 600 600" fill="none">
    <path d="M300 600C465.685 600 600 465.685 600 300C600 134.315 465.685 0 300 0C134.315 0 0 134.315 0 300C0 465.685 134.315 600 300 600Z" fill="url(#paint0_radial_440_36)"/>
    <g transform="matrix(1.75943237931,0,0,1.75943237931,50.37,51.5)" fill="none">
        <g>
            <g>
                <path fill="#FFFFFF" d="M145.03,88.34c17.93,1.6,32.04,16.45,32.48,34.69l27.51,11.43l-14.34-23.38l30.49-30.49l-18.22-18.22
				L176.83,88.5l-31.79-51.84V88.34z"/>
                <path fill="#FFFFFF" d="M177.04,129.82c-2.64,15.88-15.76,28.21-32.01,29.67v18.88l60.54-36.69L177.04,129.82z"/>
                <path fill="#FFFFFF" d="M106.58,129.82l-28.53,11.85l60.54,36.69v-18.88C122.34,158.03,109.22,145.7,106.58,129.82z"/>
                <polygon fill="#FFFFFF" points="204.89,160.92 145.03,197.2 145.03,245.25 169.66,210.54 195.37,236.25 213.59,218.03 
				184.79,189.23 			"/>
                <polygon fill="#FFFFFF" points="138.59,197.2 78.73,160.92 98.83,189.23 70.03,218.03 88.25,236.25 113.96,210.55 138.59,245.24 			
				"/>
                <path fill="#FFFFFF" d="M78.6,134.47l27.51-11.43c0.44-18.24,14.55-33.09,32.48-34.69V36.66L106.8,88.5L80.67,62.37L62.45,80.6
				l30.49,30.49L78.6,134.47z"/>
            </g>
            <path fill="#FFFFFF" d="M143.07,119.81L143.07,119.81c-8.83-2.71-8.83-4.21-8.83-5.42c0-1.68,2.54-4,7.31-4
			c2.82,0,7.56,0.7,7.56,5.42h8.59c0-8.38-6.49-14.01-16.15-14.01c-10.33,0-15.9,6.49-15.9,12.59c0,8.34,7.32,11.3,14.84,13.62v0
			c8.83,2.71,8.88,4.23,8.88,5.44c0,1.68-2.54,4-7.31,4c-2.83,0-7.56-0.7-7.56-5.42h-8.59c0,8.38,6.49,14.01,16.15,14.01
			c10.33,0,15.9-6.49,15.9-12.59C157.97,125.1,150.6,122.12,143.07,119.81z"/>
        </g>
    </g>
    <defs>
        <radialGradient id="paint0_radial_440_36" cx="0" cy="0" r="1" gradientUnits="userSpaceOnUse" gradientTransform="translate(196 143.5) rotate(54.1675) scale(497.082)">
            <stop stop-color="#323638"/>
            <stop offset="1"/>
        </radialGradient>
    </defs>
</svg>