<svg fill="none" width="600" height="600" viewBox="0 0 600 600" xmlns="http://www.w3.org/2000/svg">
    <radialGradient id="a" cx="0" cy="0" gradientTransform="rotate(54.2 -42.3 263.4) scale(497.082)" gradientUnits="userSpaceOnUse" r="1">
        <stop offset="0" stop-color="#96BEDC"/>
        <stop offset="1" stop-color="#2D374B"/>
    </radialGradient>
    <path d="M300 600a300.2 300.2 0 00294.2-358.5A299.8 299.8 0 0050.6 133.3 300.2 300.2 0 00300 600z" fill="#bcddf8"/>
    <path d="M300 600a300 300 0 100-600 300 300 0 000 600z" fill="url(#a)" fill-opacity=".3"/>
    <g transform="matrix(4.20,0,0,4.20,55,49.88)">
        <path d="M70.2782 56.0137L77.2807 44.1314L96.1555 73.5295L96.1645 79.1715L96.103 40.3485C96.0583 39.3995 95.5543 38.5314 94.7504 38.0194L60.7687 18.4725C59.9742 18.0817 58.9657 18.0862 58.1722 18.4849C58.065 18.5383 57.9641 18.5968 57.8682 18.6607L57.7496 18.7351L24.7651 37.8493L24.6373 37.9074C24.4727 37.983 24.3061 38.0793 24.1502 38.191C23.5247 38.6394 23.1095 39.3026 22.9751 40.0466C22.9549 40.1594 22.94 40.274 22.9331 40.3901L22.985 72.0271L40.5658 44.7773C42.7795 41.1641 47.6019 40.0003 52.0789 40.0635L57.3332 40.2022L26.3735 89.8528L30.023 91.9537L61.3534 40.2526L75.2016 40.2024L43.952 93.2082L56.9746 100.699L58.5305 101.593C59.1886 101.861 59.9646 101.874 60.6282 101.635L95.0875 81.6649L88.4994 85.4825L70.2782 56.0137ZM72.9497 94.4938L59.7969 73.8504L67.826 60.2259L85.0999 87.4526L72.9497 94.4938Z" fill="#2D374B"/>
        <path d="M59.7969 73.8503L72.9495 94.4938L85.0999 87.4524L67.8258 60.2257L59.7969 73.8503Z" fill="#28A0F0"/>
        <path d="M96.1646 79.1714L96.1556 73.5293L77.2808 44.1312L70.2783 56.0135L88.4993 85.4821L95.0874 81.6645C95.7335 81.1395 96.1245 80.3694 96.1656 79.5384L96.1646 79.1714Z" fill="#28A0F0"/>
        <path d="M17.0698 84.4919L26.3732 89.8528L57.3327 40.2024L52.0784 40.0637C47.6014 40.0005 42.7788 41.1643 40.5653 44.7775L22.9845 72.0273L17.0698 81.1149V84.4919V84.4919Z" fill="white"/>
        <path d="M75.2016 40.2024L61.3533 40.2526L30.0229 91.9537L40.9739 98.2588L43.9519 93.2082L75.2016 40.2024Z" fill="white"/>
        <path d="M102 40.1311C101.884 37.2349 100.316 34.5837 97.86 33.0402L63.4327 13.2419C61.0031 12.0186 57.9679 12.017 55.5339 13.2412C55.2461 13.3863 22.0543 32.6362 22.0543 32.6362C21.5949 32.8566 21.1524 33.1189 20.7362 33.4169C18.5436 34.9883 17.2071 37.4303 17.0698 40.1132V81.1149L22.9845 72.0272L22.9328 40.3903C22.9397 40.2746 22.9542 40.1607 22.9748 40.0484C23.1086 39.304 23.5242 38.64 24.1499 38.1912C24.306 38.0795 58.0649 18.5385 58.1721 18.4849C58.9656 18.0864 59.9741 18.0817 60.7686 18.4725L94.7503 38.019C95.5542 38.531 96.0582 39.3991 96.1029 40.3481V79.5384C96.0619 80.3694 95.7333 81.1395 95.0872 81.6645L88.4991 85.4821L85.0997 87.4522L72.9496 94.4936L60.6279 101.634C59.9643 101.874 59.1883 101.86 58.5302 101.593L43.9517 93.208L40.9736 98.2588L54.0748 105.802C54.5081 106.048 54.894 106.267 55.2108 106.444C55.7012 106.719 56.0355 106.903 56.1535 106.961C57.0847 107.413 58.4245 107.676 59.6318 107.676C60.7387 107.676 61.8181 107.473 62.8394 107.073L98.6287 86.3465C100.683 84.7548 101.891 82.3546 102 79.7545V40.1311Z" fill="#96BEDC"/>
    </g>
</svg>