<svg xmlns="http://www.w3.org/2000/svg" viewBox="0 0 600 600" fill="none">
    <circle cx="300" cy="300" r="300" fill="#bdd1fc" />
    <circle cx="300" cy="300" r="300" fill="url(#cbbtc_gradient)" fill-opacity="0.3" />
    <g fill="#0051ff">
        <path d="M479 135.1l-15.5 15.6c77 84.2 77 213.4 0 297.6L479 464a242.8 242.8 0 000-329.2zM151.3 136.5c84.3-77.1 213.4-77.1 297.7 0l15.5-15.6a242.8 242.8 0 00-329.2 0zM136.8 448.5c-77-84.2-77-213.3 0-297.6l-15.5-15.5a242.8 242.8 0 00-.1 329.2zM448.8 462.9c-84.2 77-213.4 77-297.6 0l-15.6 15.6a242.8 242.8 0 00329.2 0z" />
        <path d="M185.42 297.21l114.14 67.52V107.87zm114.14-189.34v256.86l114.03-67.52zM185.42 318.93L299.56 479.7v-93.34zm114.14 67.42v93.34L413.7 318.93z" />
        <path d="M299.56 245.37L185.42 297.2l114.14 67.52 114.03-67.52z" />
        <path d="M185.42 297.21l114.14 67.52V107.87zm114.14-189.34v256.86l114.03-67.52zM185.42 318.93L299.56 479.7v-93.34zm114.14 67.42v93.34L413.7 318.93z" />
        <path d="M299.56 245.37L185.42 297.2l114.14 67.52 114.03-67.52z" />
    </g>
    <radialGradient id="cbbtc_gradient" cx="0" cy="0" gradientTransform="rotate(54.2 -42.3 263.4) scale(497.082)" gradientUnits="userSpaceOnUse" r="1">
        <stop offset="0" stop-color="#d9e5ff"/>
        <stop offset="1" stop-color="#3267d9"/>
    </radialGradient>
</svg>
