<svg xmlns="http://www.w3.org/2000/svg" viewBox="0 0 40 40" fill="none">
    <path d="M20 40C31.0457 40 40 31.0457 40 20C40 8.95433 31.0457 0 20 0C8.95433 0 0 8.95433 0 20C0 31.0457 8.95433 40 20 40Z" fill="url(#paint0_radial_701_33)"/>
    <g transform="matrix(0.06666666666,0,0,0.06666666666,0,0)">
        <path d="M300 600c165.69 0 300-134.31 300-300S465.69 0 300 0 0 134.31 0 300s134.31 300 300 300z" fill="#D6D9DF" fill-opacity=".25"/>
    </g>
    <g transform="matrix(1,0,0,1,1.7,0.5)">
        <path d="M18.8832 6.78125L18.7147 7.35428V23.9808L18.8832 24.149L26.589 19.5871L18.8832 6.78125Z" fill="#6B6B6B"/>
        <path d="M18.8832 6.78125L11.1771 19.5871L18.8832 24.149V16.079V6.78125Z" fill="#A2A2A2"/>
        <path d="M18.8832 25.6104L18.7882 25.7263V31.649L18.8832 31.9265L26.5937 21.0508L18.8832 25.6104Z" fill="#4F4E4E"/>
        <path d="M18.8832 31.9265V25.6104L11.1771 21.0508L18.8832 31.9265Z" fill="#A2A2A2"/>
        <path d="M18.8832 24.1491L26.589 19.5872L18.8832 16.0791V24.1491Z" fill="#797979"/>
        <path d="M11.1771 19.5872L18.8832 24.1491V16.0791L11.1771 19.5872Z" fill="#D4D4D4"/>
        <g style="mix-blend-mode:overlay">
            <path d="M18.8832 6.78125L18.7147 7.35428V23.9808L18.8832 24.149L26.5891 19.5871L18.8832 6.78125Z" fill="#ACE730"/>
            <path d="M18.8832 6.78125L11.1771 19.5871L18.8832 24.149V16.079V6.78125Z" fill="#ACE730"/>
            <path d="M18.8832 25.6104L18.7882 25.7263V31.649L18.8832 31.9265L26.5938 21.0508L18.8832 25.6104Z" fill="#ACE730"/>
            <path d="M18.8832 31.9265V25.6104L11.1771 21.0508L18.8832 31.9265Z" fill="#ACE730"/>
            <path d="M18.8832 24.1491L26.589 19.5872L18.8832 16.0791V24.1491Z" fill="#ACE730"/>
            <path d="M11.1771 19.5872L18.8832 24.1491V16.0791L11.1771 19.5872Z" fill="#ACE730"/>
        </g>
    </g>
    <defs>
        <radialGradient id="paint0_radial_701_33" cx="0" cy="0" r="1" gradientUnits="userSpaceOnUse" gradientTransform="translate(13.0667 9.56667) rotate(54.1675) scale(33.1388)">
            <stop offset="0.230743" stop-color="white"/>
            <stop offset="1" stop-color="#D6D9DF"/>
        </radialGradient>
    </defs>
</svg>