<svg xmlns="http://www.w3.org/2000/svg" width="600" height="600" viewBox="0 0 600 600" fill="none">
    <path d="M300 600C465.685 600 600 465.685 600 300C600 134.315 465.685 0 300 0C134.315 0 0 134.315 0 300C0 465.685 134.315 600 300 600Z" fill="url(#paint0_radial_440_36)"/>
    <g transform="matrix(1.67788933755,0,0,1.67788933755,60,62)">
        <path d="M219.51,77.16l-19.74-19.74l-22.39,22.39c-8.17-4.4-17.83-6.77-28.06-6.77c-10.71,0-20.87,2.42-29.38,6.91   L97.41,57.42L77.67,77.16l22.46,22.46c-3.28,6.42-5.01,13.69-5.01,21.48v108.91h27.92v-58.35h26.27c15.9,0,28.64-4.04,37.87-12.01   c6.91-5.97,15.15-17.2,15.15-36.82c0-8.42-1.85-16.28-5.35-23.16L219.51,77.16z M149.32,143.74h-26.27V121.1   c0-19.18,21.89-20.15,26.27-20.15c4.19,0,25.1,1.05,25.1,21.88C174.42,133.69,171.38,143.74,149.32,143.74z" fill="white" />
    </g>
    <defs>
        <radialGradient id="paint0_radial_440_36" cx="0" cy="0" r="1" gradientUnits="userSpaceOnUse" gradientTransform="translate(196 143.5) rotate(54.1675) scale(497.082)">
            <stop stop-color="#323638"/>
            <stop offset="1"/>
        </radialGradient>
    </defs>
</svg>