<svg width="600" height="600" viewBox="0 0 600 600" fill="none" xmlns="http://www.w3.org/2000/svg">
<g transform="matrix(0.7614,0,0,0.7614,0,0)">
<path d="M393.612 7.11909H393.627C607.085 7.11909 780.126 180.161 780.126 393.618V393.633C780.126 607.091 607.085 780.133 393.627 780.133H393.612C180.154 780.133 7.11274 607.091 7.11274 393.633V393.618C7.11274 180.161 180.154 7.11909 393.612 7.11909Z" fill="white" stroke="#111111" stroke-width="14.2382"/>
<path d="M393.627 0H393.612C176.223 0 -0.00634766 176.229 -0.00634766 393.618V393.633C-0.00634766 611.023 176.223 787.252 393.612 787.252H393.627C611.016 787.252 787.245 611.023 787.245 393.633V393.618C787.245 176.229 611.016 0 393.627 0Z" fill="url(#paint0_radial_1178_6223)"/>
<path d="M393.612 7.2092H393.627C607.035 7.2092 780.036 180.211 780.036 393.618V393.633C780.036 607.041 607.035 780.042 393.627 780.042H393.612C180.204 780.042 7.20285 607.041 7.20285 393.633V393.618C7.20285 180.211 180.204 7.2092 393.612 7.2092Z" stroke="url(#paint1_linear_1178_6223)" stroke-width="14.4184"/>
<path fill-rule="evenodd" clip-rule="evenodd" d="M307.489 210.558H299.101L293.663 216.945L153.271 381.845L143.249 393.616L153.271 405.388L293.663 570.289L299.1 576.676H307.489H560.244H578.402V558.518V453.686H542.085V540.359H347.198L463.84 405.495L474.114 393.616L463.84 381.738L347.198 246.874H542.085V333.547H578.402V228.716V210.558H560.244H307.489ZM307.596 256.601L190.944 393.617L307.596 530.632L426.099 393.617L307.596 256.601Z" fill="white"/>
</g>
<defs>
<radialGradient id="paint0_radial_1178_6223" cx="0" cy="0" r="1" gradientUnits="userSpaceOnUse" gradientTransform="translate(394.465 114.949) rotate(90) scale(829.934 584.19)">
<stop offset="0.03125" stop-color="#E41A1AA0"/>
    <stop offset="1" stop-color="#E41A1A"/>
</radialGradient>
<linearGradient id="paint1_linear_1178_6223" x1="393.62" y1="-7.42697" x2="393.62" y2="794.679" gradientUnits="userSpaceOnUse">
<stop offset="0.03125" stop-color="white"/>
<stop offset="1" stop-color="#E41A1AA0"/>
</linearGradient>
</defs>
</svg>