<svg xmlns="http://www.w3.org/2000/svg" xmlns:xlink="http://www.w3.org/1999/xlink" viewBox="0 0 160 160">
  <defs>
    <linearGradient id="rpl-gradient" x1="1023.49" y1="-10427.81" x2="1134.36" y2="-10538.68" gradientTransform="translate(1158.93 -10403.25) rotate(-180)" gradientUnits="userSpaceOnUse">
      <stop offset="0" stop-color="#f2681d"/>
      <stop offset="1" stop-color="#f89863"/>
    </linearGradient>
    <linearGradient id="rpl-gradient-2" x1="-1320.91" y1="-116.53" x2="-1180.26" y2="-116.53" gradientTransform="translate(1046.7 -721.9) rotate(-45)" xlink:href="#rpl-gradient"/>
  </defs>
  <circle fill="url(#rpl-gradient)" cx="80" cy="80" r="80"/>
  <circle fill="url(#rpl-gradient-2)" transform="translate(8 8)" cx="72" cy="72" r="72"/>
  <path fill="#fff" transform="scale(0.9)" d="m65.6 119.7l-27.4 27.5l3.5 2.8l27.1 -27.1l-3.2 -3.2z m-12.5 -12.5l-27.1 27.1l2.8 3.5l27.5 -27.4l-3.1 -3.2z m12.4 0.1l-33.7 33.8l3.1 3.1l33.8 -33.7l-3.2 -3.2z m61.3 -58 c -5 -1.4 -11.3 -0.5 -17.9 2.5 c -5.7 2.6 -11.7 6.7 -17.1 12.3 c -2.4 2.4 -4.5 5 -6.4 7.7l-10.5 1.2l-11.8 15.3l11.1 2.8 c -0.7 2.5 -1 5 -0.9 7.2l-2.8 3.6l3.6 3.6l3.6 -2.8 c 2.3 0.1 4.7 -0.2 7.2 -0.8l2.9 11l15.1 -11.7l1.3 -10.6 c 2.7 -1.9 5.3 -4 7.8 -6.4 c 5.5 -5.4 9.6 -11.4 12.2 -17.2 c 3 -6.5 3.9 -12.8 2.6 -17.8z m-21.1 30.8 c -3.3 3.3 -8.2 3.8 -10.9 1.1 c -2.7 -2.7 -2.2 -7.6 1.2 -10.9 c 3.3 -3.3 8.1 -3.8 10.8 -1.1 c 2.7 2.7 2.2 7.5 -1.1 10.9z"/>
</svg>
