<svg fill="none" viewBox="0 0 600 600" xmlns="http://www.w3.org/2000/svg">
    <radialGradient id="frax" cx="0" cy="0" r="1" gradientUnits="userSpaceOnUse" gradientTransform="translate(196 143.5) rotate(54.1675) scale(497.082)">
        <stop stop-color="#323638"/>
        <stop offset="1"/>
    </radialGradient>
    <radialGradient id="dai" cx="0" cy="0" gradientTransform="rotate(54.17 -42.31 263.4) scale(497.082)" gradientUnits="userSpaceOnUse" r="1">
        <stop offset="0" stop-color="#fffac8"/>
        <stop offset="1" stop-color="#f9a806"/>
    </radialGradient>
    <radialGradient id="usdc" cx="0" cy="0" gradientTransform="rotate(54.2 -42.3 263.4) scale(497.082)" gradientUnits="userSpaceOnUse" r="1">
        <stop offset="0" stop-color="#d6edff"/>
        <stop offset="1" stop-color="#2775c9"/>
    </radialGradient>
    <radialGradient id="usdt" cx="0" cy="0" gradientTransform="rotate(54.2 -42.3 263.4) scale(497.082)" gradientUnits="userSpaceOnUse" r="1">
        <stop offset="0" stop-color="#c7faee"/>
        <stop offset="1" stop-color="#009e7b"/>
    </radialGradient>
    <!-- FRAX -->
    <g transform="matrix(0.5,0,0,0.5,0,45)">
        <circle cx="300" cy="300" r="300" fill="#323638" />
        <circle cx="300" cy="300" r="300" fill="url(#frax)" fill-opacity=".35" />
        <path d="M143.415 141.213C131.408 153.82 121.503 164.426 121.403 164.626C121.303 164.926 132.108 175.532 145.416 188.139C158.723 200.846 170.329 211.952 171.13 212.652L172.63 214.053L169.929 218.555C146.216 257.777 141.313 305.003 156.222 348.427C159.023 356.631 163.826 367.137 167.928 374.041C169.929 377.443 170.829 379.644 170.629 380.044C170.429 380.445 158.323 393.252 143.715 408.56C129.107 423.768 117.2 436.475 117 436.676C116.9 436.976 157.822 476.498 161.725 479.699L163.225 481L186.338 456.887C199.045 443.579 210.951 431.072 212.752 429.171L216.154 425.77L219.356 427.771C235.665 438.176 254.775 445.38 275.887 449.182C286.492 451.084 306.703 451.584 318.01 450.183C339.821 447.682 361.433 440.378 379.143 429.672L383.745 426.87L388.648 431.673C399.354 442.079 439.376 480.099 439.776 480.3C440.176 480.5 484.1 434.574 484 433.974C483.9 433.674 453.783 404.758 435.373 387.448L429.27 381.645L432.072 377.043C455.584 337.921 460.487 290.495 445.279 246.771C443.078 240.367 436.374 225.96 432.472 219.356L430.571 216.054L456.285 189.139C470.392 174.431 481.899 162.124 481.799 161.824C481.398 160.824 436.374 118.3 435.774 118.3C435.373 118.3 424.067 129.807 410.56 144.014C397.053 158.122 385.846 169.728 385.546 169.829C385.346 169.929 384.045 169.328 382.845 168.428C379.443 166.127 370.838 161.424 366.036 159.223C351.428 152.519 337.82 148.417 322.012 146.115C313.807 144.915 289.194 144.715 281.59 145.815C263.38 148.417 248.472 152.919 233.263 160.523C228.861 162.625 223.758 165.426 221.757 166.627L218.155 168.828L214.053 164.826C211.852 162.625 201.846 153.219 191.941 143.714C182.036 134.309 171.93 124.704 169.529 122.302L165.126 118L143.415 141.213ZM311.406 206.449C327.315 208.35 341.522 213.753 354.629 222.958C361.333 227.66 371.339 237.666 376.041 244.37C402.756 282.19 397.653 333.619 364.035 365.136C335.319 391.951 293.796 397.954 258.877 380.144C233.664 367.237 215.854 343.624 210.151 315.309C208.35 306.304 208.35 289.494 210.151 280.59C211.852 271.785 214.153 265.481 218.455 256.676C235.665 222.057 272.985 201.846 311.406 206.449Z" fill="white"/>
    </g>
    <!-- DAI -->
    <g transform="matrix(0.5,0,0,0.5,0,255)">
        <circle cx="300" cy="300" r="300" fill="#fef9c2" />
        <circle cx="300" cy="300" r="300" fill="url(#dai)" fill-opacity=".35" />
        <path d="M464.42 254.28H431.5c-18.06-50.3-66.82-84.8-131.02-84.8h-105.7v84.73h-36.72v30.43h36.73v31.9h-36.73v30.43h36.73v83.76h105.63c63.5 0 111.85-34.17 130.45-83.76h33.55v-30.44h-26.14c.62-5.4 1.03-10.93 1.03-16.46v-.76c0-4.98-.27-9.9-.76-14.67h26.01v-30.43zm-240.02-57.7h76.08c47.18 0 82.18 23.18 98.37 57.63H224.4zm76.08 206.76H224.4V346.9h174.24c-16.26 33.82-51.19 56.44-98.16 56.44zm108.26-102.58c0 5.4-.35 10.65-1.1 15.7H224.4v-31.89h183.3c.62 4.98 1.04 10.17 1.04 15.43z" fill="#fa0"/>
    </g>
    <!-- USDC -->
    <g transform="matrix(0.5,0,0,0.5,255,45)">
        <circle cx="300" cy="300" r="300" fill="#bcddf8" />
        <circle cx="300" cy="300" r="300" fill="url(#usdc)" fill-opacity=".35" />
        <path d="M378.1 341.6c0-40.8-24.8-54.5-72.8-61.2-35.5-5-42.3-13.5-42.3-30 0-16.6 12-26.8 35-26.8 20.9 0 33 7.3 37.9 24a8.4 8.4 0 003.2 4.7 8.8 8.8 0 005.3 1.8h18.3c1.3 0 2.4-.1 3.5-.7a8.1 8.1 0 004.7-8.7C365 218 347 202 318.9 197v-28a8.7 8.7 0 00-8.7-8.8h-17.5a8.7 8.7 0 00-8.7 8.7V196c-35 4.9-57 28-57 57.6 0 38.3 23.2 53.2 72 59.8 33.2 5.4 42.6 12.6 42.6 31.4s-16 31.5-38.6 31.5c-30.5 0-40.8-13.3-44.3-30.6a9 9 0 00-3-5 8.6 8.6 0 00-5.5-2h-20c-1.1 0-2.4.2-3.4.6-1.1.6-2 1.3-2.9 2.2a8.1 8.1 0 00-1.8 6.6c5 29.1 23.7 50.5 61.9 55.6v27.6a8.7 8.7 0 008.7 8.8h17.5a8.7 8.7 0 008.7-8.8v-27.8c36.2-5.6 59.2-30.6 59.2-61.9zM241.4 464.4a175 175 0 01-83.3-264.5 174.5 174.5 0 0183.3-64 12.9 12.9 0 007.5-11v-16.4c.2-1.4 0-2.9-.7-4.2a7.6 7.6 0 00-2.7-3.3 8.1 8.1 0 00-8.2-.8 209.8 209.8 0 00-105.7 324c26.3 35.8 63.3 62.5 105.7 76a8.1 8.1 0 008.2-.8 9 9 0 002.7-3.2c.6-1.4.9-2.8.7-4.3v-16.3c0-2.4-.9-4.7-2.2-6.6-1.2-2.2-3-3.7-5.3-4.6zM365.6 100a8.1 8.1 0 00-8.2.8c-1.2 1-2.2 2-2.8 3.3a7.7 7.7 0 00-.7 4.2v16.4a12.6 12.6 0 007.5 11 175 175 0 0183.4 264.5 174.5 174.5 0 01-83.4 64 12 12 0 00-5.5 4.3 12 12 0 00-2 6.7v16.4c-.2 1.4.1 2.9.7 4.2a7.6 7.6 0 002.8 3.3 8.1 8.1 0 008.2.8 209.8 209.8 0 000-399.9z" fill="#2775c9"/>
    </g>
    <!-- USDT -->
    <g transform="matrix(0.5,0,0,0.5,255,255)">
        <circle cx="300" cy="300" r="300" fill="#b0e2d6" />
        <circle cx="300" cy="300" r="300" fill="url(#usdt)" fill-opacity=".35" />
        <g fill="#009e7b">
            <path d="M433.4 139H167.3V204h97.4l.5 95.9H336l.4-96.2h97z"/>
            <path d="M264.5 247l-11.5 1c-26 2.2-39.4 3.4-52.6 5.4-7.1 1-16.3 2.7-27 5.2-1.6.4-7.9 1.8-16 4.4a89.6 89.6 0 00-18.4 7.3 28.2 28.2 0 00-13.7 13.7c0 1.4 0 3.4 1 5.5 1 2.8 3.1 5 8.1 8.2 6.7 4.3 11.5 6.1 11.5 6.1a217 217 0 0027.8 8.9c21 4.5 38.1 6.7 40.4 6.9 13 1.6 30.2 3.4 50.6 4.5V461H336V324l13.6-1.5c27.1-2.9 33.7-3.3 47.6-5 15-2 25.1-3.8 27.4-4.1 10.3-2.3 18.5-5 24.5-7.2 0 0 5.9-2 14.8-7 5.2-3 8.6-5.4 10-9.5.7-1.7.8-3.2.8-4.2 0-1.2 0-2.9-.8-4.8-1.3-3.5-4.2-5.5-9.3-8.4-8-4.3-14.2-6.8-14.6-7-4.5-1.6-8.7-3.3-15.2-5-22.5-6.1-56.2-10-64.4-10.9-8.9-1-20.4-2.2-34-3.4l-.6 6.3 12 .6a497 497 0 0150 5c4.3.7 10.5 2 23 4.4 6.4 1.5 17.6 4.5 27.8 9.1 3.7 1.7 8.2 4 9.4 8.4.4 1.7.2 3.2 0 4.3-.2.8-.6 2-1.6 3a11 11 0 01-3.5 2.8l-6 3.2a149.1 149.1 0 01-26.6 8c-6.3 1.5-11.1 2.1-13.2 2.5a505.7 505.7 0 01-119 9.2c-19-.4-43.5-1-72.3-4.5-4-.5-12-1.5-22-3.4-10.3-1.9-15.8-3.4-25-5.8 0 0-5-1.4-14.8-5.4-3.1-1.3-6.7-2.9-9.5-6.5a16 16 0 01-2.1-3.9c-.1-.8-.1-2.2.3-3.6 1.3-4.1 5.4-6.3 9.2-8 10.8-5 20.1-7.5 21.4-7.8 5.8-1.5 10-2.6 15.6-3.6 23.4-4.3 73.5-8 76-8.2a24 24 0 00-.3-5.1z"/>
        </g>
    </g>
</svg>
