<svg viewBox="0 0 600 600" fill="none" xmlns="http://www.w3.org/2000/svg">
    <radialGradient id="a" cx="0" cy="0" gradientTransform="rotate(54.17 -42.31 263.4) scale(497.082)" gradientUnits="userSpaceOnUse" r="1">
        <stop offset="0" stop-color="#0E052F"/>
        <stop offset="1" stop-color="#7887d8"/>
    </radialGradient>
    <circle cx="300" cy="300" r="300" fill="#31D8A4" />
    <path d="M300 600c165.69 0 300-134.31 300-300S465.69 0 300 0 0 134.31 0 300s134.31 300 300 300z" fill="#0E052F" transform="matrix(0.85,0,0,0.85,45,45)" />
    <path d="M300 600c165.69 0 300-134.31 300-300S465.69 0 300 0 0 134.31 0 300s134.31 300 300 300z" fill="url(#a)" fill-opacity=".35" />
    <path d="M193.538 313.756L182.668 328.428C180.097 333.517 183.799 339.533 189.5 339.533H225.072C236.32 386.033 268.71 417.743 312.109 417.088C342.92 417.088 366.147 401.769 381.656 371.264C383.63 367.382 381.899 362.617 377.92 360.84L360.954 353.26C357.219 351.592 352.815 353.155 351.004 356.823C342.996 373.075 329.689 383.432 312.109 383.432C296.193 383.432 283.425 375.638 273.643 359.89C269.82 353.794 266.778 346.991 264.462 339.538H310.021C312.908 339.538 315.551 337.911 316.853 335.336L327.723 320.664C330.294 315.571 326.593 309.559 320.891 309.559H259.336C259.16 306.403 259.051 303.185 259.051 299.865C259.017 296.575 259.109 293.357 259.282 290.185H310.021C312.908 290.185 315.551 288.559 316.853 285.983L327.723 271.311C330.294 266.222 326.593 260.206 320.891 260.206H264.408C272.668 233.269 289.916 215.622 312.109 215.97C329.017 215.97 342.147 225.227 350.567 240.39C352.454 243.79 356.702 245.092 360.257 243.521L377.311 235.991C381.391 234.189 383.126 229.256 380.967 225.353C365.227 196.924 342.273 182.643 312.109 182.643C284.584 182.643 262.534 193.584 245.79 215.306C236.004 228.101 229.189 243.109 225.147 260.206H200.374C197.488 260.206 194.845 261.832 193.542 264.407L182.672 279.08C180.101 284.172 183.803 290.185 189.504 290.185H221.055C220.904 293.369 220.757 296.563 220.757 299.865C220.714 303.138 220.794 306.365 220.933 309.559H200.378C197.492 309.559 194.849 311.185 193.546 313.76L193.538 313.756Z" fill="white"/>
</svg>