<svg xmlns="http://www.w3.org/2000/svg" width="600" height="600" viewBox="0 0 600 600" fill="none">
    <path d="M300 600C465.685 600 600 465.685 600 300C600 134.315 465.685 0 300 0C134.315 0 0 134.315 0 300C0 465.685 134.315 600 300 600Z" fill="url(#paint0_radial_440_36)"/>
    <path fill="white" d="M295.22,284.87c-.9-2.81-19.42-6.27-23.87-7.98-40.43-15.61-30.42-63.95,9.46-73.33,3.74-.88,12.1.1,13.72-2.21l.69-17.63h11.17s1.48,18.43,1.48,18.43c25.78.43,49.67,12.76,46.3,42.1h-32.65c-.58,0-2.61-1.58-3.7-1.9.7-6.26-5.23-19.82-11.44-13.23v23.89c0,3.18,24.4,8.18,29.5,10.32,35.89,15.06,28.87,61.71-5.62,72.49-5.68,1.78-20.17,1.78-22.44,4.64l-1.43,16.89h-11.17s-.17-17.36-.17-17.36c-27.41-1.69-52.16-13.87-50.8-44.77h36.64c-1.62,9.83,4.53,17.58,14.34,19.11v-29.47ZM295.22,226.73c-15.43,1.7-15.18,22.65,0,25.49v-25.49ZM306.37,287.26v27.08c20.45.08,21.35-27.98,0-27.08Z"/>
    <rect fill="white" x="186.91" y="382.83" width="226.19" height="33.45"/>
    <defs>
        <radialGradient id="paint0_radial_440_36" cx="0" cy="0" r="1" gradientUnits="userSpaceOnUse" gradientTransform="translate(196 143.5) rotate(54.1675) scale(497.082)">
            <stop stop-color="#323638"/>
            <stop offset="1"/>
        </radialGradient>
    </defs>
</svg>