<svg viewBox="0 0 600 600" xmlns="http://www.w3.org/2000/svg">
  <defs>
    <radialGradient id="stake_dao_gradient" cx="30%" cy="30%" r="70%">
      <stop stop-color="#ffffff"/>
      <stop stop-color="#b7bcbe" offset="1"/>
    </radialGradient>
    
  </defs>
  <circle cx="300" cy="300" r="300" fill="url(#stake_dao_gradient)"/>
  <g transform="translate(150, 150) scale(1.5)"><path xmlns="http://www.w3.org/2000/svg" fill="rgb(25,62,90)" stroke="rgb(25,62,90)" stroke-width="0" opacity="1" d="M 88.5 0 L 111.5 0 L 112.5 1 L 117.5 1 L 118.5 2 L 122.5 2 L 123.5 3 Q 126 2.5 126.5 4 L 129.5 4 L 130.5 5 L 132.5 5 Q 133 6.5 135.5 6 L 138.5 8 L 140.5 8 L 141.5 9 L 142.5 9 L 143.5 10 L 144.5 10 L 145.5 11 L 146.5 11 Q 146.7 12.3 148.5 12 L 150.5 14 L 151.5 14 Q 151.8 15.3 153.5 15 L 155.5 17 L 156.5 17 L 158.5 19 L 159.5 19 L 163.5 23 L 164.5 23 L 176 34.5 L 176 35.5 L 181 40.5 L 181 41.5 L 185 46.5 L 185 47.5 Q 186.3 47.7 186 49.5 L 188 51.5 L 188 52.5 L 189 53.5 L 189 54.5 L 190 55.5 L 190 56.5 L 192 59.5 L 192 61.5 L 194 64.5 L 194 66.5 L 195 67.5 L 195 69.5 L 196 70.5 Q 195.5 73 197 73.5 Q 196.2 76.8 198 77.5 L 198 81.5 L 199 82.5 L 199 87.5 L 200 88.5 L 200 111.5 L 199 112.5 L 199 117.5 L 198 118.5 L 198 122.5 L 197 123.5 Q 197.5 126 196 126.5 L 196 129.5 L 195 130.5 L 195 132.5 Q 193.5 133 194 135.5 L 192 138.5 L 192 140.5 L 191 141.5 L 191 142.5 L 190 143.5 L 190 144.5 L 189 145.5 L 189 146.5 Q 187.7 146.7 188 148.5 L 186 150.5 L 186 151.5 Q 184.8 151.8 185 153.5 L 183 155.5 L 183 156.5 L 181 158.5 L 181 159.5 L 177 163.5 L 177 164.5 L 164.5 177 L 163.5 177 L 159.5 181 L 158.5 181 L 153.5 185 L 152.5 185 Q 152.3 186.3 150.5 186 L 148.5 188 L 147.5 188 L 146.5 189 L 145.5 189 L 144.5 190 L 143.5 190 L 140.5 192 L 138.5 192 L 135.5 194 L 133.5 194 L 132.5 195 Q 130 194.5 129.5 196 L 126.5 196 L 125.5 197 Q 123 196.5 122.5 198 L 118.5 198 L 117.5 199 L 112.5 199 L 111.5 200 L 88.5 200 L 87.5 199 L 82.5 199 L 81.5 198 L 77.5 198 L 76.5 197 Q 74 197.5 73.5 196 L 70.5 196 L 69.5 195 L 67.5 195 Q 67 193.5 64.5 194 L 63.5 193 L 62.5 193 L 59.5 191 L 57.5 191 L 56.5 190 L 55.5 190 L 54.5 189 L 53.5 189 Q 53.2 187.7 51.5 188 L 49.5 186 L 48.5 186 Q 48.3 184.8 46.5 185 L 44.5 183 L 43.5 183 L 41.5 181 L 40.5 181 L 35.5 176 L 34.5 176 L 23 164.5 L 23 163.5 L 19 159.5 L 19 158.5 L 15 153.5 L 15 152.5 Q 13.8 152.3 14 150.5 L 12 148.5 L 12 147.5 L 11 146.5 L 11 145.5 L 10 144.5 L 10 143.5 L 8 140.5 L 8 138.5 L 6 135.5 L 6 133.5 L 5 132.5 Q 5.5 130 4 129.5 L 4 126.5 L 3 125.5 Q 3.5 123 2 122.5 L 2 118.5 L 1 117.5 L 1 112.5 L 0 111.5 L 0 88.5 L 1 87.5 L 1 82.5 L 2 81.5 L 2 77.5 L 3 76.5 Q 2.5 74 4 73.5 L 4 70.5 L 5 69.5 L 5 67.5 Q 6.5 67 6 64.5 L 8 61.5 L 8 59.5 L 9 58.5 L 9 57.5 L 10 56.5 L 10 55.5 L 11 54.5 L 11 53.5 Q 12.3 53.2 12 51.5 L 14 49.5 L 14 48.5 Q 15.3 48.3 15 46.5 L 17 44.5 L 17 43.5 L 19 41.5 L 19 40.5 L 24 35.5 L 24 34.5 L 35.5 23 L 36.5 23 L 40.5 19 L 41.5 19 L 46.5 15 L 47.5 15 Q 47.7 13.8 49.5 14 L 51.5 12 L 52.5 12 L 53.5 11 L 54.5 11 L 55.5 10 L 56.5 10 L 59.5 8 L 61.5 8 L 64.5 6 L 66.5 6 L 67.5 5 Q 70 5.5 70.5 4 L 73.5 4 L 74.5 3 Q 77 3.5 77.5 2 L 81.5 2 L 82.5 1 L 87.5 1 L 88.5 0 Z M 99 12 L 96 14 L 94 14 Q 93 15 92 15 L 91 16 Q 89 16 89 17 L 88 17 L 87 18 L 86 18 L 85 19 L 84 19 L 83 20 L 81 20 L 79 22 Q 77 22 77 23 L 76 23 L 75 24 L 73 24 L 71 26 Q 69 26 69 27 L 68 27 L 67 28 L 65 28 L 63 30 L 62 30 L 59 32 L 58 32 L 57 33 L 56 33 L 55 34 L 54 34 L 53 35 L 52 35 L 51 36 L 50 36 L 48 38 Q 46 38 46 39 L 45 39 L 44 40 L 43 40 L 42 41 L 41 41 L 40 42 L 39 42 L 38 43 L 37 43 L 36 44 L 35 44 L 34 45 L 33 45 L 30 47 L 29 47 L 27 49 Q 25 49 25 50 L 24 50 L 23 51 L 22 51 L 21 52 L 20 52 L 18 54 L 17 54 L 15 56 Q 15 57 14 58 L 14 59 L 13 60 L 13 61 L 12 62 Q 12 63 12 64 L 14 64 L 15 63 Q 16 63 17 62 L 18 62 L 19 61 Q 20 61 21 60 L 22 60 L 23 59 L 24 59 L 26 57 Q 27 57 28 56 L 29 56 L 30 55 L 31 55 L 32 54 L 33 54 L 34 53 L 35 53 L 37 51 Q 38 51 39 50 L 40 50 L 41 49 L 42 49 L 43 48 L 44 48 L 45 47 L 46 47 L 47 46 L 48 46 L 49 45 L 50 45 L 52 43 Q 53 43 54 42 L 55 42 L 56 41 L 57 41 L 58 40 L 59 40 L 60 39 L 61 39 L 62 38 L 63 38 L 64 37 Q 65 37 66 36 L 67 36 L 69 34 Q 70 34 71 33 L 72 33 L 73 32 L 75 32 L 77 30 Q 78 30 79 29 L 80 29 L 83 27 L 84 27 L 85 26 L 86 26 L 87 25 L 88 25 L 89 24 L 91 24 L 94 22 L 95 22 L 96 21 L 97 21 L 98 20 L 100 20 L 101 19 Q 102 19 103 20 L 104 20 L 105 21 L 107 21 L 110 23 Q 111 23 112 24 L 113 24 L 114 25 L 115 25 L 116 26 L 117 26 L 120 28 L 121 28 L 122 29 L 123 29 L 124 30 L 125 30 L 126 31 L 127 31 L 129 33 L 131 33 Q 131 34 133 34 L 135 36 Q 136 36 137 37 L 138 37 L 139 38 L 140 38 L 141 39 L 142 39 L 143 40 L 144 40 L 145 41 L 146 41 L 147 42 L 148 42 L 150 44 Q 151 44 152 45 L 153 45 L 154 46 L 155 46 L 156 47 L 157 47 L 159 49 Q 160 49 161 50 L 162 50 L 163 51 L 164 51 L 165 52 L 166 52 L 167 53 L 168 53 L 169 54 L 170 54 L 172 56 Q 173 56 174 57 L 175 57 L 176 58 L 177 58 L 179 60 Q 180 60 181 61 L 182 61 L 183 62 L 184 62 L 185 63 L 186 63 L 187 64 L 188 64 Q 188 63 188 62 L 186 59 L 186 57 L 185 57 L 183 55 Q 181 55 181 54 L 180 54 L 179 53 L 178 53 L 176 51 Q 174 51 174 50 L 173 50 L 172 49 L 171 49 L 169 47 Q 167 47 167 46 L 166 46 L 165 45 L 164 45 L 163 44 L 162 44 L 160 42 Q 158 42 158 41 L 157 41 L 156 40 L 155 40 L 154 39 L 153 39 L 151 37 Q 149 37 149 36 L 148 36 L 147 35 L 146 35 L 144 33 L 143 33 L 142 32 Q 140 32 140 31 L 139 31 L 138 30 L 137 30 L 136 29 L 135 29 L 134 28 L 133 28 L 131 26 L 130 26 L 129 25 Q 127 25 127 24 L 126 24 L 125 23 L 124 23 L 123 22 L 122 22 L 120 20 Q 118 20 118 19 L 116 19 L 114 17 Q 112 17 112 16 L 110 16 L 107 14 L 106 14 L 105 13 Q 102 14 102 12 L 99 12 Z M 88 34 L 85 37 L 85 45 L 88 47 L 96 47 L 97 46 L 97 36 L 96 34 L 88 34 Z M 105 34 L 103 36 L 103 46 L 105 47 L 113 47 L 115 45 L 115 36 L 115 35 L 114 35 L 113 34 L 105 34 Z M 87 50 L 85 52 L 85 61 L 87 62 L 97 62 L 97 62 L 97 62 L 97 52 L 96 50 L 87 50 Z M 105 50 L 103 52 L 103 62 L 103 62 L 104 62 L 114 62 L 115 61 L 115 52 L 115 51 L 114 51 L 113 50 L 105 50 Z M 12 64 Q 11 65 12 65 Q 13 65 12 64 Z M 189 64 Q 188 65 189 65 Q 190 65 189 64 Z M 32 78 L 32 79 L 32 83 L 32 83 L 33 83 L 39 83 L 39 83 L 39 83 L 39 79 L 39 78 L 39 78 L 33 78 L 32 78 Z M 45 78 L 45 79 L 45 110 L 45 110 L 46 110 L 51 110 L 51 110 L 51 110 L 51 102 L 53 100 L 61 100 L 67 107 L 67 109 L 69 110 L 73 110 L 73 110 Q 73 110 73 108 L 74 107 L 74 105 L 71 102 L 71 100 L 73 98 L 73 87 L 74 86 L 73 85 L 73 81 L 71 78 L 46 78 L 45 78 Z M 78 78 L 78 79 L 78 109 L 80 110 L 105 110 L 105 110 L 105 110 L 105 105 Q 105 104 105 104 L 86 104 L 84 103 L 84 99 L 86 97 L 104 97 L 104 97 L 104 97 L 104 92 Q 104 91 104 91 L 86 91 L 84 90 L 84 86 L 86 84 L 105 84 L 105 84 L 105 84 L 105 79 Q 105 78 105 78 L 79 78 L 78 78 Z M 110 78 L 110 79 L 110 110 L 110 110 L 111 110 L 136 110 L 137 109 L 137 105 Q 137 104 137 104 L 117 104 L 116 104 L 116 104 L 116 98 L 116 97 L 117 97 L 135 97 L 135 97 L 135 97 L 135 92 Q 135 91 135 91 L 117 91 L 116 91 L 116 91 L 116 85 L 116 84 L 117 84 L 136 84 Q 138 83 137 80 L 136 78 L 111 78 L 110 78 Z M 140 78 L 140 80 Q 138 81 140 82 Q 140 84 141 84 L 150 84 L 151 86 L 151 110 L 151 110 L 152 110 L 157 110 Q 157 110 157 110 L 157 85 L 157 84 L 158 84 L 168 84 L 168 84 L 168 84 L 168 79 Q 168 78 168 78 L 141 78 L 140 78 Z M 32 87 L 32 88 L 32 110 Q 32 110 33 110 L 39 110 L 39 110 L 39 110 L 39 88 Q 39 87 39 87 L 33 87 L 32 87 Z M 29 127 L 29 128 L 29 158 Q 29 158 30 158 L 41 158 L 41 158 L 41 159 L 41 176 L 41 176 L 43 176 L 46 179 L 47 179 L 49 181 L 50 181 L 52 183 Q 53 183 54 184 L 55 184 L 56 185 L 57 185 L 58 186 L 59 186 L 60 187 L 61 187 L 62 188 L 64 188 L 67 190 Q 69 190 70 191 L 72 191 L 73 192 L 75 192 L 76 193 L 80 193 L 81 194 L 85 194 L 86 195 L 94 195 L 95 196 L 106 196 L 107 195 L 115 195 L 116 194 L 120 194 L 121 193 L 125 193 Q 125 192 128 192 L 129 191 L 131 191 L 132 190 L 134 190 L 137 188 L 139 188 L 142 186 L 143 186 L 144 185 L 145 185 L 146 184 L 147 184 L 148 183 L 149 183 L 154 179 L 155 179 L 157 177 L 157 160 L 159 158 L 170 158 L 170 158 L 170 158 L 170 128 L 170 127 L 170 127 L 143 127 L 142 127 L 142 128 L 142 158 L 141 159 L 116 159 L 114 158 L 114 128 L 114 127 L 114 127 L 87 127 L 86 127 L 86 128 L 86 155 Q 84 156 86 157 L 86 158 L 85 159 L 59 159 L 57 158 L 57 128 L 57 127 L 57 127 L 30 127 L 29 127 Z "/><path xmlns="http://www.w3.org/2000/svg" fill="rgb(25,62,90)" stroke="rgb(25,62,90)" stroke-width="0" opacity="1" d="M 51 84 L 51.5 84 L 66.5 84 L 67 84 L 67 84.5 L 67 93.5 L 67 94 L 66.5 94 L 51.5 94 L 51 94 L 51 93.5 L 51 84.5 L 51 84 Z "/></g>
</svg>