<svg viewBox="0 0 600 600" xmlns="http://www.w3.org/2000/svg">
  <defs>
    <radialGradient id="stake_dao_gradient" cx="30%" cy="30%" r="70%">
      <stop stop-color="#ffffff"/>
      <stop stop-color="#b7bcbe" offset="1"/>
    </radialGradient>
    
  </defs>
  <circle cx="300" cy="300" r="300" fill="url(#stake_dao_gradient)"/>
  <g transform="translate(150, 150) scale(1.5)"><path xmlns="http://www.w3.org/2000/svg" fill="rgb(27,62,90)" stroke="rgb(27,62,90)" stroke-width="0" opacity="0.996078431372549" d="M 88.5 0 Q 117.3 -2.3 135.5 6 Q 160.3 15.7 176 34.5 Q 201.5 59.5 200 111.5 Q 192.7 154.7 164.5 177 Q 139.5 201.5 88.5 200 Q 45.3 192.7 23 164.5 Q -1.5 139.5 0 88.5 Q 7.3 45.3 35.5 23 Q 55.6 5.1 88.5 0 Z M 99 12 L 17 54 L 12 64 L 100 19 L 133 34 L 188 64 L 186 57 L 120 20 L 99 12 Z M 88 34 Q 83 36 85 45 Q 87 49 96 47 Q 100 45 97 36 Q 95 32 88 34 Z M 105 34 Q 101 37 103 46 Q 105 49 113 47 Q 117 44 115 35 L 105 34 Z M 87 50 L 85 52 Q 83 60 87 62 L 97 62 L 97 52 Q 95 48 87 50 Z M 105 50 L 103 52 L 103 62 L 114 62 L 115 61 L 115 51 L 105 50 Z M 32 78 Q 29 86 39 83 Q 42 75 32 78 Z M 45 78 L 45 110 L 51 110 L 51 102 Q 53 98 61 100 L 67 109 L 73 110 L 74 107 L 71 102 L 73 98 L 74 86 L 73 81 L 71 78 L 45 78 Z M 78 78 L 78 109 L 80 110 L 105 110 L 105 104 L 86 104 L 84 103 L 85 99 L 86 97 L 104 97 L 104 91 L 85 91 L 84 89 L 85 86 L 86 84 L 105 84 L 105 78 L 78 78 Z M 110 78 L 110 110 L 136 110 L 137 109 L 137 104 L 116 104 L 116 97 L 135 97 L 135 91 L 116 91 L 116 84 L 136 84 L 137 80 L 136 78 L 110 78 Z M 140 78 L 140 80 L 140 82 L 141 84 L 150 84 L 151 86 L 151 110 L 157 110 L 157 84 L 168 84 L 168 78 L 140 78 Z M 32 87 L 32 110 L 39 110 L 39 88 L 32 87 Z M 29 127 L 29 158 L 40 158 L 41 160 L 41 176 Q 61 193 96 196 Q 134 196 155 179 L 157 177 L 158 160 L 159 158 L 170 158 L 170 127 L 142 127 L 142 158 L 140 159 L 116 158 L 114 158 L 114 127 L 86 127 L 86 157 L 84 159 L 58 159 L 57 157 L 57 127 L 29 127 Z "/><path xmlns="http://www.w3.org/2000/svg" fill="rgb(27,62,90)" stroke="rgb(27,62,90)" stroke-width="0" opacity="0.996078431372549" d="M 51 84 L 66.5 84 L 67 85.5 L 67 87.5 L 68 91.5 L 67 94 L 51 94 L 51 84 Z "/></g>
</svg>