<svg viewBox="0 0 600 600" xmlns="http://www.w3.org/2000/svg">
  <defs>
    <radialGradient id="stake_dao_gradient" cx="30%" cy="30%" r="70%">
      <stop stop-color="#ffffff"/>
      <stop stop-color="#b7bcbe" offset="1"/>
    </radialGradient>
    
  </defs>
  <circle cx="300" cy="300" r="300" fill="url(#stake_dao_gradient)"/>
  <g transform="translate(150, 150) scale(1.5)"><path xmlns="http://www.w3.org/2000/svg" fill="rgb(27,62,90)" stroke="rgb(27,62,90)" stroke-width="0" opacity="0.996078431372549" d="M88.5 0Q117.3-2.3 135.5 6Q160.3 15.7 176 34.5Q201.5 59.5 200 111.5Q192.7 154.7 164.5 177Q139.5 201.5 88.5 200Q45.3 192.7 23 164.5Q-1.5 139.5 0 88.5Q7.3 45.3 35.5 23Q55.6 5.1 88.5 0Z M99 12L17 54L12 64L100 19L133 34L188 64L186 57L120 20L99 12Z M88 34Q83 36 85 45Q87 49 96 47Q100 45 97 36Q95 32 88 34Z M105 34Q101 37 103 46Q105 49 113 47Q117 44 115 35L105 34Z M87 50L85 52Q83 60 87 62L97 62L97 52Q95 48 87 50Z M105 50L103 52L103 62L114 62L115 61L115 51L105 50Z M12 64L12 65L12 64Z M189 64L189 65L189 64Z M32 78Q29 86 39 83Q42 75 32 78Z M45 78L45 110L51 110L51 102Q53 98 61 100L67 109L73 110L74 107L71 102L73 98L74 86L73 81L71 78L45 78Z M78 78L78 109L80 110L105 110L105 104L86 104L84 103L85 99L86 97L104 97L104 91L85 91L84 89L85 86L86 84L105 84L105 78L78 78Z M110 78L110 110L136 110L137 109L137 104L116 104L116 97L135 97L135 91L116 91L116 84L136 84L137 80L136 78L110 78Z M140 78L140 80L140 82L141 84L150 84L151 86L151 110L157 110L157 84L168 84L168 78L140 78Z M32 87L32 110L39 110L39 88L32 87Z M29 127L29 158L40 158L41 160L41 176Q61 193 96 196Q134 196 155 179L157 177L158 160L159 158L170 158L170 127L142 127L142 158L140 159L116 158L114 158L114 127L86 127L86 157L84 159L58 159L57 157L57 127L29 127Z"/><path xmlns="http://www.w3.org/2000/svg" fill="rgb(27,62,90)" stroke="rgb(27,62,90)" stroke-width="0" opacity="0.996078431372549" d="M51 84L66.5 84L67 85.5L67 87.5L68 91.5L67 94L51 94L51 84Z"/></g>
</svg>