<svg fill="none" viewBox="0 0 600 600" xmlns="http://www.w3.org/2000/svg">
    <path d="M300 600a300.2 300.2 0 00294.2-358.5A299.8 299.8 0 0050.6 133.3 300.2 300.2 0 00300 600z" fill="#180D68"/>
    <path transform="matrix(16.22,0,0,16.22,0,0)" fill-rule="evenodd" clip-rule="evenodd" d="M18.5 2.59649C9.71673 2.59649 2.59649 9.71673 2.59649 18.5C2.59649 27.2833 9.71673 34.4035 18.5 34.4035C27.2833 34.4035 34.4035 27.2833 34.4035 18.5C34.4035 9.71673 27.2833 2.59649 18.5 2.59649ZM0 18.5C0 8.28273 8.28273 0 18.5 0C28.7173 0 37 8.28273 37 18.5C37 28.7173 28.7173 37 18.5 37C8.28273 37 0 28.7173 0 18.5Z" fill="url(#paint0_linear_3714_2526)"/>
    <mask id="mask0_3714_2526" style="mask-type:alpha" maskUnits="userSpaceOnUse" x="11" y="7" width="15" height="23">
        <path fill-rule="evenodd" clip-rule="evenodd" d="M17.9958 21.1774H17.8698H12.3297L18.5143 29.8479L25.7941 19.6024H19.1298V21.1774H17.9958ZM19.1298 17.0824H24.5043L18.5143 7.18091L11.5446 18.6574H17.8698V17.0824H19.1298Z" fill="white"/>
    </mask>
    <g transform="matrix(17.5,0,0,17.5,-20,-20)" mask="url(#mask0_3714_2526)">
        <path d="M18.5162 7.15186L18.298 7.66095V18.5287H18.5162L26.513 17.417L18.5162 7.15186Z" fill="#FFBC01"/>
        <path d="M18.5145 7.09424L11.5122 18.6976L18.5145 22.8313V15.519V7.09424Z" fill="#FFE8A8"/>
        <path d="M18.4981 17.4761V24.2487V29.6037V29.8766L25.82 19.5394L24.0914 16.4524L18.4981 17.4761Z" fill="#FFBC01"/>
        <path d="M18.5145 29.8767V20.0354H11.5122L18.5145 29.8767Z" fill="#FFE8A8"/>
    </g>
    <path d="M300 600a300 300 0 100-600 300 300 0 000 600z" fill="url(#a)" fill-opacity=".3"/>
    <defs>
        <radialGradient id="a" cx="0" cy="0" gradientTransform="rotate(54.2 -42.3 263.4) scale(497.082)" gradientUnits="userSpaceOnUse" r="1">
            <stop offset="0" stop-color="#d1cfff"/>
            <stop offset="1" stop-color="#140e69"/>
        </radialGradient>
        <linearGradient id="paint0_linear_3714_2526" x1="18.5" y1="0.649121" x2="18.5" y2="36.3509" gradientUnits="userSpaceOnUse">
            <stop stop-color="#FFB901"/>
            <stop offset="1" stop-color="#F9CB53"/>
        </linearGradient>
    </defs>
</svg>