<svg viewBox="0 0 40 40" fill="none" xmlns="http://www.w3.org/2000/svg">
  <rect x="0" width="40" height="40" rx="20" fill="url(#paint2_radial_8038_5832)" />
  <path fill-rule="evenodd" clip-rule="evenodd" d="M13.6532 10.6373C13.5154 10.66 13.4074 10.761 13.3714 10.9009 13.3335 11.0486 13.334 13.4661 13.372 13.5968 13.4018 13.6995 13.4651 13.7696 13.5808 13.8282L13.6606 13.8687 21.2326 13.8687 21.3271 13.8236C21.4415 13.7692 21.462 13.747 21.5146 13.621L21.5556 13.523C21.5556 10.8486 21.5618 10.9578 21.4721 10.7805 21.4469 10.7307 21.3071 10.646 21.2289 10.6331 21.1491 10.6199 13.7341 10.624 13.6532 10.6373ZM13.6041 18.5348C13.4982 18.5587 13.4051 18.6525 13.3731 18.7674 13.3287 18.9273 13.3328 29.2086 13.3774 29.3553 13.4126 29.471 13.4479 29.514 13.5609 29.5786L13.6419 29.625H27.0587L27.1157 29.591C27.3381 29.4583 27.3265 29.5486 27.3233 27.9641 27.3203 26.4407 27.335 26.5549 27.1255 26.4329L27.0467 26.3871 16.5763 26.3792 16.5687 21.739 20.4348 21.7311C23.9201 21.7238 24.2149 21.7212 24.2507 21.6971 24.3425 21.635 24.3886 21.5766 24.4135 21.491 24.4555 21.3464 24.4519 18.8742 24.4094 18.7509 24.3787 18.6616 24.306 18.5747 24.2355 18.543 24.1838 18.5198 13.7067 18.5117 13.6041 18.5348Z" fill="#F9F9F9" stroke="white" stroke-width="0.5" />
  <defs>
    <radialGradient id="paint2_radial_8038_5832" cx="0" cy="0" r="1" gradientUnits="userSpaceOnUse" gradientTransform="translate(20.5) rotate(90) scale(26)">
      <stop stop-color="#628CBF" />
      <stop offset="1" stop-color="#1D507D" />
    </radialGradient>
  </defs>
</svg>
