<svg xmlns="http://www.w3.org/2000/svg" viewBox="0 0 600 600">
    <circle fill="url(#background)" cx="300" cy="300" r="300"/>
    <path fill="white" d="M264.93,222.5v26.12c0,1.48-18.6,12.65-23.36,18.07-68.55,78.1,52.74,177.51,115.98,99.77,2.46-3.02,7.43-14.26,8.26-14.26h27.02c-23.54,71.31-119.03,89.24-169.38,33.37-48.14-53.42-25.83-139.72,41.48-163.07Z"/>
    <path fill="white" d="M299.16,274.74c15.73,8.99,68.44,25.06,78.33,3.57,9.03-19.61-37.95-21.5-49.11-24.68-21.06-6.01-37.98-20.29-28.84-44.26,8-20.97,36.09-19.6,39.07-23.07,1.32-1.53-.78-15.11.17-16.05.77-.76,20.87-.76,21.64,0,.81.81-.86,15.37,0,16.2,1.03.99,25.34,1.51,28.01,5.32,2.48,3.54-.12,16.68.79,21.71-17.44-4.7-37.96-12.23-55.86-6.33-13.01,4.28-15.98,16.19-2.75,22.63,18.24,8.87,64.99,5.56,70.86,31.82,4.65,20.8-4.74,36.47-23.88,43.82-3.12,1.2-14.74,3.07-15.25,3.66-1.87,2.18,2.56,12.5,1.68,16.08l-23.43.02,1.81-16.21c-14.91-.43-29.01-5.28-43.23-9.02v-25.22Z"/>
    <defs>
        <radialGradient id="background" cx="0" cy="0" gradientTransform="rotate(54.2 -42.3 263.4) scale(497.082)" gradientUnits="userSpaceOnUse" r="1">
            <stop offset="0" stop-color="#8AffA8"/>
            <stop offset="1" stop-color="#45cc84"/>
        </radialGradient>
    </defs>
</svg>