<svg xmlns="http://www.w3.org/2000/svg" viewBox="0 0 600 600">
	<path d="M300 600a300 300 0 100-600 300 300 0 000 600z" fill="#ffffff" />
	<path d="M300 600a300 300 0 100-600 300 300 0 000 600z" fill="url(#gradient_crosscurve_stable_2)" fill-opacity=".4" />
	<g transform="matrix(20,0,0,20,60,60)">
		<mask id="mask0_6359_42888" style="mask-type:alpha" maskUnits="userSpaceOnUse" x="0" y="1" width="24" height="21">
			<path fill-rule="evenodd" clip-rule="evenodd" d="m11.12 15.03c-.16-.12-.33-.24-.49-.35.16.11.33.23.49.35zm-1.8-1.09c.45.21.89.46 1.31.74-.44-.3-.88-.55-1.31-.76.11-1.89-.93-3.11-2.17-4.22l.12-.06.05-.02c.61-.28 1.22-.56 1.74-.98.61-.49 1.14-1.05 1.64-1.65.06-.05.13-.1.19-.16.11-.07.22-.14.32-.21.14-.07.28-.15.42-.22.14-.06.28-.11.42-.17.15-.04.3-.09.45-.13.12-.02.23-.04.35-.07.27-.02.54-.05.81-.07.17.02.34.03.51.05l.26.03c.17.03.33.06.5.09l.03 0c.18.05.36.1.54.14l.13.04.09.03 1.45.69c-.02.11-.03.22-.05.33-.22 1.59-.42 3.04-.19 4.42 0 .07 0 .15.01.22 0 .12-.01.23-.01.35-.01.12-.02.24-.02.37-.01.12-.03.25-.03.37-.02.1-.03.2-.04.3 0 .02-.01.05-.01.07-.01.08-.03.17-.04.25-.06.22-.1.45-.14.67-.01.05-.03.1-.04.16-.04.13-.08.26-.12.4-.03.08-.06.16-.09.24-.08.18-.16.36-.23.55-.04.09-.08.18-.12.28l-.05.1c-.05.1-.11.21-.16.31l-.05.08c-.19.32-.4.67-.61 1.01-1.42-.71-2.78-1.53-4.06-2.47 1.27.94 2.63 1.77 4.05 2.49l-.1.15c-1.55-.8-3.01-1.76-4.38-2.84-.44-.33-.9-.62-1.37-.85l0-.03zm-.36-.18c0-.46-.05-.93-.19-1.39-.39-1.02-1.15-1.79-1.97-2.51l-.13.05c.82.77 1.62 1.62 1.88 2.75l.12.43c.07.21.13.41.17.62l.12.05zm-1.95-4.19.19-.09.08-.04c.58-.27 1.16-.55 1.66-.96l.36-.32c-.44.32-.92.6-1.43.8-.34.15-.69.31-1.03.45l.17.15zm-.52.01.17.15-.12.05-.17-.15zm.27-.23c.36-.15.72-.31 1.08-.46.71-.27 1.34-.69 1.92-1.16l.14-.15c-.53.36-1.08.68-1.68.93l-.04.02c-.54.22-1.08.44-1.62.67l.19.16zm-.55-.02.2.16-.11.04-.18-.17zm.26-.23c.38-.15.76-.31 1.15-.46l.58-.23c.69-.28 1.34-.66 1.94-1.09l.06-.07c-.51.29-1.04.56-1.58.78-.17.06-.34.13-.51.19-.61.23-1.22.47-1.83.71l.08.07.11.1zm-.55-.01.19.16-.08.03-.18-.16zm.26-.24c.59-.23 1.18-.45 1.77-.67.21-.08.42-.16.63-.23.62-.24 1.21-.54 1.78-.88l.05-.05c-.72.33-1.45.62-2.2.86-.19.07-.47.17-.76.27-.33.12-.68.24-.9.32-.17.07-.35.15-.54.23l.18.15zm-.53 0 .17.15-.07.03-.16-.15zm.25-.24.01-.01c.21-.09.41-.17.6-.25.19-.07.47-.16.76-.26.34-.12.69-.24.91-.32.81-.25 1.6-.57 2.37-.93l.05-.06c-.9.32-1.82.61-2.74.86-.73.22-1.44.5-2.13.8l.18.16zm-.52 0 .16.15-.07.03-.16-.15zm.23-.25c.72-.31 1.46-.59 2.21-.81.98-.25 1.94-.55 2.89-.9l.05-.06-.77.2-.53.13c-1.36.34-2.76.68-4.02 1.29l.17.15zm-.49.01.15.14-.07.03-.14-.14.06-.03zm.2-.27c1.25-.59 2.64-.93 3.98-1.25l0 0 .66-.16.9-.24.06-.08-.42.08c-1.81.32-3.68.66-5.32 1.52l.14.13zm-.44.04.12.12-.06.03-.12-.12zm.19-.27c.17-.08.33-.16.49-.23l.11-.05c1.29-.6 2.83-.87 4.26-1.13h0l.54-.1.52-.1.07-.09c-1.65.15-3.28.38-4.83.97l-.25.11c-.33.14-.7.3-1.05.49zm-.42.04.12.12-.05.03-.1-.12zm.18-.29c.35-.19.73-.35 1.09-.5l.27-.11c1.59-.58 3.28-.79 4.97-.94l.09-.13c-.79.04-1.58.1-2.37.2-1.03.11-2.04.36-2.99.77l-.12.06c-.34.15-.71.32-1.05.53l.11.12zm-.38.07.09.1-.03.02-.08-.1zm.17-.31c.36-.22.76-.4 1.12-.56l.11-.05c.96-.4 1.99-.65 3.03-.75.82-.09 1.64-.15 2.46-.19l.04-.06c-1.86-.08-3.71.04-5.46.76l-.04.02c-.46.2-.95.41-1.35.72l.08.11zm-.33.11.06.07-.01.01-.05-.08zm-.42-.74c-.46-1.41 1.41-2.08 2.46-2.42 1.96-.57 3.92-.23 5.82.38.23-.31.45-.61.69-.91.77-.98 2.14-2.61 3.45-1.53.31.25.55.55.74.87.15.1.29.23.42.4.16.1.3.23.44.4.16.1.31.23.44.4.17.1.33.23.46.4.09.05.18.11.27.18l.15.16c.02.02.04.05.06.07.18.1.34.23.46.4.2.11.37.25.5.44.18.09.33.21.45.37.19.1.36.23.49.4.19.1.36.24.49.4.19.11.36.24.49.41.19.11.37.24.5.4.2.11.38.25.51.42.69.41 1.04 1.08.54 1.99-.44.72-1.22 1.09-1.96 1.43-.13.06-.26.12-.39.19-.56.26-1.12.52-1.65.82-.61.34-1.18.74-1.68 1.21.33.5.75.99 1.31 1.48.36.31.75.61 1.13.9h0c.7.53 1.4 1.07 1.98 1.74l.01.01c.29.35.81.98.33 1.37-.22.11-.49.16-.79.18-.21.12-.49.17-.8.18-.2.11-.47.14-.77.13-.2.11-.46.15-.77.14-.2.1-.45.14-.74.14-.22.09-.47.13-.74.13-.21.12-.48.16-.78.15-.22.12-.48.15-.76.14-.04.02-.08.04-.13.05-.21.05-.42.07-.63.07-.24.09-.5.13-.76.13-.23.1-.48.15-.74.15-.22.08-.45.12-.67.13-.24.1-.49.15-.74.16-.23.08-.46.13-.69.14-.18.06-.36.11-.56.13-.86.34-1.81.31-2.83-.38-1.27-.79-1.13-2.34-.76-3.57.07-.25.14-.51.22-.76.1-.34.2-.69.29-1.03 0-.02 0-.04.01-.07l0-.03c-.06-.18-.12-.37-.18-.55l-.03-.06c-.04-.07-.08-.15-.13-.22-.1-.12-.2-.23-.31-.35-.28-.23-.58-.45-.89-.64-.07-.03-.14-.06-.22-.09-.39-.12-.82-.2-1.3-.22l-.02 0c-.16 0-.33 0-.49 0h0 0c-.11 0-.22 0-.34 0l-.12.01c-.27.02-.52.03-.73.03-.19.02-.38.03-.58.04-.26.04-.49.06-.69.06-.21.03-.41.06-.58.06-.29.06-.62.1-.89.04-.29.05-.58.06-.83-.1-.18-.14-.27-.36-.29-.58-.12-.64.44-1.1 1.15-1.44.18-.15.38-.29.61-.41.14-.13.29-.25.46-.37.1-.12.22-.24.35-.35.08-.12.17-.24.28-.35.07-.15.16-.28.25-.4.05-.14.11-.28.2-.42.04-.13.09-.26.15-.37.01-.09.03-.17.06-.26.02-.04.03-.08.05-.11.02-.14.05-.28.1-.4 0-.14.02-.27.07-.41 0-.13.01-.26.06-.39 0-.08 0-.16.01-.24.01-.04.02-.07.03-.11-.01-.12 0-.24.03-.36 0-.04-.01-.07-.01-.11zm.36-.87c.34-.61 1.34-.97 2.01-1.21l.18-.07c1.85-.55 3.81-.36 5.68.18l-.09.12c-2.68-.69-5.52-.82-7.76.95-.01.01-.01.01-.02.02zm-.11.42c.05-.11.13-.23.24-.34 2.18-1.75 4.97-1.66 7.6-.98l-.08.12c-2.56-.53-5.34-.58-7.51 1.01-.1.08-.18.17-.24.25zm.04.28c.07-.12.17-.24.31-.35 2.2-1.6 4.79-1.59 7.34-1.04l-.07.1c-1.99-.32-4-.37-5.91.39l-.13.06c-.53.23-1.14.49-1.53.92-.01-.03-.02-.05-.02-.08zm.09.24c.35-.45.96-.72 1.49-.95l.13-.06c1.87-.77 3.84-.75 5.8-.44l-.08.11c-1.94-.21-3.89-.19-5.73.55-.72.29-1.23.57-1.56.87zm.13.22c.39-.37.92-.61 1.41-.82l.12-.05c1.8-.74 3.71-.79 5.61-.59l-.08.1c-2.46-.11-4.91.07-7 1.47l-.07-.1zm7.95-2.19-.09.12.18.05.1-.11-.19-.06zm.23.07-.09.11.27.08.1-.09zm.34.03-.28-.1c.34-.38.68-.76 1.04-1.12.71-.71 1.71-1.51 2.62-1.17l.34.38c-1.14-.31-2.55.9-3.73 2.01zm-.02.08-.09.09.26.08.1-.08zm.34.03-.28-.1c1.17-1.12 2.59-2.32 3.71-1.98l.21.33c-1.11-.15-2.5.85-3.65 1.75zm-.01.08-.09.07.24.08.09-.06-.24-.09zm.33.03-.25-.09c1.15-.9 2.53-1.88 3.62-1.71l.15.33c-1.08-.01-2.41.78-3.52 1.47zm.01.1-.09.05.21.07.08-.04-.2-.08zm.32.03-.23-.09c1.09-.68 2.4-1.45 3.45-1.43l.11.33c-1.05.08-2.31.68-3.33 1.18zm0 .1-.06.03.19.06.07-.02zm.33.02-.21-.08c1-.49 2.22-1.06 3.23-1.13l.07.33c-.92.1-1.81.42-2.69.74l-.4.14zm0 .11-.05.02.17.06.04-.01-.16-.07zm.36.02-.2-.08.12-.04c.88-.32 1.92-.7 2.83-.8l.03.29c-.72.09-1.5.29-2.18.47-.21.05-.41.11-.6.15zm-.04.12-.01 0 .1.04-.09-.04zm.38.01-.18-.07.39-.1c.7-.18 1.49-.38 2.23-.47l.01.26c-.53.06-1.06.15-1.55.23zm.43.17-.2-.08.64-.1c.5-.08 1.05-.17 1.59-.23l-.01.32-.19.01c-.61.04-1.22.09-1.83.08zm.69.28-.04-.02c.45.02.89.02 1.34.01l-.01.1c-.43-.02-.86-.05-1.29-.09zm-3.42-1.31-.2-.07c.21-.28.42-.56.64-.84.08-.09.16-.19.24-.28.56-.66 1.16-1.39 2.03-1.51.31-.02.61.1.86.31l.08.07c-.9-.3-1.9.49-2.6 1.19-.37.36-.71.74-1.06 1.13zm-3.64 8.99-.11-.05-.01-.03.12.05 0 .03zm-.53 4.13c-.3 1.09-.43 2.4.65 3.06.46.31.91.47 1.34.51-1.84-.64-2.08-2-1.99-3.57zm3.43 3.28c-.02.01-.03.02-.05.02-1.04-.13-2.04-.91-2.42-1.87-.28-.68-.36-1.42-.41-2.16.24 1 .54 2.02 1.21 2.82.43.49 1.02.94 1.67 1.18zm.46-.27-.13.09c-.69-.19-1.35-.66-1.79-1.17-.68-.81-.97-1.89-1.22-2.94l.02.06c.37.94.74 1.89 1.43 2.68.43.5 1.03.98 1.69 1.29zm.4-.31-.17.14c-.62-.26-1.24-.72-1.73-1.28-.67-.79-1.08-1.76-1.45-2.75.45.88.95 1.75 1.62 2.5.4.46 1.03 1 1.74 1.38zm.36-.33-.18.17c-1.52-.74-2.61-2.4-3.36-3.91.51.8 1.06 1.59 1.72 2.28.44.47 1.09 1.03 1.81 1.46zm.33-.34-.16.17c-.72-.42-1.37-.98-1.81-1.45-.66-.69-1.2-1.47-1.71-2.28l.02.03c.17.23.35.47.53.69.69.86 1.46 1.65 2.35 2.32.24.17.5.35.78.52zm.29-.34-.13.16c-.27-.16-.54-.34-.79-.53-.86-.65-1.62-1.43-2.3-2.28-.18-.22-.35-.45-.52-.68l-.03-.04c.1.12.21.23.31.35.18.21.37.43.57.64.87.9 1.83 1.73 2.9 2.37zm.27-.33-.12.15c-.15-.09-.27-.17-.37-.24-.91-.61-1.74-1.33-2.5-2.12-.26-.26-.5-.54-.74-.83 1.1 1.17 2.35 2.21 3.72 3.04zm.24-.32-.1.14c-.93-.56-1.8-1.23-2.6-1.96-.38-.33-.73-.69-1.07-1.06l.03.02c.46.44.92.87 1.42 1.25.74.59 1.51 1.13 2.33 1.6zm.22-.3-.08.12c-.81-.47-1.58-1.02-2.31-1.6-.5-.38-.95-.82-1.4-1.25l-.01-.01c.13.12.26.24.39.35 1.06.9 2.2 1.7 3.42 2.39zm.2-.29-.07.11c-1.2-.68-2.33-1.5-3.38-2.39l-.06-.06c.1.08.21.17.31.25 1.01.78 2.08 1.49 3.2 2.1zm.18-.27-.06.09c-1.11-.61-2.18-1.32-3.18-2.1l-.28-.22c1.11.83 2.29 1.59 3.52 2.24zm.17-.27-.05.08c-1.17-.62-2.29-1.35-3.35-2.15 1.08.77 2.22 1.46 3.4 2.06zm2.05-2.66c.05.48.15.96.3 1.42.14.39.35.75.56 1.11.22.38.45.76.58 1.18l.54.18c-.13-.35-.35-.71-.5-.96l-.07-.12c-.11-.16-.22-.32-.34-.48-.22-.31-.45-.62-.61-.97-.2-.44-.35-.9-.45-1.37l-.01.01zm.15-.2c.21 1.07.66 2.07 1.42 2.9.16.24.31.49.44.75.07.15.15.32.2.51l.58.16 0-.01c-.22-.72-.71-1.31-1.2-1.89v0c-.27-.32-.54-.64-.76-.98-.28-.46-.5-.96-.65-1.47l-.03.04zm.15-.19c.15.54.37 1.06.67 1.53.23.34.5.66.76.97.5.59 1 1.18 1.24 1.95l.03.11.56.12c0-.11-.02-.24-.08-.39-.32-.74-.88-1.32-1.44-1.9-.28-.29-.57-.59-.82-.91-.37-.47-.66-1-.86-1.56l-.06.07zm.16-.19c.21.57.5 1.1.88 1.58.25.31.53.6.82.89.57.59 1.15 1.18 1.49 1.94.06.15.1.31.1.48l0 .02.5.09c.05-.08.08-.18.07-.31-.15-.65-.64-1.15-1.1-1.63l-.21-.22c-.19-.2-.4-.38-.6-.56-.26-.24-.53-.47-.77-.73-.46-.48-.82-1.03-1.09-1.63l-.08.09zm.17-.18c.27.6.64 1.15 1.1 1.63.24.26.5.49.77.72.21.18.41.37.61.56l.22.22c.48.5 1 1.02 1.16 1.72.01.14-.01.26-.05.35l.34.03c.09-.03.17-.08.24-.15.35-.56-.72-1.55-1.27-2.07l-.18-.17c-.24-.22-.49-.42-.74-.62-.26-.21-.51-.42-.76-.64-.54-.48-.99-1.06-1.33-1.68l-.1.1zm.18-.18c.34.63.79 1.19 1.34 1.67.24.22.5.42.75.63v0h0c.25.2.51.41.75.62l.21.2c.61.56 1.72 1.59 1.27 2.25-.01.01-.03.03-.04.04.22-.02.43-.07.64-.17.38-.33-.03-.83-.29-1.16-.03-.03-.05-.06-.07-.09-.59-.66-1.28-1.18-1.98-1.7h0c-.39-.29-.78-.58-1.15-.89-.56-.48-1-.97-1.33-1.47l-.08.08zm1.51-1.58c.07-.04.14-.08.21-.12.55-.31 1.11-.57 1.68-.83.14-.07.27-.13.41-.2.68-.32 1.38-.65 1.78-1.28.27-.48.23-.86.02-1.15.01.08.01.17 0 .26-.16 1.12-1.2 1.68-2.13 2.18-.17.09-.34.18-.49.27-.5.27-1 .55-1.47.87zm3.6-4 .04.02c.11.17.16.37.13.62-.16.97-1.05 1.44-1.88 1.88-.2.1-.39.21-.57.32-.58.31-1.16.65-1.71 1.03.52-.41 1.08-.78 1.65-1.13.12-.08.26-.16.39-.25.88-.55 1.89-1.18 1.96-2.3 0-.06 0-.13-.01-.18zm-.49-.21.16.06c.03.1.04.21.04.33-.09.98-.94 1.51-1.73 2-.16.1-.33.2-.48.3-.72.43-1.32.84-1.84 1.28.57-.54 1.2-1.01 1.85-1.47.07-.05.14-.1.21-.15.81-.58 1.75-1.27 1.79-2.34zm-.51-.16.23.07c0 .98-.83 1.58-1.57 2.12-.11.08-.21.15-.32.23-.71.51-1.43 1.03-2.06 1.67.57-.66 1.24-1.23 1.92-1.79.05-.04.11-.09.16-.14.69-.58 1.5-1.25 1.63-2.17zm-.52-.14.28.07c-.1.83-.81 1.42-1.45 1.96-.09.07-.18.15-.26.22-.74.59-1.47 1.24-2.08 1.98.54-.78 1.23-1.46 1.93-2.12l.12-.11c.59-.56 1.26-1.21 1.46-2zm-.53-.13.31.07c-.17.71-.77 1.28-1.31 1.8-.07.07-.14.14-.21.2-.67.64-1.36 1.3-1.9 2.07.48-.81 1.11-1.52 1.76-2.22l.08-.09c.49-.53 1.04-1.14 1.27-1.84zm-.52-.12.33.07c-.21.62-.7 1.16-1.15 1.65-.06.06-.11.12-.16.18-.61.66-1.23 1.35-1.71 2.13.42-.82.98-1.55 1.55-2.27.05-.07.11-.14.16-.21.36-.46.75-.98.98-1.55zm-.5-.11.33.07c-.22.53-.6 1.03-.95 1.47-.06.07-.12.15-.17.22-.54.68-1.08 1.37-1.5 2.14.35-.81.85-1.55 1.34-2.29.08-.12.15-.23.23-.35.26-.39.54-.82.72-1.28zm-.47-.11.32.07c-.18.43-.45.84-.71 1.22-.57.82-1.15 1.67-1.57 2.59.29-.84.74-1.62 1.18-2.39.09-.16.19-.33.28-.49.18-.31.36-.65.5-1zm-.43-.11.3.08c-.14.34-.31.66-.49.97-.09.16-.19.33-.28.49-.42.72-.84 1.44-1.14 2.22.24-.83.61-1.6.99-2.38.1-.21.21-.43.31-.64.11-.23.22-.48.32-.73zm-.39-.1.29.07c-.09.24-.2.48-.31.71-.1.21-.21.43-.31.64-.36.73-.72 1.46-.97 2.24.18-.83.5-1.62.82-2.42v.01 0 0 0 0 0 0 0c.11-.26.21-.53.31-.79l.17-.46zm-.36-.1.27.08-.17.44c-.1.26-.21.53-.32.79v0c-.3.74-.61 1.48-.81 2.26.14-.84.4-1.64.67-2.45.1-.31.21-.62.3-.94l.06-.18zm-.31-.1.23.08-.06.18c-.1.31-.2.62-.31.93-.26.76-.52 1.52-.67 2.32.05-.75.27-1.55.5-2.36.11-.38.21-.77.3-1.15zm-.29-.1.23.08c-.09.39-.2.77-.31 1.16-.18.64-.36 1.27-.46 1.87 0-.11.01-.22.01-.33.07-.59.2-1.19.33-1.8.07-.33.14-.65.2-.98zm-.2-.07.15.06c-.06.33-.14.66-.21.99-.07.31-.14.63-.2.94.06-.55.14-1.11.22-1.69v-.01c.01-.1.03-.19.04-.29zm-8.96 6.04c.05.15.1.3.13.45l-.24-.09c-.01-.03-.03-.05-.04-.08-.23-.39-.34-.77-.46-1.19-.15-.42-.39-.81-.66-1.16-.27-.36-.58-.69-.89-1.01l.2-.08c.7.67 1.39 1.39 1.73 2.3.07.24.18.61.24.86zm-2.25-3.39-.05-.04-.19.08.16.16.19-.08zm-.21-.2-.1-.1-.18.08.17.16.17-.08zm-.19-.19-.17-.16-.18.08.16.16.19-.08zm-.32-.3-.11-.1-.16.07.15.15.17-.07zm-.22-.2-.15-.14-.06.03-.07.04.13.14.15-.07zm-.26-.25-.13-.13-.12.07.12.13zm-.24-.24-.11-.12-.1.06.1.12.11-.06zm-.22-.24-.09-.11-.08.06.08.11.09-.06zm-.2-.24-.07-.09-.05.05.05.09.07-.05zm-.16-.22-.04-.06-.03.04.03.06.04-.04zm-.13-.22-.01-.02 0 .01.01.02.01-.01zm8.03-2.3.08-.11.17.05-.08.1-.17-.04zm.21.05.08-.09.26.08-.08.08zm.31.07.08-.08.25.08-.08.06-.25-.06zm.32.08.08-.06.22.07-.08.05-.22-.06zm.33.09.07-.04.19.06-.07.03zm.33.09.06-.03.16.06-.05.02-.17-.05zm.35.1.03-.01.14.05-.03.01zm.34.1.01 0 .05.02-.05-.02zm4.58 1.35.11.02 0 0zm.22.04.32.06 0-.01-.32-.05 0 0zm.44.08.32.06 0-.01-.32-.05zm.47.08.32.05 0 0-.32-.06 0 .01zm.77.14-.18-.03.18.03zm-.29-.06.04.01zm-12.13 6.2.22.08-.01-.02-.23-.08.01.02zm.4 5.75c-.1-.61-.08-1.22-.03-1.84.05.68.15 1.35.4 2 .34.88 1.15 1.61 2.07 1.92l-.05 0c-1.1-.14-2.22-.91-2.4-2.07zm4.89 1.28-.03.03.03-.03zm.17-.18-.01 0 .13-.16.01 0-.13.16zm.28-.35.06-.07-.05.08zm-6.1-6.66c-.11-.22-.22-.44-.28-.68-.22-1.04-.93-1.83-1.65-2.57l-.21.08c.17.19.34.38.49.57.37.45.71.95.89 1.53.02.07.04.14.06.21h0c.06.2.11.41.21.59.03.06.07.12.11.17zm-2.2-3.54.15.17-.2.08-.15-.16zm-.25-.26.16.17-.2.08-.06-.06-.09-.1zm-.25-.25.16.16-.18.08-.14-.16zm-.24-.24.14.14-.16.07-.13-.14zm-.23-.23.12.13-.14.06-.11-.12.13-.07zm-.21-.23.1.12-.12.06-.09-.11.11-.07zm-.19-.23.09.11-.1.06-.08-.11.09-.06zm-.17-.23.07.09-.08.05-.05-.09zm-.13-.2.04.07-.05.04-.03-.07.04-.04zm-.1-.18.01.03-.01.01-.01-.03.01-.01zm8.02-2.57-.06.08-.01.01.15.03.08-.09zm.2.05-.07.09.25.05.08-.07zm.3.07-.07.07.23.05.07-.06-.23-.06zm.31.08-.07.05.2.04.07-.04-.2-.05zm.32.09-.06.04.17.04.06-.03zm.31.09-.04.02.13.03.04-.01-.13-.04zm.31.09-.02.01.1.02zm3.86.98-.14-.03.14.02 0 .01zm.3.05-.26-.04 0-.01.26.03 0 .02zm.34.05-.27-.04 0-.02.28.03-.01.03zm.37.05-.3-.04.01-.03.3.03-.01.04zm.4.05-.31-.04.01-.04.31.04zm.43.06-.32-.04.01-.05.32.04-.01.05zm.44.06-.32-.04.01-.05.31.05zm.44.07-.3-.05.01-.04.29.05 0 .04zm.42.07-.25-.04 0-.04.25.05 0 .03zm.38.08-.18-.04 0-.02.18.06zm-13.15 6.22-.35-.1-.02-.02.35.1.01.02zm5.86 7.34.03.01.08-.06-.04-.02-.07.07zm.24-.26.07.02.12-.13-.08-.04zm.26-.34.09.04.1-.15-.09-.04-.1.15zm.26-.33.04.02.08-.16-.07-.04-.09.16zm.15-.38.06.03.06-.16-.04-.02zm.17-.35.02.01.05-.15-.07.14zm-7.89-6.54c.06.22.11.44.22.64l-.35-.06c-.13-.18-.19-.39-.25-.63-.14-.57-.44-1.07-.77-1.53-.12-.2-.3-.41-.49-.64l.21-.08c.18.21.36.41.53.63.35.45.67.93.84 1.47.02.06.03.13.05.19zm-1.53-2.41-.14-.16-.2.08.01.01.13.15zm-.24-.26-.14-.15-.19.08.14.16zm-.27-.29-.1-.12-.18.08.12.15.19-.08zm-.24-.28-.07-.08-.16.08.11.14.17-.08zm-.17-.2-.1-.12-.13.08.08.11.15-.07zm-.2-.23-.08-.1-.1.07.06.1.12-.07zm-.17-.23-.07-.11-.07.05.06.11zm-.16-.25-.04-.07-.04.04.03.07.05-.04zm-.11-.22-.01-.03-.01.01.01.03.01-.01zm7.85-2.71.07-.1.14.02-.08.09zm.18.02.07-.09.23.04-.07.07zm.3.04.07-.07.22.04-.07.06-.22-.03zm.3.04.07-.05.18.04-.06.04zm.32.05.05-.03.14.03-.05.02-.14-.02zm.31.05.03-.02.09.02-.03.01-.09-.01zm4.02.74-.69-.1.69.06-.01.04zm.23.03.18.02.01-.06-.18-.01-.01.05zm.22.03.27.02.01-.07-.27-.01zm.33.02.29.03.01-.08-.29-.02-.01.07zm.66.06.02-.09-.3-.02-.01.08zm.09.01.31.03.01-.09-.31-.02-.01.09zm.42.04.31.03.01-.09-.31-.03-.01.09zm.73.08 0-.09-.29-.04-.01.09zm.15.02.26.04-.01-.07-.25-.05 0 .08zm.43.07.2.04-.01-.04-.2-.06.01.06zm-13.55 6.4.35.06-.01-.02-.35-.06.01.02zm7.35 7.64-.01 0 .01-.01.02 0-.01 0zm.29-.17-.11-.03.09-.1.12.05-.1.08zm.29-.28-.16-.06.09-.14.17.07zm.22-.32-.17-.07.08-.16.17.08-.08.15zm.16-.36-.16-.08.07-.16.16.08-.06.17zm.11-.38-.14-.07.05-.15.13.06-.04.16zm.07-.38-.11-.05.04-.14.08.04-.01.14 0 .01zm.04-.37-.05-.03.03-.12.03.02-.02.13zm.05-.34 0 0 .01-.03-.01.04zm-8.91-5.12c-.09-.17-.14-.36-.17-.54-.12-.52-.4-1.01-.71-1.45-.18-.23-.36-.46-.54-.68l-.21.08c.2.26.38.51.5.73.29.45.53.98.63 1.51.03.12.08.23.14.32l.36.03zm-1.65-2.94.12.16-.21.08-.12-.15zm-.21-.26.13.16-.2.08-.11-.15.18-.09zm-.2-.25.11.14-.18.08-.1-.14.17-.08zm-.19-.25.1.14-.17.08-.09-.13zm-.16-.23.07.11-.14.07-.06-.1.13-.08zm-.14-.21.05.08-.11.07-.04-.08.1-.07zm-.13-.23.05.09-.08.06-.03-.09.06-.06zm-.09-.18.01.03-.03.03 0-.03.02-.03zm7.87-2.97-.07.09.11.01.07-.08zm.17.02-.07.08.22.01.07-.07zm.29.04-.06.06.2.01.06-.05zm.28.04-.06.04.16.01.06-.03-.16-.02zm.29.04-.04.02.1.01.04-.02zm.28.04-.01.01.05 0zm4.61.48-.18-.01.01-.11.18 0-.01.12zm.32.01-.28-.01.01-.12.28 0zm.35.01-.29-.01.01-.13.29 0-.02.14zm.38.02-.3-.01.02-.14.22.01.08.01zm.39.02-.31-.02.01-.14.3.02zm.4.03-.3-.02.01-.14.28.03.01.13zm.39.04-.26-.03-.01-.13.25.04zm.36.06-.21-.04-.02-.1.2.06zm.31.07-.12-.03-.01-.04.12.06zm-13.91 6.63-.36-.04-.01-.01.36.03.01.02zm8.28 7.56.13.01.01-.01.01-.01-.12-.03zm.21-.25.21.05.08-.08-.21-.08zm.19-.31.24.09.07-.13-.24-.1-.07.14zm.15-.35.16.07.09.04.05-.15-.25-.11zm.11-.37.24.11.03-.16-.23-.11-.04.16zm.08-.37.22.1.01-.15-.21-.1-.03.15zm.06-.36.18.09 0-.14-.17-.08-.02.13zm.04-.35.13.06-.01-.13-.11-.05-.01.12zm.04-.33.08.04 0-.21-.05-.02-.04.19zm.04-.22.04.02.02-.3zm-9.93-4.97c.02.08.05.17.09.25l-.36 0c-.09-.16-.13-.35-.18-.53l-.07-.27c-.19-.57-.51-1.08-.83-1.59l.23-.08c.2.27.39.53.53.77.28.46.5.92.59 1.46zm-1.21-2.34-.11-.15-.2.08.1.15zm-.19-.26-.1-.14-.18.08.08.13zm-.17-.26-.09-.14-.15.08.08.14zm-.17-.26-.08-.13-.13.08.06.12.15-.07zm-.15-.26-.05-.09-.1.07.03.09.12-.07zm-.12-.23-.03-.07-.07.06.02.06zm-.1-.22-.02-.05-.03.04.01.05.04-.04zm7.79-3.19.03-.04.1.01-.02.03zm.16-.01.02-.02.21.01 0 0-.23.01zm5.51.19h0c-.48.01-.96.01-1.45 0 .44-.01.87-.03 1.31-.06l.18-.01-.01.07-.04 0zm.27 0 .18 0 .01-.08-.18.01zm.22 0 .28 0 .01-.09-.28.01-.01.08zm.34 0 .29 0 .01-.1-.29 0-.01.1zm.66.01 0-.11-.29 0 0 .1zm.08.01.29.01-.01-.11-.28-.01 0 .11zm.39.02.26.02-.02-.1-.25-.03.01.11zm.39.04.21.03-.03-.07-.2-.05.02.09zm.37.07.14.03 0-.03-.15-.07zm-14.34 6.94zm10.01 7.49-.03-.01.05-.06.17.05-.03.02zm.41-.19-.26-.07.06-.12.27.1zm.21-.28-.31-.11.05-.14.31.13zm.12-.33-.32-.13.03-.16.32.14-.03.16zm.05-.37-.31-.13.01-.15.3.13 0 .15zm-.29-.49 0-.16.27.12.01.16zm.25-.28-.24-.11 0-.13.23.1zm-.05-.37-.2-.09 0-.21.16.07zm-.04-.26-.16-.07c.01-.32.04-.64.09-.96-.01.2 0 .4.01.61l.05.42zm-10.91-4.92c-.05-.12-.09-.27-.13-.42-.08-.29-.17-.63-.38-1.02-.14-.3-.33-.59-.52-.89l-.25.08.12.24c.27.53.55 1.06.65 1.65.02.16.07.28.13.38l.37-.02zm-1.2-2.59.09.14-.23.08-.07-.14zm-.15-.24.08.13-.19.08-.06-.13zm-.14-.25.07.12 0 0h0l-.16.07-.05-.12.14-.07zm-.11-.24.05.11-.12.06-.03-.1zm-.09-.21.03.07-.09.06-.01-.07zm-.06-.2.01.04-.04.03 0-.04.03-.03zm7.87-3.44-.08.11.07-.01.1-.11zm.15-.01-.1.11.2-.02.11-.1-.21.01zm.29-.01-.1.09.15-.01.11-.08-.16 0zm.27-.01-.1.07.08-.01.13-.07zm.29 0-.09.05 0 0 .12-.05-.03 0zm5.21-.14-.17.01.01-.32.17-.01-.01.32zm.32-.02-.28.02 0-.32.28-.01 0 .32zm.34-.01-.29.01 0-.32.28 0 .01.3zm.35 0-.29 0-.01-.3.27.02.03.28zm.35.01-.27-.01-.03-.27.24.04.05.24zm.33.03-.23-.03-.05-.23.2.06zm.3.06-.16-.03-.05-.16.15.07zm-3.24 10.64c-.04.37-.05.75-.02 1.12.02.15.04.32.07.49l.01.06.26.11-.06-.2c-.12-.42-.23-.81-.24-1.12-.01-.15-.01-.3-.02-.45zm.06 1.7.03.23.3.13-.07-.24zm.08.59-.02-.14.33.14.03.15zm.03.38-.01-.16.36.15.02.16-.37-.15zm-.01.37.01-.15.38.15-.01.15-.38-.15zm-.06.36.03-.15.37.14-.04.13-.36-.12zm-.11.32.05-.11.32.11-.06.08zm-.16.27.05-.07.21.06-.06.04-.2-.03zm.88-1.59.02.14.41.16-.03-.15zm.05.44.01.08.42.15-.01-.14-.42-.16zm.01.29-.01.14.4.13.02-.12zm-.06.34-.04.12.36.09.05-.08zm-.13.32-.04.06.27.03.05-.03-.27-.07zm-12.42-7.65c.04.18.08.35.15.52l-.37.04c-.05-.07-.08-.15-.1-.26-.1-.53-.29-1.09-.5-1.59l-.14-.33.25-.09.09.17c.17.31.33.62.43.93.09.19.14.4.19.6zm-.77-1.8-.06-.13-.21.08.04.13.23-.08zm-.13-.25-.06-.13-.17.08.03.12zm-.11-.26-.04-.1-.13.07.02.1.15-.07zm-.09-.25-.02-.08-.08.06.01.07zm-.06-.24-.01-.03-.03.03 0 .03.04-.03zm7.83-3.6.04-.06.05 0-.05.06zm.12-.02.04-.05.17-.01-.03.03-.18.03zm.28-.05.02-.02.1-.01-.01.01-.11.02zm5.85-.82.17-.01-.02-.26-.16.01.01.26zm.2-.02.28-.01-.03-.25-.27.01.02.26zm.32-.02.27 0-.04-.24-.26-.01.03.25zm.34 0 .26.01-.06-.21-.24-.03.04.23zm.34.02.22.03-.07-.17-.2-.06.05.2zm.33.05.16.04-.07-.11-.15-.07.06.14zm.31.08 0 0 0 0 0 0zm-2.68 11.47c-.01-.24-.02-.48-.02-.71.02.2.05.4.1.6.08.4.25.78.41 1.15h0v0l.24.57-.37-.15-.09-.31c-.12-.38-.23-.75-.26-1.15zm.75 1.65-.38-.15.06.24.4.16zm.41.7-.02-.14.48.17.02.14-.47-.16zm.02.35 0-.13.47.16-.01.11zm-.03.32.02-.11.43.13-.04.09-.41-.1zm-.1.26.03-.06.32.08-.04.02-.07 0-.25-.03zm-13.56-6.98c-.04-.08-.06-.16-.08-.23-.1-.55-.27-1.05-.48-1.57l-.06-.17-.07-.17-.24.08c.06.28.14.56.22.84l.08.27c.04.11.06.24.08.37.04.23.09.47.21.64l.35-.05zm-.78-2.37.04.12-.23.08-.02-.13zm-.08-.24.03.11-.17.07-.01-.1zm-.05-.22.02.07-.12.05 0-.07zm-.03-.19 0 .03-.05.03 0-.02.05-.04zm7.95-3.86-.03.04.01 0 .04-.04-.02 0zm.1-.02-.03.03.15-.04.01-.01-.13.02zm6.38-1.39-.16.01-.03-.29.15-.01.04.28zm.29-.01-.26.01-.04-.28.25.01zm.3.01-.25-.01-.06-.26.24.03zm.28.03-.22-.03-.07-.23.2.06zm.26.05-.17-.04-.07-.17.16.08zm.16.05-.03-.01-.02-.03.05.04zm-2.12 10.52c.02.4.06.79.14 1.18.09.39.25.77.42 1.15.11.24.21.48.3.73l.47.18c-.13-.35-.32-.68-.52-1.01-.21-.37-.43-.74-.56-1.13-.11-.36-.2-.72-.25-1.09zm.87 3.09.47.18.07.23-.48-.17zm.82.7.01.13.52.14 0-.11-.53-.17zm.02.34-.01.1.45.1.04-.08zm-.07.3-.03.07.34.04.04-.03zm-15.04-7.28c.03.21.07.41.17.59l-.33.06c-.12-.12-.2-.32-.22-.63-.02-.15-.05-.3-.08-.45-.06-.33-.13-.66-.14-.99l.24-.08c.06.29.14.58.22.86l.06.23c.04.13.07.27.09.41zm-.4-1.61-.02-.12-.2.08 0 .12.22-.08zm-.04-.27-.01-.08-.15.08-.01.07zm-.02-.25 0-.03-.09.06-.01.01zm15.46-6.02.1.09-.06-.02-.04-.07zm-.07.04-.17-.04-.09-.19.16.08zm-.34-.26.1.21-.22-.01-.09-.26.21.06zm-.26-.07.09.27-.24 0-.08-.3zm-.25-.03.08.3-.14.01-.06-.32zm-6.39 2.23.01 0-.01 0zm7.3 12.46.06.22.54.18-.06-.22zm.83.75 0-.1.51.13-.03.07-.48-.1zm-.05.25.02-.07.38.08-.05.03-.35-.04zm-16.17-6.53c-.1-.15-.17-.35-.19-.64-.02-.15-.05-.3-.08-.45-.06-.32-.12-.64-.13-.97l-.23.08c-.09.55 0 1.15.1 1.69.04.13.09.26.18.33.01.01.02.02.03.02l.32-.07zm-.41-2.27 0 .1-.18.06.03-.09zm.01-.2 0 .03-.09.04.01-.02.08-.05zm15.48-6.67-.14-.13.06.1.08.03zm-.16-.06-.12-.18-.18-.1.11.23zm-.23-.05-.12-.24-.2-.06.11.28.21.02zm-.24-.02-.11-.29-.09-.02.09.3zm1.7 15.05.58.18.02.18-.55-.14-.05-.21zm.76.58-.02.06.39.04.03-.02-.4-.08zm-17.63-6.59c.02.13.09.26.18.36l-.26.06c-.2-.08-.33-.26-.36-.61-.11-.56-.04-1.02.17-1.42l.17-.06c-.08.56 0 1.11.1 1.67zm-.08-1.8.01-.06-.09.04-.03.05zm15.27-7.69.21.2-.12-.05zm-.09-.06.13.2-.18-.05-.14-.25zm-.22-.12.14.26-.07-.01-.11-.27.04.02zm3.32 16.05-.55-.14.01.16.5.09zm-18.55-5.89c-.15-.13-.25-.34-.29-.66-.09-.52-.04-.97.12-1.35l-.12.04c-.25.29-.4.62-.42 1-.03.69.18.95.59 1l.12-.03zm15.35-10.17-.29-.27.14.21zm-.18-.08-.06-.1.04.09.02.01zm3.55 16.17.46.08-.07.06-.42-.03zm-19.6-6.89c-.02.6.11.92.36 1.08-.37.01-.69-.1-.74-.57-.11-.55.19-1 .66-1.36-.16.25-.26.53-.28.85zm20.41 7.02-.14-.01-.02.03.16-.01zm-20.53-5.82c-.24-.09-.41-.29-.45-.66-.08-.47.07-.85.36-1.18-.4.21-.77.49-.84.95-.03.77.37.95.93.89z" fill="black" />
		</mask>
		<g mask="url(#mask0_6359_42888)">
			<ellipse cx="14" cy="6" rx="16" ry="12" fill="url(#paint0_radial_6359_42888)" />
			<ellipse cx="23.5" cy="20" rx="9.5" ry="9" fill="url(#paint1_radial_6359_42888)" />
			<ellipse cx="8" cy="16.5" rx="13" ry="10.5" fill="url(#paint2_radial_6359_42888)" />
		</g>
		<path d="M10.977 14C10.9256 14 10.8835 13.9836 10.8507 13.9509C10.818 13.9182 10.8016 13.8761 10.8016 13.8246V13.4037C10.8016 13.3663 10.811 13.3172 10.8297 13.2564C10.8531 13.1909 10.9022 13.1278 10.977 13.067L11.903 12.148C12.2444 11.8861 12.5204 11.6639 12.7308 11.4815C12.9459 11.2992 13.105 11.1331 13.2078 10.9835C13.3107 10.8338 13.3622 10.6888 13.3622 10.5485C13.3622 10.3661 13.3107 10.2165 13.2078 10.0996C13.1096 9.97796 12.9483 9.91716 12.7238 9.91716C12.5741 9.91716 12.4479 9.9499 12.345 10.0154C12.2468 10.0762 12.1696 10.158 12.1135 10.2609C12.0574 10.3638 12.0199 10.476 12.0012 10.5976C11.9872 10.6584 11.9568 10.7005 11.91 10.7239C11.8679 10.7473 11.8235 10.759 11.7767 10.759H11.0331C10.9864 10.759 10.949 10.745 10.9209 10.7169C10.8928 10.6842 10.8788 10.6491 10.8788 10.6117C10.8835 10.3965 10.9279 10.1931 11.0121 10.0013C11.101 9.80959 11.2249 9.63889 11.3839 9.48923C11.5429 9.33957 11.7347 9.22265 11.9591 9.13847C12.1836 9.04961 12.4385 9.00518 12.7238 9.00518C13.1166 9.00518 13.4464 9.07066 13.7129 9.20161C13.9795 9.32788 14.1806 9.50326 14.3162 9.72775C14.4519 9.95223 14.5197 10.2118 14.5197 10.5064C14.5197 10.7309 14.4729 10.939 14.3794 11.1308C14.2905 11.3225 14.1596 11.5073 13.9865 11.685C13.8135 11.858 13.6077 12.0381 13.3692 12.2252L12.5414 13.0529H14.4495C14.501 13.0529 14.5431 13.0693 14.5758 13.1021C14.6085 13.1348 14.6249 13.1769 14.6249 13.2283V13.8246C14.6249 13.8761 14.6085 13.9182 14.5758 13.9509C14.5431 13.9836 14.501 14 14.4495 14H10.977Z" fill="#2775CA" fill-opacity="0.75"/>
	</g>
	<defs>
		<radialGradient id="gradient_crosscurve_stable_2" cx="0" cy="0" gradientTransform="rotate(54.2 -42.3 263.4) scale(497.082)" gradientUnits="userSpaceOnUse" r="1">
			<stop offset="0" stop-color="#cdf850" />
			<stop offset="1" stop-color="#ffffff" />
		</radialGradient>
		<radialGradient id="paint0_radial_6359_42888" cx="0" cy="0" r="1" gradientUnits="userSpaceOnUse" gradientTransform="translate(14 6) rotate(90) scale(12 16)">
			<stop stop-color="#2775CA" />
			<stop offset="1" stop-color="#2775CA" stop-opacity="0" />
		</radialGradient>
		<radialGradient id="paint1_radial_6359_42888" cx="0" cy="0" r="1" gradientUnits="userSpaceOnUse" gradientTransform="translate(23.5 20) rotate(90) scale(9 9.5)">
			<stop stop-color="#FCFC03" />
			<stop offset="1" stop-color="#FCFC03" stop-opacity="0" />
		</radialGradient>
		<radialGradient id="paint2_radial_6359_42888" cx="0" cy="0" r="1" gradientUnits="userSpaceOnUse" gradientTransform="translate(8 16.5) rotate(90) scale(10.5 13)">
			<stop stop-color="#009393" />
			<stop offset="1" stop-color="#009393" stop-opacity="0" />
		</radialGradient>
	</defs>
</svg>
