<svg viewBox="0 0 200 200" fill="none" xmlns="http://www.w3.org/2000/svg">
    <rect width="200" height="200" fill="url(#paint0_linear_aura)"/>
    <g fill="#7c3aed" transform="scale(2.6) translate(13 13)">
        <path d="M37.1 22.41C36.77 22.34 36.42 22.27 36.07 22.21C35.96 21.39 35.78 20.59 35.54 19.82C40.19 20.57 43.2 21.76 43.2 23.1C43.2 23.12 43.2 23.13 43.2 23.15C43.09 25.39 34.53 27.21 24 27.21C13.4 27.21 4.8 25.37 4.8 23.1C4.8 23.09 4.8 23.07 4.8 23.06C4.86 21.72 7.93 20.53 12.63 19.79C12.38 20.56 12.2 21.36 12.09 22.18C11.68 22.25 11.28 22.33 10.9 22.41C10.4 22.52 9.95 22.63 9.53 22.74V22.74C9.09 22.86 8.7 22.98 8.36 23.1C9.02 23.34 9.87 23.57 10.9 23.79C11.25 23.86 11.61 23.94 11.99 24L11.99 24C15.17 24.58 19.36 24.94 24 24.94C28.72 24.94 32.97 24.57 36.17 23.98L36.17 23.98C36.49 23.92 36.8 23.85 37.1 23.79C38.13 23.57 38.98 23.33 39.64 23.1C38.98 22.87 38.13 22.63 37.1 22.41Z" />
        <path d="M38.47 16.02C38.47 16.01 38.47 16 38.47 15.99C38.47 14.78 35.25 13.73 30.56 13.22C31.68 13.96 32.67 14.88 33.5 15.95C33.56 15.97 33.62 15.98 33.68 15.99C33.63 16 33.59 16.01 33.55 16.02L33.55 16.02C31.16 16.51 27.83 16.83 24.09 16.83C20.34 16.83 17 16.51 14.61 16.01L14.61 16.01C14.57 16.01 14.53 16 14.5 15.99C14.55 15.98 14.6 15.97 14.65 15.96C15.48 14.89 16.47 13.96 17.59 13.22C12.91 13.74 9.71 14.78 9.71 15.99V15.99L9.71 15.99C9.71 17.5 16.67 18.7 21.36 19.04C22.41 19.11 24.06 19.12 24.06 19.12C24.64 19.14 25.69 19.11 26.74 19.04C31.46 18.71 38.4 17.53 38.47 16.02Z" />
        <path d="M9.71 31.68C9.71 30.89 11.08 30.17 13.34 29.62C13.7 30.34 14.13 31.02 14.61 31.65C14.57 31.66 14.53 31.67 14.5 31.68C14.55 31.69 14.6 31.7 14.65 31.71C14.66 31.71 14.66 31.72 14.66 31.72 H 14.71C17.1 32.2 20.39 32.51 24.09 32.51C27.78 32.51 31.08 32.2 33.46 31.72 H 33.49C33.49 31.72 33.5 31.72 33.5 31.71C33.56 31.7 33.62 31.69 33.68 31.68C33.64 31.67 33.59 31.66 33.55 31.65C34.03 31.02 34.46 30.34 34.82 29.61C37.09 30.16 38.47 30.88 38.47 31.68C38.47 31.69 38.47 31.71 38.46 31.72C38.35 33.41 31.96 34.78 24.09 34.78C16.22 34.78 9.82 33.41 9.71 31.72C9.71 31.71 9.71 31.69 9.71 31.68Z" />
    </g>
    <defs>
        <linearGradient id="paint0_linear_aura" x1="100" y1="0" x2="100" y2="200" gradientUnits="userSpaceOnUse">
            <stop stop-color="#1e293b"/>
            <stop offset="0.8" stop-color="#0f172a"/>
        </linearGradient>
    </defs>
</svg>