<svg viewBox="0 0 200 200" fill="none" xmlns="http://www.w3.org/2000/svg">
    <rect width="200" height="200" fill="url(#paint0_linear_convex)"/>
    <g transform="scale(3.125) translate(16 16)">
        <rect x="17.689" y="8.376" width="1.741" height="2.625" fill="#1682FE"/>
        <rect x="12.685" width="1.741" height="2.625" fill="#1682FE" y="3.5"/>
        <rect x="7.687" y="6" width="1.741" height="2.625" fill="#60D8A4"/>
        <rect x="5.186" y="16" width="1.759" height="7.499" fill="#F4BB3B"/>
        <rect x="5.186" y="8.502" width="1.759" height="7.499" fill="#60D8A4"/>
        <rect x="20.187" y="10.875" width="1.741" height="2.625" fill="#1682FE"/>
        <rect x="20.186" y="18.5" width="1.741" height="2.625" fill="#FF5A5A"/>
        <rect x="17.689" y="21" width="1.741" height="2.625" fill="#FF5A5A"/>
        <rect x="12.686" y="25.874" width="1.741" height="2.625" fill="#FF5A5A"/>
        <rect x="7.686" y="23.375" width="1.741" height="2.625" fill="#F4BB3B"/>
        <path d="M 26.814 13.5 L 26.814 8.5 L 24.313 8.5 L 24.313 6 L 19.314 6 L 19.314 3.5 L 14.314 3.5 L 14.314 6 L 9.314 6 L 9.314 8.5 L 6.813 8.5 L 6.813 23.5 L 9.313 23.5 L 9.313 26 L 14.312 26 L 14.312 28.499 L 19.312 28.499 L 19.312 26 L 24.313 26 L 24.313 23.5 L 26.814 23.5 L 26.814 18.5 L 21.814 18.5 L 21.814 21 L 19.314 21 L 19.314 23.5 L 14.314 23.5 L 14.314 21 L 11.814 21 L 11.814 11 L 14.314 11 L 14.314 8.5 L 19.314 8.5 L 19.314 11 L 21.814 11 L 21.814 13.5 L 26.814 13.5 Z" fill="#FFFFFF"/>
    </g>
    <defs>
        <linearGradient id="paint0_linear_convex" x1="100" y1="0" x2="100" y2="200" gradientUnits="userSpaceOnUse">
            <stop stop-color="#212120"/>
            <stop offset="0.8" stop-color="#3A3A3A"/>
        </linearGradient>
    </defs>
</svg>