<svg viewBox="0 0 400 400" fill="none" xmlns="http://www.w3.org/2000/svg">
    <rect width="400" height="400" fill="url(#paint0_linear_287_74)" />
    <path d="M130.824 271.997C121.439 271.997 113.483 269.799 106.967 265.396C100.448 260.994 95.8574 254.994 93.1989 247.397C90.5369 239.8 90.2925 231.24 92.4622 221.71C94.6319 212.184 98.5897 203.654 104.342 196.114C110.088 188.578 116.955 182.608 124.938 178.206C132.917 173.803 141.304 171.605 150.09 171.605C157.189 171.605 163.41 173.082 168.757 176.038C174.098 178.994 178.24 183.001 181.176 188.068L192.303 139.228C192.936 136.456 194.315 134.225 196.445 132.533C198.571 130.846 200.962 130 203.61 130C206.259 130 208.412 130.846 209.711 132.533C211.01 134.225 211.345 136.456 210.712 139.228L191.918 221.714C189.748 231.244 185.599 239.804 179.479 247.4C173.351 254.997 166.059 260.997 157.597 265.4C149.133 269.802 140.209 272 130.824 272V271.997ZM134.534 255.719C140.672 255.719 146.481 254.246 151.969 251.286C157.453 248.333 162.171 244.263 166.122 239.075C170.07 233.891 172.772 228.106 174.229 221.71C175.712 215.201 175.648 209.412 174.034 204.345C172.42 199.282 169.541 195.272 165.406 192.316C161.264 189.363 156.124 187.883 149.99 187.883C143.856 187.883 138.194 189.36 132.646 192.316C127.097 195.272 122.333 199.282 118.352 204.345C114.367 209.412 111.638 215.201 110.151 221.71C108.695 228.106 108.789 233.894 110.436 239.075C112.08 244.26 115.007 248.333 119.205 251.286C123.404 254.242 128.51 255.719 134.531 255.719H134.534Z" fill="white"/>
    <path d="M252.403 270.594C249.768 270.594 247.552 269.694 245.755 267.894C243.958 266.094 243.06 263.873 243.06 261.233V130H261.746V261.233C261.746 263.873 260.847 266.094 259.051 267.894C257.254 269.694 255.038 270.594 252.403 270.594ZM204.25 147.282C201.735 147.282 199.639 146.502 197.962 144.941C196.405 143.261 195.626 141.161 195.626 138.641C195.626 136.121 196.405 134.08 197.962 132.52C199.639 130.84 201.735 130 204.25 130H300.376C302.891 130 304.927 130.84 306.485 132.52C308.162 134.08 309 136.121 309 138.641C309 141.161 308.162 143.261 306.485 144.941C304.927 146.502 302.891 147.282 300.376 147.282H204.25Z" fill="white"/>
    <defs>
        <linearGradient id="paint0_linear_287_74" x1="200" y1="401.314" x2="200" y2="0.998807" gradientUnits="userSpaceOnUse">
            <stop stop-color="#030008"/>
            <stop offset="1" stop-color="#5A00E9"/>
        </linearGradient>
    </defs>
</svg>