<svg viewBox="0 0 100 100" fill="none" xmlns="http://www.w3.org/2000/svg">
    <rect width="100" height="100" fill="#F1F1F1" />
    <g fill="#1D1D1F">
        <path d="M67.4915 15.3772C62.9223 15.3772 59.1805 17.1376 56.332 19.8225C52.4365 23.4245 50.3422 27.4852 48.4677 34.2973L47.7208 37.3594C44.1987 52.6035 39.9297 71.5237 38.3553 76.1168C37.6084 78.7944 36.7078 79.9482 35.2872 79.9482C34.1449 79.9482 31.3697 76.8343 31.2598 76.679C30.4397 75.6878 29.2022 75.0518 27.8256 75.0518C27.3057 75.0518 26.8078 75.1479 26.3465 75.3106C24.6037 75.9319 23.3442 77.6035 23.3442 79.5784C23.3442 80.0813 23.4321 80.5621 23.5786 81.0133C24.1644 83.1879 26.7712 84.6228 29.151 84.6228C31.5308 84.6228 34.0204 84.0902 36.7151 82.4778C42.3314 79.1864 46.9007 74.3565 49.9688 67.6183C52.063 62.8698 55.1385 51.7603 58.5068 37.3594L59.2537 34.2973C60.3741 29.3935 61.2747 25.8728 62.3218 22.5813C63.2225 20.0518 64.4161 17.9068 65.9172 17.9068C67.1913 17.9068 67.638 18.9793 67.638 20.7396C67.638 20.9985 67.616 21.3091 67.5794 21.6346C67.5721 21.7086 67.5647 21.7825 67.5501 21.8639C67.5428 21.9748 67.5354 22.0858 67.5354 22.1967C67.5354 24.4452 69.3441 26.2796 71.5775 26.2796C72.134 26.2796 72.6539 26.1686 73.1371 25.9615C74.5138 25.3772 75.5023 24.0458 75.6048 22.4704C75.6341 22.2337 75.6561 21.9896 75.6561 21.7381C75.6561 17.8328 72.5074 15.3772 67.4915 15.3772Z" />
        <path d="M42.8659 32.8328L41.6357 36.8416H64.7894L65.9317 32.8328H42.8659Z" />
    </g>
    <circle transform="translate(58.1108 74.9974)" cx="4.84" cy="4.84" r="4.84" fill="#F96D30" />
</svg>
