<svg viewBox="0 0 600 600" xmlns="http://www.w3.org/2000/svg">
	<rect width="600" height="600" fill="url(#a)" />
	<path fill="#ffffff" transform="scale(2.12,2.12)" d="M212.43,141.73c0-14.38-4.32-27.76-11.72-38.94l21.95-21.95L202.92,61.1l-21.89,21.89 c-11.24-7.55-24.76-11.96-39.29-11.96c-14.38,0-27.76,4.32-38.94,11.72L80.84,60.8L61.1,80.54l21.89,21.89 c-7.55,11.24-11.96,24.76-11.96,39.29c0,14.38,4.32,27.76,11.72,38.94L60.8,202.62l19.74,19.74l21.89-21.89 c11.24,7.55,24.76,11.96,39.29,11.96c14.38,0,27.76-4.32,38.94-11.72l21.96,21.96l19.74-19.74l-21.89-21.89 C208.02,169.78,212.43,156.26,212.43,141.73z M98.96,141.73c0-23.59,19.19-42.78,42.78-42.78s42.78,19.19,42.78,42.78 s-19.19,42.78-42.78,42.78S98.96,165.32,98.96,141.73z" />
	<radialGradient id="a" cx="0" cy="0" r="1" gradientUnits="userSpaceOnUse" gradientTransform="translate(196 143.5) rotate(54.1675) scale(497.082)">
		<stop stop-color="#000000" />
		<stop offset="1" stop-color="#333333" />
	</radialGradient>
</svg>
