<svg width="600" height="600" viewBox="0 0 600 600" fill="none" xmlns="http://www.w3.org/2000/svg">
	<rect width="600" height="600" fill="url(#paint0_radial)" />
	<g transform="matrix(1.82002022245,0,0,1.71913202934,-65,-45)">
		<g id="f-logo-1">
			<g id="Layer1">
				<linearGradient id="linearGradient1" x1="35.363636" y1="145.090909" x2="339.090909" y2="145.090909" gradientUnits="userSpaceOnUse">
					<stop offset="1e-05" stop-color="#1b75ba" stop-opacity="1" />
					<stop offset="0.17" stop-color="#2967b2" stop-opacity="1" />
					<stop offset="0.72" stop-color="#543d99" stop-opacity="1" />
					<stop offset="1" stop-color="#652d8f" stop-opacity="1" />
				</linearGradient>
				<path id="path1" fill="url(#linearGradient1)" stroke="none" d="M365.0247 95.9091 365.0247 25.9091 191.7273 25.9091 35.3636 25.9091 35.3636 181.5455C35.3636 237.4546 67.0909 264.2727 102.0909 264.2727 129.8938 265.1486 155.6094 249.5839 167.7273 224.5455 168.1695 223.7077 168.1453 222.7004 167.6634 221.8848 167.1814 221.0693 166.3108 220.5622 165.3636 220.5455L118.1818 220.5455C116.3095 220.4962 114.8175 218.9639 114.8182 217.0909L114.8182 182.9091C114.8175 181.0361 116.3095 179.5038 118.1818 179.4545L181.8182 179.4545C184.3909 179.4456 186.7127 177.9097 187.7273 175.5455 215.5454 111.9091 264.8182 98.0909 293.0909 95.8182 307.6071 94.6516 322.2164 95.8179 336.3636 99.2727 337.2661 99.604 356 102 365.0247 125.9091Z" />
			</g>
		</g>
		<g id="x-logo-2">
			<g id="g1">
				<linearGradient id="linearGradient2" x1="73.038164" y1="275.106532" x2="392.394819" y2="275.106532" gradientUnits="userSpaceOnUse" gradientTransform="matrix(0.836072 -0.548619 0.548619 0.836072 -112.750057 172.734729)">
					<stop offset="1e-05" stop-color="#d81c5c" stop-opacity="1" />
					<stop offset="1" stop-color="#ed4036" stop-opacity="1" />
				</linearGradient>
				<path id="path2" fill="url(#linearGradient2)" stroke="none" d="M35.3636 305.6846 35.3636 374.9199 365.0247 374.2266 365.0247 217.9536C364.6338 161.9592 332.8897 135.0982 297.5699 135.4852 269.7393 134.8418 244.126 150.6041 232.1592 175.7388 231.7362 176.5955 231.7984 177.6121 232.3225 178.4109 232.8466 179.2096 233.7545 179.6713 234.7088 179.6242L281.6795 179.3738C283.571 179.3646 285.1147 180.8847 285.1349 182.776L285.4005 217.0637C285.4095 217.9755 285.0461 218.8515 284.3943 219.4891 283.7424 220.1267 282.8586 220.4706 281.9473 220.4413L218.4251 220.8805C215.8656 220.8981 213.5542 222.4148 212.5193 224.7558 185.0887 288.6677 135.7739 302.7958 107.45 305.3734 92.9393 306.6033 78.3252 305.4959 64.1656 302.0933 63.2018 301.7383 44 294 35.3636 272.0933Z" />
			</g>
		</g>
	</g>
</svg>
