<svg focusable="false" aria-hidden="true" class="chakra-icon css-1d8i7o0" width="400" height="400" viewBox="0 0 24 24" fill="none" xmlns="http://www.w3.org/2000/svg"><path d="M10.7526 4.00003C11.0889 4.00003 11.3614 4.27263 11.3615 4.60889V8.15702C11.3615 8.53414 11.5007 8.89804 11.7524 9.17894C12.3379 9.83245 13.3514 9.86126 13.9732 9.24295L19.0539 4.16232C19.135 4.08118 19.2352 4.0304 19.3399 4.01011C19.3574 4.00673 19.375 4.00424 19.3926 4.00255C19.5516 3.9873 19.7159 4.04058 19.8377 4.16232C20.0541 4.37876 20.0541 4.72964 19.8377 4.94609L12.89 11.8937C12.8334 12.0488 12.9394 12.2404 13.1327 12.2404H19.2258C19.6533 12.2404 19.9999 12.5871 20 13.0146V19.2258C19.9999 19.6533 19.6533 20 19.2258 20H13.2474C12.9111 20 12.6385 19.7273 12.6385 19.3911V15.843C12.6385 15.4658 12.4993 15.102 12.2476 14.8211C11.6611 14.1665 10.6452 14.1386 10.0238 14.7601L4.94608 19.8377C4.8514 19.9323 4.73098 19.9856 4.60737 19.9975C4.57201 20.0008 4.53637 20.0008 4.50102 19.9975C4.44809 19.9924 4.39575 19.9797 4.34577 19.9594C4.31239 19.9459 4.28 19.9291 4.24925 19.9087C4.21851 19.8885 4.18936 19.8647 4.1623 19.8377C4.05411 19.7295 4.00001 19.5876 4 19.4458C4 19.4103 4.00332 19.3749 4.01008 19.3399C4.03036 19.2352 4.08116 19.1351 4.1623 19.0539L11.11 12.1058C11.1662 11.9508 11.0605 11.7596 10.8673 11.7596H4.7742C4.34669 11.7595 4.00006 11.4129 4 10.9854V4.77422C4.00001 4.34667 4.34666 4.00006 4.7742 4.00003H10.7526Z" fill="#D9D9D9"></path></svg>