<svg viewBox="0 0 22 22" fill="none" xmlns="http://www.w3.org/2000/svg">
    <circle cx="11" cy="11" r="11" fill="black" />
    <path d="M11.2638 16.1066C9.52811 16.1066 7.98588 15.5048 6.78644 14.3554C5.98305 13.5856 5.36347 12.5966 4.94491 11.416C4.5311 10.2489 4.32129 8.90954 4.32129 7.43507H7.02347C7.02347 8.60028 7.18089 9.63511 7.49137 10.5108C7.7675 11.2896 8.15892 11.9254 8.65474 12.4006C9.39608 13.111 10.3472 13.4459 11.4817 13.396C12.5273 13.3499 13.334 13.0236 13.8794 12.4261C14.3334 11.9287 14.5834 11.2562 14.5834 10.5325C14.5896 10.121 14.4362 9.7231 14.1556 9.42242C14.024 9.28361 13.8652 9.17361 13.6891 9.09935C13.5129 9.0251 13.3234 8.98821 13.1323 8.99101C12.8684 8.993 12.6144 9.09187 12.4186 9.26888C12.2302 9.44567 12.0056 9.81014 12.0056 10.5425H9.30342C9.30342 8.84106 9.99261 7.83716 10.5707 7.2946C11.2676 6.64786 12.1821 6.28751 13.1323 6.28522C13.6881 6.28219 14.2386 6.39289 14.7501 6.61051C15.2616 6.82814 15.7234 7.14811 16.107 7.5508C16.867 8.34535 17.2856 9.40429 17.2856 10.5325C17.2856 11.9335 16.7843 13.2542 15.874 14.2515C15.1541 15.0403 13.8282 16.0011 11.6004 16.0991C11.4874 16.1041 11.3753 16.1066 11.2638 16.1066Z" fill="white"/>
</svg>