<svg width="600" height="600" viewBox="0 0 600 600" fill="none" xmlns="http://www.w3.org/2000/svg">
    <g clip-path="url(#clip0_10836_103858)">
        <path d="M592 300C592 461.267 461.267 592 300 592C138.733 592 8 461.267 8 300C8 138.733 138.733 8 300 8C461.267 8 592 138.733 592 300Z" fill="url(#paint0_radial_10836_103858)" stroke="url(#paint1_linear_10836_103858)" stroke-width="16"/>
        <path d="M378.1 341.6c0-40.8-24.8-54.5-72.8-61.2-35.5-5-42.3-13.5-42.3-30 0-16.6 12-26.8 35-26.8 20.9 0 33 7.3 37.9 24a8.4 8.4 0 003.2 4.7 8.8 8.8 0 005.3 1.8h18.3c1.3 0 2.4-.1 3.5-.7a8.1 8.1 0 004.7-8.7C365 218 347 202 318.9 197v-180a8.7 8.7 0 00-8.7-8.8h-17.5a8.7 8.7 0 00-8.7 8.7V196c-35 4.9-57 28-57 57.6 0 38.3 23.2 53.2 72 59.8 33.2 5.4 42.6 12.6 42.6 31.4s-16 31.5-38.6 31.5c-30.5 0-40.8-13.3-44.3-30.6a9 9 0 00-3-5 8.6 8.6 0 00-5.5-2h-20c-1.1 0-2.4.2-3.4.6-1.1.6-2 1.3-2.9 2.2a8.1 8.1 0 00-1.8 6.6c5 29.1 23.7 50.5 61.9 55.6v27.6a8.7 8.7 0 008.7 8.8h17.5a8.7 8.7 0 008.7-8.8v-27.8c36.2-5.6 59.2-30.6 59.2-61.9z" fill="url(#paint1_linear_10836_103858)"/>
    </g>
    <defs>
        <radialGradient id="paint0_radial_10836_103858" cx="0" cy="0" r="1" gradientUnits="userSpaceOnUse" gradientTransform="translate(196 143.5) rotate(54.1675) scale(497.082)">
        <stop offset="0.230743" stop-color="white"/>
        <stop offset="1" stop-color="#C0D4FF"/>
        </radialGradient>
        <linearGradient id="paint1_linear_10836_103858" x1="101" y1="49" x2="471.5" y2="563" gradientUnits="userSpaceOnUse">
        <stop stop-color="#598EFF"/>
        <stop offset="1" stop-color="#0052FF"/>
        </linearGradient>
        <clipPath id="clip0_10836_103858">
        <rect width="600" height="600" fill="white"/>
        </clipPath>
    </defs>
</svg>