<svg xmlns="http://www.w3.org/2000/svg" viewBox="0 0 600 600" fill="none">
<g transform="matrix(25,0,0,25,0,-12)" clip-path="url(#clip0_2342_28978)">
<path d="M11.0645 12.9543L10.8516 12.7709L10.8963 12.5743L11.1718 11.5044L12 10.1641L12.3838 10.3727L12 10.9458L11.0366 12.5049L12.1491 12.4793L12.5627 12.7707L12.7435 12.9543L13.0944 13.247L11.9785 14.7798L11.6212 14.5332L12 14.0258V13.6329L11.1366 13.3842L10.9825 13.2376L11.0645 12.9543Z" fill="#183240"/>
<path d="M11.9993 15.8579C13.8844 15.8579 15.4126 14.3297 15.4126 12.4446C15.4126 10.5595 13.8844 9.03125 11.9993 9.03125C10.1141 9.03125 8.58594 10.5595 8.58594 12.4446C8.58594 14.3297 10.1141 15.8579 11.9993 15.8579Z" fill="url(#paint0_linear_2342_28978)"/>
<path opacity="0.2" d="M14.1341 14.5638C15.3045 13.3855 15.2982 11.4815 14.1199 10.3111C12.9415 9.1408 11.0375 9.14706 9.86719 10.3254L14.1341 14.5638Z" fill="white"/>
<path d="M12.1636 13.8029C12.1101 13.8094 12.0558 13.8131 12.0007 13.8131C11.2575 13.8131 10.6527 13.2084 10.6527 12.4651C10.6527 11.8706 11.0398 11.3651 11.5751 11.1866L11.9698 10.5469C10.9261 10.5635 10.082 11.4175 10.082 12.4653C10.082 13.4397 10.812 14.2466 11.7539 14.3684L12.1638 13.8031L12.1636 13.8029Z" fill="white"/>
<path d="M10.6527 12.4651C10.6527 11.8706 11.0398 11.3651 11.5751 11.1866L11.9698 10.5469C10.9261 10.5635 10.082 11.4175 10.082 12.4653H10.6529L10.6527 12.4651Z" fill="url(#paint1_linear_2342_28978)"/>
<path d="M12.2331 10.5625L11.8867 11.1242C11.9238 11.1211 11.9612 11.1191 11.9991 11.1191C12.7423 11.1191 13.347 11.7239 13.347 12.4671C13.347 13.0341 12.9949 13.5202 12.4981 13.7189L12.0143 14.3857C13.0653 14.3775 13.9179 13.52 13.9179 12.4671C13.9179 11.4882 13.1811 10.6784 12.2331 10.5625Z" fill="white"/>
<path d="M13.3483 12.4688C13.3483 13.0358 12.9963 13.5219 12.4994 13.7206L12.0156 14.3874C13.0666 14.3792 13.9192 13.5217 13.9192 12.4688H13.3483Z" fill="url(#paint2_linear_2342_28978)"/>
<path d="M11.0844 12.7688L11.9986 13.2956L12.9134 12.7688L11.9986 14.0253L11.0844 12.7688ZM11.0352 12.5045L11.9988 10.9453L12.9624 12.5045L11.9988 13.0599L11.0354 12.5045H11.0352Z" fill="white"/>
<path d="M12.0401 24.4579C18.6454 24.4358 23.9821 19.0632 23.9599 12.4579C23.9378 5.85261 18.5652 0.515913 11.9599 0.538047C5.35464 0.560182 0.0179434 5.93276 0.0400777 12.538C0.062212 19.1433 5.43479 24.48 12.0401 24.4579Z" fill="url(#paint3_linear_2342_28978)"/>
<path opacity="0.2" d="M19.4751 19.9265C23.5758 15.7984 23.5553 9.12359 19.4271 5.02285C15.299 0.922114 8.62418 0.942652 4.52344 5.07078L19.4751 19.9265Z" fill="white"/>
<path d="M11.5129 7.7777C11.6734 7.76129 11.8364 7.75289 12.0012 7.75289C14.6228 7.75289 16.7479 9.87804 16.7479 12.4996C16.7479 14.5438 15.4556 16.2862 13.6434 16.9545L12.0329 19.2195C15.7297 19.2024 18.7212 16.2004 18.7212 12.4996C18.7212 9.02445 16.0834 6.16544 12.7009 5.81553L11.5129 7.7777Z" fill="white"/>
<path d="M11.8488 5.78125C8.20784 5.86231 5.28125 8.83916 5.28125 12.4996C5.28125 15.924 7.84273 18.7502 11.1542 19.1667L12.5414 17.2158C12.3641 17.2359 12.1839 17.2462 12.0012 17.2462C9.37974 17.2462 7.25458 15.1211 7.25458 12.4996C7.25458 10.3988 8.61926 8.61682 10.5105 7.99172L11.8488 5.78125Z" fill="white"/>
<path d="M13.6418 16.9549C15.454 16.2867 16.7463 14.5443 16.7463 12.5H18.7196C18.7196 16.2008 15.7281 19.2029 12.0312 19.2199L13.6418 16.9549Z" fill="url(#paint4_linear_2342_28978)"/>
<path d="M11.8488 5.78125C8.20784 5.86231 5.28125 8.83916 5.28125 12.4996C5.28125 12.4996 7.25458 12.5279 7.25458 12.4996C7.25458 10.3988 8.61926 8.61682 10.5105 7.99172L11.8488 5.78125Z" fill="url(#paint5_linear_2342_28978)"/>
<path d="M11.9856 17.9938L15.3598 13.2422L11.9856 15.2334L8.61328 13.2422L11.9856 17.9938Z" fill="white"/>
<path opacity="0.1" d="M11.9883 17.9938L15.3624 13.2422L11.9883 15.2334V17.9938Z" fill="#4C52F9"/>
<path d="M11.9769 14.6035L15.3678 12.6086L11.9769 7.00781L8.58594 12.6086L11.9769 14.6035Z" fill="url(#paint6_linear_2342_28978)"/>
<path d="M11.9769 14.6035L15.3678 12.6086L11.9769 7.00781L8.58594 12.6086L11.9769 14.6035Z" fill="white"/>
<path opacity="0.1" d="M11.9766 14.6033L8.58563 12.6086L11.9766 7.00781L11.9766 14.6033Z" fill="#4C52F9"/>
<path opacity="0.1" d="M11.9769 14.6003V11.0156L8.58594 12.6054L11.9769 14.6003Z" fill="#4C52F9"/>
<path opacity="0.1" d="M11.9763 14.6003V11.0156L15.3672 12.6054L11.9763 14.6003Z" fill="#4C52F9"/>
</g>
<defs>
<linearGradient id="paint0_linear_2342_28978" x1="8.58594" y1="12.4446" x2="15.4126" y2="12.4446" gradientUnits="userSpaceOnUse">
<stop offset="0.25" stop-color="#1A82FF"/>
<stop offset="0.5" stop-color="#7A26F3"/>
<stop offset="0.74" stop-color="#D6453B"/>
</linearGradient>
<linearGradient id="paint1_linear_2342_28978" x1="13.2111" y1="9.59966" x2="10.4366" y2="11.9638" gradientUnits="userSpaceOnUse">
<stop stop-color="#4C52F9" stop-opacity="0.5"/>
<stop offset="1" stop-color="white"/>
</linearGradient>
<linearGradient id="paint2_linear_2342_28978" x1="10.7462" y1="14.8727" x2="12.8564" y2="13.4953" gradientUnits="userSpaceOnUse">
<stop stop-color="#4C52F9" stop-opacity="0.5"/>
<stop offset="1" stop-color="white"/>
</linearGradient>
<linearGradient id="paint3_linear_2342_28978" x1="0.0400777" y1="12.538" x2="23.9599" y2="12.4579" gradientUnits="userSpaceOnUse">
<stop offset="0.25" stop-color="#1A82FF"/>
<stop offset="0.5" stop-color="#7A26F3"/>
<stop offset="0.74" stop-color="#D6453B"/>
</linearGradient>
<linearGradient id="paint4_linear_2342_28978" x1="7.57522" y1="20.92" x2="14.9761" y2="16.072" gradientUnits="userSpaceOnUse">
<stop stop-color="#4C52F9" stop-opacity="0.5"/>
<stop offset="1" stop-color="white"/>
</linearGradient>
<linearGradient id="paint5_linear_2342_28978" x1="15.6279" y1="2.68802" x2="8.54676" y2="7.80439" gradientUnits="userSpaceOnUse">
<stop stop-color="#4C52F9" stop-opacity="0.5"/>
<stop offset="1" stop-color="white"/>
</linearGradient>
<linearGradient id="paint6_linear_2342_28978" x1="4.76274" y1="9.036" x2="10.7034" y2="12.6613" gradientUnits="userSpaceOnUse">
<stop stop-color="#1C313F"/>
<stop offset="1" stop-color="white"/>
</linearGradient>
<clipPath id="clip0_2342_28978">
<rect width="24" height="24" fill="white" transform="translate(0 0.5)"/>
</clipPath>
</defs>
</svg>