<svg xmlns="http://www.w3.org/2000/svg" width="600" height="600" viewBox="0 0 600 600" fill="none">
	<path d="M300 600C465.685 600 600 465.685 600 300C600 134.315 465.685 0 300 0C134.315 0 0 134.315 0 300C0 465.685 134.315 600 300 600Z" fill="url(#paint0_radial_440_39)" />
	<g transform="matrix(10,0,0,10,172.5,171.5)">
		<path d="M25.9538 0H0.435547V25.682H25.9533V16.7172H21.7184C20.2586 19.9876 16.9728 22.2654 13.2125 22.2654C8.02853 22.2654 3.83037 18.0039 3.83037 12.823C3.83037 7.64221 8.02853 3.41712 13.2125 3.41712C17.0457 3.41712 20.3315 5.76873 21.7919 9.11197H25.9538V0Z" fill="#000000" />
	</g>
	<defs>
		<radialGradient id="paint0_radial_440_39" cx="0" cy="0" r="1" gradientUnits="userSpaceOnUse" gradientTransform="translate(196 143.5) rotate(54.1675) scale(497.082)">
			<stop offset="0" stop-color="#fbfcac" />
			<stop offset="1" stop-color="#fcff52" />
		</radialGradient>
	</defs>
</svg>
