<svg fill="none" viewBox="0 0 600 600" xmlns="http://www.w3.org/2000/svg">
	<radialGradient id="a" cx="0" cy="0" gradientTransform="rotate(54.2 -42.3 263.4) scale(497.082)" gradientUnits="userSpaceOnUse" r="1">
		<stop offset="0" stop-color="#df43fa" />
		<stop offset="1" stop-color="#3a4ffa" />
	</radialGradient>
	<path d="M300 600a300 300 0 100-600 300 300 0 000 600z" fill="url(#a)" fill-opacity="1" />
	<g transform="matrix(15,0,0,15,60,60)">
		<path d="M9.3268 6.28268L8.06787 7.56538L11.1398 10.6947L14.2117 13.8241V16.737V19.65H16.0018H17.7919V16.737V13.8241L20.8563 10.7023L23.9208 7.58056L22.654 6.29121L21.3873 5.00185L18.7111 7.72075C17.2392 9.21616 16.0203 10.4396 16.0025 10.4396C15.9846 10.4396 14.764 9.21573 13.2901 7.71982C11.8161 6.22392 10.6046 5 10.5979 5C10.5912 5 10.0192 5.57722 9.3268 6.28268Z" fill="#ffffff" />
	</g>
	<g transform="matrix(1.57170576821,0,0,1.57170576821,163,301)">
		<path d="M6.138 45.94C1.137 31.31.015 15.461 2.99.22A.067.066 5.1 013.056.166Q8.682.151 14.091.171 15.252.175 15.8.13 16.504.072 16.775.072 87.212.075 157.65.071 158.077.071 158.493.084C158.558.087 158.623.147 158.706.148Q159.27.154 159.858.155 165.662.163 171.414.162A.107.106 84.4 01171.518.248Q173.007 8.079 173.132 16.001 173.334 28.866 169.84 41.26 164.806 59.112 153.159 73.34 147.776 79.917 141.15 85.344C124.719 98.802 103.38 105.989 82.106 104.563Q72.17 103.898 62.999 101.183C52.184 97.981 42.012 92.486 33.315 85.359Q32.013 84.293 30.303 82.657 25.804 78.353 21.912 74.016 20.871 72.856 19.786 71.439 10.88 59.813 6.138 45.94ZM67.231 65.668Q72.444 67.916 78.285 69.067 79.726 69.352 81.301 69.423 83.232 69.511 84.8 69.516 84.899 69.516 85 69.516 87.728 69.521 90.233 69.521C90.332 69.521 90.422 69.492 90.521 69.493 92.422 69.517 94.366 69.424 96.238 69.045Q106.285 67.011 114.592 61.73 125.748 54.637 132.23 42.997 134.288 39.302 135.718 35.309A.043.042 10.1 00135.678 35.252L38.856 35.252Q38.756 35.252 38.792 35.345 41.12 41.527 44.597 46.744 53.167 59.602 67.231 65.668Z" fill="#ffffff" />
	</g>
</svg>
