<svg fill="none" viewBox="0 0 600 600" xmlns="http://www.w3.org/2000/svg">
    <g transform="matrix(16.2162162162,0,0,16.2162162162,0,0)">
        <path d="M18.5618 36.938C28.745 36.9039 36.9723 28.6212 36.9382 18.4381C36.9041 8.25494 28.6213 0.0275055 18.4382 0.0616292C8.25504 0.0957528 0.0276581 8.37847 0.0617818 18.5616C0.0959055 28.7448 8.37864 36.9722 18.5618 36.938Z" fill="#0074F0"/>
        <path opacity="0.2" d="M30.0247 29.9513C36.3467 23.5871 36.315 13.2967 29.9508 6.97475C23.5866 0.652747 13.2963 0.684409 6.9743 7.04862L30.0247 29.9513Z" fill="white"/>
        <path d="M17.747 11.2178C17.9945 11.1925 18.2457 11.1795 18.4999 11.1795C22.5414 11.1795 25.8177 14.4558 25.8177 18.4973C25.8177 21.6488 23.8254 24.3351 21.0316 25.3653L18.5486 28.8572C24.2479 28.8309 28.8599 24.2027 28.8599 18.4973C28.8599 13.1399 24.7933 8.7322 19.5785 8.19275L17.747 11.2178Z" fill="white"/>
        <path d="M18.2648 8.13989C12.6517 8.26487 8.13992 12.8542 8.13992 18.4973C8.13992 23.7766 12.0889 28.1337 17.1941 28.7758L19.3326 25.7682C19.0594 25.7992 18.7815 25.8151 18.4999 25.8151C14.4584 25.8151 11.1821 22.5388 11.1821 18.4973C11.1821 15.2586 13.286 12.5114 16.2016 11.5477L18.2648 8.13989Z" fill="white"/>
        <path d="M21.0318 25.3653C23.8256 24.3351 25.8179 21.6489 25.8179 18.4973H28.8601C28.8601 24.2027 24.2481 28.8309 18.5489 28.8572L21.0318 25.3653Z" fill="url(#paint0_linear_2708_2054)"/>
        <path d="M18.2648 8.13989C12.6517 8.26487 8.13992 12.8542 8.13992 18.4973C8.13992 18.4973 11.1821 18.541 11.1821 18.4973C11.1821 15.2586 13.286 12.5114 16.2016 11.5477L18.2648 8.13989Z" fill="url(#paint1_linear_2708_2054)"/>
        <path d="M18.4819 26.9663L23.6837 19.6409L18.4819 22.7107L13.2828 19.6409L18.4819 26.9663Z" fill="white"/>
        <path opacity="0.1" d="M18.4813 26.9663L23.6831 19.6409L18.4813 22.7107V26.9663Z" fill="#0074F0"/>
        <path d="M18.4657 21.7386L23.6934 18.6631L18.4657 10.0286L13.238 18.6631L18.4657 21.7386Z" fill="url(#paint2_linear_2708_2054)"/>
        <path d="M18.4657 21.7386L23.6934 18.6631L18.4657 10.0286L13.238 18.6631L18.4657 21.7386Z" fill="white"/>
        <path opacity="0.1" d="M18.4659 21.7384L13.2382 18.6631L18.4659 10.0286V21.7384Z" fill="#0074F0"/>
        <path opacity="0.1" d="M18.4657 21.7386V16.2123L13.238 18.6631L18.4657 21.7386Z" fill="#0074F0"/>
        <path opacity="0.1" d="M18.4661 21.7386V16.2123L23.6938 18.6631L18.4661 21.7386Z" fill="#0074F0"/>
    </g>
</svg>