<svg fill="none" viewBox="0 0 600 600" xmlns="http://www.w3.org/2000/svg" width='600' height='600'>
    <radialGradient id="a" cx="0" cy="0" gradientTransform="rotate(54.2 -42.3 263.4) scale(497.082)" gradientUnits="userSpaceOnUse" r="1">
        <stop offset="0" stop-color="#016361"/>
        <stop offset="1" stop-color="#044545"/>
    </radialGradient>
    <path d="M300 600a300.2 300.2 0 00294.2-358.5A299.8 299.8 0 0050.6 133.3 300.2 300.2 0 00300 600z" fill="#094f4f"/>
    <path d="M300 600a300 300 0 100-600 300 300 0 000 600z" fill="url(#a)" fill-opacity=".3"/>
    <g transform="matrix(11.6,0,0,11.6,76,76)">
        <path d="M19.3874 24.0955C19.081 24.2748 18.7015 24.2733 18.397 24.0912L10.0018 19.0733C9.53822 18.7964 9.38933 18.1945 9.67022 17.7333L18.1509 3.80733C18.5318 3.18188 19.4413 3.18616 19.8164 3.81522L28.1633 17.8174C28.4397 18.2811 28.2852 18.8811 27.8197 19.1539L19.3874 24.0955Z" stroke="#D3ECEC" stroke-width="0.309689"/>
        <path d="M19.4007 20.98C19.0944 21.1594 18.7149 21.1576 18.4103 20.9757L12.7779 17.6091C12.3143 17.3321 12.1654 16.7303 12.4463 16.269L18.136 6.926C18.5169 6.30052 19.4264 6.30482 19.8015 6.93386L25.4016 16.3281C25.6779 16.7917 25.5238 17.3917 25.058 17.6646L19.4007 20.98Z" stroke="#D3ECEC" stroke-width="0.309689"/>
        <path d="M19.4153 17.2594C19.109 17.4389 18.7295 17.4372 18.4249 17.2552L16.0874 15.858C15.6238 15.581 15.4749 14.9792 15.7558 14.5179L18.117 10.6406C18.4979 10.0151 19.4075 10.0194 19.7824 10.6485L22.1065 14.5471C22.3829 15.0108 22.2287 15.6108 21.7629 15.8837L19.4153 17.2594Z" stroke="#D3ECEC" stroke-width="0.309689"/>
        <path d="M19.6463 33.2263C19.2564 33.7704 18.446 33.7666 18.0609 33.2192L12.1103 24.7571C11.5068 23.8989 12.5028 22.8254 13.4037 23.363L18.2332 26.2452C18.6343 26.4845 19.1339 26.4868 19.537 26.251L24.3924 23.4127C25.2983 22.8831 26.2846 23.9656 25.6732 24.8183L19.6463 33.2263Z" stroke="#D3ECEC" stroke-width="0.309689"/>
        <path d="M19.7222 30.6499C19.3322 31.1941 18.5218 31.1903 18.1368 30.6429L17.0593 29.1105C16.4768 28.2822 17.4382 27.2461 18.3078 27.765C18.6983 27.998 19.1846 28.0003 19.5773 27.7708C20.4515 27.2597 21.4034 28.3046 20.8135 29.1276L19.7222 30.6499Z" stroke="#D3ECEC" stroke-width="0.309689"/>
    </g>
</svg>