<svg xmlns="http://www.w3.org/2000/svg" width="600" height="600" viewBox="0 0 600 600" fill="none">
    <path d="M300 600C465.685 600 600 465.685 600 300C600 134.315 465.685 0 300 0C134.315 0 0 134.315 0 300C0 465.685 134.315 600 300 600Z" fill="url(#paint0_radial_440_36)"/>
    <g transform="matrix(4.9898028552,0,0,4.9898028552,116.5,112)">
        <path d="M71.6295 17.2412C69.3069 21.6025 65.438 24.9382 60.7823 26.5934C56.1266 28.2487 51.0203 28.104 46.4658 26.1878C48.7885 21.8265 52.6574 18.4909 57.3131 16.8356C61.9688 15.1803 67.075 15.325 71.6295 17.2412Z" fill="white"/>
        <path d="M15.8765 46.969C17.4384 51.3168 20.4849 54.9737 24.479 57.2953C28.4732 59.6169 33.1586 60.4541 37.7095 59.6595C42.2605 58.8649 46.385 56.4895 49.3561 52.9518C52.3272 49.4141 53.9542 44.9412 53.9504 40.3214V40.1968C53.9504 39.9137 53.9504 39.6306 53.9504 39.3475V39.2569C53.779 36.71 52.6213 34.3302 50.7233 32.6233C48.8253 30.9164 46.3365 30.0167 43.7858 30.1155C41.235 30.2143 38.8233 31.3037 37.0629 33.1523C35.3026 35.001 34.3325 37.4631 34.3585 40.0156C34.3595 42.5673 33.3648 45.0186 31.5861 46.848C29.8074 48.6775 27.385 49.7408 24.8344 49.8116H24.2795C21.2495 49.77 18.3095 48.7755 15.8765 46.969Z" fill="white"/>
        <path d="M24.5299 47.2972C28.5516 47.2972 31.8117 44.037 31.8117 40.0154C31.8117 35.9937 28.5516 32.7335 24.5299 32.7335C20.5082 32.7335 17.248 35.9937 17.248 40.0154C17.248 44.037 20.5082 47.2972 24.5299 47.2972Z" fill="white"/>
        <path d="M17.3831 69.6863C9.59768 65.185 3.9146 57.7805 1.57947 49.096C-0.755654 40.4114 0.447694 31.1553 4.92578 23.3566C5.86203 21.7414 6.9262 20.2039 8.10806 18.7587H8.16467L23.3059 0.97876C24.2348 1.76915 24.9988 2.73477 25.5544 3.82047C26.11 4.90616 26.4463 6.09067 26.5441 7.30635C26.6419 8.52203 26.4993 9.74507 26.1244 10.9056C25.7495 12.0662 25.1497 13.1415 24.3591 14.0702L15.2993 24.7495C14.4529 25.7863 13.6952 26.8925 13.0343 28.0564C11.3402 31.0031 10.2745 34.2686 9.90452 37.6474C9.53449 41.0262 9.8681 44.445 10.8843 47.6885C11.9006 50.9321 13.5774 53.93 15.8092 56.4936C18.041 59.0573 20.7795 61.131 23.8522 62.5842C26.9249 64.0374 30.2652 64.8386 33.6627 64.9374C37.0603 65.0362 40.4415 64.4304 43.5934 63.1582C46.7453 61.8859 49.5997 59.9749 51.9767 57.5453C54.3537 55.1157 56.2019 52.2202 57.4049 49.0412L62.0934 35.8365C62.9187 33.5135 64.6317 31.6127 66.8567 30.5512C69.0817 29.4897 71.6369 29.354 73.9618 30.1741L66.1137 52.2688C65.4513 54.0127 64.6524 55.7015 63.7241 57.3196C59.2077 65.0927 51.7944 70.7588 43.1085 73.0768C34.4225 75.3947 25.1719 74.1756 17.3831 69.6863Z" fill="white"/>
    </g>
    <g transform="matrix(0.75,0,0,0.75,40,40)">
        <path fill="#492fb9" d="m623 462.76q10.84 13.27 26.98 31.52 16.12 18.24 26.92 39.85c43.77 87.68-28.71 185.94-123.16 181.77-41.43-1.83-76.36-21.17-101-54.22q-7.38-9.9-12.45-21.34-1.82-4.1-3.36-7.91-11.74-31.78-6.64-64.39c4.69-29.93 22.11-56.14 41.95-78.37 15.43-17.28 29.37-33.39 42.01-52.07 7.45-11.02 13.67-24.11 20.24-36.33q1.92-3.55 3.41-7.3 13.07-32.74 20.44-66.71a0.66 0.66 0 0 1 1.29 0c5.14 23.1 11.8 45.91 21.62 67.38 3.25 7.11 5.86 14.79 9.45 21.26q13.73 24.74 32.3 46.86z" />
        <g transform="matrix(1.95918367347,0,0,1.95918367347,495,525)">
            <path d="M13.3734 34.4709L14.3282 41.1736L9.55243 42.131L5.73146 41.1736L0 31.5987L1.91049 14.3628L8.59676 5.7453L17.1935 4.78789L25.7903 0L37.2541 5.7453L34.3879 8.61751C42.6664 9.89405 48.0796 10.8523 50.6266 11.4906C54.4476 12.448 61.1347 17.2359 62.0895 18.1933C63.0452 19.1507 62.5894 23.552 62.0895 26.8108C61.7557 28.9834 61.1191 30.579 60.179 31.5987L64 53.6216H55.4032L57.3137 51.7068L49.6718 35.4283L28.6564 38.3014L21.0162 53.6216H12.4195L15.2848 48.8337L21.0162 28.7256L17.1952 24.896L8.59676 26.8108L7.64108 34.4709L10.5064 37.344L13.3725 34.4709H13.3734ZM26.8108 45.7799L29.6649 39.8988L33.4703 38.9189L36.3243 53.6216H26.8108L28.7135 52.6417L26.8108 45.7799ZM45.1459 39.1222L48 37.1892L52.7568 45.4054L51.8054 53.6216H43.2432L45.1459 50.7217V39.1222V39.1222Z" fill="#ffffff" />
        </g>
    </g>
    <defs>
        <radialGradient id="paint0_radial_440_36" cx="0" cy="0" r="1" gradientUnits="userSpaceOnUse" gradientTransform="translate(196 143.5) rotate(54.1675) scale(497.082)">
            <stop stop-color="#1c1c34"/>
            <stop offset="1"/>
        </radialGradient>
    </defs>
</svg>
