<svg xmlns="http://www.w3.org/2000/svg" viewBox="0 0 600 600" fill="none">
    <path d="M300 600C465.685 600 600 465.685 600 300C600 134.315 465.685 0 300 0C134.315 0 0 134.315 0 300C0 465.685 134.315 600 300 600Z" fill="url(#paint0_radial_440_36)"/>
    <g transform="matrix(0.6,0,0,0.6,0,0)">
        <path d="M648.543 368.501C721.342 368.501 780.354 427.373 780.354 500C780.354 572.627 721.342 631.499 648.543 631.499C594.015 631.499 528.838 557.755 499.472 520.742C494.596 514.592 490.898 509.616 490.898 509.616C481.763 497.54 478.961 493.291 473.861 486.693C472.46 484.848 471.339 483.507 470.106 482.053C464.782 475.512 460.019 470.424 456.656 467.013C457.272 468.076 458.169 469.585 459.234 471.374C460.411 473.275 463.213 477.86 467.36 483.786C469.321 486.582 470.835 488.594 472.908 491.39C475.486 494.856 477.672 497.708 479.521 500C482.043 503.243 483.892 505.591 486.526 509.169C487.647 510.679 488.88 512.468 490.281 514.928C491.066 516.381 491.794 517.779 492.523 519.512C494.26 523.426 493.644 527.955 490.954 531.253C458.842 570.111 400.166 631.555 350.401 631.555C277.602 631.555 218.59 572.682 218.59 500.056C218.59 427.429 277.602 368.556 350.401 368.556C404.929 368.556 470.106 442.301 499.416 479.369C501.826 482.388 504.18 485.464 506.589 488.594C509.504 492.452 535.507 524.488 538.253 528.234C535.339 521.749 509.223 487.085 506.309 480.599C504.572 476.686 505.132 472.157 507.878 468.858C540.046 430.001 598.666 368.501 648.487 368.501M648.543 307C602.309 307 552.376 333.669 499.584 386.392C446.961 333.669 396.971 307 350.457 307C243.809 307 157 393.604 157 500C157 606.396 243.753 693 350.457 693C396.691 693 446.681 666.331 499.416 613.608C552.039 666.331 602.029 693 648.543 693C755.191 693 842 606.452 842 500C842 393.548 755.247 307 648.543 307Z" fill="#E8FD8F"/>    
    </g>
    <defs>
        <radialGradient id="paint0_radial_440_36" cx="0" cy="0" r="1" gradientUnits="userSpaceOnUse" gradientTransform="translate(196 143.5) rotate(54.1675) scale(497.082)">
            <stop stop-color="#323638"/>
            <stop offset="1"/>
        </radialGradient>
    </defs>
</svg>