<svg xmlns="http://www.w3.org/2000/svg" width="600" height="600" viewBox="0 0 600 600" fill="none">
    <path d="M300 600C465.685 600 600 465.685 600 300C600 134.315 465.685 0 300 0C134.315 0 0 134.315 0 300C0 465.685 134.315 600 300 600Z" fill="url(#background-gradient)"/>
    <g transform="matrix(2.85,0,0,2.85,117,119)">
        <path fill="url(#a)" stroke="#000" stroke-width="2.22" d="m89.106 105.979-.005-.003c-2.668-2.342-4.898-5.363-7.019-8.68-1.008-1.576-1.982-3.203-2.967-4.847l-.15-.251c-1.031-1.724-2.076-3.463-3.168-5.145-4.353-6.71-9.61-12.779-18.5-13.904-5.593-.703-9.964.635-13.559 3.058-3.554 2.394-6.311 5.82-8.757 9.21-.635.877-1.244 1.748-1.84 2.6-1.75 2.497-3.387 4.833-5.182 6.729-2.37 2.503-4.84 4.038-7.911 4.038-7.458 0-12.037-5.373-14.796-12.663C2.5 78.849 1.72 70.028 1.72 64.003c0-6.154.87-13.333 3.391-18.93 2.505-5.558 6.539-9.394 12.911-9.394 7.003 0 10.903 4.842 15.405 10.43q.45.562.913 1.13c4.81 5.932 10.422 12.09 21.139 11.407h.005c10.682-.734 16.071-7.86 20.358-15.772.979-1.807 1.91-3.673 2.832-5.525l.268-.535c1.014-2.033 2.027-4.042 3.107-5.97 2.162-3.863 4.557-7.327 7.67-9.898 5.203-4.242 14.255-4.23 22.18 2.195 7.886 6.396 14.601 19.178 14.601 40.216 0 20.784-6.361 34.292-14.163 41.132-7.782 6.823-16.959 7.046-23.231 1.49Z"/>
        <path stroke="#000" stroke-width="2.22" d="M10.76 37.174c2.057.882 7.848 2.116 14.55 0M5.026 43.346c5.732 2.204 14.991 3.967 26.896 0m-29.1 9.697c5.879 1.91 20.194 4.585 30.423 0 1.966-.881 7.643 1.03 8.377 1.323M1.5 66.708c7.496 2.204 21.605 4.85 31.746 0 14.125-6.753 34.401.45 39.241 5.29 3.969 3.967 27.337 12.343 53.793 3.086"/>
        <path stroke="#000" stroke-width="2.22" d="M38.978 53.043c.734 5.437 1.764 18.426 0 26.89m14.991-21.16V72.88m11.464-17.192c-1.03 4.26-2.47 14.194 0 19.837m13.227-37.47c-2.498 9.846-5.996 34.296 0 53.339M98.944 18.66c-3.234 7.787-12.346 14.988-12.346 41.877 0 33.06 4.41 49.371 12.346 49.371m.44-91.248c2.205 8.523 1.764 29.005 1.764 42.759 0 17.191 0 45.403-1.763 48.929"/>
        <path stroke="#000" stroke-width="2.22" d="M98.943 18.66c3.527 0 17.636 20.277 17.636 41.436 0 23.363-2.645 49.812-15.873 49.812"/>
        <path stroke="#000" stroke-width="2.22" d="M90.565 20.423c2.793 1.616 10.23 3.88 17.636 0m-22.045 3.968c4.262 1.91 15.696 4.584 27.337 0m-32.628 8.375c5.585 2.939 21.164 7.053 38.801 0M77.338 44.227c4.703 3.674 20.635 8.816 46.736 0M66.756 54.366c.293 3.82 40.564 11.02 59.524 3.085M76.897 85.222c8.818 3.674 30.511 8.817 46.737 0M80.865 95.361c5.732 3.233 21.517 7.758 38.801 0M3.264 79.933c4.997 2.792 19.576 6.17 37.918-2.645"/>
        <path stroke="#000" stroke-width="2.22" d="M17.814 35.41c-2.352 5.143-7.055 18.339-7.055 29.976 0 14.547 0 33.501 7.496 33.501"/>
        <path stroke="#000" stroke-width="2.22" d="M17.814 35.852c2.793 4.408 8.377 16.398 8.377 29.093 0 15.87-.44 33.942-7.495 33.942"/>
    </g>
    <defs>
        <radialGradient id="background-gradient" cx="0" cy="0" r="1" gradientUnits="userSpaceOnUse" gradientTransform="translate(196 143.5) rotate(54.1675) scale(497.082)">
            <stop stop-color="#97FCE4"/>
            <stop offset="1" stop-color="#79CAB6"/>
        </radialGradient>
        <linearGradient id="a" x1="55.733" x2="57.055" y1="111.23" y2="16.897" gradientUnits="userSpaceOnUse">
            <stop stop-color="#97fccb"/>
            <stop offset="1" stop-color="#97fbfc"/>
        </linearGradient>
    </defs>
</svg>