<svg xmlns="http://www.w3.org/2000/svg" viewBox="0 0 600 600">
    <path d="M300 600a300 300 0 100-600 300 300 0 000 600z" fill="white"/>
    <path d="M300 600a300 300 0 100-600 300 300 0 000 600z" fill="url(#a)"/>
    <g transform="matrix(2.34,0,0,2.34,0,0)">
        <path fill="white" d="M66,154.97h18c-.36,32.2,33.09,53.33,62.51,40.01,37.43-16.95,32.56-71.47-6.04-82.99l-12.83,10.91-21.56-21.56c-.27-1.52,19.9-21.55,22.25-21.2,3.81.57,11.81,11.94,15.76,14.26,3.29,1.94,8.81,2.95,12.94,5.06,39.35,20.05,44.5,74.69,10.99,103.03-40.4,34.17-102.54,4.6-102.01-47.51Z"/>
        <path fill="white" d="M190,100.97h-18c.3-38.29-45.34-58.22-74.01-32.51-25.52,22.88-14.95,66.09,17.54,75.49l12.83-10.91,21.56,21.56c.27,1.54-18.64,20.16-22.28,21.28-3.22-.57-12.14-12.23-15.72-14.34-3.29-1.94-8.81-2.95-12.94-5.06-39.22-19.98-44.62-74.88-10.99-103.03,40.56-33.95,102.39-4.74,102.01,47.51Z"/>
    </g>
    <defs>
        <radialGradient id="a" cx="0" cy="0" gradientTransform="rotate(54.2 -42.3 263.4) scale(497.082)" gradientUnits="userSpaceOnUse" r="1">
            <stop offset="0" stop-color="#2e2f7aA0"/>
            <stop offset="1" stop-color="#2e2f7a"/>
        </radialGradient>
    </defs>
</svg>