<svg xmlns="http://www.w3.org/2000/svg" viewBox="0 0 600 600">
    <g transform="matrix(2.335,0,0,2.335,0,0)">
        <circle fill="#ffd607" cx="128.53" cy="128.53" r="128.53"/>
        <g>
            <path fill="white" d="M147.27,54.18c-3.25,3.03-8.04,4.19-11.92,6.57-7.07,4.32-12.7,10.35-15.84,18.16-2.42,6.02-2.53,17.2-4.44,20.56-1.1,1.93-7.71,5.63-10.31,8.69-8.34,9.8-9.78,23.78-4.36,35.38,4.09,8.75,10.48,8.07-.21,17.04-22.36,18.78-47.75,5.91-52.66-21.17-9.29-51.32,50.91-99.1,99.74-85.23Z"/>
            <path fill="white" d="M102.27,199.18c13.38-1.67,24.98-9.49,30.88-21.63,1.88-3.88,4.44-15.92,5.64-17.36.71-.85,8.33-3.92,10.96-6.04,11.4-9.19,14.56-25.37,8.72-38.67-4.01-9.11-9.8-8.44,2.49-16.13,23.95-14.98,46.92-.29,49.31,26.34,4.49,50.18-55.64,91.05-101.74,76.74-2.06-.64-5.41-1.09-6.24-3.25Z"/>
            <path fill="white" d="M145.27,122.17c-2.44-.39-6.13.6-8.29.02-.97-.26-1.22-2.48-2.92-3.29-3.36-1.59-12.16-1.54-11.74,3.8.61,7.77,26.22,2.25,23.9,18.89-2.03,14.64-34,15.05-33.96-1.41,2.49.37,6.07-.57,8.3-.03.92.23,1.38,2.53,2.69,3.51,4.66,3.49,16.22,1.68,12.52-5.51-2.68-5.22-25.42.06-22.45-18.42,1.99-12.41,31.51-12.62,31.93,2.44Z"/>
        </g>
    </g>
    <path d="M300 600a300 300 0 100-600 300 300 0 000 600z" fill="url(#a)" fill-opacity=".3"/>
    <defs>
        <radialGradient id="a" cx="0" cy="0" gradientTransform="rotate(54.2 -42.3 263.4) scale(497.082)" gradientUnits="userSpaceOnUse" r="1">
            <stop offset="0" stop-color="white"/>
            <stop offset="1" stop-color="#ffd607"/>
        </radialGradient>
    </defs>
</svg>