<svg viewBox="0 0 20 20" xmlns="http://www.w3.org/2000/svg">
    <g transform="translate(3.765,4)">
        <path d="M 9.3198 6.8819 C 9.6224 6.3593 10.1101 6.3593 10.4133 6.8819 L 12.2976 10.1899 C 12.6002 10.7125 12.3527 11.1391 11.7473 11.1391 H 7.951 C 7.3527 11.1391 7.105 10.7127 7.4007 10.1899 Z M 5.6747 0.5132 C 5.9772 -0.0094 6.4587 -0.0094 6.7613 0.5132 L 7.1807 1.2698 L 8.171 3.0098 A 1.8078 1.8078 90 0 1 8.171 4.5847 L 4.8497 10.3413 A 1.7469 1.7469 90 0 1 3.4879 11.1391 H 0.7297 C 0.1246 11.1391 -0.1229 10.7196 0.1795 10.1899 Z" fill="#E84142"/>
    </g>
</svg>