<svg viewBox="0 0 37 37" fill="none" xmlns="http://www.w3.org/2000/svg">
	<path d="M29.6655 18.4201C29.6859 20.2525 29.3023 22.0034 28.5488 23.6762C27.4728 26.0583 24.893 28.0059 22.5375 25.9328C20.6162 24.2429 20.2599 20.8123 17.3815 20.3101C13.5731 19.8487 13.4814 24.2632 10.9934 24.762C8.22026 25.3254 7.3004 20.663 7.34113 18.5457C7.38186 16.4283 7.94532 13.4524 10.3553 13.4524C13.1284 13.4524 13.3151 17.6498 16.835 17.4225C20.321 17.185 20.382 12.8179 22.6596 10.9482C24.625 9.33303 26.9364 10.5173 28.0939 12.4616C29.1665 14.26 29.6383 16.3706 29.6621 18.4201H29.6655Z" fill="#07B69B" />
</svg>
