<svg xmlns="http://www.w3.org/2000/svg" viewBox="0 0 20 20">
    <rect fill="#F9F9F9" width="20" height="20"/>
    <rect fill="#4f46e533" width="20" height="20"/>
    <path transform="scale(0.8333,0.8333)" fill-rule="evenodd" clip-rule="evenodd" d="M 11.9963 3.7969 L 7.73 6.3123 L 9.3002 7.2411 L 11.9963 5.6469 L 14.7002 7.2411 L 16.2704 6.3123 L 11.9963 3.7969 Z M 6.6037 15.1726 L 6.5951 11.9995 L 5.0259 11.0716 V 16.1101 L 9.2999 18.6168 V 16.7591 L 6.6037 15.1726 Z M 6.5951 10.6755 V 8.8264 L 8.173 7.8976 L 6.5951 6.9688 L 5.0249 7.8976 V 9.7466 L 6.5951 10.6755 Z M 11.9961 6.9688 L 10.4259 7.8976 L 11.9961 8.8264 L 13.5739 7.8976 L 11.9961 6.9688 Z M 9.2997 13.5861 L 7.7295 12.6572 V 14.5149 L 9.2997 15.4351 V 13.5861 Z M 11.9958 18.3534 L 10.4256 17.4245 V 19.2736 L 11.9958 20.2024 L 13.5737 19.2736 V 17.4245 L 11.9958 18.3534 Z M 17.3958 6.9688 L 15.8256 7.8976 L 17.3958 8.8264 V 10.6755 L 18.9737 9.7466 V 7.8976 L 17.3958 6.9688 Z M 18.9747 11.0707 L 17.4045 11.9995 L 17.3958 15.1726 L 14.7006 16.7582 V 18.6159 L 18.9747 16.1091 V 11.0707 Z M 16.2699 14.5149 L 14.6997 15.4351 V 13.5861 L 16.2699 12.6572 V 14.5149 Z" fill="#4f46e5"/>
</svg>
