<svg viewBox="0 0 20 20" xmlns="http://www.w3.org/2000/svg">
    <g transform="scale(0.475)">
        <rect fill="#F9F9F9" width="20" height="20" />
        <rect fill="#6B8AFF33" width="20" height="20" />
        <g transform="scale(0.8333,0.8333)">
            <path d="M11.4817 4.29043L7.08715 11.516C6.91315 11.8019 7.00806 12.1725 7.29743 12.3421L11.692 14.9163C11.8818 15.0279 12.1182 15.0279 12.308 14.9163L16.7026 12.3421C16.9919 12.1725 17.0869 11.8019 16.9129 11.516L12.5192 4.29043C12.2838 3.90319 11.7171 3.90319 11.4817 4.29043Z" fill="#6B8AFF" />
            <path d="M15.7897 15.0102C15.7897 14.999 15.7878 14.9888 15.7869 14.9786C15.785 14.9684 15.7831 14.9582 15.7813 14.948C15.7785 14.9359 15.7748 14.9248 15.7711 14.9127C15.7683 14.9035 15.7655 14.8951 15.7608 14.8868C15.7552 14.8738 15.7478 14.8608 15.7404 14.8487C15.7366 14.8422 15.7329 14.8348 15.7283 14.8283C15.7153 14.8098 15.7013 14.7912 15.6846 14.7754C15.6678 14.7597 15.6502 14.7448 15.6316 14.7318C15.625 14.7272 15.6185 14.7244 15.6111 14.7198C15.599 14.7123 15.586 14.7049 15.573 14.6993C15.5646 14.6956 15.5553 14.6928 15.546 14.6891C15.5348 14.6854 15.5228 14.6817 15.5107 14.6789C15.5004 14.6761 15.4902 14.6743 15.48 14.6734C15.4697 14.6715 15.4595 14.6706 15.4484 14.6706C15.4363 14.6706 15.4251 14.6697 15.413 14.6706C15.4046 14.6706 15.3963 14.6724 15.387 14.6734C15.374 14.6752 15.3609 14.6761 15.3479 14.6789C15.3442 14.6789 15.3405 14.6817 15.3368 14.6826C15.2968 14.6928 15.2586 14.7086 15.2233 14.7318L12.3311 16.4363C12.1265 16.5569 11.8735 16.5569 11.6689 16.4363L8.77673 14.7318C8.74139 14.7086 8.70326 14.6928 8.66327 14.6826C8.65955 14.6817 8.65583 14.6799 8.65211 14.6789C8.63909 14.6761 8.62607 14.6752 8.61305 14.6734C8.60468 14.6724 8.59631 14.6715 8.58701 14.6706C8.57492 14.6706 8.56376 14.6706 8.55167 14.6706C8.54144 14.6706 8.53029 14.6724 8.52006 14.6734C8.50983 14.6752 8.4996 14.6771 8.48937 14.6789C8.47728 14.6817 8.46612 14.6854 8.45403 14.6891C8.44473 14.6919 8.43636 14.6956 8.42706 14.6993C8.41404 14.7049 8.40102 14.7123 8.38893 14.7198C8.38242 14.7235 8.37498 14.7272 8.36847 14.7318C8.34987 14.7448 8.33127 14.7587 8.31546 14.7754C8.29965 14.7921 8.28477 14.8098 8.27175 14.8283C8.2671 14.8348 8.26431 14.8413 8.25966 14.8487C8.25222 14.8617 8.24478 14.8738 8.2392 14.8868C8.23548 14.8951 8.23269 14.9044 8.22897 14.9127C8.22525 14.9248 8.22153 14.9359 8.21874 14.948C8.21595 14.9582 8.21409 14.9684 8.21316 14.9786C8.2113 14.9888 8.21037 15 8.21037 15.0102C8.21037 15.0213 8.20944 15.0334 8.21037 15.0445C8.21037 15.0538 8.21223 15.0621 8.21316 15.0714C8.21502 15.0844 8.21595 15.0974 8.21874 15.1095C8.21967 15.115 8.22153 15.1197 8.22339 15.1243C8.23455 15.167 8.25315 15.2069 8.28012 15.244L11.4681 19.7265C11.7275 20.0911 12.2706 20.0911 12.5301 19.7265L15.718 15.244C15.745 15.2069 15.7636 15.167 15.7748 15.1243C15.7757 15.1197 15.7785 15.1141 15.7794 15.1095C15.7822 15.0965 15.7831 15.0844 15.785 15.0714C15.7859 15.0621 15.7869 15.0538 15.7878 15.0445C15.7878 15.0334 15.7878 15.0213 15.7878 15.0102H15.7897Z" fill="#6B8AFF" />
        </g>
    </g>
    <g transform="scale(0.475) translate(22.105 0)">
        <rect fill="#F9F9F9" width="20" height="20"/>
        <rect fill="#FF042033" width="20" height="20"/>
        <path transform="matrix(0.152,0,0,0.152,2.1325,2.2195)" mask="url(#op-mask)" d="M 48.5 73.1941 V 93.4469 C 29.2691 93.4469 13.6795 77.8572 13.6795 58.6264 C 13.6795 39.3956 29.2691 23.8059 48.5 23.8059 V 3.5531 C 67.7309 3.5531 83.3205 19.1428 83.3205 38.3736 C 83.3205 57.6044 67.7309 73.1941 48.5 73.1941 Z M 65.1996 48.3447 V 48.6551 C 57.8387 52.3239 52.3238 57.8386" fill="#FF0420"/>
    </g>
    <g transform="scale(0.475) translate(0 22.105)">
        <rect fill="#F9F9F9" width="20" height="20"/>
        <rect fill="#EC540933" width="20" height="20"/>
        <g transform="matrix(0.0441,0,0,0.0441,3.165,3.165)">
            <circle cx="154.995" cy="154.995" r="154.995" fill="url(#sonic-bg)" mask="url(#sonic-logo-mask)"/>
        </g>
    </g>
    <g transform="scale(0.475) translate(22.105 22.105)">
        <rect fill="#F9F9F9" width="20" height="20"/>
        <rect fill="#00A3FF33" width="20" height="20"/>
        <g opacity="0.9" transform="scale(0.8333,0.8333)">
            <path d="M13.2427 13.2169L12.4311 15.3416C12.409 15.4007 12.409 15.465 12.4311 15.5241L13.8274 19.1799L15.4425 18.2896L13.5041 13.2169C13.4601 13.1001 13.2867 13.1001 13.2427 13.2169Z" fill="#00A3FF"/>
            <path d="M14.8703 9.6438C14.8263 9.52694 14.653 9.52694 14.6089 9.6438L13.7973 11.7685C13.7753 11.8275 13.7753 11.8919 13.7973 11.951L16.0851 17.9362L17.7001 17.0459L14.8703 9.6438Z" fill="#00A3FF"/>
            <path d="M12.0006 4.99142C12.0405 4.99142 12.0804 5.00192 12.1161 5.0203L18.2752 8.41475C18.3467 8.45415 18.3907 8.52768 18.3907 8.60516V15.3927C18.3907 15.4715 18.3467 15.5437 18.2752 15.5831L12.1161 18.9776C12.0817 18.9973 12.0405 19.0065 12.0006 19.0065C11.9607 19.0065 11.9208 18.996 11.885 18.9776L5.72599 15.5858C5.65446 15.5464 5.61043 15.4728 5.61043 15.3954V8.60647C5.61043 8.52768 5.65446 8.45546 5.72599 8.41607L11.885 5.02162C11.9208 5.00192 11.9607 4.99142 12.0006 4.99142ZM12.0006 4C11.7818 4 11.5617 4.05384 11.365 4.16283L5.20735 7.55596C4.8139 7.77263 4.57178 8.17314 4.57178 8.60647V15.3941C4.57178 15.8274 4.8139 16.2279 5.20735 16.4446L11.3664 19.839C11.5631 19.9467 11.7818 20.0018 12.002 20.0018C12.2207 20.0018 12.4408 19.948 12.6375 19.839L18.7966 16.4446C19.19 16.2279 19.4321 15.8274 19.4321 15.3941V8.60647C19.4321 8.17314 19.19 7.77263 18.7966 7.55596L12.6362 4.16283C12.4394 4.05384 12.2193 4 12.0006 4Z" fill="#00A3FF"/>
            <path d="M11.4819 8.12061H9.92048C9.80355 8.12061 9.69899 8.1902 9.6591 8.29525L6.31201 17.0538L7.92709 17.9441L11.6126 8.29919C11.647 8.21252 11.5796 8.12061 11.4819 8.12061Z" fill="#00A3FF"/>
            <path d="M14.2143 8.12061H12.6529C12.536 8.12061 12.4314 8.1902 12.3915 8.29525L8.56982 18.2961L10.1849 19.1864L14.345 8.29919C14.378 8.21252 14.3106 8.12061 14.2143 8.12061Z" fill="#00A3FF"/>
        </g>
    </g>
    <defs>
        <linearGradient id="sonic-bg" x1="100%" y1="0%" x2="0%" y2="0%">
            <stop offset="25%" stop-color="#214e82"/>
            <stop offset="50%" stop-color="#506077"/>
            <stop offset="75%" stop-color="#ec5409"/>
            <stop offset="100%" stop-color="#ffc966"/>
        </linearGradient>
        <mask id="sonic-logo-mask">
            <circle cx="154.995" cy="154.995" r="154.995" fill="white"/>
            <path fill="black" d="M180.26,185.07l.03-.02s-.03.02-.05.03c.01,0,.02,0,.03,0h0Z"/>
            <path fill="black" d="M180.24,185.08c-46.81,14.06-85.52,34.57-109.77,58.59l-1.07,1.07c6.45,6.1,13.52,11.56,21.16,16.2l1.64-2.01c6.62-8.09,13.72-15.9,21.11-23.26,19.83-19.76,42.51-36.86,66.93-50.59Z"/>
            <path fill="black" d="M185.65,164.24H31.12c1.87,25.07,11.18,48.06,25.79,66.76l.67-.67c15.01-14.81,34.55-28.27,58.12-40,20.66-10.29,44.38-19.12,69.95-26.09Z"/>
            <path fill="black" d="M126.41,61.2c41.89,41.74,94.61,69.34,152.44,79.81-6.97-61.88-59.64-110.01-123.64-110.01-16.9,0-33.01,3.37-47.72,9.45,5.97,7.19,12.35,14.19,18.92,20.76h0Z"/>
            <path fill="black" d="M70.47,66.31c24.25,24.06,62.98,44.54,109.8,58.63-24.44-13.76-47.14-30.85-66.98-50.62-7.37-7.34-14.46-15.15-21.11-23.26l-1.64-2.01c-7.64,4.64-14.71,10.09-21.13,16.19l1.07,1.07h-.01Z"/>
            <path fill="black" d="M126.41,248.78c-6.6,6.57-12.97,13.57-18.92,20.76,14.69,6.08,30.82,9.45,47.72,9.45,64,0,116.67-48.14,123.66-110.04-57.82,10.47-110.54,38.07-152.44,79.81l-.02.02Z"/>
            <path fill="black" d="M115.67,119.62v.02c-23.55-11.73-43.08-25.2-58.09-39.99l-.67-.67c-14.61,18.7-23.92,41.69-25.79,66.76h154.5c-25.56-6.97-49.26-15.8-69.95-26.12Z"/>
        </mask>
        <mask id="op-mask">
            <rect width="97" height="97" fill="white"/>
            <path d="M 65.1996 48.3447 V 48.6551 C 57.8387 52.3239 52.3238 57.8386 48.6553 65.1996 H 48.3449 C 44.6762 57.8386 39.1613 52.3239 31.8004 48.6551 V 48.3447 C 39.1613 44.6761 44.6762 39.1612 48.3449 31.8004 H 48.6553 C 52.3238 39.1612 57.8387 44.6761 65.1996 48.3447 Z" fill="black"/>
        </mask>
    </defs>
</svg>