<svg viewBox="0 0 20 20" xmlns="http://www.w3.org/2000/svg">
    <rect fill="#F9F9F9" width="20" height="20"></rect>
    <rect fill="#04795B33" width="20" height="20"></rect>
    <g transform="translate(3.37,3.39)" fill="#04795B">
        <path d="M 3.9855 7.574 C 4.3814 7.574 4.7469 7.4425 5.0414 7.2147 L 2.625 4.8059 C 2.3965 5.0944 2.2645 5.4587 2.2645 5.8585 C 2.2595 6.8048 3.0311 7.574 3.9855 7.574 Z" />
        <path d="M 11.1738 5.8534 C 11.1738 5.4587 11.0418 5.0944 10.8133 4.8008 L 8.3969 7.2097 C 8.6863 7.4374 9.0518 7.569 9.4528 7.569 C 10.4022 7.574 11.1738 6.8048 11.1738 5.8534 V 5.8534 Z" />
        <path d="M 12.3921 3.2371 L 11.321 4.3049 C 11.6763 4.73 11.8896 5.2664 11.8896 5.8636 C 11.8896 7.2046 10.7981 8.2927 9.4528 8.2927 C 8.8589 8.2927 8.3157 8.0801 7.8893 7.7259 L 6.7166 8.8949 L 5.5439 7.7259 C 5.1175 8.0801 4.5794 8.2927 3.9804 8.2927 C 2.6351 8.2927 1.5436 7.2046 1.5436 5.8636 C 1.5436 5.2715 1.7569 4.73 2.1122 4.3049 L 1.564 3.7584 L 1.0411 3.2371 C 0.4319 4.2391 0.0816 5.4081 0.0816 6.6632 C 0.0816 10.3169 3.0514 13.2723 6.7115 13.2723 C 10.3717 13.2723 13.3415 10.3118 13.3415 6.6632 C 13.3516 5.4031 13.0013 4.2341 12.3921 3.2371 V 3.2371 Z" />
        <path d="M 11.514 2.0985 C 10.3108 0.8384 8.6051 0.0489 6.7166 0.0489 C 4.8282 0.0489 3.1275 0.8384 1.9193 2.0985 C 1.7569 2.2705 1.5995 2.4527 1.4523 2.64 L 6.7116 7.8827 L 11.9708 2.6349 C 11.8388 2.4527 11.6815 2.2655 11.514 2.0985 V 2.0985 Z M 6.7166 0.9092 C 8.27 0.9092 9.7118 1.5064 10.793 2.5944 L 6.7166 6.6581 L 2.6402 2.5944 C 3.7266 1.5064 5.1632 0.9092 6.7166 0.9092 Z" />
    </g>
</svg>