<svg viewBox="0 0 20 20" xmlns="http://www.w3.org/2000/svg">
    <rect fill="#F9F9F9" width="20" height="20" />
    <rect fill="#FF042033" width="20" height="20" />
    <path transform="matrix(0.152,0,0,0.152,2.1325,2.2195)" mask="url(#op-mask)" d="M 48.5 73.1941 V 93.4469 C 29.2691 93.4469 13.6795 77.8572 13.6795 58.6264 C 13.6795 39.3956 29.2691 23.8059 48.5 23.8059 V 3.5531 C 67.7309 3.5531 83.3205 19.1428 83.3205 38.3736 C 83.3205 57.6044 67.7309 73.1941 48.5 73.1941 Z" fill="#FF0420" />
    <defs>
        <mask id="op-mask">
            <rect width="97" height="97" fill="white" />
            <path d="M 65.1996 48.3447 V 48.6551 C 57.8387 52.3239 52.3238 57.8386 48.6553 65.1996 H 48.3449 C 44.6762 57.8386 39.1613 52.3239 31.8004 48.6551 V 48.3447 C 39.1613 44.6761 44.6762 39.1612 48.3449 31.8004 H 48.6553 C 52.3238 39.1612 57.8387 44.6761 65.1996 48.3447 Z" fill="black" />
        </mask>
    </defs>
</svg>
