<svg viewBox="0 0 20 20" xmlns="http://www.w3.org/2000/svg">
    <rect fill="#F9F9F9" width="20" height="20"></rect>
    <rect fill="#FF042033" width="20" height="20"></rect>
    <g transform="translate(2.935,6)">
        <path d="M 3.0466 7.4406 a 3.1197 3.1197 90 0 1 -1.8996 -0.5456 a 1.8651 1.8651 90 0 1 -0.7305 -1.578 a 3.498 3.498 90 0 1 0.0488 -0.526 q 0.1266 -0.7025 0.3604 -1.6853 q 0.6624 -2.6789 3.419 -2.6789 a 3.3986 3.3986 90 0 1 1.3443 0.2533 a 2.0435 2.0435 90 0 1 0.9351 0.7403 a 1.9867 1.9867 90 0 1 0.3406 1.169 a 3.4671 3.4671 90 0 1 -0.0488 0.5162 q -0.1463 0.867 -0.3506 1.6853 q -0.3406 1.3345 -1.1786 1.9969 Q 4.4493 7.4406 3.0466 7.4406 Z m 0.1365 -1.4028 a 1.3836 1.3836 90 0 0 0.9255 -0.3214 a 1.7932 1.7932 90 0 0 0.5551 -0.9839 q 0.2241 -0.9153 0.3406 -1.5976 a 2.2351 2.2351 90 0 0 0.039 -0.4189 q 0 -0.8866 -0.9253 -0.8864 a 1.4221 1.4221 90 0 0 -0.9351 0.3214 a 1.8249 1.8249 90 0 0 -0.5456 0.9839 q -0.1754 0.6526 -0.3506 1.5976 a 2.0841 2.0841 90 0 0 -0.039 0.4091 Q 2.2477 6.0379 3.183 6.0379 Z" fill="#FF0420"/>
        <path d="M 7.3131 7.3433 a 0.2065 0.2065 90 0 1 -0.1656 -0.0681 a 0.2342 0.2342 90 0 1 -0.0292 -0.1754 l 1.3443 -6.3318 a 0.2789 0.2789 90 0 1 0.1064 -0.1754 a 0.298 0.298 90 0 1 0.1852 -0.0681 h 2.5912 a 3.0116 3.0116 90 0 1 1.734 0.4481 a 1.4688 1.4688 90 0 1 0.6624 1.2957 a 2.3319 2.3319 90 0 1 -0.0586 0.5066 a 2.6374 2.6374 90 0 1 -0.9839 1.6561 q -0.7305 0.5358 -2.0066 0.5358 H 9.3779 l -0.4481 2.1333 a 0.2791 0.2791 90 0 1 -0.1064 0.1754 a 0.298 0.298 90 0 1 -0.185 0.0681 Z m 3.4484 -3.7213 a 1.1603 1.1603 90 0 0 0.7112 -0.2239 a 1.052 1.052 90 0 0 0.4091 -0.6428 a 1.7076 1.7076 90 0 0 0.0292 -0.2923 a 0.5413 0.5413 90 0 0 -0.1656 -0.4287 a 0.8165 0.8165 90 0 0 -0.5649 -0.1558 h -1.1688 l -0.3702 1.7436 Z" fill="#FF0420"/>
    </g>
</svg>