<svg viewBox="0 0 20 20" xmlns="http://www.w3.org/2000/svg">
    <rect fill="#F9F9F9" width="20" height="20" />
    <rect fill="#e8189933" width="20" height="20" />
    <g transform="scale(0.45,0.45) translate(4.6575,6)">
        <path d="M33.5163 24.7529L27.6498 16.7825C27.0124 15.9164 26.0687 15.3975 25.0637 15.2832C24.835 15.2566 24.6307 15.1238 24.5163 14.9237C24.3999 14.7235 24.3876 14.4804 24.4795 14.268C24.8819 13.3406 24.9065 12.2641 24.4734 11.2796L20.5045 2.21424C19.9162 0.868129 18.5865 0 17.1178 0C15.6491 0 14.3194 0.870171 13.7311 2.21424L9.7622 11.2796C9.3312 12.2641 9.35367 13.3406 9.75607 14.268C9.84799 14.4804 9.8337 14.7235 9.71931 14.9237C9.60288 15.1238 9.40065 15.2566 9.17187 15.2832C8.16688 15.3975 7.22318 15.9164 6.58587 16.7825L0.71936 24.7529C-0.150812 25.9356 -0.238647 27.5207 0.494667 28.7933C1.23002 30.0638 2.64762 30.7808 4.10608 30.6194L13.9415 29.5246C15.0098 29.4061 15.931 28.8484 16.5316 28.0355C16.6684 27.8496 16.887 27.7393 17.1178 27.7393C17.3486 27.7393 17.5652 27.8496 17.7041 28.0355C18.3046 28.8484 19.2258 29.4061 20.2941 29.5246L30.1295 30.6194C31.588 30.7829 33.0056 30.0659 33.741 28.7933C34.4743 27.5207 34.3864 25.9356 33.5163 24.7529ZM12.3278 12.4173L16.3028 3.34179C16.4458 3.01701 16.7665 2.80661 17.1198 2.80661C17.4732 2.80661 17.7939 3.01701 17.9369 3.34179L21.9119 12.4173C22.0365 12.7033 22.01 13.0342 21.8384 13.2957C21.6668 13.5571 21.3767 13.7144 21.0622 13.7144H13.1755C12.863 13.7144 12.5709 13.5571 12.3993 13.2957C12.2277 13.0342 12.2011 12.7033 12.3257 12.4173H12.3278ZM14.3684 26.2339C14.2274 26.5137 13.9537 26.7016 13.6432 26.7363L3.79764 27.8312C3.4463 27.87 3.10314 27.6984 2.92543 27.392C2.74771 27.0856 2.77018 26.7037 2.98058 26.4177L8.85322 18.4391C9.0391 18.1878 9.33733 18.0448 9.64986 18.0632C9.96238 18.0796 10.2443 18.2532 10.4016 18.5249L10.4077 18.5351L14.3398 25.3453L14.3459 25.3555C14.5032 25.6272 14.5114 25.9581 14.3704 26.2359L14.3684 26.2339ZM17.9267 23.1535C17.7592 23.4415 17.4528 23.6213 17.1178 23.6213C16.7849 23.6213 16.4764 23.4436 16.3089 23.1556L13.2878 17.9243C13.1203 17.6363 13.1203 17.2788 13.2878 16.9908C13.4553 16.7028 13.7617 16.5231 14.0967 16.5231H20.1369C20.4698 16.5231 20.7783 16.6987 20.9458 16.9888C21.1132 17.2788 21.1132 17.6343 20.9458 17.9223L17.9267 23.1535ZM31.3122 27.392C31.1345 27.6984 30.7934 27.8721 30.44 27.8332L20.5944 26.7384C20.2839 26.7037 20.0102 26.5157 19.8693 26.2359C19.7283 25.956 19.7365 25.6251 19.8938 25.3555L19.8999 25.3453L23.832 18.5351L23.8382 18.5249C23.9954 18.2532 24.2773 18.0796 24.5899 18.0632C24.9024 18.0469 25.2006 18.1878 25.3865 18.4391L31.2591 26.4177C31.4695 26.7037 31.4899 27.0856 31.3143 27.392H31.3122Z" fill="#e81899" />
    </g>
</svg>