<svg xmlns="http://www.w3.org/2000/svg" viewBox="0 0 600 600" fill="none">
    <path d="M300 600C465.685 600 600 465.685 600 300C600 134.315 465.685 0 300 0C134.315 0 0 134.315 0 300C0 465.685 134.315 600 300 600Z" fill="url(#paint0_radial_440_36)"/>
    <g transform="matrix(20,0,0,20,176,143)">
        <path d="M 5.5026 0.1713 C 5.8833 -0.0299 6.4627 -0.0299 6.8435 0.1713 L 10.7291 2.2238 C 10.9585 2.3449 11.0844 2.5255 11.107 2.7118 L 11.1107 2.7118 V 13.0289 C 11.1056 13.2322 10.9785 13.4341 10.7291 13.5658 L 6.8435 15.6183 C 6.4627 15.8195 5.8833 15.8195 5.5026 15.6183 L 1.617 13.5658 C 1.3687 13.4346 1.2495 13.2313 1.2436 13.0289 C 1.243 13.0081 1.2429 12.991 1.2436 12.9769 L 1.2436 2.7813 C 1.243 2.7669 1.243 2.7527 1.2436 2.7384 L 1.2436 2.7118 L 1.2453 2.7118 C 1.2626 2.5234 1.3828 2.3475 1.617 2.2238 L 5.5026 0.1713 Z M 10.4991 8.4676 L 6.8435 10.3986 C 6.4627 10.5998 5.8833 10.5998 5.5026 10.3986 L 1.8552 8.4719 V 13.0086 L 5.5026 14.9251 C 5.7181 15.0402 5.9422 15.1525 6.1605 15.1574 L 6.173 15.1575 C 6.3909 15.1582 6.6023 15.0476 6.8167 14.9429 L 10.4991 12.992 V 8.4676 Z M 0.6116 12.8046 C 0.6116 13.1999 0.6575 13.4597 0.7487 13.6427 C 0.8243 13.7944 0.9378 13.9104 1.1449 14.0514 L 1.1567 14.0594 C 1.2021 14.0901 1.2522 14.1222 1.3131 14.1599 L 1.385 14.2039 L 1.6057 14.3372 L 1.2892 14.8605 L 1.0422 14.7113 L 1.0006 14.6858 C 0.9292 14.6417 0.87 14.6039 0.8148 14.5666 C 0.2245 14.1686 0.0044 13.7347 0.0001 12.8321 L 0 12.8046 H 0.6116 Z M 5.8672 5.7024 C 5.8389 5.7121 5.8124 5.7233 5.7882 5.7361 L 1.9026 7.7886 C 1.8985 7.7908 1.8946 7.7929 1.8909 7.795 L 1.8877 7.7969 L 1.8938 7.8004 L 1.9026 7.8052 L 5.7882 9.8578 C 5.8124 9.8705 5.8389 9.8818 5.8672 9.8915 V 5.7024 Z M 6.4788 5.7024 V 9.8915 C 6.5072 9.8818 6.5337 9.8705 6.5579 9.8578 L 10.4435 7.8052 C 10.4476 7.8031 10.4515 7.8009 10.4551 7.7988 L 10.4584 7.7969 L 10.4523 7.7934 L 10.4435 7.7886 L 6.5579 5.7361 C 6.5337 5.7233 6.5072 5.7121 6.4788 5.7024 Z M 10.4991 3.4437 L 7.0134 5.2849 L 10.4991 7.1262 V 3.4437 Z M 1.8552 3.448 V 7.1219 L 5.3327 5.2849 L 1.8552 3.448 Z M 6.5579 0.7121 C 6.3558 0.6054 5.9903 0.6054 5.7882 0.7121 L 1.9026 2.7647 C 1.8985 2.7668 1.8946 2.769 1.8909 2.7711 L 1.8877 2.773 L 1.8938 2.7765 L 1.9026 2.7813 L 5.7882 4.8338 C 5.9903 4.9406 6.3558 4.9406 6.5579 4.8338 L 10.4435 2.7813 C 10.4476 2.7791 10.4515 2.777 10.4551 2.7749 L 10.4584 2.773 L 10.4523 2.7695 L 10.4435 2.7647 L 6.5579 0.7121 Z M 11.0732 0.9372 L 11.3202 1.0864 L 11.3618 1.1119 C 11.4332 1.156 11.4924 1.1939 11.5476 1.2311 C 12.1379 1.6291 12.358 2.063 12.3623 2.9657 L 12.3624 2.9932 H 11.7508 C 11.7508 2.5979 11.7049 2.3381 11.6137 2.155 C 11.5381 2.0033 11.4247 1.8874 11.2176 1.7463 L 11.2057 1.7383 C 11.1603 1.7077 11.1102 1.6756 11.0493 1.6378 L 10.9774 1.5938 L 10.7567 1.4606 L 11.0732 0.9372 Z" fill="#1969FF"/>
    </g>
    <defs>
        <radialGradient id="paint0_radial_440_36" cx="0" cy="0" r="1" gradientUnits="userSpaceOnUse" gradientTransform="translate(196 143.5) rotate(54.1675) scale(497.082)">
            <stop stop-color="white"/>
            <stop stop-color="#1969FF" offset="1"/>
        </radialGradient>
    </defs>
</svg>