<svg  xmlns="http://www.w3.org/2000/svg" viewBox="0 0 600 600" fill="none">
    <path d="M300 600a300 300 0 100-600 300 300 0 000 600z" fill="url(#paint0_radial_440_36)" />
    <g transform="matrix(10,0,0,10,170,170)">
            <path xmlns="http://www.w3.org/2000/svg" d="M24.833 1.108a3.783 3.783 0 00-5.34 0l-9.195 9.167a3.757 3.757 0 000 5.322l9.195 9.167a3.77 3.77 0 105.339-5.323l-5.637-5.616a1.252 1.252 0 010-1.778l5.638-5.616a3.756 3.756 0 000-5.322z" fill="#04795b"/>
            <path xmlns="http://www.w3.org/2000/svg" d="M19.491 24.763a3.77 3.77 0 005.339-5.322l-9.192-9.167a3.77 3.77 0 10-5.34 5.323l9.2 9.166z" fill="#0db50a"/>
            <path xmlns="http://www.w3.org/2000/svg" d="M15.638 10.275L6.441 1.108a3.77 3.77 0 10-5.34 5.323l5.634 5.618a1.253 1.253 0 010 1.778l-5.634 5.614a3.77 3.77 0 105.34 5.323l6.523-6.507 2.672-2.659a3.757 3.757 0 000-5.323zm6.522-2.74a3.764 3.764 0 10-3.687-3.751 3.764 3.764 0 003.687 3.751z" fill="#0ae33a"/>
    </g>
    <defs>
        <radialGradient id="paint0_radial_440_36" cx="0" cy="0" r="1" gradientUnits="userSpaceOnUse" gradientTransform="translate(196 143.5) rotate(54.1675) scale(497.082)">
            <stop stop-color="rgb(22,30,83)"/>
            <stop stop-color="black" offset="1"/>
        </radialGradient>
    </defs>
</svg>