<svg xmlns="http://www.w3.org/2000/svg" viewBox="0 0 600 600" fill="none">
    <path d="M300 600C465.685 600 600 465.685 600 300C600 134.315 465.685 0 300 0C134.315 0 0 134.315 0 300C0 465.685 134.315 600 300 600Z" fill="url(#paint0_radial_440_36)"/>
    <g transform="matrix(5,0,0,5,50,50)">
        <path d="M38.4875 29.3963C37.4701 28.1291 38.0442 26.5351 39.9107 25.0261C41.7491 23.9307 43.3295 24.0213 44.4161 25.2433C44.5919 25.4416 44.8238 25.621 44.6648 26.0724C41.5378 24.9675 39.5984 26.4161 38.4875 29.3963Z" fill="white"/>
        <path d="M44.6798 49.0549C44.9061 49.4251 44.8462 49.7556 44.4067 50.037C43.9074 50.1144 43.6025 49.9312 43.5333 49.5082C43.4809 49.1909 43.6455 48.9152 43.9784 48.8188C44.2552 48.7357 44.5208 48.7924 44.6798 49.053V49.0549Z" fill="white"/>
        <path d="M46.9727 52.1561C46.7296 52.447 46.3499 52.4621 46.1049 52.1542C45.7103 51.6575 45.9272 51.3025 46.5407 51.0872C47.1466 51.31 47.3879 51.6556 46.9727 52.1561Z" fill="white"/>
        <path d="M47.0587 49.8161C46.5687 49.9483 46.2321 49.8747 46.1292 49.3931C46.075 49.1343 46.1629 48.919 46.4041 48.7906C46.6585 48.6546 46.9203 48.5829 47.1597 48.8038C47.5113 49.1324 47.4459 49.463 47.0587 49.818V49.8161Z" fill="white"/>
        <path d="M47.0793 30.6957C46.2713 29.3774 45.1436 28.214 43.3762 28.4577C41.8295 28.6711 41.1862 29.9875 40.8682 31.2623C40.079 34.4352 40.4362 37.5552 41.8164 40.6166C42.4692 41.9103 43.148 43.0869 44.3169 43.8801C45.6934 44.8169 47.3037 44.4883 48.1827 43.068C48.4707 42.6053 48.7082 42.12 48.8466 41.5817C49.8472 37.6874 49.1347 34.0555 47.0774 30.6976L47.0793 30.6957ZM45.6766 33.4455C44.7452 34.2029 44.1486 34.1065 43.4622 33.2321C42.789 32.3747 42.731 31.1187 43.3519 30.6183C43.7428 30.3029 44.1655 30.3406 44.5844 30.5673C45.5681 31.0961 46.0245 32.2972 45.6785 33.4455H45.6766Z" fill="white"/>
        <path d="M57.7863 57.2365C58.0949 57.6803 57.6741 58.0051 57.4235 58.2979C57.1617 58.6019 56.8774 58.9155 56.3855 59.059C54.3413 59.9712 51.4313 58.9381 50.21 57.652C49.9912 57.4216 49.634 57.1458 49.9407 56.7832C50.2119 56.4603 50.5897 56.651 50.8777 56.8153C51.7081 57.2912 52.5684 57.686 53.5241 57.8087C54.6331 57.9504 55.673 57.7124 56.6754 57.2214C57.0233 57.0495 57.4777 56.7945 57.7844 57.2365H57.7863Z" fill="white"/>
        <path d="M61.5492 50.4998C61.9682 50.9493 61.97 51.3516 61.4782 51.616C61.1584 51.7897 60.8722 51.6217 60.7974 51.2647C60.6908 50.7378 60.8516 50.3903 61.5492 50.4998Z" fill="white"/>
        <path d="M61.9233 49.2269C61.4987 49.5612 61.1097 49.5706 60.9583 48.8662C61.2201 48.3298 61.538 47.9369 62.0729 48.3619C62.4245 48.6433 62.2038 49.0097 61.9233 49.2288V49.2269Z" fill="white"/>
        <path d="M63.1072 48.4524C63.5654 48.6489 63.4027 48.9643 63.1015 49.2853C62.6228 49.4156 62.3441 49.325 62.4993 48.8264C62.5835 48.562 62.8173 48.3297 63.109 48.4524H63.1072Z" fill="white"/>
        <path d="M63.195 33.8232C62.7518 32.1461 62.0748 30.5087 60.7413 29.2849C59.2863 27.9477 57.7751 28.2933 57.0401 30.1272C56.6548 31.0866 56.4005 32.0744 56.4491 33.2226C56.4117 36.6222 57.0962 39.7082 59.1423 42.3654C59.7183 43.1152 60.4626 43.695 61.4838 43.5439C62.5255 43.3872 62.9669 42.5543 63.3353 41.6855C63.4139 41.4986 63.4419 41.2889 63.5036 41.0963C64.3172 38.6335 63.8216 36.1991 63.1932 33.8251L63.195 33.8232ZM60.7076 33.3775C60.4346 34.1688 59.5369 34.2009 58.6317 33.4474C58.0949 32.7713 57.878 32.1423 57.9752 31.4285C58.1043 30.5125 58.7888 30.1536 59.5874 30.571C60.5075 31.0507 61.0461 32.3954 60.7076 33.3775Z" fill="white"/>
        <path d="M59.6884 26.4595C59.0487 26.1989 58.3455 26.4463 57.7209 26.1536C58.3044 24.654 60.0549 24.6956 62.1608 26.2612C62.8528 26.9921 63.3484 27.7532 63.5728 28.6787C63.6402 28.9544 63.7524 29.2452 63.4606 29.4152C63.0903 29.6343 62.9257 29.3038 62.7518 29.0545C61.9588 27.9138 61.0013 26.9902 59.6865 26.4595H59.6884Z" fill="white"/>
        <path d="M68.168 46.2881C67.4984 45.5666 66.2828 45.323 65.4468 45.7479C64.7099 46.1238 64.2816 46.7263 64.377 47.6271C64.968 47.7499 65.3944 47.0492 66.0378 47.4647C65.6525 49.0549 64.9231 50.4714 63.8683 51.6839C61.8877 53.9597 59.391 54.9115 56.3949 54.3752C56.0152 54.3053 55.456 54.2297 55.7366 53.6254C56.2621 52.4979 56.4285 51.0569 58.0014 50.7528C58.1922 50.7131 58.3717 50.5866 58.5475 50.4827C61.1677 48.9246 61.1901 45.6724 58.6373 44.0463C57.1617 43.1077 55.5458 42.9056 53.8738 42.8716C53.8682 42.8735 53.8532 42.881 53.814 42.8961C53.0547 43.102 52.3309 43.1964 51.6838 43.4703C50.1165 44.1351 48.8111 45.1266 48.697 47.0114C48.5867 48.8075 49.6452 49.9142 51.1227 50.7037C51.9737 51.1607 52.8751 51.4686 53.8289 51.529C54.736 51.5857 54.7678 52.0182 54.433 52.6697C54.0571 53.4044 53.41 53.8369 52.6675 54.1259C48.5642 55.7236 44.8107 55.0343 41.4256 52.2769C39.8434 50.987 38.4669 49.4969 37.5785 47.5667C38.4706 47.2286 39.0111 48.0842 39.7274 48.0407C39.9256 47.8405 39.9051 47.6271 39.8247 47.4383C39.2617 46.0879 38.0442 45.8122 36.8155 45.7291C35.6035 45.646 34.4253 45.8839 33.7408 47.0908C33.5575 47.4156 33.4397 47.7914 33.4902 48.1786C33.55 48.613 33.5369 49.1928 34.0232 49.3023C34.5824 49.4308 34.5581 48.8075 34.6965 48.4562C34.8742 48.0105 35.1379 47.6781 35.6185 47.5931C36.174 47.493 36.0917 48.071 36.3255 48.3165C36.4171 48.4109 36.4676 48.5488 36.5293 48.6696C39.7405 55.0645 47.1971 57.973 53.6195 55.395C54.0421 55.2269 54.3919 55.3497 54.7865 55.5046C56.0227 55.9862 57.2758 56.3809 58.6429 56.1429C62.4357 55.4781 64.9156 53.1627 66.6045 49.8028C66.9411 49.1267 67.0533 48.3297 67.5153 47.7707C68.11 47.8368 68.0015 48.5563 68.5327 48.6413C68.989 47.7499 68.7982 46.9642 68.1661 46.2862L68.168 46.2881ZM53.7448 46.951C53.3109 46.7678 52.8658 46.4883 52.9181 45.9009C52.9668 45.3513 53.4399 45.2664 53.8514 45.0964C55.082 44.5883 56.2509 44.9774 57.431 45.2871C57.8873 45.6516 58.3811 45.8632 58.2352 46.4052C58.108 46.8773 57.6816 47.07 57.2327 47.1757C56.0451 47.4572 54.8706 47.4307 53.7429 46.9491L53.7448 46.951Z" fill="white"/>
        <path d="M59.9053 79.9943H54.2516C54.5041 79.9943 54.7192 79.915 54.8632 79.6449C55.2971 78.8101 55.4448 77.8696 55.1007 76.9026C54.9567 77.2388 54.8127 77.5769 54.6331 77.9773C54.3563 78.7403 53.6157 79.1048 53.324 79.8659C53.6419 79.8961 53.9711 79.9962 54.2535 79.9962H39.6339C39.7405 79.9943 39.8452 79.983 39.9537 79.9716C40.756 79.8772 41.5864 79.8885 42.3925 79.9754C43.3257 80.0736 43.726 79.5996 44.0308 78.8177C44.7864 76.8856 45.585 74.9744 46.3667 73.0536C46.4116 73.0612 46.4546 73.0725 46.4995 73.082C46.0114 75.3332 45.5214 77.5844 45.0314 79.847C48.4315 80.2814 51.3584 78.2058 50.6832 75.9319C49.7013 76.4815 49.0262 77.5599 47.6965 77.694C47.9994 76.5967 48.7513 75.7827 48.8747 74.7062C48.9925 73.6901 49.2936 72.6816 48.7307 71.5578C48.1472 72.2887 47.9676 73.0952 47.2887 73.6788C47.2887 72.9781 47.2158 72.3643 47.3037 71.7769C47.5188 70.3416 47.588 68.9176 47.2214 67.5011C46.6173 65.1611 44.3057 63.4538 41.8482 65.1686C40.5615 66.0676 39.7685 67.3689 38.9587 68.6758C39.3926 67.2877 39.8583 65.9354 40.9767 64.9061C42.2055 63.7729 43.6343 63.8466 45.0875 64.3169C45.1642 63.6974 44.5339 63.6049 44.6461 63.2083H54.9137C54.9286 63.654 54.3152 63.9391 54.7697 64.3811C55.1157 64.7173 55.4635 64.5076 55.817 64.4264C55.9816 64.3886 56.148 64.3565 56.3163 64.3244C57.7396 64.0468 59.103 64.0808 60.2962 65.1233C59.6603 65.2329 59.0207 65.1649 58.4035 65.2517C57.7602 65.3443 57.1018 65.5105 56.509 66.1432C58.3848 67.0591 60.0063 68.1338 60.4832 70.3472C59.7389 69.7032 59.1235 68.9232 57.8649 69.0101C59.0824 71.165 60.5262 73.1386 59.1703 75.7581C58.7102 74.4701 58.8729 73.0196 57.3001 72.2963C57.5974 75.1878 57.7919 77.8942 55.0408 79.8791C56.3575 79.983 57.3581 80 58.3175 79.881C58.7028 79.2747 57.9621 78.6515 58.4989 77.9999C58.7028 78.423 58.9459 78.7421 59.0039 79.0897C59.1161 79.7752 59.4789 79.9924 59.9053 79.9924H59.909L59.9053 79.9943Z" fill="white"/>
        <path d="M72.4302 61.0402L72.3255 59.6105C72.2769 60.8872 72.217 62.5133 71.4951 63.5766C70.6778 64.7815 68.8543 64.9515 67.6275 64.9836C67.6181 65.0856 67.8482 65.0705 67.9099 65.0705C68.3325 65.078 68.7272 65.0554 69.1554 65.1196C71.338 65.4444 72.03 66.5625 72.2563 68.9497L72.3367 70.0829L72.5219 67.9997C72.6603 66.4284 73.8553 65.2574 75.1925 65.061L76.9225 64.8193L75.0354 64.6474C73.4009 64.5001 72.5013 62.7437 72.434 61.0439L72.4302 61.0402Z" fill="black"/>
        <path d="M79.1425 57.4272C78.011 57.3252 77.3882 56.1108 77.3414 54.9323L77.2685 53.9408C77.2348 54.8247 77.1937 55.9522 76.6925 56.6869C76.1258 57.5216 74.8634 57.6387 74.0143 57.6614C74.0087 57.7313 74.1677 57.7218 74.2088 57.7218C74.5024 57.7275 74.7755 57.7124 75.071 57.7539C76.5821 57.9787 77.0609 58.7511 77.218 60.4055L77.2722 61.1893L77.3994 59.7483C77.4948 58.6605 78.3214 57.8502 79.2472 57.7124L80.4442 57.5443L79.1369 57.4253L79.1425 57.4272Z" fill="black"/>
        <path d="M67.0253 66.3793L66.9935 65.9298C66.9785 66.3321 66.9579 66.8439 66.7316 67.1782C66.4735 67.5578 65.8994 67.6107 65.5141 67.622C65.5104 67.6541 65.5852 67.6503 65.6039 67.6503C65.7367 67.6522 65.8601 67.6447 65.9966 67.6655C66.6849 67.7674 66.9018 68.1187 66.9729 68.8723L66.9991 69.2292L67.0571 68.5739C67.1019 68.0791 67.4779 67.7108 67.8968 67.6485L68.441 67.5729L67.8463 67.52C67.332 67.4728 67.0477 66.9213 67.0271 66.385L67.0253 66.3793Z" fill="black"/>
        <path d="M72.0898 50.8585C73.2288 49.8784 74.2724 48.8037 75.2019 47.6215C76.9674 45.3778 77.9212 42.8319 77.9642 39.9555C77.9717 39.4739 78.0016 38.9414 77.4294 38.7487C76.8645 38.558 76.5878 38.9716 76.2885 39.3757C75.8041 40.033 75.3141 40.6978 74.7493 41.2832C74.0573 41.999 73.313 42.6789 72.1796 42.9301C72.4751 42.0802 72.8548 41.3871 72.8791 40.5788C72.9109 39.423 71.5662 39.7818 71.1978 38.964C72.5948 38.269 73.7562 37.3058 74.6895 36.0593C76.3521 33.8383 77.42 31.4076 77.2835 28.5672C77.2573 28.0138 77.3882 27.3188 76.6794 26.9599C75.8565 27.6568 76.1221 29.2697 74.6577 29.3736C73.9507 26.9203 73.7057 26.365 72.4209 25.4264C71.6578 24.8655 71.3941 24.161 71.2389 23.2885C71.0257 22.0816 70.8031 20.8691 70.287 19.736C70.1093 19.3507 69.8661 19.0882 69.4678 19.0712C69.004 19.0523 68.7141 19.3828 68.5682 19.787C68.3587 20.363 68.2185 20.9655 68.024 21.5472C67.5415 22.9882 66.6213 23.9703 65.0915 24.212C64.4331 24.3178 63.7486 24.1478 63.3409 23.6133C63.0005 23.1714 63.4625 22.7219 63.6514 22.3026C64.8483 19.6737 64.7623 17.1391 63.0772 14.6537C61.9775 13.7132 61.6652 13.7887 61.3099 15.0673C60.8105 16.8653 59.578 17.8115 57.8668 18.3497C54.8576 19.294 51.8802 18.1665 48.755 18.3913C49.5349 17.6547 50.384 17.5716 51.2162 17.4375C52.6413 17.2071 53.8383 16.6481 54.2048 15.0749C54.5752 13.4828 53.943 12.0946 53.1145 10.833C52.6619 10.1456 52.2318 10.6612 51.9924 11.1598C51.5753 12.0361 50.9469 12.6537 50.0473 13.003C49.1234 13.3581 48.1715 13.5696 47.1821 13.6357C44.7265 13.8 42.4262 14.4138 40.5559 16.1438C40.0154 16.6405 39.5385 17.2071 39.013 17.7624C38.7194 17.3771 38.8727 16.988 38.8783 16.6349C38.897 15.6433 38.6146 14.733 38.1639 13.8813C37.9638 13.5092 37.7225 13.0352 37.2045 13.0673C36.5779 13.1088 36.6453 13.7207 36.5985 14.106C36.3292 16.2364 35.2295 17.8492 33.6641 19.2166C32.6074 20.1401 31.749 21.245 31.0795 22.4858C30.5932 23.3886 30.4548 24.4065 30.2622 25.3754C29.8021 25.4358 29.5477 25.1733 29.256 25.0166C25.5847 23.0127 20.8044 25.3017 19.9722 29.4661C19.3887 32.3897 21.0457 35.8025 23.8024 37.3417C24.0942 37.506 24.5281 37.5967 24.4607 38.0159C24.3186 38.913 24.371 39.8045 24.5281 40.7998C24.24 40.6846 24.1147 40.6449 23.9988 40.5826C22.4184 39.7497 21.2626 38.5032 20.3818 36.947C20.1012 36.4503 19.6748 35.9271 18.994 36.1613C18.3694 36.3766 18.3956 36.9847 18.3694 37.5476C18.1992 41.2209 19.6224 44.2635 21.949 46.9718C23.2956 48.5337 25.0012 49.6177 26.8602 50.7717C24.7731 50.9095 23.3797 49.3646 21.5993 49.0757C21.5002 49.6366 21.5413 50.0918 21.7246 50.443C22.8355 52.5772 24.6216 54.0352 26.5947 55.2723C27.6083 55.9068 28.7136 56.3979 29.8956 57.0154C29.0129 57.4536 28.175 57.3176 27.4494 57.5348C27.3876 57.8257 27.5597 57.905 27.6981 57.9919C30.352 59.652 33.1816 60.9419 36.3311 60.9929C38.3135 61.0231 40.1463 61.397 41.9549 62.1072C42.1905 62.1997 42.5084 62.2129 42.5384 62.5737C42.5047 62.6379 42.4897 62.7134 42.443 62.7531C42.3663 62.8173 42.2765 62.8796 42.1811 62.9023C40.7055 63.2498 39.8097 64.2451 39.1327 65.5539C38.0947 67.5672 37.4289 69.7202 36.735 71.8619C36.2002 73.5163 35.684 75.1821 35.381 76.9045C35.2276 77.7657 35.4371 78.3871 36.2357 78.88C37.1839 79.4636 38.1284 79.9414 39.2187 79.9981C39.3534 80.0037 39.4899 80.0056 39.6283 79.9981C39.7349 79.9962 39.8396 79.9848 39.9481 79.9735C40.7504 79.8791 41.5808 79.8904 42.3869 79.9773C43.3182 80.0755 43.7203 79.6015 44.0252 78.8196C44.7808 76.8875 45.5794 74.9762 46.3611 73.0555C46.406 73.063 46.449 73.0744 46.4939 73.0838C46.0058 75.3351 45.5176 77.5863 45.0258 79.8489C48.4258 80.2832 51.3528 78.2076 50.6776 75.9338C49.6957 76.4833 49.0206 77.5617 47.6908 77.6958C47.9938 76.5985 48.7457 75.7846 48.8691 74.708C48.9869 73.692 49.288 72.6834 48.7251 71.5597C48.1416 72.2906 47.962 73.097 47.2831 73.6806C47.2831 72.98 47.2102 72.3661 47.2981 71.7788C47.5113 70.3434 47.5824 68.9194 47.2158 67.5029C46.6117 65.1629 44.3001 63.4556 41.8426 65.1705C40.5559 66.0695 39.7629 67.3707 38.9531 68.6777C39.387 67.2895 39.8527 65.9373 40.9711 64.908C42.1999 63.7748 43.6287 63.8485 45.0819 64.3187C45.1586 63.6993 44.5283 63.6067 44.6405 63.2101H54.9081C54.923 63.6558 54.3096 63.941 54.7641 64.383C55.11 64.7191 55.4579 64.5095 55.8114 64.4283C55.976 64.3905 56.1424 64.3584 56.3107 64.3263C57.734 64.0487 59.0974 64.0827 60.2906 65.1252C59.6547 65.2347 59.0151 65.1667 58.3979 65.2536C57.7545 65.3461 57.0962 65.5123 56.5034 66.145C58.3792 67.061 60.0007 68.1356 60.4776 70.3491C59.7332 69.7051 59.1179 68.9251 57.8593 69.012C59.0768 71.1669 60.5206 73.1405 59.1647 75.76C58.7046 74.472 58.8673 73.0215 57.2945 72.2982C57.5918 75.1896 57.7863 77.896 55.0352 79.881C56.35 79.9848 57.3524 80.0018 58.31 79.8829C58.6953 79.2766 57.9547 78.6534 58.4914 78.0018C58.6953 78.4248 58.9384 78.744 58.9964 79.0915C59.1086 79.7771 59.4714 79.9943 59.8978 79.9943C60.0979 79.9943 60.3093 79.9471 60.5187 79.8772C61.7419 79.4655 62.8771 78.846 63.8646 77.9791C64.5079 77.4163 64.7847 76.7647 64.536 75.8828C63.9955 73.9564 63.0772 72.2056 62.1515 70.4568C61.538 69.299 60.9096 68.1507 60.2363 66.9061C60.9227 66.8098 61.4651 66.7928 61.9738 66.6512C63.1071 66.3358 63.2811 65.586 62.4058 64.8041C61.8485 64.3036 61.1939 63.9391 60.5412 63.5727C59.6584 63.0722 58.656 62.8872 57.5638 62.4188C59.0338 61.7087 60.3224 61.0741 61.6297 60.4735C61.826 60.3847 62.1047 60.4263 62.3329 60.4754C64.0254 60.838 65.6507 60.4999 67.2198 59.922C68.0333 59.6217 68.8843 59.2497 69.5482 58.1977C68.0651 58.5131 66.8383 59.176 65.4655 58.6718C65.5945 58.1656 65.9873 58.0164 66.3127 57.7936C67.865 56.734 69.7147 56.2732 71.2987 55.2685C72.8005 54.3166 74.22 53.2741 75.1645 51.7103C75.3702 51.3722 75.6339 50.9662 75.3066 50.5734C74.9962 50.1994 74.5455 50.3524 74.1602 50.4449C73.9058 50.5054 73.6852 50.6999 73.4383 50.8132C72.722 51.1399 72.0936 51.6914 71.1903 51.8199C71.4222 51.3326 71.7775 51.1192 72.0786 50.8548L72.0824 50.8604L72.0898 50.8585ZM28.8969 30.6937C28.4088 31.1735 27.8328 31.5493 27.0978 30.9846C26.7574 30.724 26.3085 30.6031 25.9008 30.4369C25.4557 30.2556 24.9601 30.0705 24.5636 30.452C24.1746 30.8241 24.2718 31.3321 24.4271 31.8061C24.4888 31.995 24.558 32.182 24.6103 32.335C24.9339 32.4445 25.0031 32.1839 25.1583 32.0743C25.6446 31.7193 26.071 31.9837 26.4619 32.25C26.8415 32.5087 26.7574 32.8902 26.6208 33.2679C26.4469 33.7495 26.2038 34.2311 26.1664 34.7297C26.1028 35.5891 25.7661 35.6835 25.0442 35.3964C23.2993 34.6995 21.9939 32.8336 21.9808 30.9298C21.9677 29.2886 23.146 27.6474 24.8497 26.9241C26.4787 26.2328 28.1301 26.773 29.7142 28.5181C30.2528 29.6569 29.4505 30.1555 28.8969 30.6975V30.6937ZM69.3182 51.1891C67.2291 54.4394 64.7342 57.3063 61.2799 59.1571C58.6317 60.5736 55.7478 61.2441 52.8003 61.4707C48.8784 61.7691 45.0108 61.2951 41.2778 59.99C37.5953 58.7058 34.7451 56.328 32.5139 53.1306C31.5096 51.6933 30.6418 50.2353 30.3837 48.4373C30.0153 45.882 31.0869 43.4608 33.1367 42.9056C35.9888 42.1293 39.6021 43.3078 40.9019 46.2654C41.0422 46.5808 41.0871 47.0095 41.6313 47.1795C41.8595 45.8046 41.3788 44.6809 40.6158 43.6761C39.4637 42.1633 37.816 41.5665 36.0075 41.3871C35.4689 41.3342 35.1005 41.1756 34.9172 40.66C33.5407 36.7354 32.5177 32.7637 34.1915 28.6767C35.2987 25.9646 36.9034 23.6265 39.7255 22.4197C41.7641 21.5491 43.6998 21.957 45.6055 22.8635C50.2886 25.094 52.546 29.0148 53.4268 34.0083C53.8963 36.6901 53.9131 39.3096 53.3128 41.9424C53.2043 42.4145 53.1968 42.7545 53.7691 42.8338C53.8738 42.8602 53.8813 42.864 53.8813 42.8678C54.6425 42.3428 54.9137 41.5779 54.9548 40.6694C55.1287 36.947 54.8482 33.3 53.6101 29.7457C52.9855 27.9553 53.4979 26.1988 54.4611 24.6539C55.3981 23.1582 57.1449 22.7351 58.9908 23.3753C61.8728 24.3706 63.8141 26.4765 65.387 28.9845C67.6986 32.6749 68.1324 36.7052 67.4648 40.9414C67.3095 41.9329 66.7036 42.2049 65.8957 42.3768C64.4238 42.6922 63.5317 43.627 63.1595 45.0831C63.1109 45.272 63.0398 45.4873 63.3578 45.7007C63.7916 45.2305 64.2162 44.7186 64.695 44.2635C66.2398 42.796 68.7122 43.1095 69.8156 44.8924C70.1691 45.4646 70.2645 46.1181 70.3 46.7546C70.3861 48.3146 70.171 49.8614 69.32 51.1872V51.1909L69.3182 51.1891ZM69.0058 33.4983C68.8001 32.8921 68.6542 32.4351 68.4672 31.995C68.3251 31.6588 68.1904 31.3359 68.6037 31.1149C68.9853 30.9109 69.335 30.9884 69.5819 31.3529C69.7334 31.5757 69.8456 31.8231 70.0962 32.284C70.3524 31.1546 70.1598 30.3274 69.5052 29.7136C68.7103 28.9694 68.196 29.9836 67.577 30.1989C66.4361 29.3094 66.4231 29.0903 67.4573 28.1838C68.5738 27.2074 69.825 26.62 71.2744 27.298C72.6116 27.925 73.2999 29.0828 73.341 30.5729C73.384 32.1858 72.8267 33.5456 71.3979 34.3822C70.2439 35.0584 69.4005 34.709 69.004 33.4983H69.0058Z" fill="black"/>
        <path d="M71.4016 34.3823C70.2477 35.0584 69.4042 34.709 69.0077 33.4984C68.802 32.8922 68.6561 32.4351 68.4672 31.9951C68.3251 31.6589 68.1904 31.336 68.6038 31.115C68.9853 30.911 69.335 30.9884 69.5819 31.353C69.7334 31.5758 69.8456 31.8232 70.0962 32.284C70.3524 31.1546 70.1598 30.3293 69.5052 29.7136C68.7104 28.9695 68.1961 29.9837 67.577 30.199C66.4362 29.3095 66.4231 29.0904 67.4573 28.1838C68.5738 27.2074 69.825 26.6201 71.2745 27.2981C72.6117 27.9251 73.2999 29.0828 73.3411 30.5711C73.3841 32.1839 72.8267 33.5438 71.3979 34.3804H71.3998L71.4016 34.3823Z" fill="white"/>
        <path d="M28.8969 30.6939C28.4088 31.1736 27.8328 31.5494 27.0978 30.9847C26.7574 30.7241 26.3085 30.6032 25.9008 30.437C25.4557 30.2557 24.9601 30.0706 24.5636 30.4521C24.1746 30.8242 24.2719 31.3322 24.4271 31.8063C24.4888 31.9951 24.558 32.1821 24.6104 32.3351C24.9339 32.4446 25.0031 32.184 25.1583 32.0744C25.6446 31.7194 26.071 31.9838 26.4619 32.2501C26.8415 32.5088 26.7574 32.8903 26.6209 33.268C26.4469 33.7496 26.2038 34.2312 26.1664 34.7298C26.1028 35.5892 25.7662 35.6836 25.0443 35.3965C23.2993 34.6996 21.9939 32.8337 21.9808 30.9299C21.9677 29.2887 23.146 27.6475 24.8498 26.9242C26.4787 26.2329 28.1301 26.7731 29.7142 28.5182C30.2528 29.657 29.4505 30.1556 28.8969 30.6976V30.6939Z" fill="white"/>
        <path d="M39.7237 22.4198C41.7622 21.5472 43.6979 21.9571 45.6037 22.8636C50.2867 25.094 52.5441 29.0129 53.425 34.0083C53.8944 36.6883 53.9112 39.3078 53.3109 41.9424C53.2735 42.1067 53.2473 42.2559 53.2548 42.3825C53.2604 42.3957 53.2641 42.4108 53.2716 42.424C53.3015 42.4958 53.3464 42.5638 53.41 42.6148C53.4717 42.6639 53.5559 42.6979 53.6775 42.6979C53.8757 42.6979 54.0515 42.6318 54.1918 42.5487C54.6874 42.052 54.9211 41.4061 54.9529 40.6676C55.125 36.947 54.8463 33.2982 53.6083 29.7438C52.9836 27.9534 53.496 26.197 54.4592 24.6521C55.3962 23.1544 57.143 22.7333 58.9889 23.3735C61.8709 24.3688 63.8122 26.4727 65.3851 28.9827C67.6967 32.6731 68.1287 36.7034 67.4629 40.9396C67.3095 41.9311 66.7017 42.2012 65.8938 42.3749C64.4219 42.6922 63.5298 43.6233 63.1576 45.0813C63.109 45.2702 63.0379 45.4855 63.3559 45.6989C63.7898 45.2267 64.2143 44.7149 64.6931 44.2617C66.2379 42.7942 68.7104 43.1077 69.8138 44.8906C70.1673 45.4628 70.2645 46.1163 70.2982 46.7546V46.7584C70.3823 48.3184 70.1691 49.8652 69.3163 51.191C67.2273 54.4413 64.7324 57.3082 61.2781 59.1591C58.6298 60.5755 55.7459 61.246 52.7984 61.4726C48.8766 61.771 45.0108 61.297 41.276 59.992C37.5935 58.7058 34.7432 56.3299 32.5121 53.1325C31.5078 51.6953 30.6418 50.2372 30.3819 48.4412C30.0134 45.884 31.0851 43.4647 33.1349 42.9094C35.987 42.1332 39.6002 43.3117 40.8982 46.2693C41.0384 46.5847 41.0833 47.0134 41.6276 47.1833C41.8557 45.8103 41.3751 44.6847 40.612 43.68C39.46 42.1672 37.8123 41.5704 36.0038 41.391C35.4633 41.3381 35.0967 41.1794 34.9116 40.6619C33.5351 36.7355 32.5121 32.7656 34.1859 28.6786C35.295 25.9666 36.8996 23.6285 39.7218 22.4217L39.7237 22.4198ZM50.8777 56.8153C50.5916 56.651 50.2119 56.4602 49.9407 56.7832C49.634 57.1458 49.9912 57.4216 50.21 57.652C51.4313 58.9362 54.3414 59.9712 56.3855 59.059C56.8774 58.9155 57.1636 58.6019 57.4235 58.2979C57.6741 58.0051 58.0949 57.6803 57.7863 57.2365C57.4796 56.7945 57.0252 57.0514 56.6773 57.2214C55.6749 57.7124 54.635 57.9523 53.526 57.8087C52.5684 57.686 51.71 57.2931 50.8796 56.8153H50.8777ZM53.8757 42.8716C53.8757 42.8716 53.8551 42.8811 53.8158 42.8962C53.0565 43.102 52.3346 43.1965 51.6857 43.4703C50.1184 44.1351 48.813 45.1266 48.6989 47.0115C48.5886 48.8076 49.649 49.9143 51.1246 50.7037C51.9755 51.1608 52.877 51.4686 53.8308 51.5291C54.7379 51.5838 54.7697 52.0182 54.4368 52.6698C54.0608 53.4045 53.4119 53.8388 52.6713 54.1259C48.568 55.7237 44.8144 55.0343 41.4293 52.277C39.8471 50.987 38.4706 49.4969 37.5823 47.5667C38.4744 47.2268 39.013 48.0842 39.7312 48.0408C39.9294 47.8406 39.9088 47.6272 39.8284 47.4383C39.2673 46.0879 38.0479 45.8122 36.8192 45.7291C35.6073 45.646 34.4291 45.884 33.7445 47.0908C33.5613 47.4156 33.4434 47.7915 33.4939 48.1786C33.5538 48.613 33.5407 49.1928 34.027 49.3024C34.5862 49.4289 34.5618 48.8057 34.7002 48.4563C34.876 48.0106 35.1416 47.6801 35.6223 47.5932C36.1777 47.4931 36.0973 48.0691 36.3292 48.3165C36.4208 48.411 36.4713 48.5488 36.5331 48.6697C39.7442 55.0664 47.2008 57.9749 53.6232 55.397C54.0459 55.2289 54.3956 55.3516 54.7902 55.5065C56.0246 55.9881 57.2776 56.3828 58.6466 56.1448C62.4395 55.4801 64.9194 53.1646 66.6082 49.8047C66.9449 49.1286 67.0571 48.3316 67.5171 47.7726C68.1119 47.8387 68.0034 48.5583 68.5346 48.6432C68.9909 47.7499 68.8001 46.9643 68.168 46.2881C67.4984 45.5667 66.2828 45.3212 65.4468 45.748C64.7099 46.1257 64.2817 46.7263 64.3789 47.6272C64.9699 47.7499 65.3963 47.0493 66.0397 47.4647C65.6544 49.0531 64.9231 50.4714 63.8702 51.6839C61.8915 53.9597 59.3929 54.9116 56.3968 54.3752C56.0152 54.3053 55.4579 54.2298 55.7384 53.6235C56.264 52.4979 56.4304 51.055 58.0033 50.751C58.1941 50.7113 58.3736 50.5848 58.5494 50.4809C61.1696 48.9228 61.192 45.6706 58.6392 44.0445C57.1617 43.1058 55.5477 42.9037 53.8757 42.8697V42.8716ZM46.5407 51.0852C45.9272 51.3005 45.7103 51.6556 46.1049 52.1523C46.3499 52.4601 46.7295 52.445 46.9727 52.1542C47.3897 51.6518 47.1485 51.3081 46.5407 51.0852ZM61.5492 50.4998C60.8535 50.3902 60.6908 50.7396 60.7974 51.2647C60.8703 51.6216 61.1584 51.7897 61.4782 51.6159C61.97 51.3515 61.9682 50.9493 61.5492 50.4998ZM44.6798 49.055C44.5208 48.7943 44.2552 48.7377 43.9784 48.8208C43.6455 48.9171 43.4791 49.1909 43.5333 49.5101C43.6025 49.9332 43.9092 50.1164 44.4067 50.0389C44.8462 49.7575 44.9061 49.427 44.6798 49.0569V49.055ZM47.1597 48.8038C46.9203 48.5828 46.6585 48.6546 46.4041 48.7906C46.1629 48.919 46.075 49.1343 46.1292 49.393C46.2321 49.8746 46.5687 49.9483 47.0587 49.8161C47.444 49.461 47.5113 49.1305 47.1597 48.8019V48.8038ZM62.071 48.3618C61.538 47.9369 61.2182 48.3278 60.9564 48.8661C61.1079 49.5724 61.495 49.563 61.9214 49.2287C62.2001 49.0096 62.4226 48.6451 62.071 48.3618ZM63.1071 48.4525C62.8154 48.3297 62.5816 48.562 62.4975 48.8264C62.3422 49.3232 62.6228 49.4138 63.0997 49.2854C63.4008 48.9643 63.5635 48.6489 63.1053 48.4525H63.1071ZM47.0793 30.6957C46.2713 29.3774 45.1436 28.214 43.3781 28.4577C41.8295 28.6711 41.1862 29.9875 40.8683 31.2623C40.079 34.4352 40.4362 37.5571 41.8165 40.6166C42.4692 41.9084 43.1481 43.085 44.317 43.8801C45.6934 44.8169 47.3037 44.4883 48.1827 43.068C48.4707 42.6053 48.7082 42.12 48.8466 41.5817C49.8491 37.6874 49.1328 34.0555 47.0774 30.6976L47.0793 30.6957ZM60.7432 29.2849C59.2863 27.9496 57.777 28.2953 57.0439 30.1272C56.6586 31.0885 56.4042 32.0744 56.4529 33.2227C56.4155 36.6222 57.1 39.7082 59.146 42.3655C59.722 43.1153 60.4664 43.6932 61.4875 43.544C62.5292 43.3872 62.9706 42.5543 63.3391 41.6856C63.4195 41.4986 63.4457 41.289 63.5092 41.0963C64.3228 38.6336 63.8272 36.1991 63.1988 33.8251C62.7537 32.148 62.0785 30.5106 60.745 29.2868L60.7432 29.2849ZM62.1627 26.2631C60.0549 24.6993 58.3063 24.6559 57.7228 26.1555C58.3474 26.4482 59.0506 26.2008 59.6902 26.4595C61.0031 26.9902 61.9626 27.9138 62.7555 29.0545C62.9295 29.3038 63.0941 29.6343 63.4644 29.4152C63.7561 29.2471 63.6439 28.9544 63.5766 28.6786C63.3521 27.7532 62.8565 26.9902 62.1646 26.2612L62.1627 26.2631ZM44.4161 25.2432C43.3295 24.0213 41.7491 23.9307 39.9107 25.0261C38.0423 26.5332 37.47 28.1291 38.4874 29.3963C39.5984 26.4142 41.5378 24.9675 44.6648 26.0724C44.8238 25.621 44.5919 25.4416 44.4161 25.2432Z" fill="white"/>
        <path d="M34.8966 74.2284C34.459 73.5976 34.2065 72.9083 34.1859 72.1283C34.1261 70.0017 33.8212 67.9185 33.2452 65.8637C31.7976 60.6908 28.4443 58.2885 23.1983 58.8702C21.4403 59.0647 19.8955 59.8636 18.8089 61.3669C18.6032 61.6502 18.2609 61.9259 18.5882 62.3924C19.4541 62.1564 20.2059 61.4595 21.3 61.6275C19.9404 62.2716 18.7472 62.9703 18.1431 64.4397C17.6344 65.9506 17.4829 67.3652 18.3937 68.7571C19.0109 67.469 19.1773 65.8996 20.9858 65.3953C20.6791 65.9921 20.4322 66.436 20.2172 66.8949C19.3456 68.7439 19.8076 70.3171 21.4403 71.048C21.8368 71.2255 22.2744 71.4729 22.6859 71.1405C23.088 70.8157 23.0038 70.3379 22.914 69.8978C22.7644 69.1707 22.7139 68.4549 22.957 67.724C22.9383 69.0819 23.4489 70.0772 24.7338 70.5475C25.48 70.8213 25.8073 70.5286 25.6034 69.7675C25.4631 69.2443 25.2107 68.7514 24.9993 68.2472C24.5636 67.2009 24.8572 65.9695 25.7624 65.0629C26.5554 64.2716 27.6139 64.0884 28.665 64.5266C30.5296 65.3066 31.2571 66.8666 31.3843 68.7458C31.4853 70.2453 31.3506 71.7619 31.4367 73.2633C31.5358 75.016 32.1081 76.5571 33.8474 77.3484C34.1747 77.4976 34.6535 77.7394 34.848 77.3106C35.1678 76.6043 35.366 75.8319 35.5381 75.0689C35.6391 74.6156 35.0986 74.5193 34.8947 74.2246H34.8966V74.2284Z" fill="black"/>
        <path d="M54.8613 79.6449C54.7192 79.9169 54.5041 79.9943 54.2498 79.9943C53.9674 79.9943 53.6363 79.8961 53.3203 79.864C53.612 79.1029 54.3526 78.7403 54.6294 77.9754C54.809 77.575 54.953 77.2369 55.097 76.9008C55.443 77.8696 55.2952 78.8101 54.8613 79.643V79.6449Z" fill="black"/>
        <path d="M68.168 46.2881C67.4984 45.5666 66.2828 45.323 65.4468 45.7479C64.7099 46.1238 64.2816 46.7263 64.377 47.6271C64.968 47.7499 65.3944 47.0492 66.0378 47.4647C65.6525 49.0549 64.9231 50.4714 63.8683 51.6839C61.8877 53.9597 59.391 54.9115 56.3949 54.3752C56.0152 54.3053 55.456 54.2297 55.7366 53.6254C56.2621 52.4979 56.4285 51.0569 58.0014 50.7528C58.1922 50.7131 58.3717 50.5866 58.5475 50.4827C61.1677 48.9246 61.1901 45.6724 58.6373 44.0463C57.1617 43.1077 55.5458 42.9056 53.8738 42.8716C53.8682 42.8735 53.8532 42.881 53.814 42.8961C53.0547 43.102 52.3309 43.1964 51.6838 43.4703C50.1165 44.1351 48.8111 45.1266 48.697 47.0114C48.5867 48.8075 49.6452 49.9142 51.1227 50.7037C51.9737 51.1607 52.8751 51.4686 53.8289 51.529C54.736 51.5857 54.7678 52.0182 54.433 52.6697C54.0571 53.4044 53.41 53.8369 52.6675 54.1259C48.5642 55.7236 44.8107 55.0343 41.4256 52.2769C39.8434 50.987 38.4669 49.4969 37.5785 47.5667C38.4706 47.2286 39.0111 48.0842 39.7274 48.0407C39.9256 47.8405 39.9051 47.6271 39.8247 47.4383C39.2617 46.0879 38.0442 45.8122 36.8155 45.7291C35.6035 45.646 34.4253 45.8839 33.7408 47.0908C33.5575 47.4156 33.4397 47.7914 33.4902 48.1786C33.55 48.613 33.5369 49.1928 34.0232 49.3023C34.5824 49.4308 34.5581 48.8075 34.6965 48.4562C34.8742 48.0105 35.1379 47.6781 35.6185 47.5931C36.174 47.493 36.0917 48.071 36.3255 48.3165C36.4171 48.4109 36.4676 48.5488 36.5293 48.6696C39.7405 55.0645 47.1971 57.973 53.6195 55.395C54.0421 55.2269 54.3919 55.3497 54.7865 55.5046C56.0227 55.9862 57.2758 56.3809 58.6429 56.1429C62.4357 55.4781 64.9156 53.1627 66.6045 49.8028C66.9411 49.1267 67.0533 48.3297 67.5153 47.7707C68.11 47.8368 68.0015 48.5563 68.5327 48.6413C68.989 47.7499 68.7982 46.9642 68.1661 46.2862L68.168 46.2881ZM53.7448 46.951C53.3109 46.7678 52.8658 46.4883 52.9181 45.9009C52.9668 45.3513 53.4399 45.2664 53.8514 45.0964C55.082 44.5883 56.2509 44.9774 57.431 45.2871C57.8873 45.6516 58.3811 45.8632 58.2352 46.4052C58.108 46.8773 57.6816 47.07 57.2327 47.1757C56.0451 47.4572 54.8706 47.4307 53.7429 46.9491L53.7448 46.951Z" fill="black"/>
        <path d="M58.2371 46.4053C58.1099 46.8774 57.6835 47.0701 57.2346 47.1777C56.047 47.4591 54.8725 47.4327 53.7448 46.9511C53.3109 46.7679 52.8676 46.4884 52.9181 45.901C52.9668 45.3514 53.4399 45.2664 53.8514 45.0965C55.082 44.5884 56.2509 44.9775 57.431 45.2872C57.8873 45.6517 58.3811 45.8632 58.2352 46.4053H58.2371Z" fill="white"/>
        <path d="M47.0793 30.6957C46.2713 29.3774 45.1436 28.214 43.3762 28.4577C41.8295 28.6711 41.1862 29.9875 40.8682 31.2623C40.079 34.4352 40.4362 37.5552 41.8164 40.6166C42.4692 41.9103 43.148 43.0869 44.3169 43.8801C45.6934 44.8169 47.3037 44.4883 48.1827 43.068C48.4707 42.6053 48.7082 42.12 48.8466 41.5817C49.8472 37.6874 49.1347 34.0555 47.0774 30.6976L47.0793 30.6957ZM45.6766 33.4455C44.7452 34.2029 44.1486 34.1065 43.4622 33.2321C42.789 32.3747 42.731 31.1187 43.3519 30.6183C43.7428 30.3029 44.1655 30.3406 44.5844 30.5673C45.5681 31.0961 46.0245 32.2972 45.6785 33.4455H45.6766Z" fill="black"/>
        <path d="M45.6766 33.4455C44.7434 34.2028 44.1468 34.1065 43.4604 33.232C42.7871 32.3746 42.7291 31.1187 43.35 30.6182C43.7409 30.3028 44.1636 30.3406 44.5825 30.5672C45.5663 31.096 46.0226 32.2972 45.6766 33.4455Z" fill="white"/>
        <path d="M63.195 33.8232C62.7518 32.1461 62.0748 30.5087 60.7413 29.2849C59.2863 27.9477 57.7751 28.2933 57.0401 30.1272C56.6548 31.0866 56.4005 32.0744 56.4491 33.2226C56.4117 36.6222 57.0962 39.7082 59.1423 42.3654C59.7183 43.1152 60.4626 43.695 61.4838 43.5439C62.5255 43.3872 62.9669 42.5543 63.3353 41.6855C63.4139 41.4986 63.4419 41.2889 63.5036 41.0963C64.3172 38.6335 63.8216 36.1991 63.1932 33.8251L63.195 33.8232ZM60.7076 33.3775C60.4346 34.1688 59.5369 34.2009 58.6317 33.4474C58.0949 32.7713 57.878 32.1423 57.9752 31.4285C58.1043 30.5125 58.7888 30.1536 59.5874 30.571C60.5075 31.0507 61.0461 32.3954 60.7076 33.3775Z" fill="black"/>
        <path d="M60.7077 33.3775C60.4346 34.1689 59.5369 34.201 58.6317 33.4474C58.0949 32.7713 57.878 32.1424 57.9753 31.4285C58.1043 30.5125 58.7888 30.1537 59.5874 30.571C60.5075 31.0507 61.0462 32.3954 60.7077 33.3775Z" fill="white"/>
        <path d="M57.4254 58.2959C57.1635 58.6 56.8793 58.9135 56.3874 59.057C54.3432 59.9692 51.4332 58.9362 50.2119 57.65C49.9931 57.4196 49.6359 57.1439 49.9426 56.7813C50.2138 56.4583 50.5916 56.6491 50.8796 56.8134C51.71 57.2893 52.5703 57.684 53.526 57.8068C54.635 57.9484 55.6748 57.7105 56.6773 57.2194C57.0251 57.0476 57.4796 56.7926 57.7863 57.2345C58.0949 57.6783 57.6741 58.0032 57.4235 58.2959H57.4254Z" fill="black"/>
        <path d="M44.6648 26.0724C41.5359 24.9675 39.5984 26.4161 38.4875 29.3963C37.4701 28.1291 38.0442 26.5351 39.9107 25.0261C41.7491 23.9307 43.3295 24.0213 44.4161 25.2433C44.5919 25.4416 44.8238 25.621 44.6648 26.0724Z" fill="black"/>
        <path d="M63.4625 29.417C63.0922 29.6361 62.9276 29.3056 62.7537 29.0563C61.9607 27.9156 61.0031 26.9921 59.6884 26.4614C59.0487 26.2007 58.3455 26.4481 57.7209 26.1554C58.3044 24.6558 60.0549 24.6974 62.1608 26.263C62.8528 26.9939 63.3484 27.7551 63.5728 28.6805C63.6402 28.9562 63.7524 29.2471 63.4606 29.417H63.4625Z" fill="black"/>
        <path d="M44.4067 50.037C43.9074 50.1144 43.6025 49.9312 43.5333 49.5082C43.4809 49.1909 43.6455 48.9152 43.9784 48.8188C44.2552 48.7357 44.5208 48.7924 44.6798 49.053C44.9061 49.4232 44.8462 49.7537 44.4067 50.0351V50.037Z" fill="black"/>
        <path d="M47.0587 49.8161C46.5687 49.9483 46.2321 49.8747 46.1292 49.3931C46.075 49.1343 46.1629 48.919 46.4041 48.7906C46.6585 48.6546 46.9203 48.5829 47.1597 48.8038C47.5113 49.1324 47.4459 49.463 47.0587 49.818V49.8161Z" fill="black"/>
        <path d="M46.9727 52.1561C46.7296 52.447 46.3499 52.4621 46.1049 52.1542C45.7103 51.6575 45.9272 51.3025 46.5407 51.0872C47.1466 51.31 47.3879 51.6556 46.9727 52.1561Z" fill="black"/>
        <path d="M61.9233 49.2269C61.4987 49.5612 61.1097 49.5706 60.9583 48.8662C61.2201 48.3298 61.538 47.9369 62.0729 48.3619C62.4245 48.6433 62.2038 49.0097 61.9233 49.2288V49.2269Z" fill="black"/>
        <path d="M61.4763 51.616C61.1565 51.7897 60.8703 51.6217 60.7955 51.2647C60.6889 50.7378 60.8497 50.3903 61.5473 50.4998C61.9663 50.9493 61.9681 51.3516 61.4763 51.616Z" fill="black"/>
        <path d="M63.1015 49.2835C62.6228 49.4138 62.3441 49.3231 62.4993 48.8246C62.5835 48.5601 62.8173 48.3278 63.109 48.4506C63.5672 48.647 63.4045 48.9624 63.1034 49.2835H63.1015Z" fill="black"/>
    </g>
    <defs>
        <radialGradient id="paint0_radial_440_36" cx="0" cy="0" r="1" gradientUnits="userSpaceOnUse" gradientTransform="translate(196 143.5) rotate(54.1675) scale(497.082)">
            <stop stop-color="#EEE9D6"/>
            <stop offset="1" stop-color="#A7A396" />
        </radialGradient>
    </defs>
</svg>