<svg xmlns="http://www.w3.org/2000/svg" viewBox="0 0 3983 1250">
    <g fill="#000">
        <path d="M428 1235 c-240 -53 -399 -248 -424 -519 c-10 -104 1 -246 25 -321 c92 -283 340 -432 644 -385 c175 27 294 114 365 265 c56 117 58 110 -37 124 c-46 7 -90 14 -98 16 c-10 3 -22 -11 -37 -43 c-49 -106 -125 -164 -239 -182 c-257 -41 -424 130 -424 435 c0 238 94 386 273 431 c123 32 263 -1 333 -78 c42 -47 84 -133 91 -189 l6 -39 l-213 0 l0 -150 l420 0 l0 78 c0 104 -22 200 -66 288 c-106 215 -362 326 -619 269z" />
        <path d="M1441 1237 c-56 -16 -121 -59 -150 -99 c-72 -101 -60 -257 26 -343 c70 -70 157 -99 388 -133 c71 -10 131 -22 134 -25 c12 -11 -18 -95 -40 -117 c-29 -27 -77 -40 -146 -40 c-72 0 -151 37 -180 86 c-12 19 -25 34 -28 34 c-30 -1 -158 -49 -160 -61 c-5 -26 63 -123 111 -160 c69 -51 150 -74 267 -73 c171 0 289 61 341 176 c24 52 24 59 27 401 l3 347 l-171 0 l0 -129 l-46 45 c-66 67 -137 96 -243 100 c-52 3 -104 -1 -133 -9z m 269 -169 c74 -37 117 -108 129 -212 c8 -68 17 -66 -161 -31 c-137 27 -191 50 -224 91 c-43 55 -17 138 53 170 c43 20 145 11 203 -18z" />
        <path d="M2263 330 l170 0 l0 90 l61 -45 c72 -53 116 -67 216 -66 c63 0 82 5 134 32 c34 18 71 48 87 70 l28 38 l43 -44 c75 -78 173 -109 294 -93 c118 16 195 84 232 204 c12 39 15 115 15 382 l0 332 l-189 0 l-3 -312 l-3 -313 c-31 -123 -103 -125 -178 -125 c-68 0 -113 28 -144 90 c-22 43 -23 53 -23 352 l0 308 l-200 0 l0 -308 c0 -299 -1 -309 -22 -352 c-33 -64 -76 -90 -152 -90 c-74 0 -123 28 -152 87 c-17 34 -19 68 -22 351 l-3 312 l-189 0z" />
        <path d="M3793 330 l190 0 l0 900 l-190 0z" />
        <path d="M3793 0 l190 0 l0 180 l-190 0z" />
    </g>
</svg>