<svg xmlns="http://www.w3.org/2000/svg" viewBox="0 0 600 600" fill="none">
    <path d="M300 600C465.685 600 600 465.685 600 300C600 134.315 465.685 0 300 0C134.315 0 0 134.315 0 300C0 465.685 134.315 600 300 600Z" fill="url(#paint0_radial_440_36)"/>
    <g transform="matrix(10,0,0,10,105,200)">
        <path xmlns="http://www.w3.org/2000/svg" d="M38.9973 5.04975C38.9973 6.38492 38.9627 7.72009 38.9973 9.05527C39.0318 9.82556 38.7381 10.0652 37.9952 10.0139C37.2522 9.9625 36.5093 10.0139 35.749 10.0139C34.7642 10.0139 33.9867 10.3904 33.3474 11.1265C31.2049 13.5401 29.0625 15.9366 26.9027 18.333C26.3153 18.9835 25.5378 19.3258 24.622 19.3601C21.7885 19.4285 21.4775 19.2231 21.5639 16.3987C21.6157 14.5843 21.5638 12.7527 21.5811 10.9382C21.5811 10.2193 21.322 9.9625 20.6136 10.0139C19.6633 10.0652 18.9203 10.4247 18.2983 11.1265C16.225 13.4716 14.1171 15.8167 12.0264 18.1447C11.0243 19.2574 8.88184 19.8222 7.51688 19.3087C6.84304 19.052 6.51476 18.5384 6.53204 17.7853C6.5666 15.56 6.53204 13.3518 6.53204 11.1265C6.53204 10.0823 6.49749 10.031 5.3917 10.031C3.88852 10.031 2.40261 9.99674 0.916712 10.031C0.191039 10.0481 -0.0162972 9.79133 0.000980691 9.08951C0.0528145 7.37774 0.000981744 5.6831 0.0182597 3.97134C0.0355376 1.7974 1.76333 0.0856359 3.94035 0.0685183C4.89064 0.0685183 5.84092 0.11987 6.79121 0.0513997C7.51688 4.67934e-05 7.63783 0.291047 7.63783 0.924399C7.60328 3.20104 7.63783 5.47768 7.63783 7.75433C7.63783 8.18227 7.63783 8.61021 8.0525 8.90121C8.58812 9.29492 9.00279 9.10662 9.40018 8.66156C11.1453 6.71016 12.994 4.82722 14.6181 2.77311C16.6396 0.256815 19.3004 -0.171129 22.255 0.0513997C22.8079 0.102753 22.6524 0.530693 22.6696 0.821693C22.6696 3.01275 22.6696 5.20381 22.6696 7.39486C22.6696 7.65163 22.6696 7.90839 22.6869 8.16516C22.7388 8.5931 22.9288 8.93545 23.3608 9.07239C23.7754 9.19221 24.121 9.05527 24.432 8.71292C26.2462 6.6588 28.1122 4.65604 29.9091 2.58481C31.4123 0.855931 33.2265 -0.0513061 35.5417 0.0513997C36.4229 0.0856349 37.3213 0.0856349 38.2198 0.0513997C38.79 0.034282 38.98 0.239697 38.98 0.78746C38.9627 2.20822 38.98 3.62898 38.98 5.04975H38.9973Z" fill="black"/>    
    </g>
    <defs>
        <radialGradient id="paint0_radial_440_36" cx="0" cy="0" r="1" gradientUnits="userSpaceOnUse" gradientTransform="translate(196 143.5) rotate(54.1675) scale(497.082)">
            <stop stop-color="#CAEAE5"/>
            <stop offset="1" stop-color="#829692" />
        </radialGradient>
    </defs>
</svg>