<svg xmlns="http://www.w3.org/2000/svg" viewBox="0 0 198.75 198.75">
  <path fill="#8429ff" d="m199 100 c0-21-21-38-52-47 c-9-32-27-53-47-53 s-38 21-47 53 c-32 9-53 26-53 47 s21 38 53 47 c9 31 26 52 47 52 s38-21 47-52 c31-9 52-27 52-47 m-126-63 c8-14 17-23 27-23 s18 9 26 23 c2 4 3 8 5 12 c-21-3-42-3-63 0 c2-4 4-8 5-12 l0 0z m66 63 c0 9-1 18-3 27 l-63-64 c9-2 18-2 27-2 c11 0 23 1 35 3 c2 12 4 24 4 36 m-78 0 c0-9 0-18 2-27 l64 63 c-9 2-18 3-27 3 c-12 0-24-2-36-4 c-2-12-3-24-3-35 v 0z m-24 26 c-14-8-23-17-23-26 s9-19 23-27 c4-1 8-3 12-4 c-3 20-3 41 0 62 c-4-2-8-3-11-5 l-1 0z m89 36 c-7 15-17 23-26 23 s-19-8-26-23 c-2-4-4-8-5-12 c10 2 20 3 31 3 c10 0 21-1 31-3 c-2 4-3 8-5 12 l0 0z m36-36 c-4 2-8 3-12 5 c2-11 3-21 3-31 c0-11-1-21-3-31 c4 1 8 3 12 4 c15 8 23 17 23 27 s-8 19-23 26 h 0z"/>
</svg>
