<svg viewBox="0 0 400 400" xmlns="http://www.w3.org/2000/svg" xmlns:xlink="http://www.w3.org/1999/xlink">
    <path fill="url(#linear-gradient)" d="m371 195 l -7 -1 c -21 -3 -41 -5 -62 -6 c -12 -1 -25 -1 -37 -2 c -1 2 -2 3 -3 5 c -5 7 -10 14 -15 22 c 19 -1 37 -2 55 -3 c 23 -1 89 -9 98 -11 c -10 -2 -20 -3 -29 -4 z"/>
    <path fill="url(#linear-gradient-2)" d="m 318 85 l -22 35 l -14 -19 l -118 167 l -128 -125 l 131 172 l 117 -175 l 15 16 l 20 -33 l 45 62 l -46 -100 l 0 0 z"/>
    <path fill="url(#linear-gradient-3)" d="m205 185 c -32 0 -65 1 -98 3 c -3 0 -6 1 -9 1 c 7 7 15 15 23 22 c 23 1 46 2 70 2 c 1 -1 2 -3 3 -4 l 16 -24 c -1 0 -3 0 -5 0 z"/>
    <path fill="url(#linear-gradient-4)" d="m61 192 c -17 2 -44 4 -61 7 c 21 4 51 7 72 8 c -4 -5 -8 -10 -11 -15 z"/>
    <defs>
        <linearGradient id="linear-gradient" x1="228.37" y1="969.61" x2="361.26" y2="1006.57" gradientTransform="translate(0 -877.99)" gradientUnits="userSpaceOnUse">
            <stop offset="0" stop-color="#000987"/>
            <stop offset=".11" stop-color="#2248be"/>
            <stop offset=".3" stop-color="#2774d0"/>
            <stop offset="1" stop-color="#2c90e1"/>
        </linearGradient>
        <linearGradient id="linear-gradient-2" x1="32.47" y1="982.33" x2="329.77" y2="982.33" gradientTransform="translate(0 -877.99)" gradientUnits="userSpaceOnUse">
            <stop offset="0" stop-color="#d9403e"/>
            <stop offset=".2" stop-color="#e4af0f"/>
            <stop offset=".28" stop-color="#e3ad0c"/>
            <stop offset=".75" stop-color="#d96c3f"/>
            <stop offset=".89" stop-color="#d33e3c"/>
            <stop offset="1" stop-color="#cf3e3a"/>
        </linearGradient>
        <linearGradient id="linear-gradient-3" x1="88.52" y1="974.91" x2="190.11" y2="984.42" gradientTransform="translate(0 -877.99)" gradientUnits="userSpaceOnUse">
            <stop offset="0" stop-color="#2143bc"/>
            <stop offset=".47" stop-color="#2c7ff7"/>
            <stop offset="1" stop-color="#2143bc"/>
        </linearGradient>
        <linearGradient id="linear-gradient-4" x1="-15.82" y1="975.29" x2="69.28" y2="983.12" gradientTransform="translate(0 -877.99)" gradientUnits="userSpaceOnUse">
            <stop offset=".56" stop-color="#2c90e2"/>
            <stop offset=".88" stop-color="#2143bc"/>
            <stop offset="1" stop-color="#000987"/>
        </linearGradient>
    </defs>
</svg>