<svg xmlns="http://www.w3.org/2000/svg" xmlns:xlink="http://www.w3.org/1999/xlink" viewBox="0 0 32.704 35.983">
  <defs>
    <linearGradient id="linear-gradient" x1="0.5" y1="0.166" x2="0.5" y2="1.073" gradientUnits="objectBoundingBox">
      <stop offset="0" stop-color="#6c00ff"/>
      <stop offset="1" stop-color="#ff008b"/>
    </linearGradient>
    <linearGradient id="linear-gradient-2" x1="0.5" y1="0.544" x2="0.5" y2="1.376" xlink:href="#linear-gradient"/>
  </defs>
  <path fill="url(#linear-gradient)" d="M32.7,24.11V11.872A5.753,5.753,0,0,0,29.827,6.89L19.229.77a5.753,5.753,0,0,0-5.753,0L2.876,6.89A5.753,5.753,0,0,0,0,11.872V24.11a5.753,5.753,0,0,0,2.876,4.982l10.6,6.119a5.753,5.753,0,0,0,5.753,0l10.6-6.119A5.753,5.753,0,0,0,32.7,24.11" />
  <path transform="translate(2.613 2.874)" fill="url(#linear-gradient-2)" d="M27.48,20.259V9.976a4.834,4.834,0,0,0-2.417-4.187L16.157.647a4.834,4.834,0,0,0-4.834,0L2.417,5.789A4.834,4.834,0,0,0,0,9.976V20.259a4.834,4.834,0,0,0,2.417,4.187l8.906,5.142a4.834,4.834,0,0,0,4.834,0l8.906-5.142a4.834,4.834,0,0,0,2.417-4.187"/>
  <path transform="translate(7.22 8.734)" fill="#fff" d="M18.2,9.1c0-1.886-1.926-3.488-4.809-4.294C12.591,1.925,10.989,0,9.1,0S5.615,1.925,4.809,4.808C1.926,5.614,0,7.215,0,9.1s1.926,3.489,4.809,4.294C5.614,16.278,7.216,18.2,9.1,18.2s3.488-1.926,4.294-4.809C16.279,12.59,18.2,10.988,18.2,9.1" />
</svg>
