<svg viewBox="0 0 1000 1000" fill="none" xmlns="http://www.w3.org/2000/svg">
    <path d="M0 456.8C0.7 409.9 3 362.9 6.8 316.4L8.4 296.8L21.3 281.6C100.3 188.8 188.4 100.7 281.2 21.7L296.3 8.8L316 7.2C437.5 -2.4 562.1 -2.4 683.6 7.2L703.3 8.8L718.4 21.7C811.2 100.7 899.3 188.8 978.3 281.6L991.2 296.8L992.8 316.4C1002.4 437.9 1002.4 562.5 992.8 684L991.2 703.6L978.3 718.8C899.3 811.6 811.2 899.7 718.4 978.7L703.3 991.6L683.6 993.2C637.3 997 589.7 999.1 543 1000C541.1 954.4 525.6 912.6 500.6 877.8C551.8 877.8 603.4 875.9 653.9 872.4C731.3 805.3 804.9 731.7 872 654.3C879.2 552.2 879.2 448.2 872 346.1C804.9 268.7 731.3 195.1 653.9 128C551.8 120.8 447.8 120.8 345.7 128C268.3 195.1 194.7 268.7 127.6 346.1C124.1 396.5 122.2 448.4 122.2 499.4C87.4 474.6 45.3 458.7 0 456.8Z" fill="url(#paint0_linear_5030_20011)"/>
    <path d="M33 588.4L1 573.1L0.4 535.2C0.1 509.4 0.1 483.5 0.6 457.6C46 459.5 88 474.7 122.7 499.5C179.4 540.2 216.4 606.5 216.4 681.5C216.4 738 262.4 783.8 318.9 783.8C394.1 783.8 460.7 820.6 501.6 877.2L501.7 877.2C526.6 911.8 541.9 953.6 543.8 999C517.9 999.5 491.9 999.5 466 999.1L428 998.6L411.6 964.3C395.1 929.8 359.8 905.9 318.9 905.9C194.7 905.9 93.9 805.4 93.9 681.5C93.9 641.2 70.4 606.5 36.4 590C35.3 589.4 34.2 588.9 33 588.4Z" fill="url(#paint1_linear_5030_20011)"/>
    <path d="M5.7 863.3C47.5 856.2 94 856.3 135.8 863.5C142.9 905.5 142.9 952.1 135.7 994.1C93.8 1001.2 47.3 1001.1 5.5 993.9C-1.6 951.9 -1.6 905.3 5.7 863.3Z" fill="url(#paint2_linear_5030_20011)"/>
    <defs>
        <linearGradient id="paint0_linear_5030_20011" x1="117.625" y1="359.407" x2="865.658" y2="661.209" gradientUnits="userSpaceOnUse">
            <stop stop-color="#91F1BD"/>
            <stop offset="0.25" stop-color="#2BD5C1"/>
            <stop offset="0.5" stop-color="#13CFC2"/>
            <stop offset="1" stop-color="#079AC6"/>
        </linearGradient>
        <linearGradient id="paint1_linear_5030_20011" x1="271.981" y1="457.632" x2="271.981" y2="999.384" gradientUnits="userSpaceOnUse">
            <stop stop-color="#00D1FF"/>
            <stop offset="1" stop-color="#0039CB"/>
        </linearGradient>
        <linearGradient id="paint2_linear_5030_20011" x1="70.6497" y1="858.056" x2="70.6497" y2="999.382" gradientUnits="userSpaceOnUse">
            <stop stop-color="#00D1FF"/>
            <stop offset="1" stop-color="#0039CB"/>
        </linearGradient>
    </defs>
</svg>