<svg viewBox="0 0 65.1 42.22" fill="none" xmlns="http://www.w3.org/2000/svg">
    <path d="M41.9 26.7L51.5 1.2C51.8 0.5 51.1 -0.2 50.4 0.1L37.8 4.2C37.4 4.3 37.2 4.7 37.2 5 V 31.6C37.2 32 37.4 32.3 37.8 32.4L63.9 42.2C64.5 42.4 65.1 42 65.1 41.4 V 28.8C65.1 28.3 64.7 27.9 64.2 27.9 H 42.8C42.2 27.9 41.8 27.3 42 26.7 H 41.9Z" fill="#F0EDE5"/>
    <path d="M23.1 26.7L13.5 1.2C13.2 0.5 13.9 -0.2 14.6 0.1L27.2 4.2C27.6 4.3 27.8 4.7 27.8 5 V 31.6C27.8 32 27.6 32.3 27.2 32.4L1.2 42.2C0.6 42.4 0 42 0 41.4 V 28.8C0 28.3 0.4 27.9 0.9 27.9 H 22.3C22.9 27.9 23.3 27.3 23.1 26.7Z" fill="#F0EDE5"/>
</svg>