<svg viewBox="0 0 20 20" xmlns="http://www.w3.org/2000/svg">
    <g transform="scale(1.24, 1.24) translate(0, 0.5)">
        <g fill="#00378A">
            <path
                d="M1.9 10.19V14.56C1.9 14.83 2.13 14.94 2.2 14.96C2.27 15 2.51 15.06 2.72 14.86L6.02 11.69C6.3 11.42 6.57 11.13 6.78 10.8C6.87 10.65 6.91 10.56 6.91 10.56C7.12 10.15 7.12 9.75 6.92 9.36C6.63 8.77 5.88 8.17 4.75 7.6L2.82 8.68C2.25 9 1.9 9.57 1.9 10.19Z" />
            <path
                d="M14.18 10.19V14.56C14.18 14.83 13.96 14.94 13.89 14.96C13.81 15 13.58 15.06 13.37 14.86L9.99 11.62C9.76 11.39 9.54 11.16 9.36 10.89C9.22 10.68 9.17 10.56 9.17 10.56C8.97 10.15 8.97 9.75 9.16 9.36C9.46 8.77 10.21 8.17 11.33 7.6L13.26 8.68C13.84 9 14.18 9.57 14.18 10.19Z" />
        </g>
        <g fill="#2470FF">
            <path
                d="M0 0.48V5.06C0 5.63 0.38 6.14 0.93 6.3C2.79 6.84 6.03 8 6.81 9.7C6.91 9.92 6.98 10.14 7 10.37C7.52 9.42 7.75 8.33 7.64 7.22C7.49 5.65 6.66 4.23 5.37 3.32L0.75 0.09C0.67 0.03 0.58 0 0.48 0C0.4 0 0.33 0.02 0.25 0.06C0.1 0.14 0 0.3 0 0.48Z" />
            <path
                d="M16.09 0.48V5.06C16.09 5.63 15.7 6.14 15.16 6.3C13.3 6.84 10.06 8 9.27 9.7C9.17 9.92 9.11 10.14 9.09 10.36C8.57 9.42 8.33 8.33 8.44 7.22C8.59 5.65 9.42 4.23 10.72 3.32L15.33 0.09C15.41 0.03 15.51 0 15.61 0C15.69 0 15.76 0.02 15.83 0.06C15.98 0.14 16.09 0.3 16.09 0.48Z" />
        </g>
    </g>
</svg>