<svg xmlns="http://www.w3.org/2000/svg" viewBox="0 0 600.27 632.06" width="600.27" height="632.06"><defs><radialGradient id="paint1_angular" cx="0" cy="0" r="1" gradientUnits="userSpaceOnUse" gradientTransform="translate(326.5 352.5) rotate(175.956) scale(148.871 91.0086)"><stop stop-color="#E8FE42" /><stop offset="0.199738" stop-color="#F35432" /><stop offset="0.404167" stop-color="#EBFB41" /><stop offset="0.555208" stop-color="#84FFC1" /><stop offset="0.701042" stop-color="#5981F2" /><stop offset="0.841667" stop-color="#7AD6CE" /><stop offset="1" stop-color="#E8FF46" /></radialGradient><linearGradient id="paint2_linear" x1="257" y1="171" x2="305.41" y2="348.025" gradientUnits="userSpaceOnUse"><stop stop-color="#ED2626" /><stop offset="0.259729" stop-color="#FFA84C" /><stop offset="0.544792" stop-color="#FFD84C" /><stop offset="0.815625" stop-color="#ECFF5A" /><stop offset="1" stop-color="#62CDDD" /></linearGradient><linearGradient id="paint3_linear" x1="332.5" y1="290" x2="370.45" y2="388.519" gradientUnits="userSpaceOnUse"><stop stop-color="#FFD84C" /><stop offset="0.196022" stop-color="#EAFF44" /><stop offset="0.357292" stop-color="#CDF364" /><stop offset="0.556721" stop-color="#A2E093" /><stop offset="1" stop-color="#5FCEF1" /></linearGradient><radialGradient id="paint4_radial" cx="0" cy="0" r="1" gradientUnits="userSpaceOnUse" gradientTransform="translate(218 174.5) rotate(84.4117) scale(302.94 117.978)"><stop offset="0.1125" stop-color="#ED2626" /><stop offset="0.625386" stop-color="#FFC04C" /><stop offset="0.779167" stop-color="#E9FF3F" /><stop offset="0.904167" stop-color="#71D3D9" /><stop offset="1" stop-color="#4C53FF" /></radialGradient></defs><clipPath id="votium_clip" clipPathUnits="userSpaceOnUse"><path d="m228 122 120 14 125 34c-1 0 107 24 108 83 0 158 1 165 0 182-2 30-18 49-53 65-159 72-204 91-210 93-12 2-32 2-43-1-5-1-21-7-37-14-71-33-177-81-187-86-21-10-40-16-39-40l0-208c3-28 27-40 36-44z" /></clipPath><g clip-path="url(#votium_clip)"><g transform="matrix(2.1,0,0,2.1,-330,-250)"><path d="m268 360c10 43-1 82-25 88-24 6-52-25-62-67-10-43 1-82 25-88 24-6 52 25 62 67z" fill="url(#paint1_angular)" /><path d="m468 269c0 0-4-12-12-23-27-39-102-70-116-76-16-7-32-11-32-11-20-6-39-10-63-12-6-1-27 0-46 12l75 48c-10 11-11 52 3 90 9 29-7 40 116 9 27-11 27-35 27-32l48-5z" fill="url(#paint2_linear)" /><path d="m474 297c-1-12-3-22-6-28l-48 5c-3 15-38 21-70 27-16 3-24 4-36 5-11 1-16 1-18 3-4 5 1 15 0 41 0 9-0 18-0 23-2 18-10 37-6 40 2 1 18-8 20-9 10-4 20-6 29-9 26-7 52-14 60-16 12-2 21-5 28-7 12-4 19-7 25-12 22-18 20-53 20-63z" fill="url(#paint3_linear)" /><path d="m200 159c-30 17-40 49-46 69-7 24-8 45-8 61 0 13 1 31 4 47 2 11 5 35 14 60 10 31 29 69 68 80 3 1 10 1 18-1 30-9 49-55 50-115 1-14 1-29-1-46-1-11-3-28-9-50-4-16-10-29-14-38-2-7-3-15 1-19l-3-5-72-43zm43 289c-24 6-52-24-62-67-10-43 1-82 25-88 24-6 52 24 62 67 10 43-1 82-25 88z" fill="url(#paint4_radial)" /></g></g><rect transform="matrix(1,0.4,-2,1,210,165)" width="230" height="36" rx="8" fill="black" fill-opacity="0.33" /><path fill="rgb(235,235,235)" d="m372 277 l-176-79 l65-164 l176 79z" transform="rotate(-1)" /><g transform="matrix(1,0,0,1,280,128)"><g transform="rotate(-70 30 30) scale(0.1)"><circle cx="300" cy="300" r="300" fill="#3A3A3A" /><path fill="#1682FE" d="m348 193h-24v36h24v-37zm-70-68h-24v37h24v-37zm105 103h-24v36h24v-37z" /><path fill="#60D8A4" d="m208 160h-24v37h24v-37zm-34 35h-25v105h25v-105z" /><path fill="#F4BB3B" d="m174 300h-25v104h25v-105zm34 102h-24v37h24v-37z" /><path fill="#FF5A5A" d="m383 334h-25v37h25v-37zm-35 35h-24v37h24v-37zm-70 68h-24v37h24v-37z" /><path d="m451 265v-70h-35v-35h-70v-35h-70v35h-70v35h-35v209h35v35h70v35h70v-35h70v-35h35v-70h-70v35h-35v35h-70v-35h-35v-140h35v-35h70v35h35v35h70v-0z" fill="#FFFFFF" /></g></g></svg>