<svg width="24" height="24" viewBox="0 0 24 24" fill="none" xmlns="http://www.w3.org/2000/svg">
<mask id="mask0_283_60841" style="mask-type:alpha" maskUnits="userSpaceOnUse" x="0" y="3" width="23" height="23">
<path d="M10.7041 3.43945C10.1619 4.45885 9.85449 5.62225 9.85449 6.85742C9.85464 10.8827 13.1173 14.1454 17.1426 14.1455C18.3776 14.1455 19.5403 13.837 20.5596 13.2949C20.5651 13.4339 20.5713 13.5735 20.5713 13.7139V15.5283C21.6233 16.627 22.2861 18.2231 22.2861 20C22.2861 23.3137 19.9829 26 17.1426 26C15.6198 25.9999 14.2522 25.2271 13.3105 24H0V3.42871H10.2861C10.4262 3.42872 10.5654 3.4339 10.7041 3.43945Z" fill="#FEFFFF"/>
</mask>
<g mask="url(#mask0_283_60841)">
<path d="M10.2857 23.9999C15.9664 23.9999 20.5714 19.3948 20.5714 13.7142C20.5714 8.03354 15.9664 3.42847 10.2857 3.42847C4.60507 3.42847 0 8.03354 0 13.7142C0 19.3948 4.60507 23.9999 10.2857 23.9999Z" fill="#2775CA"/>
<path d="M8.35713 20.8659C8.35713 21.107 8.16427 21.2436 7.93927 21.1712C4.82141 20.1748 2.57141 17.2659 2.57141 13.8186C2.57141 10.3793 4.82141 7.46232 7.93927 6.46589C8.1723 6.39357 8.35713 6.53017 8.35713 6.77125V7.37392C8.35713 7.53464 8.23659 7.71946 8.08391 7.77571C5.61695 8.68375 3.85713 11.0543 3.85713 13.8186C3.85713 16.5909 5.61695 18.9534 8.08391 19.8534C8.23659 19.9096 8.35713 20.0945 8.35713 20.2552V20.8659Z" fill="#FDFDFD"/>
<path d="M10.9286 18.6401C10.9286 18.8169 10.7839 18.9615 10.6071 18.9615H9.96429C9.7875 18.9615 9.64286 18.8169 9.64286 18.6401V17.6276C8.23661 17.4347 7.55357 16.6552 7.36875 15.5785C7.33661 15.3936 7.48125 15.2329 7.66607 15.2329H8.39732C8.55 15.2329 8.67857 15.3454 8.71071 15.4901C8.84732 16.1249 9.21696 16.6151 10.342 16.6151C11.1696 16.6151 11.7643 16.149 11.7643 15.4579C11.7643 14.7669 11.4187 14.5017 10.1973 14.3008C8.39732 14.0597 7.54554 13.5133 7.54554 12.107C7.54554 11.0222 8.37321 10.1704 9.64286 9.99364V8.99721C9.64286 8.82042 9.7875 8.67578 9.96429 8.67578H10.6071C10.7839 8.67578 10.9286 8.82042 10.9286 8.99721V10.0177C11.9652 10.2026 12.6241 10.7892 12.8411 11.7695C12.8812 11.9544 12.7366 12.1231 12.5437 12.1231H11.8687C11.7241 12.1231 11.6036 12.0267 11.5634 11.8901C11.3786 11.2713 10.9366 10.9981 10.1652 10.9981C9.31339 10.9981 8.87143 11.4079 8.87143 11.9865C8.87143 12.5972 9.12054 12.9026 10.4304 13.0874C12.1982 13.3285 13.1143 13.8347 13.1143 15.3374C13.1143 16.4785 12.2625 17.4026 10.9366 17.6115V18.6401H10.9286Z" fill="#FDFDFD"/>
<path d="M12.6321 21.1713C12.3991 21.2436 12.2142 21.107 12.2142 20.8659V20.2633C12.2142 20.0865 12.3187 19.9177 12.4874 19.8615C14.9464 18.9615 16.7142 16.5909 16.7142 13.8266C16.7142 11.0543 14.9544 8.69182 12.4874 7.79182C12.3348 7.73557 12.2142 7.55075 12.2142 7.39004V6.78736C12.2142 6.54629 12.4071 6.40968 12.6321 6.482C15.7499 7.46236 17.9999 10.3793 17.9999 13.8186C17.9999 17.2659 15.7499 20.1749 12.6321 21.1713Z" fill="#FDFDFD"/>
</g>
<g clip-path="url(#clip0_283_60841)">
<path d="M17.1429 13.7143C20.93 13.7143 24.0001 10.6442 24.0001 6.85714C24.0001 3.07005 20.93 0 17.1429 0C13.3558 0 10.2858 3.07005 10.2858 6.85714C10.2858 10.6442 13.3558 13.7143 17.1429 13.7143Z" fill="black"/>
<path d="M19.8294 10.803H13.3494V3.97534H14.832V9.47983H19.8294V10.8023V10.803Z" fill="white"/>
<path d="M19.8295 5.29787C20.5599 5.29787 21.152 4.70576 21.152 3.97536C21.152 3.24495 20.5599 2.65283 19.8295 2.65283C19.099 2.65283 18.507 3.24495 18.507 3.97536C18.507 4.70576 19.099 5.29787 19.8295 5.29787Z" fill="white"/>
</g>
<defs>
<clipPath id="clip0_283_60841">
<rect width="13.7143" height="13.7143" fill="white" transform="translate(10.2858)"/>
</clipPath>
</defs>
</svg>
