<svg width="24" height="24" viewBox="0 0 24 24" fill="none" xmlns="http://www.w3.org/2000/svg">
<mask id="mask0_283_60866" style="mask-type:alpha" maskUnits="userSpaceOnUse" x="0" y="3" width="23" height="23">
<path d="M10.7041 3.43945C10.1619 4.45885 9.85449 5.62225 9.85449 6.85742C9.85464 10.8827 13.1173 14.1454 17.1426 14.1455C18.3776 14.1455 19.5403 13.837 20.5596 13.2949C20.5651 13.4339 20.5713 13.5735 20.5713 13.7139V15.5283C21.6233 16.627 22.2861 18.2231 22.2861 20C22.2861 23.3137 19.9829 26 17.1426 26C15.6198 25.9999 14.2522 25.2271 13.3105 24H0V3.42871H10.2861C10.4262 3.42872 10.5654 3.4339 10.7041 3.43945Z" fill="#FEFFFF"/>
</mask>
<g mask="url(#mask0_283_60866)">
<g clip-path="url(#clip0_283_60866)">
<circle cx="10.2857" cy="13.7142" r="10.2857" fill="white"/>
<path d="M16.7738 7.7456L16.209 8.31044C17.5568 9.78435 18.3042 11.7093 18.3042 13.7065C18.3042 15.7038 17.5568 17.6287 16.209 19.1026L16.7738 19.6675C18.2727 18.0416 19.1049 15.9113 19.1049 13.6999C19.1049 11.4886 18.2727 9.35825 16.7738 7.73242V7.7456Z" fill="#5A5564"/>
<path d="M4.89528 7.79459C6.36919 6.44679 8.29413 5.69936 10.2914 5.69936C12.2886 5.69936 14.2136 6.44679 15.6875 7.79459L16.2523 7.22975C14.6265 5.73085 12.4961 4.89868 10.2848 4.89868C8.07345 4.89868 5.94309 5.73085 4.31726 7.22975L4.89528 7.79459Z" fill="#5A5564"/>
<path d="M4.36624 19.1085C3.02004 17.6349 2.2736 15.7111 2.2736 13.7152C2.2736 11.7193 3.02004 9.7955 4.36624 8.32192L3.8014 7.75708C2.30251 9.38291 1.47034 11.5133 1.47034 13.7246C1.47034 15.9359 2.30251 18.0663 3.8014 19.6921L4.36624 19.1085Z" fill="#5A5564"/>
<path d="M15.6799 19.6299C14.206 20.9777 12.2811 21.7251 10.2838 21.7251C8.28657 21.7251 6.36163 20.9777 4.88771 19.6299L4.32288 20.1947C5.94871 21.6936 8.07906 22.5258 10.2904 22.5258C12.5017 22.5258 14.6321 21.6936 16.2579 20.1947L15.6799 19.6299Z" fill="#5A5564"/>
<path d="M13.8518 11.8294C13.7388 10.6508 12.7221 10.2554 11.4361 10.1349V8.51196H10.442V10.1048C10.1803 10.1048 9.91294 10.1048 9.64747 10.1048V8.51196H8.66088V10.1462H6.64441V11.21C6.64441 11.21 7.3787 11.1968 7.3674 11.21C7.4998 11.1954 7.63268 11.2328 7.73805 11.3143C7.84342 11.3958 7.91304 11.515 7.93224 11.6468V16.1203C7.92941 16.1668 7.91729 16.2123 7.89659 16.254C7.8759 16.2957 7.84704 16.3328 7.81174 16.3632C7.7771 16.3942 7.73656 16.4178 7.69256 16.4327C7.64856 16.4476 7.602 16.4534 7.55568 16.4498C7.56886 16.4611 6.83269 16.4498 6.83269 16.4498L6.64441 17.6379H8.64206V19.2985H9.63617V17.6624H10.4307V19.291H11.4267V17.6492C13.1062 17.5475 14.2773 17.1333 14.4241 15.5612C14.5427 14.2959 13.9478 13.7311 12.997 13.5033C13.575 13.219 13.9327 12.6918 13.8518 11.8294ZM12.4585 15.3653C12.4585 16.6005 10.3422 16.4592 9.66818 16.4592V14.2677C10.3422 14.2696 12.4585 14.0756 12.4585 15.3653ZM11.9972 12.2776C11.9972 13.4072 10.2311 13.2698 9.67006 13.2698V11.2778C10.2311 11.2778 11.9972 11.1008 11.9972 12.2776Z" fill="#F09242"/>
<path d="M10.2838 23.9999C8.24967 23.9995 6.2613 23.396 4.57011 22.2657C2.87892 21.1353 1.56087 19.5289 0.782598 17.6495C0.00432976 15.7701 -0.199203 13.7021 0.197734 11.7071C0.59467 9.71202 1.57425 7.87946 3.01262 6.44109C4.45099 5.00272 6.28356 4.02314 8.27861 3.6262C10.2737 3.22926 12.3416 3.4328 14.221 4.21106C16.1004 4.98933 17.7068 6.30739 18.8372 7.99857C19.9675 9.68976 20.5711 11.6781 20.5714 13.7123C20.5717 15.0634 20.3058 16.4012 19.7888 17.6495C19.2719 18.8977 18.5142 20.0319 17.5588 20.9873C16.6035 21.9426 15.4693 22.7004 14.221 23.2173C12.9728 23.7342 11.6349 24.0001 10.2838 23.9999ZM10.2838 4.23054C8.40975 4.23203 6.57817 4.78908 5.02059 5.83127C3.46301 6.87346 2.24937 8.35402 1.53304 10.0858C0.816719 11.8176 0.629878 13.7229 0.996133 15.5608C1.36239 17.3988 2.2653 19.0869 3.59074 20.4118C4.91619 21.7367 6.60467 22.639 8.44276 23.0045C10.2809 23.37 12.1861 23.1824 13.9176 22.4654C15.6491 21.7484 17.1291 20.5342 18.1707 18.9762C19.2123 17.4182 19.7686 15.5864 19.7694 13.7123C19.7699 12.4667 19.5248 11.2332 19.0483 10.0823C18.5717 8.93148 17.873 7.88586 16.992 7.00525C16.111 6.12464 15.0651 5.42631 13.9141 4.95021C12.7631 4.4741 11.5295 4.22955 10.2838 4.23054Z" fill="#282138"/>
</g>
</g>
<g clip-path="url(#clip1_283_60866)">
<path d="M17.1429 13.7143C18.4991 13.7143 19.8249 13.3121 20.9525 12.5587C22.0802 11.8052 22.9591 10.7342 23.4781 9.48126C23.9971 8.22828 24.1329 6.84954 23.8683 5.51938C23.6037 4.18923 22.9506 2.9674 21.9916 2.00841C21.0327 1.04943 19.8108 0.396346 18.4807 0.131761C17.1505 -0.132823 15.7718 0.0029711 14.5188 0.521972C13.2658 1.04097 12.1949 1.91987 11.4414 3.04752C10.6879 4.17517 10.2858 5.50093 10.2858 6.85715C10.2858 8.67577 11.0082 10.4199 12.2942 11.7059C13.5801 12.9918 15.3243 13.7143 17.1429 13.7143Z" fill="#2C374B"/>
<path d="M20.5957 8.10874L18.7816 5.35742L18.1467 6.43376L19.8822 9.29998L20.638 8.93112L20.5957 8.10874Z" fill="#24A2EE"/>
<path d="M19.7189 9.6085L17.9048 6.85718L17.1368 8.06655L18.576 10.3704L19.4951 9.9955L19.7189 9.6085Z" fill="#24A2EE"/>
<path fill-rule="evenodd" clip-rule="evenodd" d="M13.7869 4.92809L17.1429 3.02333L20.4989 4.95832V8.81622L17.1429 10.7512L14.6819 9.29997L14.3553 9.83814L17.0522 11.3922C17.0802 11.407 17.1113 11.4148 17.1429 11.4148C17.1746 11.4148 17.2057 11.407 17.2336 11.3922L21.0311 9.20322C21.0595 9.18833 21.0832 9.16563 21.0993 9.13779C21.1153 9.10995 21.1231 9.07812 21.1218 9.046V4.66807C21.1231 4.63596 21.1153 4.60412 21.0993 4.57628C21.0832 4.54844 21.0595 4.52575 21.0311 4.51086L17.2336 2.32189C17.2057 2.30707 17.1746 2.29932 17.1429 2.29932C17.1113 2.29932 17.0802 2.30707 17.0522 2.32189L13.2548 4.51086C13.2263 4.52575 13.2027 4.54844 13.1866 4.57628C13.1705 4.60412 13.1627 4.63596 13.1641 4.66807V9.07019C13.1627 9.1023 13.1705 9.13414 13.1866 9.16198C13.2027 9.18982 13.2263 9.21252 13.2548 9.22741L14.0107 9.66278L14.3493 9.13671L13.7869 8.81018V4.92809Z" fill="#98BCDC"/>
<path d="M18.6002 4.97046H17.3062L14.3492 9.80795L15.3954 10.4126L18.6002 4.97046Z" fill="#FDFDFD"/>
<path d="M15.3833 5.4422C15.6796 4.95845 16.5261 4.95845 16.9131 5.01892L14.0106 9.66896L13.4785 9.36661C13.2306 9.22149 13.1882 9.21544 13.1641 9.08846V8.82844C13.7808 7.86094 15.087 5.89571 15.3833 5.4422Z" fill="#FDFDFD"/>
</g>
<defs>
<clipPath id="clip0_283_60866">
<rect width="20.5714" height="20.5714" fill="white" transform="translate(0 3.42847)"/>
</clipPath>
<clipPath id="clip1_283_60866">
<rect width="13.7143" height="13.7143" fill="white" transform="translate(10.2858)"/>
</clipPath>
</defs>
</svg>
