<svg width="24" height="24" viewBox="0 0 24 24" fill="none" xmlns="http://www.w3.org/2000/svg">
<mask id="mask0_283_60835" style="mask-type:alpha" maskUnits="userSpaceOnUse" x="0" y="3" width="23" height="23">
<path d="M10.7041 3.43945C10.1619 4.45885 9.85449 5.62225 9.85449 6.85742C9.85464 10.8827 13.1173 14.1454 17.1426 14.1455C18.3776 14.1455 19.5403 13.837 20.5596 13.2949C20.5651 13.4339 20.5713 13.5735 20.5713 13.7139V15.5283C21.6233 16.627 22.2861 18.2231 22.2861 20C22.2861 23.3137 19.9829 26 17.1426 26C15.6198 25.9999 14.2522 25.2271 13.3105 24H0V3.42871H10.2861C10.4262 3.42872 10.5654 3.4339 10.7041 3.43945Z" fill="#FEFFFF"/>
</mask>
<g mask="url(#mask0_283_60835)">
<path d="M5.14282 6.85693H15.4285L18.4285 11.9998L10.2857 19.7141L2.14282 11.9998L5.14282 6.85693Z" fill="#FDFDFD"/>
<path fill-rule="evenodd" clip-rule="evenodd" d="M4.48022 5.14282H16.3291C16.6119 5.14282 16.8731 5.29542 17.0141 5.54299L20.4661 11.6042C20.6451 11.9185 20.592 12.3153 20.3366 12.5702L10.8347 22.0552C10.5269 22.3625 10.0317 22.3625 9.72392 22.0552L0.234813 12.583C-0.0264695 12.3222 -0.0753964 11.9139 0.116739 11.5976L3.80674 5.52354C3.95045 5.28699 4.20547 5.14282 4.48022 5.14282ZM14.7992 7.84895V9.54964H11.4239V10.7288C13.7945 10.8548 15.5731 11.3723 15.5863 11.9926L15.5862 13.2858C15.573 13.9061 13.7945 14.4236 11.4239 14.5497V17.4434H9.18271V14.5497C6.81212 14.4236 5.03357 13.9061 5.02041 13.2858L5.02045 11.9926C5.03366 11.3723 6.81212 10.8548 9.18271 10.7288V9.54964H5.80742V7.84895H14.7992ZM10.3034 13.6612C12.8332 13.6612 14.9477 13.2236 15.4651 12.6392C15.0263 12.1437 13.439 11.7536 11.4239 11.6465V12.8811C11.0628 12.9003 10.6879 12.9104 10.3034 12.9104C9.91881 12.9104 9.5439 12.9003 9.18271 12.8811V11.6465C7.16762 11.7536 5.58035 12.1437 5.14153 12.6392C5.659 13.2236 7.77351 13.6612 10.3034 13.6612Z" fill="#009393"/>
</g>
<path d="M17.1429 0L13.6344 2.05944L14.9243 2.82026L17.1429 1.52163L19.3616 2.82026L20.6515 2.05944L17.1429 0Z" fill="#F0B90B"/>
<path d="M19.3616 3.89575L20.6515 4.65659V6.17821L18.4329 7.47684V10.0741L17.1429 10.8349L15.853 10.0741V7.47684L13.6344 6.17821V4.65659L14.9243 3.89575L17.1429 5.19441L19.3616 3.89575Z" fill="#F0B90B"/>
<path d="M20.6515 7.25391V8.77552L19.3616 9.53633V8.01471L20.6515 7.25391Z" fill="#F0B90B"/>
<path d="M19.3486 10.612L21.5673 9.31338V6.71613L22.8572 5.95532V10.0742L19.3486 12.1337V10.612Z" fill="#F0B90B"/>
<path d="M21.5672 4.11881L20.2773 3.35798L21.5672 2.59717L22.8571 3.35798V4.87962L21.5672 5.64043V4.11881Z" fill="#F0B90B"/>
<path d="M15.853 12.6847V11.1631L17.1429 11.9239L18.4329 11.1631V12.6847L17.1429 13.4455L15.853 12.6847Z" fill="#F0B90B"/>
<path d="M14.9243 9.53633L13.6344 8.77552V7.25391L14.9243 8.01471V9.53633Z" fill="#F0B90B"/>
<path d="M17.1429 4.11881L15.853 3.35798L17.1429 2.59717L18.4329 3.35798L17.1429 4.11881Z" fill="#F0B90B"/>
<path d="M14.0085 3.35798L12.7186 4.11881V5.64043L11.4287 4.87962V3.35798L12.7186 2.59717L14.0085 3.35798Z" fill="#F0B90B"/>
<path d="M11.4287 5.95532L12.7186 6.71613V9.31338L14.9373 10.612V12.1337L11.4287 10.0742V5.95532Z" fill="#F0B90B"/>
</svg>
