<svg width="24" height="24" viewBox="0 0 24 24" fill="none" xmlns="http://www.w3.org/2000/svg">
<mask id="mask0_1_1159" style="mask-type:alpha" maskUnits="userSpaceOnUse" x="0" y="3" width="23" height="23">
<path d="M10.7041 3.43945C10.1619 4.45885 9.85449 5.62225 9.85449 6.85742C9.85464 10.8827 13.1173 14.1454 17.1426 14.1455C18.3776 14.1455 19.5403 13.837 20.5596 13.2949C20.5651 13.4339 20.5713 13.5735 20.5713 13.7139V15.5283C21.6233 16.627 22.2861 18.2231 22.2861 20C22.2861 23.3137 19.9829 26 17.1426 26C15.6198 25.9999 14.2522 25.2271 13.3105 24H0V3.42871H10.2861C10.4262 3.42872 10.5654 3.4339 10.7041 3.43945Z" fill="#FEFFFF"/>
</mask>
<g mask="url(#mask0_1_1159)">
<path d="M5.55277 23.7196C10.7596 23.7196 10.7596 23.6421 11.6425 23.38C12.7963 23.0375 8.38499 19.984 5.55277 19.984C2.72054 19.984 0.424561 20.8202 0.424561 21.8518C0.424561 22.8834 2.72065 23.7196 5.55277 23.7196Z" fill="black"/>
<path d="M17.376 7.83635L17.6155 8.09444L17.4061 8.37752C10.6154 17.5591 6.70347 21.7163 5.04369 21.1587C4.03272 20.8191 3.01886 19.7977 2.00497 18.3146C1.6486 17.7933 1.31395 17.2444 1.00958 16.6981C0.806902 16.3343 0.635353 16.0026 0.546281 15.8157C0.432659 15.5773 0.384688 15.4305 0.34663 15.2376C0.344308 15.2258 0.344308 15.2258 0.342101 15.2144C0.326216 15.1326 0.320721 15.1067 0.308847 15.0619C0.104511 14.2918 0 13.4939 0 12.6826C0 7.57177 4.14318 3.42859 9.25405 3.42859C10.8552 3.42859 12.3982 3.83609 13.7657 4.60105L13.801 4.62314C14.9206 5.40261 16.1114 6.47366 17.376 7.83635ZM13.3331 5.33188C12.096 4.64385 10.7021 4.27758 9.25405 4.27758C4.61207 4.27758 0.848995 8.04065 0.848995 12.6826C0.848995 13.4203 0.94392 14.145 1.12945 14.8442C1.14779 14.9134 1.15609 14.9524 1.17555 15.0527C1.1776 15.0633 1.1776 15.0633 1.17956 15.0733C1.20412 15.1977 1.23004 15.277 1.31267 15.4504C1.39392 15.6209 1.55721 15.9367 1.75123 16.2849C2.04376 16.8099 2.36523 17.3372 2.70585 17.8355C3.62188 19.1755 4.53034 20.0906 5.31405 20.3539C6.3593 20.705 10.2943 16.5396 16.5129 8.15704C15.3839 6.96536 14.3233 6.02363 13.3331 5.33188Z" fill="black"/>
<path d="M13.3329 5.33188C12.0958 4.64385 10.702 4.27759 9.25393 4.27759C4.61195 4.27759 0.848877 8.04066 0.848877 12.6826C0.848877 13.4203 0.943802 14.145 1.12933 14.8442C1.14768 14.9134 1.15597 14.9524 1.17544 15.0527C1.17748 15.0633 1.17748 15.0633 1.17944 15.0733C1.20401 15.1977 1.22992 15.277 1.31255 15.4504C1.3938 15.6209 1.5571 15.9367 1.75111 16.2849C2.04364 16.8099 2.36511 17.3372 2.70573 17.8355C3.62176 19.1755 4.53022 20.0906 5.31393 20.3539C6.35918 20.705 10.2941 16.5396 16.5128 8.15705C15.3838 6.96536 14.3232 6.02363 13.3329 5.33188Z" fill="#EC1C79"/>
<path d="M10.952 23.6347C5.84118 23.6347 1.698 19.4915 1.698 14.3806C1.698 9.26977 5.84118 5.12659 10.952 5.12659C16.0629 5.12659 20.2061 9.26977 20.2061 14.3806C20.2061 19.4915 16.0629 23.6347 10.952 23.6347ZM10.952 22.7857C15.594 22.7857 19.3571 19.0226 19.3571 14.3806C19.3571 9.73865 15.594 5.97558 10.952 5.97558C6.31006 5.97558 2.54699 9.73865 2.54699 14.3806C2.54699 19.0226 6.31006 22.7857 10.952 22.7857Z" fill="black"/>
<path d="M10.9519 22.7857C15.5939 22.7857 19.357 19.0226 19.357 14.3806C19.357 9.73866 15.5939 5.97559 10.9519 5.97559C6.30995 5.97559 2.54688 9.73866 2.54688 14.3806C2.54688 19.0226 6.30995 22.7857 10.9519 22.7857Z" fill="white"/>
<path fill-rule="evenodd" clip-rule="evenodd" d="M4.66477 16.1024L3.55225 12.7506H4.52689L5.10693 14.6761L5.74877 12.7411H6.54275L7.18459 14.6761L7.76462 12.7506H8.72025L7.60773 16.1024H6.80424L6.13387 14.1864L5.46826 16.1024H4.66477ZM9.08634 16.0787V12.7506H11.7631V13.5351H9.99918V14.039H11.5966V14.7665H9.99918V15.2942H11.7868V16.0787H9.08634ZM13.0705 16.0787V13.5588H12.0721V12.7506H14.9913V13.5588H13.9929V16.0787H13.0705ZM15.3954 16.0787V12.7506H16.3177V13.9962H17.5016V12.7506H18.4239V16.0787H17.5016V14.814H16.3177V16.0787H15.3954Z" fill="black"/>
<path d="M0.551494 11.7495C0.316638 11.6321 0.221444 11.3465 0.338872 11.1117C0.4563 10.8768 0.741882 10.7816 0.976738 10.8991L2.33513 11.5782C2.56999 11.6957 2.66518 11.9813 2.54775 12.2161C2.43032 12.451 2.14474 12.5462 1.90989 12.4287L0.551494 11.7495Z" fill="black"/>
<path d="M0.394978 14.0018C0.156566 13.8918 0.0524925 13.6093 0.162522 13.3709C0.272552 13.1325 0.555019 13.0284 0.793431 13.1385L2.15182 13.7654C2.39023 13.8754 2.49431 14.1579 2.38428 14.3963C2.27425 14.6347 1.99178 14.7388 1.75337 14.6288L0.394978 14.0018Z" fill="black"/>
</g>
<g clip-path="url(#clip0_1_1159)">
<path d="M17.1428 13.7143C20.9299 13.7143 23.9999 10.6442 23.9999 6.85714C23.9999 3.07005 20.9299 0 17.1428 0C13.3557 0 10.2856 3.07005 10.2856 6.85714C10.2856 10.6442 13.3557 13.7143 17.1428 13.7143Z" fill="black"/>
<path d="M13.1079 4.80891L11.0284 3.75012C10.8657 4.0697 10.7272 4.40478 10.6169 4.74605L12.8374 5.46405C12.91 5.23959 13.0008 5.01914 13.1079 4.80891Z" fill="white"/>
<path d="M14.8744 2.94285L16.0262 4.92744C16.1944 4.82989 16.3745 4.75486 16.5618 4.70451L15.9657 2.48854C16.1174 2.44774 16.2715 2.41407 16.4266 2.38959L16.0602 0.0847168C15.7059 0.14096 15.3539 0.225853 15.0136 0.336782L15.7259 2.51979C15.4993 2.59374 15.2787 2.68557 15.0662 2.79425L14.0192 0.750642C13.7009 0.913823 13.3929 1.10339 13.1035 1.31467L14.4793 3.19962C14.606 3.10725 14.7386 3.02184 14.8744 2.94285Z" fill="white"/>
<path d="M21.0554 4.58717L19.0715 5.74005C19.1693 5.90808 19.2443 6.08827 19.2948 6.27526L21.5106 5.67806C21.5514 5.82979 21.5851 5.98378 21.6097 6.13862L23.9142 5.77163C23.8578 5.41751 23.7728 5.06527 23.6615 4.72486L21.4788 5.4385C21.4047 5.21197 21.3129 4.99149 21.204 4.779L23.2469 3.73066C23.0838 3.41262 22.8938 3.10465 22.6826 2.81543L20.7982 4.19209C20.8907 4.31881 20.9765 4.45124 21.0554 4.58717Z" fill="white"/>
<path d="M20.2464 0.741354C19.9265 0.578867 19.5914 0.440506 19.2505 0.330444L18.5337 2.5513C18.758 2.62369 18.9785 2.71465 19.189 2.82159L20.2464 0.741354Z" fill="white"/>
<path d="M19.4179 2.90221L18.2529 4.92412C18.4217 5.02133 18.5772 5.14043 18.7156 5.27824L21.983 1.99966C21.7296 1.74708 21.4543 1.51255 21.1647 1.30249L19.817 3.16104C19.6886 3.06799 19.5554 2.98154 19.4179 2.90221Z" fill="white"/>
<path d="M13.189 4.57978L15.2104 5.74603C15.3076 5.57747 15.427 5.42176 15.5651 5.28321L12.2879 2.01453C12.0351 2.26798 11.8004 2.54313 11.5903 2.83252L13.4482 4.18105C13.3551 4.30932 13.2683 4.44231 13.189 4.57978Z" fill="white"/>
<path d="M17.85 2.35036L18.2026 0.0815923C17.8542 0.027429 17.4976 0 17.1426 0H17.1372V4.62884H17.1426C17.3377 4.62884 17.5308 4.65385 17.7165 4.70315L18.3151 2.44757C18.1619 2.40695 18.0067 2.37484 17.85 2.35036Z" fill="white"/>
<path d="M14.9887 6.2819L12.7335 5.68176C12.6927 5.83488 12.6604 5.99007 12.6359 6.14684L10.3675 5.79321C10.313 6.14286 10.2854 6.5008 10.2854 6.85687H14.9142C14.9142 6.6614 14.9393 6.46783 14.9887 6.2819Z" fill="white"/>
<path d="M21.1774 8.90567L23.257 9.96445C23.4196 9.64484 23.5581 9.3098 23.6684 8.96852L21.4479 8.25049C21.3753 8.47495 21.2846 8.69543 21.1774 8.90567Z" fill="white"/>
<path d="M19.4108 10.7712L18.2589 8.78662C18.0907 8.88417 17.9107 8.95915 17.7234 9.00951L18.3195 11.2255C18.1676 11.2663 18.0136 11.3 17.8586 11.3245L18.2247 13.6291C18.5791 13.5729 18.9311 13.488 19.2714 13.3771L18.5591 11.1941C18.7858 11.1201 19.0063 11.0283 19.2188 10.9196L20.2657 12.9632C20.5841 12.8 20.8921 12.6105 21.1815 12.3992L19.8057 10.5143C19.679 10.6066 19.5465 10.6922 19.4108 10.7712Z" fill="white"/>
<path d="M13.2299 9.12751L15.214 7.97467C15.1163 7.8066 15.0412 7.62641 14.9907 7.43945L12.7749 8.03662C12.7341 7.88489 12.7004 7.7309 12.6758 7.57605L10.3711 7.94305C10.4275 8.29721 10.5126 8.64944 10.6239 8.98986L12.8065 8.27618C12.8806 8.50274 12.9725 8.72323 13.0813 8.93571L11.0384 9.98406C11.2016 10.3021 11.3915 10.6101 11.6028 10.8993L13.4872 9.52263C13.3947 9.3959 13.3089 9.26343 13.2299 9.12751Z" fill="white"/>
<path d="M14.0388 12.9732C14.3587 13.1357 14.6938 13.274 15.0348 13.3841L15.7516 11.1633C15.5272 11.0909 15.3068 10.9999 15.0962 10.8929L14.0388 12.9732Z" fill="white"/>
<path d="M14.8673 10.8124L16.0324 8.79052C15.8636 8.69331 15.7081 8.5742 15.5697 8.4364L12.3022 11.715C12.5557 11.9675 12.831 12.2021 13.1206 12.4122L14.4682 10.5536C14.5967 10.6466 14.7298 10.7331 14.8673 10.8124Z" fill="white"/>
<path d="M21.0963 9.13472L19.0749 7.96851C18.9776 8.13706 18.8582 8.29277 18.7202 8.43129L21.9972 11.7002C22.25 11.4467 22.4847 11.1716 22.6948 10.8822L20.8369 9.53367C20.93 9.40536 21.0169 9.27222 21.0963 9.13472Z" fill="white"/>
<path d="M16.5688 9.01099L15.9702 11.2666C16.1233 11.3072 16.2785 11.3393 16.4353 11.3638L16.0829 13.6325C16.4313 13.6867 16.7879 13.7141 17.1429 13.7141H17.1483V9.08529H17.1429C16.9477 9.08529 16.7545 9.06029 16.5688 9.01099Z" fill="white"/>
<path d="M19.371 6.85742C19.371 7.0529 19.3459 7.24627 19.2964 7.43236L21.5516 8.03249C21.5924 7.87937 21.6247 7.72419 21.6492 7.56742L23.9178 7.92124C23.9723 7.57159 23.9999 7.21364 23.9999 6.85757L19.371 6.85742Z" fill="white"/>
</g>
<defs>
<clipPath id="clip0_1_1159">
<rect width="13.7143" height="13.7143" fill="white" transform="translate(10.2856)"/>
</clipPath>
</defs>
</svg>
