<svg width="24" height="24" viewBox="0 0 24 24" fill="none" xmlns="http://www.w3.org/2000/svg">
<mask id="mask0_283_60863" style="mask-type:alpha" maskUnits="userSpaceOnUse" x="0" y="3" width="23" height="23">
<path d="M10.7041 3.43945C10.1619 4.45885 9.85449 5.62225 9.85449 6.85742C9.85464 10.8827 13.1173 14.1454 17.1426 14.1455C18.3776 14.1455 19.5403 13.837 20.5596 13.2949C20.5651 13.4339 20.5713 13.5735 20.5713 13.7139V15.5283C21.6233 16.627 22.2861 18.2231 22.2861 20C22.2861 23.3137 19.9829 26 17.1426 26C15.6198 25.9999 14.2522 25.2271 13.3105 24H0V3.42871H10.2861C10.4262 3.42872 10.5654 3.4339 10.7041 3.43945Z" fill="#FEFFFF"/>
</mask>
<g mask="url(#mask0_283_60863)">
<g clip-path="url(#clip0_283_60863)">
<circle cx="10.2857" cy="13.7142" r="10.2857" fill="white"/>
<path d="M16.7738 7.7456L16.209 8.31044C17.5568 9.78435 18.3042 11.7093 18.3042 13.7065C18.3042 15.7038 17.5568 17.6287 16.209 19.1026L16.7738 19.6675C18.2727 18.0416 19.1049 15.9113 19.1049 13.6999C19.1049 11.4886 18.2727 9.35825 16.7738 7.73242V7.7456Z" fill="#5A5564"/>
<path d="M4.89528 7.79459C6.36919 6.44679 8.29413 5.69936 10.2914 5.69936C12.2886 5.69936 14.2136 6.44679 15.6875 7.79459L16.2523 7.22975C14.6265 5.73085 12.4961 4.89868 10.2848 4.89868C8.07345 4.89868 5.94309 5.73085 4.31726 7.22975L4.89528 7.79459Z" fill="#5A5564"/>
<path d="M4.36624 19.1085C3.02004 17.6349 2.2736 15.7111 2.2736 13.7152C2.2736 11.7193 3.02004 9.7955 4.36624 8.32192L3.8014 7.75708C2.30251 9.38291 1.47034 11.5133 1.47034 13.7246C1.47034 15.9359 2.30251 18.0663 3.8014 19.6921L4.36624 19.1085Z" fill="#5A5564"/>
<path d="M15.6799 19.6299C14.206 20.9777 12.2811 21.7251 10.2838 21.7251C8.28657 21.7251 6.36163 20.9777 4.88771 19.6299L4.32288 20.1947C5.94871 21.6936 8.07906 22.5258 10.2904 22.5258C12.5017 22.5258 14.6321 21.6936 16.2579 20.1947L15.6799 19.6299Z" fill="#5A5564"/>
<path d="M13.8518 11.8294C13.7388 10.6508 12.7221 10.2554 11.4361 10.1349V8.51196H10.442V10.1048C10.1803 10.1048 9.91294 10.1048 9.64747 10.1048V8.51196H8.66088V10.1462H6.64441V11.21C6.64441 11.21 7.3787 11.1968 7.3674 11.21C7.4998 11.1954 7.63268 11.2328 7.73805 11.3143C7.84342 11.3958 7.91304 11.515 7.93224 11.6468V16.1203C7.92941 16.1668 7.91729 16.2123 7.89659 16.254C7.8759 16.2957 7.84704 16.3328 7.81174 16.3632C7.7771 16.3942 7.73656 16.4178 7.69256 16.4327C7.64856 16.4476 7.602 16.4534 7.55568 16.4498C7.56886 16.4611 6.83269 16.4498 6.83269 16.4498L6.64441 17.6379H8.64206V19.2985H9.63617V17.6624H10.4307V19.291H11.4267V17.6492C13.1062 17.5475 14.2773 17.1333 14.4241 15.5612C14.5427 14.2959 13.9478 13.7311 12.997 13.5033C13.575 13.219 13.9327 12.6918 13.8518 11.8294ZM12.4585 15.3653C12.4585 16.6005 10.3422 16.4592 9.66818 16.4592V14.2677C10.3422 14.2696 12.4585 14.0756 12.4585 15.3653ZM11.9972 12.2776C11.9972 13.4072 10.2311 13.2698 9.67006 13.2698V11.2778C10.2311 11.2778 11.9972 11.1008 11.9972 12.2776Z" fill="#F09242"/>
<path d="M10.2838 23.9999C8.24967 23.9995 6.2613 23.396 4.57011 22.2657C2.87892 21.1353 1.56087 19.5289 0.782598 17.6495C0.00432976 15.7701 -0.199203 13.7021 0.197734 11.7071C0.59467 9.71202 1.57425 7.87946 3.01262 6.44109C4.45099 5.00272 6.28356 4.02314 8.27861 3.6262C10.2737 3.22926 12.3416 3.4328 14.221 4.21106C16.1004 4.98933 17.7068 6.30739 18.8372 7.99857C19.9675 9.68976 20.5711 11.6781 20.5714 13.7123C20.5717 15.0634 20.3058 16.4012 19.7888 17.6495C19.2719 18.8977 18.5142 20.0319 17.5588 20.9873C16.6035 21.9426 15.4693 22.7004 14.221 23.2173C12.9728 23.7342 11.6349 24.0001 10.2838 23.9999ZM10.2838 4.23054C8.40975 4.23203 6.57817 4.78908 5.02059 5.83127C3.46301 6.87346 2.24937 8.35402 1.53304 10.0858C0.816719 11.8176 0.629878 13.7229 0.996133 15.5608C1.36239 17.3988 2.2653 19.0869 3.59074 20.4118C4.91619 21.7367 6.60467 22.639 8.44276 23.0045C10.2809 23.37 12.1861 23.1824 13.9176 22.4654C15.6491 21.7484 17.1291 20.5342 18.1707 18.9762C19.2123 17.4182 19.7686 15.5864 19.7694 13.7123C19.7699 12.4667 19.5248 11.2332 19.0483 10.0823C18.5717 8.93148 17.873 7.88586 16.992 7.00525C16.111 6.12464 15.0651 5.42631 13.9141 4.95021C12.7631 4.4741 11.5295 4.22955 10.2838 4.23054Z" fill="#282138"/>
</g>
</g>
<g clip-path="url(#clip1_283_60863)">
<path d="M17.1429 13.6915C20.9174 13.6915 23.9772 10.6317 23.9772 6.85723C23.9772 3.08276 20.9174 0.0229492 17.1429 0.0229492C13.3684 0.0229492 10.3086 3.08276 10.3086 6.85723C10.3086 10.6317 13.3684 13.6915 17.1429 13.6915Z" fill="black"/>
<path d="M14.5522 7.72918C14.9135 7.72918 15.266 7.60876 15.5509 7.38846L13.2598 5.09741C12.7076 5.81116 12.8398 6.8392 13.5535 7.3914C13.8414 7.60876 14.1909 7.72918 14.5522 7.72918Z" fill="white"/>
<path d="M21.3666 6.09315C21.3666 5.73186 21.2462 5.3794 21.0259 5.09448L18.7349 7.38553C19.4486 7.93774 20.4737 7.80556 21.0259 7.09181C21.2462 6.8069 21.3666 6.45443 21.3666 6.09315Z" fill="white"/>
<path d="M22.521 3.59937L21.5076 4.61271C22.3242 5.59082 22.1949 7.04769 21.2168 7.86424C20.3592 8.58093 19.1138 8.58093 18.2561 7.86424L17.1429 8.97746L16.0326 7.86718C15.0545 8.68374 13.5976 8.5545 12.7811 7.57639C12.0644 6.71872 12.0644 5.47333 12.7811 4.61565L12.2612 4.09576L11.7677 3.59937C11.1715 4.58041 10.8572 5.70831 10.8572 6.85677C10.8572 10.3286 13.6711 13.1425 17.1429 13.1425C20.6147 13.1425 23.4286 10.3286 23.4286 6.85677C23.4315 5.70831 23.1143 4.58041 22.521 3.59937Z" fill="white"/>
<path d="M21.6897 2.51851C19.2958 0.00716257 15.3188 -0.0868294 12.8075 2.30702C12.734 2.37752 12.6635 2.44801 12.596 2.51851C12.4403 2.68299 12.2934 2.85335 12.1554 3.03252L17.1428 8.0229L22.1303 3.03252C21.9952 2.85335 21.8454 2.68299 21.6897 2.51851ZM17.1428 1.39354C18.6115 1.39354 19.9802 1.96043 21.0083 2.99434L17.1428 6.85975L13.2774 2.99434C14.3055 1.96043 15.6742 1.39354 17.1428 1.39354Z" fill="white"/>
</g>
<defs>
<clipPath id="clip0_283_60863">
<rect width="20.5714" height="20.5714" fill="white" transform="translate(0 3.42847)"/>
</clipPath>
<clipPath id="clip1_283_60863">
<rect width="13.7143" height="13.7143" fill="white" transform="translate(10.2858)"/>
</clipPath>
</defs>
</svg>
