<svg width="24" height="24" viewBox="0 0 24 24" fill="none" xmlns="http://www.w3.org/2000/svg">
<mask id="mask0_283_60839" style="mask-type:alpha" maskUnits="userSpaceOnUse" x="0" y="3" width="23" height="23">
<path d="M10.7041 3.43945C10.1619 4.45885 9.85449 5.62225 9.85449 6.85742C9.85464 10.8827 13.1173 14.1454 17.1426 14.1455C18.3776 14.1455 19.5403 13.837 20.5596 13.2949C20.5651 13.4339 20.5713 13.5735 20.5713 13.7139V15.5283C21.6233 16.627 22.2861 18.2231 22.2861 20C22.2861 23.3137 19.9829 26 17.1426 26C15.6198 25.9999 14.2522 25.2271 13.3105 24H0V3.42871H10.2861C10.4262 3.42872 10.5654 3.4339 10.7041 3.43945Z" fill="#FEFFFF"/>
</mask>
<g mask="url(#mask0_283_60839)">
<path d="M5.14282 6.85718H15.4285L18.4285 12L10.2857 19.7143L2.14282 12L5.14282 6.85718Z" fill="#FDFDFD"/>
<path fill-rule="evenodd" clip-rule="evenodd" d="M4.48022 5.14282H16.3291C16.6119 5.14282 16.8731 5.29542 17.0141 5.54299L20.4661 11.6042C20.6451 11.9185 20.592 12.3153 20.3366 12.5702L10.8347 22.0552C10.5269 22.3625 10.0317 22.3625 9.72392 22.0552L0.234813 12.583C-0.0264695 12.3222 -0.0753964 11.9139 0.116739 11.5976L3.80674 5.52354C3.95045 5.28699 4.20547 5.14282 4.48022 5.14282ZM14.7992 7.84895V9.54964H11.4239V10.7288C13.7945 10.8548 15.5731 11.3723 15.5863 11.9926L15.5862 13.2858C15.573 13.9061 13.7945 14.4236 11.4239 14.5497V17.4434H9.18271V14.5497C6.81212 14.4236 5.03357 13.9061 5.02041 13.2858L5.02045 11.9926C5.03366 11.3723 6.81212 10.8548 9.18271 10.7288V9.54964H5.80742V7.84895H14.7992ZM10.3034 13.6612C12.8332 13.6612 14.9477 13.2236 15.4651 12.6392C15.0263 12.1437 13.439 11.7536 11.4239 11.6465V12.8811C11.0628 12.9003 10.6879 12.9104 10.3034 12.9104C9.91881 12.9104 9.5439 12.9003 9.18271 12.8811V11.6465C7.16762 11.7536 5.58035 12.1437 5.14153 12.6392C5.659 13.2236 7.77351 13.6612 10.3034 13.6612Z" fill="#009393"/>
</g>
<g clip-path="url(#clip0_283_60839)">
<path d="M23.9999 6.85715C23.9999 5.50093 23.5978 4.17518 22.8443 3.04752C22.0908 1.91987 21.0199 1.04097 19.7669 0.521972C18.5139 0.0029713 17.1352 -0.132823 15.805 0.131761C14.4749 0.396346 13.253 1.04943 12.2941 2.00841C11.3351 2.9674 10.682 4.18923 10.4174 5.51938C10.1528 6.84954 10.2886 8.22828 10.8076 9.48126C11.3266 10.7342 12.2055 11.8052 13.3332 12.5586C14.4608 13.3121 15.7866 13.7143 17.1428 13.7143C18.9614 13.7143 20.7056 12.9918 21.9915 11.7059C23.2775 10.4199 23.9999 8.67577 23.9999 6.85715Z" fill="#00CFFF"/>
<path d="M21.7701 6.51516C21.6249 6.40521 21.4738 6.30327 21.3175 6.20981C21.2509 6.16794 21.1892 6.11878 21.1335 6.06325C21.0167 5.94722 20.8213 5.7457 20.7579 5.62127C20.7174 5.54494 20.7342 5.39837 20.7656 5.2625C20.8209 5.02285 20.7795 4.77103 20.6503 4.56175L20.4465 4.23122C20.3529 4.08036 20.2776 3.91894 20.222 3.75031C20.1522 3.53345 20.03 3.3371 19.8663 3.17857C19.5358 2.85567 18.6213 2.6969 17.8618 2.67171C17.8147 2.65764 17.7667 2.64643 17.7183 2.63812C17.3801 2.58011 17.019 2.48545 16.6954 2.54727C16.2145 2.63735 15.729 2.78773 15.3656 3.15796C15.2893 3.2343 15.1786 3.26864 15.1 3.33964C14.9473 3.48085 14.7328 3.48085 14.5939 3.63734C14.513 3.72818 14.4756 4.02665 14.2626 4.14038C13.9099 4.32892 13.6519 4.53732 13.5641 4.64343C13.4992 4.72358 13.4496 4.81671 13.3863 4.89839C13.3229 4.98006 13.0191 5.12358 12.9283 5.21213C12.8609 5.28681 12.8119 5.37629 12.7854 5.47334C12.7589 5.57038 12.7555 5.6723 12.7756 5.77089C12.7809 5.79455 12.7848 5.81363 12.7878 5.82891C12.8229 5.95867 12.9168 6.19302 12.8954 6.30066C12.8695 6.42813 12.542 7.37773 13.2771 7.6304C13.3444 7.65052 13.4034 7.69174 13.4454 7.74796C13.4875 7.80417 13.5104 7.87241 13.5107 7.94262C13.5266 8.06936 13.5632 8.19264 13.6191 8.30749C13.6679 8.40055 13.74 8.47943 13.8283 8.5365C13.9224 8.62601 14.0113 8.72081 14.0947 8.82046C14.3542 9.3006 14.2809 9.54106 14.7817 9.70365C14.9095 9.7458 15.0321 9.80212 15.1473 9.87159C15.2877 9.95631 15.4383 10.023 15.5954 10.0701L15.6152 10.0769C15.7252 9.80976 15.8374 9.55709 15.9488 9.31816C15.0542 8.40215 15.2893 7.37239 15.3755 7.09758C15.378 7.08943 15.3825 7.08203 15.3886 7.07607C15.3947 7.07009 15.4022 7.06574 15.4104 7.06339C15.4185 7.06103 15.4272 7.06076 15.4355 7.06261C15.4438 7.06445 15.4516 7.06834 15.458 7.07393C15.6458 7.23881 16.2213 7.83192 16.1503 8.90595C16.3473 8.5113 16.5397 8.16474 16.7152 7.86857C16.5039 7.52144 16.3911 7.12334 16.3888 6.71695C16.3865 6.31057 16.4948 5.91122 16.7022 5.56174C16.7068 5.55431 16.7132 5.54819 16.7209 5.54395C16.7285 5.5397 16.737 5.53747 16.7458 5.53747C16.7545 5.53747 16.7631 5.5397 16.7707 5.54395C16.7783 5.54819 16.7847 5.55431 16.7893 5.56174C16.9213 5.75715 17.2786 6.40141 17.0572 7.31743C17.2175 7.07163 17.348 6.88996 17.4335 6.77621C17.6625 5.24952 18.8167 4.74877 19.1198 4.64267C19.1279 4.63978 19.1366 4.63902 19.1451 4.64041C19.1537 4.64181 19.1617 4.64534 19.1684 4.65068C19.1752 4.65602 19.1806 4.66297 19.1839 4.67091C19.1873 4.67886 19.1886 4.68752 19.1877 4.6961C19.1395 5.16104 18.9694 5.60499 18.6944 5.98301C18.4195 6.36103 18.0496 6.65969 17.6221 6.84874C17.461 7.06019 17.3061 7.28308 17.158 7.51132C17.6694 7.11208 18.3854 6.92432 18.9808 7.06858C18.9892 7.07049 18.9969 7.07444 19.0034 7.08007C19.0098 7.0857 19.0148 7.09284 19.0178 7.10086C19.0208 7.10885 19.0218 7.1175 19.0207 7.12597C19.0196 7.13447 19.0164 7.14255 19.0114 7.14949C18.8404 7.37849 18.1595 8.14184 16.874 7.96551C16.6572 8.33116 16.4587 8.70061 16.2824 9.05481C16.8366 8.63573 17.6457 8.47542 18.2732 8.68611C18.2816 8.6888 18.2892 8.69356 18.2952 8.69994C18.3013 8.70632 18.3057 8.71411 18.308 8.72262C18.3102 8.73113 18.3103 8.74007 18.3083 8.74862C18.3062 8.75717 18.302 8.76508 18.2961 8.77161C18.1015 8.98152 17.3511 9.67007 16.1168 9.39678C16.0007 9.64107 15.8282 10.0433 15.7443 10.2418C15.7152 10.3105 15.6885 10.3792 15.6679 10.4494C15.613 10.6113 15.5397 10.8136 15.4519 11.0151C15.4397 11.0439 15.4335 11.0749 15.4338 11.1062C15.434 11.1375 15.4407 11.1684 15.4534 11.197C15.466 11.2256 15.4844 11.2513 15.5074 11.2725C15.5304 11.2938 15.5575 11.3101 15.587 11.3204C16.5606 11.6684 17.6178 11.7076 18.6144 11.4326C18.6474 11.4232 18.6778 11.4065 18.7034 11.3838C18.729 11.3611 18.7492 11.3329 18.7625 11.3013L18.8037 11.2051C18.8037 11.2051 19.2343 10.2059 19.2976 9.77006C19.3157 9.63278 19.3584 9.49987 19.4236 9.37771C19.4572 9.3166 19.5058 9.26505 19.5648 9.22791C19.6238 9.19079 19.6914 9.16931 19.761 9.16549C20.0892 9.14794 20.7877 9.10213 21.0419 9.02122C21.3793 8.91435 21.2327 8.29909 21.2152 8.23268C21.1976 8.16627 21.3777 8.01208 21.4144 7.92276C21.451 7.83345 21.3236 7.80139 21.2709 7.70293C21.2182 7.60444 21.4014 7.5327 21.4236 7.44338C21.4457 7.35406 21.364 7.2556 21.3289 7.18919C21.3056 7.14095 21.2896 7.08949 21.2816 7.03652C21.2816 7.03652 21.5281 6.8556 21.6632 6.74187C21.7983 6.62812 21.7701 6.53347 21.7701 6.51287" fill="black"/>
</g>
<defs>
<clipPath id="clip0_283_60839">
<rect width="13.7143" height="13.7143" fill="white" transform="translate(10.2856)"/>
</clipPath>
</defs>
</svg>
