<svg width="24" height="24" viewBox="0 0 24 24" fill="none" xmlns="http://www.w3.org/2000/svg">
<mask id="mask0_283_60832" style="mask-type:alpha" maskUnits="userSpaceOnUse" x="0" y="3" width="23" height="23">
<path d="M10.7041 3.43945C10.1619 4.45885 9.85449 5.62225 9.85449 6.85742C9.85464 10.8827 13.1173 14.1454 17.1426 14.1455C18.3776 14.1455 19.5403 13.837 20.5596 13.2949C20.5651 13.4339 20.5713 13.5735 20.5713 13.7139V15.5283C21.6233 16.627 22.2861 18.2231 22.2861 20C22.2861 23.3137 19.9829 26 17.1426 26C15.6198 25.9999 14.2522 25.2271 13.3105 24H0V3.42871H10.2861C10.4262 3.42872 10.5654 3.4339 10.7041 3.43945Z" fill="#FEFFFF"/>
</mask>
<g mask="url(#mask0_283_60832)">
<path d="M10.2857 23.9999C15.9664 23.9999 20.5714 19.3948 20.5714 13.7142C20.5714 8.03354 15.9664 3.42847 10.2857 3.42847C4.60507 3.42847 0 8.03354 0 13.7142C0 19.3948 4.60507 23.9999 10.2857 23.9999Z" fill="#2775CA"/>
<path d="M8.35713 20.8659C8.35713 21.107 8.16427 21.2436 7.93927 21.1712C4.82141 20.1748 2.57141 17.2659 2.57141 13.8186C2.57141 10.3793 4.82141 7.46232 7.93927 6.46589C8.1723 6.39357 8.35713 6.53017 8.35713 6.77125V7.37392C8.35713 7.53464 8.23659 7.71946 8.08391 7.77571C5.61695 8.68375 3.85713 11.0543 3.85713 13.8186C3.85713 16.5909 5.61695 18.9534 8.08391 19.8534C8.23659 19.9096 8.35713 20.0945 8.35713 20.2552V20.8659Z" fill="#FDFDFD"/>
<path d="M10.9286 18.6401C10.9286 18.8169 10.7839 18.9615 10.6071 18.9615H9.96429C9.7875 18.9615 9.64286 18.8169 9.64286 18.6401V17.6276C8.23661 17.4347 7.55357 16.6552 7.36875 15.5785C7.33661 15.3936 7.48125 15.2329 7.66607 15.2329H8.39732C8.55 15.2329 8.67857 15.3454 8.71071 15.4901C8.84732 16.1249 9.21696 16.6151 10.342 16.6151C11.1696 16.6151 11.7643 16.149 11.7643 15.4579C11.7643 14.7669 11.4187 14.5017 10.1973 14.3008C8.39732 14.0597 7.54554 13.5133 7.54554 12.107C7.54554 11.0222 8.37321 10.1704 9.64286 9.99364V8.99721C9.64286 8.82042 9.7875 8.67578 9.96429 8.67578H10.6071C10.7839 8.67578 10.9286 8.82042 10.9286 8.99721V10.0177C11.9652 10.2026 12.6241 10.7892 12.8411 11.7695C12.8812 11.9544 12.7366 12.1231 12.5437 12.1231H11.8687C11.7241 12.1231 11.6036 12.0267 11.5634 11.8901C11.3786 11.2713 10.9366 10.9981 10.1652 10.9981C9.31339 10.9981 8.87143 11.4079 8.87143 11.9865C8.87143 12.5972 9.12054 12.9026 10.4304 13.0874C12.1982 13.3285 13.1143 13.8347 13.1143 15.3374C13.1143 16.4785 12.2625 17.4026 10.9366 17.6115V18.6401H10.9286Z" fill="#FDFDFD"/>
<path d="M12.6321 21.1713C12.3991 21.2436 12.2142 21.107 12.2142 20.8659V20.2633C12.2142 20.0865 12.3187 19.9177 12.4874 19.8615C14.9464 18.9615 16.7142 16.5909 16.7142 13.8266C16.7142 11.0543 14.9544 8.69182 12.4874 7.79182C12.3348 7.73557 12.2142 7.55075 12.2142 7.39004V6.78736C12.2142 6.54629 12.4071 6.40968 12.6321 6.482C15.7499 7.46236 17.9999 10.3793 17.9999 13.8186C17.9999 17.2659 15.7499 20.1749 12.6321 21.1713Z" fill="#FDFDFD"/>
</g>
<g clip-path="url(#clip0_283_60832)">
<path d="M17.1429 13.7143C18.4991 13.7143 19.8249 13.3121 20.9525 12.5587C22.0802 11.8052 22.9591 10.7342 23.4781 9.48126C23.9971 8.22828 24.1329 6.84954 23.8683 5.51938C23.6037 4.18923 22.9506 2.9674 21.9916 2.00841C21.0327 1.04943 19.8108 0.396346 18.4807 0.131761C17.1505 -0.132823 15.7718 0.0029711 14.5188 0.521972C13.2658 1.04097 12.1949 1.91987 11.4414 3.04752C10.6879 4.17517 10.2858 5.50093 10.2858 6.85715C10.2858 8.67577 11.0082 10.4199 12.2942 11.7059C13.5801 12.9918 15.3243 13.7143 17.1429 13.7143Z" fill="#2C374B"/>
<path d="M20.5957 8.10874L18.7816 5.35742L18.1467 6.43376L19.8822 9.29998L20.638 8.93112L20.5957 8.10874Z" fill="#24A2EE"/>
<path d="M19.7189 9.6085L17.9048 6.85718L17.1368 8.06655L18.576 10.3704L19.4951 9.9955L19.7189 9.6085Z" fill="#24A2EE"/>
<path fill-rule="evenodd" clip-rule="evenodd" d="M13.7869 4.92809L17.1429 3.02333L20.4989 4.95832V8.81622L17.1429 10.7512L14.6819 9.29997L14.3553 9.83814L17.0522 11.3922C17.0802 11.407 17.1113 11.4148 17.1429 11.4148C17.1746 11.4148 17.2057 11.407 17.2336 11.3922L21.0311 9.20322C21.0595 9.18833 21.0832 9.16563 21.0993 9.13779C21.1153 9.10995 21.1231 9.07812 21.1218 9.046V4.66807C21.1231 4.63596 21.1153 4.60412 21.0993 4.57628C21.0832 4.54844 21.0595 4.52575 21.0311 4.51086L17.2336 2.32189C17.2057 2.30707 17.1746 2.29932 17.1429 2.29932C17.1113 2.29932 17.0802 2.30707 17.0522 2.32189L13.2548 4.51086C13.2263 4.52575 13.2027 4.54844 13.1866 4.57628C13.1705 4.60412 13.1627 4.63596 13.1641 4.66807V9.07019C13.1627 9.1023 13.1705 9.13414 13.1866 9.16198C13.2027 9.18982 13.2263 9.21252 13.2548 9.22741L14.0107 9.66278L14.3493 9.13671L13.7869 8.81018V4.92809Z" fill="#98BCDC"/>
<path d="M18.6002 4.97046H17.3062L14.3492 9.80795L15.3954 10.4126L18.6002 4.97046Z" fill="#FDFDFD"/>
<path d="M15.3833 5.4422C15.6796 4.95845 16.5261 4.95845 16.9131 5.01892L14.0106 9.66896L13.4785 9.36661C13.2306 9.22149 13.1882 9.21544 13.1641 9.08846V8.82844C13.7808 7.86094 15.087 5.89571 15.3833 5.4422Z" fill="#FDFDFD"/>
</g>
<defs>
<clipPath id="clip0_283_60832">
<rect width="13.7143" height="13.7143" fill="white" transform="translate(10.2858)"/>
</clipPath>
</defs>
</svg>
