<svg width="24" height="24" viewBox="0 0 24 24" fill="none" xmlns="http://www.w3.org/2000/svg">
<mask id="mask0_1_1237" style="mask-type:alpha" maskUnits="userSpaceOnUse" x="0" y="3" width="23" height="23">
<path d="M10.7041 3.43945C10.1619 4.45885 9.85449 5.62225 9.85449 6.85742C9.85464 10.8827 13.1173 14.1454 17.1426 14.1455C18.3776 14.1455 19.5403 13.837 20.5596 13.2949C20.5651 13.4339 20.5713 13.5735 20.5713 13.7139V15.5283C21.6233 16.627 22.2861 18.2231 22.2861 20C22.2861 23.3137 19.9829 26 17.1426 26C15.6198 25.9999 14.2522 25.2271 13.3105 24H0V3.42871H10.2861C10.4262 3.42872 10.5654 3.4339 10.7041 3.43945Z" fill="#FEFFFF"/>
</mask>
<g mask="url(#mask0_1_1237)">
<path d="M5.55277 23.7196C10.7596 23.7196 10.7596 23.6421 11.6425 23.38C12.7963 23.0375 8.38499 19.984 5.55277 19.984C2.72054 19.984 0.424561 20.8202 0.424561 21.8518C0.424561 22.8834 2.72065 23.7196 5.55277 23.7196Z" fill="black"/>
<path d="M17.376 7.83635L17.6155 8.09444L17.4061 8.37752C10.6154 17.5591 6.70347 21.7163 5.04369 21.1587C4.03272 20.8191 3.01886 19.7977 2.00497 18.3146C1.6486 17.7933 1.31395 17.2444 1.00958 16.6981C0.806902 16.3343 0.635353 16.0026 0.546281 15.8157C0.432659 15.5773 0.384688 15.4305 0.34663 15.2376C0.344308 15.2258 0.344308 15.2258 0.342101 15.2144C0.326216 15.1326 0.320721 15.1067 0.308847 15.0619C0.104511 14.2918 0 13.4939 0 12.6826C0 7.57177 4.14318 3.42859 9.25405 3.42859C10.8552 3.42859 12.3982 3.83609 13.7657 4.60105L13.801 4.62314C14.9206 5.40261 16.1114 6.47366 17.376 7.83635ZM13.3331 5.33188C12.096 4.64385 10.7021 4.27758 9.25405 4.27758C4.61207 4.27758 0.848995 8.04065 0.848995 12.6826C0.848995 13.4203 0.94392 14.145 1.12945 14.8442C1.14779 14.9134 1.15609 14.9524 1.17555 15.0527C1.1776 15.0633 1.1776 15.0633 1.17956 15.0733C1.20412 15.1977 1.23004 15.277 1.31267 15.4504C1.39392 15.6209 1.55721 15.9367 1.75123 16.2849C2.04376 16.8099 2.36523 17.3372 2.70585 17.8355C3.62188 19.1755 4.53034 20.0906 5.31405 20.3539C6.3593 20.705 10.2943 16.5396 16.5129 8.15704C15.3839 6.96536 14.3233 6.02363 13.3331 5.33188Z" fill="black"/>
<path d="M13.3329 5.33188C12.0958 4.64385 10.702 4.27759 9.25393 4.27759C4.61195 4.27759 0.848877 8.04066 0.848877 12.6826C0.848877 13.4203 0.943802 14.145 1.12933 14.8442C1.14768 14.9134 1.15597 14.9524 1.17544 15.0527C1.17748 15.0633 1.17748 15.0633 1.17944 15.0733C1.20401 15.1977 1.22992 15.277 1.31255 15.4504C1.3938 15.6209 1.5571 15.9367 1.75111 16.2849C2.04364 16.8099 2.36511 17.3372 2.70573 17.8355C3.62176 19.1755 4.53022 20.0906 5.31393 20.3539C6.35918 20.705 10.2941 16.5396 16.5128 8.15705C15.3838 6.96536 14.3232 6.02363 13.3329 5.33188Z" fill="#EC1C79"/>
<path d="M10.952 23.6347C5.84118 23.6347 1.698 19.4915 1.698 14.3806C1.698 9.26977 5.84118 5.12659 10.952 5.12659C16.0629 5.12659 20.2061 9.26977 20.2061 14.3806C20.2061 19.4915 16.0629 23.6347 10.952 23.6347ZM10.952 22.7857C15.594 22.7857 19.3571 19.0226 19.3571 14.3806C19.3571 9.73865 15.594 5.97558 10.952 5.97558C6.31006 5.97558 2.54699 9.73865 2.54699 14.3806C2.54699 19.0226 6.31006 22.7857 10.952 22.7857Z" fill="black"/>
<path d="M10.9519 22.7857C15.5939 22.7857 19.357 19.0226 19.357 14.3806C19.357 9.73866 15.5939 5.97559 10.9519 5.97559C6.30995 5.97559 2.54688 9.73866 2.54688 14.3806C2.54688 19.0226 6.30995 22.7857 10.9519 22.7857Z" fill="white"/>
<path fill-rule="evenodd" clip-rule="evenodd" d="M4.66477 16.1024L3.55225 12.7506H4.52689L5.10693 14.6761L5.74877 12.7411H6.54275L7.18459 14.6761L7.76462 12.7506H8.72025L7.60773 16.1024H6.80424L6.13387 14.1864L5.46826 16.1024H4.66477ZM9.08634 16.0787V12.7506H11.7631V13.5351H9.99918V14.039H11.5966V14.7665H9.99918V15.2942H11.7868V16.0787H9.08634ZM13.0705 16.0787V13.5588H12.0721V12.7506H14.9913V13.5588H13.9929V16.0787H13.0705ZM15.3954 16.0787V12.7506H16.3177V13.9962H17.5016V12.7506H18.4239V16.0787H17.5016V14.814H16.3177V16.0787H15.3954Z" fill="black"/>
<path d="M0.551494 11.7495C0.316638 11.6321 0.221444 11.3465 0.338872 11.1117C0.4563 10.8768 0.741882 10.7816 0.976738 10.8991L2.33513 11.5782C2.56999 11.6957 2.66518 11.9813 2.54775 12.2161C2.43032 12.451 2.14474 12.5462 1.90989 12.4287L0.551494 11.7495Z" fill="black"/>
<path d="M0.394978 14.0018C0.156566 13.8918 0.0524925 13.6093 0.162522 13.3709C0.272552 13.1325 0.555019 13.0284 0.793431 13.1385L2.15182 13.7654C2.39023 13.8754 2.49431 14.1579 2.38428 14.3963C2.27425 14.6347 1.99178 14.7388 1.75337 14.6288L0.394978 14.0018Z" fill="black"/>
</g>
<g clip-path="url(#clip0_1_1237)">
<path d="M17.1429 13.6914C20.9174 13.6914 23.9772 10.6316 23.9772 6.85711C23.9772 3.08264 20.9174 0.0228271 17.1429 0.0228271C13.3684 0.0228271 10.3086 3.08264 10.3086 6.85711C10.3086 10.6316 13.3684 13.6914 17.1429 13.6914Z" fill="black"/>
<path d="M14.5523 7.72906C14.9136 7.72906 15.2661 7.60863 15.551 7.38834L13.2599 5.09729C12.7077 5.81104 12.8399 6.83908 13.5537 7.39128C13.8415 7.60863 14.1911 7.72906 14.5523 7.72906Z" fill="white"/>
<path d="M21.3666 6.09302C21.3666 5.73174 21.2462 5.37927 21.0259 5.09436L18.7349 7.38541C19.4486 7.93761 20.4737 7.80544 21.0259 7.09169C21.2462 6.80677 21.3666 6.4543 21.3666 6.09302Z" fill="white"/>
<path d="M22.521 3.59924L21.5076 4.61259C22.3242 5.5907 22.1949 7.04757 21.2168 7.86412C20.3592 8.58081 19.1138 8.58081 18.2561 7.86412L17.1429 8.97734L16.0326 7.86706C15.0545 8.68361 13.5976 8.55438 12.7811 7.57627C12.0644 6.7186 12.0644 5.47321 12.7811 4.61553L12.2612 4.09564L11.7677 3.59924C11.1715 4.58028 10.8572 5.70818 10.8572 6.85665C10.8572 10.3285 13.6711 13.1424 17.1429 13.1424C20.6147 13.1424 23.4286 10.3285 23.4286 6.85665C23.4315 5.70818 23.1143 4.58028 22.521 3.59924Z" fill="white"/>
<path d="M21.6898 2.51838C19.296 0.0070405 15.3189 -0.0869514 12.8076 2.3069C12.7342 2.3774 12.6637 2.44789 12.5961 2.51838C12.4404 2.68287 12.2936 2.85323 12.1555 3.0324L17.143 8.02278L22.1304 3.0324C21.9953 2.85323 21.8455 2.68287 21.6898 2.51838ZM17.143 1.39342C18.6116 1.39342 19.9803 1.96031 21.0084 2.99422L17.143 6.85963L13.2775 2.99422C14.3056 1.96031 15.6743 1.39342 17.143 1.39342Z" fill="white"/>
</g>
<defs>
<clipPath id="clip0_1_1237">
<rect width="13.7143" height="13.7143" fill="white" transform="translate(10.2856)"/>
</clipPath>
</defs>
</svg>
