<svg width="24" height="24" viewBox="0 0 24 24" fill="none" xmlns="http://www.w3.org/2000/svg">
<mask id="mask0_283_60852" style="mask-type:alpha" maskUnits="userSpaceOnUse" x="0" y="3" width="23" height="23">
<path d="M10.7041 3.43945C10.1619 4.45885 9.85449 5.62225 9.85449 6.85742C9.85464 10.8827 13.1173 14.1454 17.1426 14.1455C18.3776 14.1455 19.5403 13.837 20.5596 13.2949C20.5651 13.4339 20.5713 13.5735 20.5713 13.7139V15.5283C21.6233 16.627 22.2861 18.2231 22.2861 20C22.2861 23.3137 19.9829 26 17.1426 26C15.6198 25.9999 14.2522 25.2271 13.3105 24H0V3.42871H10.2861C10.4262 3.42872 10.5654 3.4339 10.7041 3.43945Z" fill="#FEFFFF"/>
</mask>
<g mask="url(#mask0_283_60852)">
<path d="M5.55264 23.7195C10.7595 23.7195 10.7595 23.6419 11.6424 23.3799C12.7961 23.0374 8.38487 19.9839 5.55264 19.9839C2.72041 19.9839 0.424438 20.8201 0.424438 21.8517C0.424438 22.8832 2.72053 23.7195 5.55264 23.7195Z" fill="black"/>
<path d="M17.376 7.83623L17.6155 8.09431L17.4061 8.3774C10.6154 17.559 6.70347 21.7162 5.04369 21.1586C4.03272 20.819 3.01886 19.7976 2.00497 18.3145C1.6486 17.7932 1.31395 17.2443 1.00958 16.698C0.806902 16.3342 0.635353 16.0024 0.546281 15.8156C0.432659 15.5772 0.384688 15.4304 0.34663 15.2375C0.344308 15.2257 0.344308 15.2257 0.342101 15.2143C0.326216 15.1325 0.320721 15.1066 0.308847 15.0618C0.104511 14.2917 0 13.4938 0 12.6825C0 7.57165 4.14318 3.42847 9.25405 3.42847C10.8552 3.42847 12.3982 3.83597 13.7657 4.60092L13.801 4.62301C14.9206 5.40249 16.1114 6.47354 17.376 7.83623ZM13.3331 5.33175C12.096 4.64373 10.7021 4.27746 9.25405 4.27746C4.61207 4.27746 0.848995 8.04053 0.848995 12.6825C0.848995 13.4202 0.94392 14.1449 1.12945 14.8441C1.14779 14.9132 1.15609 14.9523 1.17555 15.0526C1.1776 15.0631 1.1776 15.0631 1.17956 15.0731C1.20412 15.1976 1.23004 15.2769 1.31267 15.4503C1.39392 15.6207 1.55721 15.9365 1.75123 16.2848C2.04376 16.8098 2.36523 17.3371 2.70585 17.8354C3.62188 19.1753 4.53034 20.0905 5.31405 20.3538C6.3593 20.7049 10.2943 16.5395 16.5129 8.15692C15.3839 6.96524 14.3233 6.0235 13.3331 5.33175Z" fill="black"/>
<path d="M13.3331 5.33188C12.096 4.64385 10.7021 4.27759 9.25405 4.27759C4.61207 4.27759 0.848999 8.04066 0.848999 12.6826C0.848999 13.4203 0.943924 14.145 1.12945 14.8442C1.1478 14.9134 1.1561 14.9524 1.17556 15.0527C1.1776 15.0633 1.1776 15.0633 1.17957 15.0733C1.20413 15.1977 1.23004 15.277 1.31267 15.4504C1.39393 15.6209 1.55722 15.9367 1.75123 16.2849C2.04377 16.8099 2.36523 17.3372 2.70585 17.8355C3.62188 19.1755 4.53035 20.0906 5.31405 20.3539C6.35931 20.705 10.2943 16.5396 16.5129 8.15705C15.3839 6.96536 14.3233 6.02363 13.3331 5.33188Z" fill="#EC1C79"/>
<path d="M10.952 23.6346C5.84118 23.6346 1.698 19.4914 1.698 14.3805C1.698 9.26964 5.84118 5.12646 10.952 5.12646C16.0629 5.12646 20.2061 9.26964 20.2061 14.3805C20.2061 19.4914 16.0629 23.6346 10.952 23.6346ZM10.952 22.7856C15.594 22.7856 19.3571 19.0225 19.3571 14.3805C19.3571 9.73853 15.594 5.97546 10.952 5.97546C6.31006 5.97546 2.54699 9.73853 2.54699 14.3805C2.54699 19.0225 6.31006 22.7856 10.952 22.7856Z" fill="black"/>
<path d="M10.9521 22.7857C15.594 22.7857 19.3571 19.0226 19.3571 14.3806C19.3571 9.73866 15.594 5.97559 10.9521 5.97559C6.31007 5.97559 2.547 9.73866 2.547 14.3806C2.547 19.0226 6.31007 22.7857 10.9521 22.7857Z" fill="white"/>
<path fill-rule="evenodd" clip-rule="evenodd" d="M4.66465 16.1023L3.55212 12.7505H4.52677L5.1068 14.676L5.74864 12.741H6.54262L7.18447 14.676L7.7645 12.7505H8.72013L7.6076 16.1023H6.80412L6.13375 14.1863L5.46814 16.1023H4.66465ZM9.08622 16.0785V12.7505H11.7629V13.5349H9.99906V14.0389H11.5965V14.7663H9.99906V15.2941H11.7867V16.0785H9.08622ZM13.0704 16.0785V13.5587H12.072V12.7505H14.9911V13.5587H13.9927V16.0785H13.0704ZM15.3953 16.0785V12.7505H16.3176V13.9961H17.5015V12.7505H18.4238V16.0785H17.5015V14.8139H16.3176V16.0785H15.3953Z" fill="black"/>
<path d="M0.551494 11.7494C0.316638 11.632 0.221444 11.3464 0.338872 11.1116C0.4563 10.8767 0.741882 10.7815 0.976738 10.8989L2.33513 11.5781C2.56999 11.6956 2.66518 11.9811 2.54775 12.216C2.43032 12.4508 2.14474 12.546 1.90989 12.4286L0.551494 11.7494Z" fill="black"/>
<path d="M0.3951 14.0017C0.156689 13.8917 0.0526145 13.6092 0.162644 13.3708C0.272674 13.1324 0.555141 13.0283 0.793553 13.1384L2.15195 13.7653C2.39036 13.8753 2.49443 14.1578 2.3844 14.3962C2.27437 14.6346 1.9919 14.7387 1.75349 14.6286L0.3951 14.0017Z" fill="black"/>
</g>
<path d="M17.1429 0L13.6344 2.05944L14.9243 2.82026L17.1429 1.52163L19.3616 2.82026L20.6515 2.05944L17.1429 0Z" fill="#F0B90B"/>
<path d="M19.3616 3.89575L20.6515 4.65659V6.17821L18.4329 7.47684V10.0741L17.1429 10.8349L15.853 10.0741V7.47684L13.6344 6.17821V4.65659L14.9243 3.89575L17.1429 5.19441L19.3616 3.89575Z" fill="#F0B90B"/>
<path d="M20.6515 7.25391V8.77552L19.3616 9.53633V8.01471L20.6515 7.25391Z" fill="#F0B90B"/>
<path d="M19.3486 10.612L21.5673 9.31338V6.71613L22.8572 5.95532V10.0742L19.3486 12.1337V10.612Z" fill="#F0B90B"/>
<path d="M21.5672 4.11881L20.2773 3.35798L21.5672 2.59717L22.8571 3.35798V4.87962L21.5672 5.64043V4.11881Z" fill="#F0B90B"/>
<path d="M15.853 12.6847V11.1631L17.1429 11.9239L18.4329 11.1631V12.6847L17.1429 13.4455L15.853 12.6847Z" fill="#F0B90B"/>
<path d="M14.9243 9.53633L13.6344 8.77552V7.25391L14.9243 8.01471V9.53633Z" fill="#F0B90B"/>
<path d="M17.1429 4.11881L15.853 3.35798L17.1429 2.59717L18.4329 3.35798L17.1429 4.11881Z" fill="#F0B90B"/>
<path d="M14.0085 3.35798L12.7186 4.11881V5.64043L11.4287 4.87962V3.35798L12.7186 2.59717L14.0085 3.35798Z" fill="#F0B90B"/>
<path d="M11.4287 5.95532L12.7186 6.71613V9.31338L14.9373 10.612V12.1337L11.4287 10.0742V5.95532Z" fill="#F0B90B"/>
</svg>
