<svg width="24" height="24" viewBox="0 0 24 24" fill="none" xmlns="http://www.w3.org/2000/svg">
<g clip-path="url(#clip0_504_54556)">
<path d="M12 24C10.3803 24 8.80886 23.6825 7.32886 23.0568C5.89967 22.4523 4.61695 21.587 3.51457 20.4854C2.41304 19.3839 1.54773 18.1003 0.943202 16.6711C0.317505 15.1911 0 13.6197 0 12C0 10.3803 0.317505 8.80886 0.943202 7.32886C1.54773 5.89967 2.41304 4.61695 3.51457 3.51457C4.61695 2.41304 5.89967 1.54773 7.32886 0.943202C8.80886 0.317505 10.3803 0 12 0C13.6197 0 15.1911 0.317505 16.6711 0.943202C18.1003 1.54773 19.3831 2.41304 20.4854 3.51457C21.587 4.6161 22.4523 5.89967 23.0568 7.32886C23.6825 8.80886 24 10.3803 24 12C24 13.6197 23.6825 15.1911 23.0568 16.6711C22.4523 18.1003 21.587 19.3831 20.4854 20.4854C19.3839 21.587 18.1003 22.4523 16.6711 23.0568C15.1911 23.6833 13.6197 24 12 24Z" fill="white"/>
<path d="M12.0001 23.3642C18.2764 23.3642 23.3643 18.2763 23.3643 12C23.3643 5.72376 18.2764 0.635864 12.0001 0.635864C5.72389 0.635864 0.635986 5.72376 0.635986 12C0.635986 18.2763 5.72389 23.3642 12.0001 23.3642Z" fill="black"/>
<path d="M7.03929 12.5275C7.03929 13.5749 6.65236 14.1413 5.73709 14.1413C4.83115 14.1413 4.44421 13.5749 4.44421 12.5275V8.69629H3.02856V12.4513C3.02856 14.3293 3.96245 15.3571 5.73625 15.3571C7.51936 15.3571 8.45409 14.3284 8.45409 12.4513V8.69629H7.03929V12.5275Z" fill="white"/>
<path d="M12.5283 11.3963C11.4336 11.1889 10.9145 11.0754 10.9145 10.5378C10.9145 10.0281 11.3489 9.77322 11.9526 9.77322C12.6418 9.77322 13.066 10.1602 13.132 10.7164H14.5189C14.5028 9.64876 13.7941 8.90368 12.6358 8.69793V7.83093H11.3633V8.68862C10.2109 8.87912 9.48958 9.63436 9.48958 10.6419C9.48958 11.9814 10.4709 12.3404 11.5843 12.5478C12.6883 12.7645 13.226 12.878 13.226 13.4351C13.226 13.9541 12.7451 14.2369 12.094 14.2369C11.2828 14.2369 10.7731 13.7933 10.7257 13.1515L9.33887 13.1328C9.34649 14.2716 10.1051 15.0828 11.3633 15.3003V16.169H12.6358V15.319C13.8644 15.1378 14.6425 14.3538 14.6509 13.2734C14.6611 11.9433 13.6612 11.6037 12.5283 11.3963Z" fill="white"/>
<path d="M18.0029 8.69714H15.5967V15.3021H18.0029C20.0595 15.3021 21.4278 13.9245 21.4278 11.9899C21.4286 10.0459 20.0604 8.69714 18.0029 8.69714ZM18.0029 14.1227H17.0123V9.87657H18.0029C19.267 9.87657 19.9749 10.7258 19.9749 11.9899C19.9749 13.2447 19.2679 14.1227 18.0029 14.1227Z" fill="white"/>
</g>
<defs>
<clipPath id="clip0_504_54556">
<rect width="24" height="24" fill="white"/>
</clipPath>
</defs>
</svg>
