<svg width="24" height="24" viewBox="0 0 24 24" fill="none" xmlns="http://www.w3.org/2000/svg">
<mask id="mask0_1_1177" style="mask-type:alpha" maskUnits="userSpaceOnUse" x="0" y="3" width="23" height="23">
<path d="M10.7041 3.43945C10.1619 4.45885 9.85449 5.62225 9.85449 6.85742C9.85464 10.8827 13.1173 14.1454 17.1426 14.1455C18.3776 14.1455 19.5403 13.837 20.5596 13.2949C20.5651 13.4339 20.5713 13.5735 20.5713 13.7139V15.5283C21.6233 16.627 22.2861 18.2231 22.2861 20C22.2861 23.3137 19.9829 26 17.1426 26C15.6198 25.9999 14.2522 25.2271 13.3105 24H0V3.42871H10.2861C10.4262 3.42872 10.5654 3.4339 10.7041 3.43945Z" fill="#FEFFFF"/>
</mask>
<g mask="url(#mask0_1_1177)">
<path d="M5.55277 23.7196C10.7596 23.7196 10.7596 23.6421 11.6425 23.38C12.7963 23.0375 8.38499 19.984 5.55277 19.984C2.72054 19.984 0.424561 20.8202 0.424561 21.8518C0.424561 22.8834 2.72065 23.7196 5.55277 23.7196Z" fill="black"/>
<path d="M17.376 7.83635L17.6155 8.09444L17.4061 8.37752C10.6154 17.5591 6.70347 21.7163 5.04369 21.1587C4.03272 20.8191 3.01886 19.7977 2.00497 18.3146C1.6486 17.7933 1.31395 17.2444 1.00958 16.6981C0.806902 16.3343 0.635353 16.0026 0.546281 15.8157C0.432659 15.5773 0.384688 15.4305 0.34663 15.2376C0.344308 15.2258 0.344308 15.2258 0.342101 15.2144C0.326216 15.1326 0.320721 15.1067 0.308847 15.0619C0.104511 14.2918 0 13.4939 0 12.6826C0 7.57177 4.14318 3.42859 9.25405 3.42859C10.8552 3.42859 12.3982 3.83609 13.7657 4.60105L13.801 4.62314C14.9206 5.40261 16.1114 6.47366 17.376 7.83635ZM13.3331 5.33188C12.096 4.64385 10.7021 4.27758 9.25405 4.27758C4.61207 4.27758 0.848995 8.04065 0.848995 12.6826C0.848995 13.4203 0.94392 14.145 1.12945 14.8442C1.14779 14.9134 1.15609 14.9524 1.17555 15.0527C1.1776 15.0633 1.1776 15.0633 1.17956 15.0733C1.20412 15.1977 1.23004 15.277 1.31267 15.4504C1.39392 15.6209 1.55721 15.9367 1.75123 16.2849C2.04376 16.8099 2.36523 17.3372 2.70585 17.8355C3.62188 19.1755 4.53034 20.0906 5.31405 20.3539C6.3593 20.705 10.2943 16.5396 16.5129 8.15704C15.3839 6.96536 14.3233 6.02363 13.3331 5.33188Z" fill="black"/>
<path d="M13.3329 5.33188C12.0958 4.64385 10.702 4.27759 9.25393 4.27759C4.61195 4.27759 0.848877 8.04066 0.848877 12.6826C0.848877 13.4203 0.943802 14.145 1.12933 14.8442C1.14768 14.9134 1.15597 14.9524 1.17544 15.0527C1.17748 15.0633 1.17748 15.0633 1.17944 15.0733C1.20401 15.1977 1.22992 15.277 1.31255 15.4504C1.3938 15.6209 1.5571 15.9367 1.75111 16.2849C2.04364 16.8099 2.36511 17.3372 2.70573 17.8355C3.62176 19.1755 4.53022 20.0906 5.31393 20.3539C6.35918 20.705 10.2941 16.5396 16.5128 8.15705C15.3838 6.96536 14.3232 6.02363 13.3329 5.33188Z" fill="#EC1C79"/>
<path d="M10.952 23.6347C5.84118 23.6347 1.698 19.4915 1.698 14.3806C1.698 9.26977 5.84118 5.12659 10.952 5.12659C16.0629 5.12659 20.2061 9.26977 20.2061 14.3806C20.2061 19.4915 16.0629 23.6347 10.952 23.6347ZM10.952 22.7857C15.594 22.7857 19.3571 19.0226 19.3571 14.3806C19.3571 9.73865 15.594 5.97558 10.952 5.97558C6.31006 5.97558 2.54699 9.73865 2.54699 14.3806C2.54699 19.0226 6.31006 22.7857 10.952 22.7857Z" fill="black"/>
<path d="M10.9519 22.7857C15.5939 22.7857 19.357 19.0226 19.357 14.3806C19.357 9.73866 15.5939 5.97559 10.9519 5.97559C6.30995 5.97559 2.54688 9.73866 2.54688 14.3806C2.54688 19.0226 6.30995 22.7857 10.9519 22.7857Z" fill="white"/>
<path fill-rule="evenodd" clip-rule="evenodd" d="M4.66477 16.1024L3.55225 12.7506H4.52689L5.10693 14.6761L5.74877 12.7411H6.54275L7.18459 14.6761L7.76462 12.7506H8.72025L7.60773 16.1024H6.80424L6.13387 14.1864L5.46826 16.1024H4.66477ZM9.08634 16.0787V12.7506H11.7631V13.5351H9.99918V14.039H11.5966V14.7665H9.99918V15.2942H11.7868V16.0787H9.08634ZM13.0705 16.0787V13.5588H12.0721V12.7506H14.9913V13.5588H13.9929V16.0787H13.0705ZM15.3954 16.0787V12.7506H16.3177V13.9962H17.5016V12.7506H18.4239V16.0787H17.5016V14.814H16.3177V16.0787H15.3954Z" fill="black"/>
<path d="M0.551494 11.7495C0.316638 11.6321 0.221444 11.3465 0.338872 11.1117C0.4563 10.8768 0.741882 10.7816 0.976738 10.8991L2.33513 11.5782C2.56999 11.6957 2.66518 11.9813 2.54775 12.2161C2.43032 12.451 2.14474 12.5462 1.90989 12.4287L0.551494 11.7495Z" fill="black"/>
<path d="M0.394978 14.0018C0.156566 13.8918 0.0524925 13.6093 0.162522 13.3709C0.272552 13.1325 0.555019 13.0284 0.793431 13.1385L2.15182 13.7654C2.39023 13.8754 2.49431 14.1579 2.38428 14.3963C2.27425 14.6347 1.99178 14.7388 1.75337 14.6288L0.394978 14.0018Z" fill="black"/>
</g>
<g clip-path="url(#clip0_1_1177)">
<path d="M17.1428 13.7143C20.9299 13.7143 23.9999 10.6442 23.9999 6.85714C23.9999 3.07005 20.9299 0 17.1428 0C13.3557 0 10.2856 3.07005 10.2856 6.85714C10.2856 10.6442 13.3557 13.7143 17.1428 13.7143Z" fill="#E81899"/>
<path d="M21.043 8.62718L19.6477 6.76922C19.4961 6.56736 19.2716 6.44639 19.0327 6.41972C18.9782 6.41355 18.9296 6.38259 18.9024 6.33593C18.8747 6.28927 18.8718 6.23259 18.8937 6.18309C18.9894 5.96693 18.9952 5.716 18.8923 5.4865L17.9482 3.37333C17.8083 3.05954 17.4921 2.85718 17.1427 2.85718C16.7934 2.85718 16.4771 3.06002 16.3372 3.37333L15.3932 5.4865C15.2907 5.716 15.296 5.96693 15.3917 6.18309C15.4136 6.23259 15.4102 6.28927 15.383 6.33593C15.3553 6.38259 15.3072 6.41355 15.2528 6.41972C15.0138 6.44639 14.7893 6.56736 14.6377 6.76922L13.2424 8.62718C13.0354 8.90286 13.0145 9.27234 13.1889 9.56902C13.3638 9.86516 13.701 10.0323 14.0479 9.9947L16.3873 9.73943C16.6413 9.71184 16.8605 9.58182 17.0033 9.39234C17.0358 9.349 17.0878 9.32329 17.1427 9.32329C17.1976 9.32329 17.2491 9.349 17.2822 9.39234C17.425 9.58182 17.6441 9.71184 17.8982 9.73943L20.2375 9.9947C20.5844 10.0328 20.9216 9.86564 21.0965 9.56902C21.2709 9.27234 21.25 8.90286 21.043 8.62718ZM16.0034 5.75168L16.9488 3.63616C16.9829 3.56045 17.0591 3.51141 17.1432 3.51141C17.2273 3.51141 17.3035 3.56045 17.3376 3.63616L18.283 5.75168C18.3126 5.81838 18.3063 5.89552 18.2655 5.95643C18.2247 6.01739 18.1557 6.05404 18.0809 6.05404H16.2051C16.1307 6.05404 16.0612 6.01739 16.0205 5.95643C15.9796 5.89552 15.9733 5.81838 16.0029 5.75168H16.0034ZM16.4888 8.97239C16.4552 9.03759 16.3901 9.08141 16.3163 9.0895L13.9745 9.34472C13.891 9.35377 13.8094 9.31375 13.7671 9.24234C13.7248 9.17093 13.7302 9.08189 13.7802 9.01525L15.177 7.15541C15.2212 7.0968 15.2922 7.06348 15.3665 7.06777C15.4408 7.07157 15.5079 7.11207 15.5453 7.17539L15.5467 7.17775L16.482 8.76523L16.4834 8.76764C16.5209 8.83097 16.5228 8.90811 16.4893 8.97288L16.4888 8.97239ZM17.3351 8.25432C17.2953 8.3215 17.2224 8.36339 17.1427 8.36339C17.0635 8.36339 16.9901 8.32193 16.9503 8.25481L16.2318 7.03541C16.1919 6.96829 16.1919 6.88493 16.2318 6.8178C16.2716 6.75068 16.3445 6.70873 16.4242 6.70873H17.8608C17.94 6.70873 18.0134 6.74972 18.0532 6.81732C18.093 6.88493 18.093 6.9678 18.0532 7.03493L17.3351 8.25432ZM20.5188 9.24234C20.4766 9.31375 20.3954 9.35425 20.3114 9.3452L17.9696 9.08998C17.8958 9.08189 17.8307 9.03807 17.7971 8.97288C17.7636 8.90763 17.7655 8.83048 17.803 8.76764L17.8044 8.76523L18.7397 7.17775L18.7411 7.17539C18.7785 7.11207 18.8456 7.07157 18.92 7.06777C18.9943 7.06397 19.0652 7.0968 19.1094 7.15541L20.5062 9.01525C20.5562 9.08189 20.5611 9.17093 20.5193 9.24234H20.5188Z" fill="#FAFAFA"/>
</g>
<defs>
<clipPath id="clip0_1_1177">
<rect width="13.7143" height="13.7143" fill="white" transform="translate(10.2856)"/>
</clipPath>
</defs>
</svg>
