<svg width="24" height="24" viewBox="0 0 24 24" fill="none" xmlns="http://www.w3.org/2000/svg">
<mask id="mask0_1_1151" style="mask-type:alpha" maskUnits="userSpaceOnUse" x="0" y="3" width="23" height="23">
<path d="M10.7041 3.43945C10.1619 4.45885 9.85449 5.62225 9.85449 6.85742C9.85464 10.8827 13.1173 14.1454 17.1426 14.1455C18.3776 14.1455 19.5403 13.837 20.5596 13.2949C20.5651 13.4339 20.5713 13.5735 20.5713 13.7139V15.5283C21.6233 16.627 22.2861 18.2231 22.2861 20C22.2861 23.3137 19.9829 26 17.1426 26C15.6198 25.9999 14.2522 25.2271 13.3105 24H0V3.42871H10.2861C10.4262 3.42872 10.5654 3.4339 10.7041 3.43945Z" fill="#FEFFFF"/>
</mask>
<g mask="url(#mask0_1_1151)">
<path d="M5.55277 23.7196C10.7596 23.7196 10.7596 23.6421 11.6425 23.38C12.7963 23.0375 8.38499 19.984 5.55277 19.984C2.72054 19.984 0.424561 20.8202 0.424561 21.8518C0.424561 22.8834 2.72065 23.7196 5.55277 23.7196Z" fill="black"/>
<path d="M17.376 7.83635L17.6155 8.09444L17.4061 8.37752C10.6154 17.5591 6.70347 21.7163 5.04369 21.1587C4.03272 20.8191 3.01886 19.7977 2.00497 18.3146C1.6486 17.7933 1.31395 17.2444 1.00958 16.6981C0.806902 16.3343 0.635353 16.0026 0.546281 15.8157C0.432659 15.5773 0.384688 15.4305 0.34663 15.2376C0.344308 15.2258 0.344308 15.2258 0.342101 15.2144C0.326216 15.1326 0.320721 15.1067 0.308847 15.0619C0.104511 14.2918 0 13.4939 0 12.6826C0 7.57177 4.14318 3.42859 9.25405 3.42859C10.8552 3.42859 12.3982 3.83609 13.7657 4.60105L13.801 4.62314C14.9206 5.40261 16.1114 6.47366 17.376 7.83635ZM13.3331 5.33188C12.096 4.64385 10.7021 4.27758 9.25405 4.27758C4.61207 4.27758 0.848995 8.04065 0.848995 12.6826C0.848995 13.4203 0.94392 14.145 1.12945 14.8442C1.14779 14.9134 1.15609 14.9524 1.17555 15.0527C1.1776 15.0633 1.1776 15.0633 1.17956 15.0733C1.20412 15.1977 1.23004 15.277 1.31267 15.4504C1.39392 15.6209 1.55721 15.9367 1.75123 16.2849C2.04376 16.8099 2.36523 17.3372 2.70585 17.8355C3.62188 19.1755 4.53034 20.0906 5.31405 20.3539C6.3593 20.705 10.2943 16.5396 16.5129 8.15704C15.3839 6.96536 14.3233 6.02363 13.3331 5.33188Z" fill="black"/>
<path d="M13.3329 5.33188C12.0958 4.64385 10.702 4.27759 9.25393 4.27759C4.61195 4.27759 0.848877 8.04066 0.848877 12.6826C0.848877 13.4203 0.943802 14.145 1.12933 14.8442C1.14768 14.9134 1.15597 14.9524 1.17544 15.0527C1.17748 15.0633 1.17748 15.0633 1.17944 15.0733C1.20401 15.1977 1.22992 15.277 1.31255 15.4504C1.3938 15.6209 1.5571 15.9367 1.75111 16.2849C2.04364 16.8099 2.36511 17.3372 2.70573 17.8355C3.62176 19.1755 4.53022 20.0906 5.31393 20.3539C6.35918 20.705 10.2941 16.5396 16.5128 8.15705C15.3838 6.96536 14.3232 6.02363 13.3329 5.33188Z" fill="#EC1C79"/>
<path d="M10.952 23.6347C5.84118 23.6347 1.698 19.4915 1.698 14.3806C1.698 9.26977 5.84118 5.12659 10.952 5.12659C16.0629 5.12659 20.2061 9.26977 20.2061 14.3806C20.2061 19.4915 16.0629 23.6347 10.952 23.6347ZM10.952 22.7857C15.594 22.7857 19.3571 19.0226 19.3571 14.3806C19.3571 9.73865 15.594 5.97558 10.952 5.97558C6.31006 5.97558 2.54699 9.73865 2.54699 14.3806C2.54699 19.0226 6.31006 22.7857 10.952 22.7857Z" fill="black"/>
<path d="M10.9519 22.7857C15.5939 22.7857 19.357 19.0226 19.357 14.3806C19.357 9.73866 15.5939 5.97559 10.9519 5.97559C6.30995 5.97559 2.54688 9.73866 2.54688 14.3806C2.54688 19.0226 6.30995 22.7857 10.9519 22.7857Z" fill="white"/>
<path fill-rule="evenodd" clip-rule="evenodd" d="M4.66477 16.1024L3.55225 12.7506H4.52689L5.10693 14.6761L5.74877 12.7411H6.54275L7.18459 14.6761L7.76462 12.7506H8.72025L7.60773 16.1024H6.80424L6.13387 14.1864L5.46826 16.1024H4.66477ZM9.08634 16.0787V12.7506H11.7631V13.5351H9.99918V14.039H11.5966V14.7665H9.99918V15.2942H11.7868V16.0787H9.08634ZM13.0705 16.0787V13.5588H12.0721V12.7506H14.9913V13.5588H13.9929V16.0787H13.0705ZM15.3954 16.0787V12.7506H16.3177V13.9962H17.5016V12.7506H18.4239V16.0787H17.5016V14.814H16.3177V16.0787H15.3954Z" fill="black"/>
<path d="M0.551494 11.7495C0.316638 11.6321 0.221444 11.3465 0.338872 11.1117C0.4563 10.8768 0.741882 10.7816 0.976738 10.8991L2.33513 11.5782C2.56999 11.6957 2.66518 11.9813 2.54775 12.2161C2.43032 12.451 2.14474 12.5462 1.90989 12.4287L0.551494 11.7495Z" fill="black"/>
<path d="M0.394978 14.0018C0.156566 13.8918 0.0524925 13.6093 0.162522 13.3709C0.272552 13.1325 0.555019 13.0284 0.793431 13.1385L2.15182 13.7654C2.39023 13.8754 2.49431 14.1579 2.38428 14.3963C2.27425 14.6347 1.99178 14.7388 1.75337 14.6288L0.394978 14.0018Z" fill="black"/>
</g>
<g clip-path="url(#clip0_1_1151)">
<path d="M17.1428 13.7143C18.499 13.7143 19.8248 13.3121 20.9524 12.5587C22.0801 11.8052 22.959 10.7342 23.478 9.48126C23.997 8.22828 24.1328 6.84954 23.8682 5.51938C23.6036 4.18923 22.9505 2.9674 21.9915 2.00841C21.0325 1.04943 19.8107 0.396346 18.4805 0.131761C17.1504 -0.132823 15.7717 0.0029711 14.5187 0.521972C13.2657 1.04097 12.1948 1.91987 11.4413 3.04752C10.6878 4.17517 10.2856 5.50093 10.2856 6.85715C10.2856 8.67577 11.0081 10.4199 12.2941 11.7059C13.58 12.9918 15.3242 13.7143 17.1428 13.7143Z" fill="#2C374B"/>
<path d="M20.5955 8.10887L18.7814 5.35754L18.1465 6.43389L19.8819 9.3001L20.6378 8.93124L20.5955 8.10887Z" fill="#24A2EE"/>
<path d="M19.7187 9.6085L17.9047 6.85718L17.1367 8.06655L18.5759 10.3704L19.495 9.9955L19.7187 9.6085Z" fill="#24A2EE"/>
<path fill-rule="evenodd" clip-rule="evenodd" d="M13.7868 4.92821L17.1428 3.02345L20.4988 4.95845V8.81635L17.1428 10.7513L14.6817 9.30009L14.3552 9.83827L17.0521 11.3923C17.08 11.4071 17.1112 11.4149 17.1428 11.4149C17.1744 11.4149 17.2056 11.4071 17.2335 11.3923L21.0309 9.20334C21.0594 9.18845 21.0831 9.16576 21.0991 9.13792C21.1152 9.11008 21.123 9.07824 21.1216 9.04613V4.6682C21.123 4.63608 21.1152 4.60425 21.0991 4.57641C21.0831 4.54857 21.0594 4.52587 21.0309 4.51098L17.2335 2.32201C17.2056 2.30719 17.1744 2.29944 17.1428 2.29944C17.1112 2.29944 17.08 2.30719 17.0521 2.32201L13.2547 4.51098C13.2262 4.52587 13.2025 4.54857 13.1865 4.57641C13.1704 4.60425 13.1626 4.63608 13.164 4.6682V9.07031C13.1626 9.10243 13.1704 9.13426 13.1865 9.1621C13.2025 9.18994 13.2262 9.21264 13.2547 9.22753L14.0105 9.66291L14.3492 9.13683L13.7868 8.8103V4.92821Z" fill="#98BCDC"/>
<path d="M18.6001 4.97058H17.306L14.3491 9.80807L15.3952 10.4128L18.6001 4.97058Z" fill="#FDFDFD"/>
<path d="M15.3833 5.4422C15.6796 4.95845 16.5261 4.95845 16.9131 5.01892L14.0106 9.66896L13.4785 9.36661C13.2306 9.22149 13.1882 9.21544 13.1641 9.08846V8.82844C13.7808 7.86094 15.087 5.89571 15.3833 5.4422Z" fill="#FDFDFD"/>
</g>
<defs>
<clipPath id="clip0_1_1151">
<rect width="13.7143" height="13.7143" fill="white" transform="translate(10.2856)"/>
</clipPath>
</defs>
</svg>
