<svg width="24" height="24" viewBox="0 0 24 24" fill="none" xmlns="http://www.w3.org/2000/svg">
<mask id="mask0_283_60860" style="mask-type:alpha" maskUnits="userSpaceOnUse" x="0" y="3" width="23" height="23">
<path d="M10.7041 3.43945C10.1619 4.45885 9.85449 5.62225 9.85449 6.85742C9.85464 10.8827 13.1173 14.1454 17.1426 14.1455C18.3776 14.1455 19.5403 13.837 20.5596 13.2949C20.5651 13.4339 20.5713 13.5735 20.5713 13.7139V15.5283C21.6233 16.627 22.2861 18.2231 22.2861 20C22.2861 23.3137 19.9829 26 17.1426 26C15.6198 25.9999 14.2522 25.2271 13.3105 24H0V3.42871H10.2861C10.4262 3.42872 10.5654 3.4339 10.7041 3.43945Z" fill="#FEFFFF"/>
</mask>
<g mask="url(#mask0_283_60860)">
<g clip-path="url(#clip0_283_60860)">
<path d="M20.2637 16.2038C18.8898 21.7147 13.3082 25.0685 7.79662 23.6942C2.2874 22.3204 -1.06641 16.7384 0.308077 11.228C1.68136 5.71646 7.26299 2.3624 12.7728 3.73629C18.2839 5.11017 21.6376 10.6928 20.2635 16.2039L20.2636 16.2038H20.2637Z" fill="#F7931A"/>
<path d="M14.8219 12.2497C15.0267 10.8807 13.9844 10.1448 12.5593 9.65394L13.0216 7.79956L11.8928 7.51829L11.4427 9.32384C11.1459 9.24983 10.8412 9.18009 10.5383 9.11095L10.9916 7.29348L9.86352 7.01221L9.40093 8.86598C9.15536 8.81007 8.91416 8.75481 8.68015 8.69658L8.68146 8.69075L7.1248 8.30202L6.82452 9.50767C6.82452 9.50767 7.66201 9.69964 7.64436 9.71146C8.10146 9.82555 8.18413 10.1281 8.1704 10.368L7.64375 12.4806C7.67523 12.4885 7.71606 12.5001 7.76111 12.5182C7.72345 12.5089 7.68338 12.4987 7.64179 12.4887L6.90361 15.4481C6.84775 15.587 6.70596 15.7954 6.38637 15.7163C6.39768 15.7326 5.56593 15.5115 5.56593 15.5115L5.00549 16.8036L6.47446 17.1698C6.74774 17.2384 7.01554 17.3101 7.27926 17.3775L6.81215 19.2531L7.93966 19.5344L8.40225 17.6787C8.71027 17.7623 9.00919 17.8394 9.30183 17.9121L8.8408 19.7591L9.96967 20.0404L10.4367 18.1683C12.3616 18.5326 13.8089 18.3857 14.4182 16.6446C14.909 15.2429 14.3937 14.4344 13.3811 13.9071C14.1186 13.737 14.6742 13.2519 14.8223 12.2498L14.822 12.2496L14.8219 12.2497ZM12.2428 15.8662C11.894 17.2679 9.53388 16.5102 8.7687 16.3202L9.38857 13.8353C10.1537 14.0263 12.6074 14.4043 12.2429 15.8662H12.2428ZM12.5919 12.2293C12.2737 13.5044 10.3094 12.8566 9.67215 12.6978L10.2341 10.4441C10.8714 10.6029 12.9234 10.8994 12.592 12.2293H12.5919Z" fill="white"/>
</g>
</g>
<path d="M17.1429 0L13.6344 2.05944L14.9243 2.82026L17.1429 1.52163L19.3616 2.82026L20.6515 2.05944L17.1429 0Z" fill="#F0B90B"/>
<path d="M19.3616 3.89575L20.6515 4.65659V6.17821L18.4329 7.47684V10.0741L17.1429 10.8349L15.853 10.0741V7.47684L13.6344 6.17821V4.65659L14.9243 3.89575L17.1429 5.19441L19.3616 3.89575Z" fill="#F0B90B"/>
<path d="M20.6515 7.25391V8.77552L19.3616 9.53633V8.01471L20.6515 7.25391Z" fill="#F0B90B"/>
<path d="M19.3486 10.612L21.5673 9.31338V6.71613L22.8572 5.95532V10.0742L19.3486 12.1337V10.612Z" fill="#F0B90B"/>
<path d="M21.5672 4.11881L20.2773 3.35798L21.5672 2.59717L22.8571 3.35798V4.87962L21.5672 5.64043V4.11881Z" fill="#F0B90B"/>
<path d="M15.853 12.6847V11.1631L17.1429 11.9239L18.4329 11.1631V12.6847L17.1429 13.4455L15.853 12.6847Z" fill="#F0B90B"/>
<path d="M14.9243 9.53633L13.6344 8.77552V7.25391L14.9243 8.01471V9.53633Z" fill="#F0B90B"/>
<path d="M17.1429 4.11881L15.853 3.35798L17.1429 2.59717L18.4329 3.35798L17.1429 4.11881Z" fill="#F0B90B"/>
<path d="M14.0085 3.35798L12.7186 4.11881V5.64043L11.4287 4.87962V3.35798L12.7186 2.59717L14.0085 3.35798Z" fill="#F0B90B"/>
<path d="M11.4287 5.95532L12.7186 6.71613V9.31338L14.9373 10.612V12.1337L11.4287 10.0742V5.95532Z" fill="#F0B90B"/>
<defs>
<clipPath id="clip0_283_60860">
<rect width="20.5714" height="20.5714" fill="white" transform="translate(0 3.42847)"/>
</clipPath>
</defs>
</svg>
