<svg width="24" height="24" viewBox="0 0 24 24" fill="none" xmlns="http://www.w3.org/2000/svg">
<mask id="mask0_283_60859" style="mask-type:alpha" maskUnits="userSpaceOnUse" x="0" y="3" width="23" height="23">
<path d="M10.7041 3.43945C10.1619 4.45885 9.85449 5.62225 9.85449 6.85742C9.85464 10.8827 13.1173 14.1454 17.1426 14.1455C18.3776 14.1455 19.5403 13.837 20.5596 13.2949C20.5651 13.4339 20.5713 13.5735 20.5713 13.7139V15.5283C21.6233 16.627 22.2861 18.2231 22.2861 20C22.2861 23.3137 19.9829 26 17.1426 26C15.6198 25.9999 14.2522 25.2271 13.3105 24H0V3.42871H10.2861C10.4262 3.42872 10.5654 3.4339 10.7041 3.43945Z" fill="#FEFFFF"/>
</mask>
<g mask="url(#mask0_283_60859)">
<g clip-path="url(#clip0_283_60859)">
<circle cx="10.2857" cy="13.7759" r="10.2857" fill="white"/>
<path d="M10.2838 24.0617C8.24967 24.0613 6.2613 23.4578 4.57011 22.3274C2.87892 21.1971 1.56087 19.5906 0.782598 17.7113C0.00432976 15.8319 -0.199203 13.7639 0.197734 11.7688C0.59467 9.77379 1.57425 7.94122 3.01262 6.50285C4.45099 5.06449 6.28356 4.0849 8.27861 3.68797C10.2737 3.29103 12.3416 3.49456 14.221 4.27283C16.1004 5.0511 17.7068 6.36915 18.8372 8.06034C19.9675 9.75153 20.5711 11.7399 20.5714 13.7741C20.5717 15.1251 20.3058 16.463 19.7888 17.7113C19.2719 18.9595 18.5142 20.0937 17.5588 21.0491C16.6035 22.0044 15.4693 22.7622 14.221 23.2791C12.9728 23.796 11.6349 24.0619 10.2838 24.0617ZM10.2838 4.29231C8.40975 4.2938 6.57817 4.85084 5.02059 5.89304C3.46301 6.93523 2.24937 8.41579 1.53304 10.1476C0.816719 11.8794 0.629878 13.7846 0.996133 15.6226C1.36239 17.4605 2.2653 19.1487 3.59074 20.4736C4.91619 21.7985 6.60467 22.7007 8.44276 23.0663C10.2809 23.4318 12.1861 23.2442 13.9176 22.5272C15.6491 21.8102 17.1291 20.5959 18.1707 19.038C19.2123 17.48 19.7686 15.6482 19.7694 13.7741C19.7699 12.5285 19.5248 11.295 19.0483 10.1441C18.5717 8.99325 17.873 7.94763 16.992 7.06702C16.111 6.18641 15.0651 5.48808 13.9141 5.01198C12.7631 4.53587 11.5295 4.29132 10.2838 4.29231Z" fill="#0050FF"/>
<path d="M14.822 12.2499C15.0268 10.8809 13.9845 10.1451 12.5594 9.65418L13.0217 7.79981L11.8929 7.51853L11.4428 9.32408C11.1461 9.25007 10.8413 9.18033 10.5384 9.11119L10.9918 7.29372L9.86364 7.01245L9.40106 8.86622C9.15548 8.81031 8.91428 8.75505 8.68027 8.69682L8.68158 8.69099L7.12492 8.30227L6.82464 9.50791C6.82464 9.50791 7.66213 9.69989 7.64448 9.7117C8.10159 9.82579 8.18425 10.1284 8.17052 10.3682L7.64388 12.4808C7.67535 12.4888 7.71618 12.5004 7.76123 12.5185C7.72357 12.5091 7.6835 12.4989 7.64191 12.4889L6.90373 15.4483C6.84787 15.5872 6.70608 15.7956 6.38649 15.7165C6.3978 15.7329 5.56605 15.5118 5.56605 15.5118L5.00562 16.8039L6.47458 17.1701C6.74786 17.2386 7.01566 17.3103 7.27939 17.3777L6.81227 19.2534L7.93978 19.5347L8.40237 17.6789C8.71039 17.7625 9.00932 17.8397 9.30195 17.9124L8.84092 19.7594L9.96979 20.0406L10.4369 18.1685C12.3617 18.5328 13.8091 18.3859 14.4183 16.6449C14.9092 15.2431 14.3938 14.4346 13.3812 13.9074C14.1187 13.7373 14.6743 13.2522 14.8224 12.2501L14.8221 12.2498L14.822 12.2499ZM12.243 15.8664C11.8941 17.2682 9.534 16.5104 8.76882 16.3204L9.38869 13.8355C10.1538 14.0265 12.6075 14.4046 12.243 15.8664H12.243ZM12.5921 12.2296C12.2738 13.5046 10.3095 12.8568 9.67227 12.698L10.2343 10.4444C10.8715 10.6032 12.9236 10.8996 12.5922 12.2296H12.5921Z" fill="#0052FF"/>
</g>
</g>
<g clip-path="url(#clip1_283_60859)">
<path d="M17.1429 13.7143C20.93 13.7143 24.0001 10.6442 24.0001 6.85714C24.0001 3.07005 20.93 0 17.1429 0C13.3558 0 10.2858 3.07005 10.2858 6.85714C10.2858 10.6442 13.3558 13.7143 17.1429 13.7143Z" fill="#0052FF"/>
<path d="M17.1732 11.6224C19.8309 11.6224 21.9854 9.47162 21.9854 6.81852C21.9854 4.16542 19.8309 2.01465 17.1732 2.01465C14.6517 2.01465 12.5831 3.95057 12.3777 6.41472H18.7384V7.22233H12.3777C12.5831 9.68645 14.6517 11.6224 17.1732 11.6224Z" fill="white"/>
</g>
<defs>
<clipPath id="clip0_283_60859">
<rect width="20.5714" height="20.5714" fill="white" transform="translate(0 3.42847)"/>
</clipPath>
<clipPath id="clip1_283_60859">
<rect width="13.7143" height="13.7143" fill="white" transform="translate(10.2858)"/>
</clipPath>
</defs>
</svg>
