<svg width="24" height="24" viewBox="0 0 24 24" fill="none" xmlns="http://www.w3.org/2000/svg">
<mask id="mask0_283_60864" style="mask-type:alpha" maskUnits="userSpaceOnUse" x="0" y="3" width="23" height="23">
<path d="M10.7041 3.43945C10.1619 4.45885 9.85449 5.62225 9.85449 6.85742C9.85464 10.8827 13.1173 14.1454 17.1426 14.1455C18.3776 14.1455 19.5403 13.837 20.5596 13.2949C20.5651 13.4339 20.5713 13.5735 20.5713 13.7139V15.5283C21.6233 16.627 22.2861 18.2231 22.2861 20C22.2861 23.3137 19.9829 26 17.1426 26C15.6198 25.9999 14.2522 25.2271 13.3105 24H0V3.42871H10.2861C10.4262 3.42872 10.5654 3.4339 10.7041 3.43945Z" fill="#FEFFFF"/>
</mask>
<g mask="url(#mask0_283_60864)">
<g clip-path="url(#clip0_283_60864)">
<circle cx="10.2857" cy="13.7142" r="10.2857" fill="white"/>
<path d="M16.7738 7.7456L16.209 8.31044C17.5568 9.78435 18.3042 11.7093 18.3042 13.7065C18.3042 15.7038 17.5568 17.6287 16.209 19.1026L16.7738 19.6675C18.2727 18.0416 19.1049 15.9113 19.1049 13.6999C19.1049 11.4886 18.2727 9.35825 16.7738 7.73242V7.7456Z" fill="#5A5564"/>
<path d="M4.89528 7.79459C6.36919 6.44679 8.29413 5.69936 10.2914 5.69936C12.2886 5.69936 14.2136 6.44679 15.6875 7.79459L16.2523 7.22975C14.6265 5.73085 12.4961 4.89868 10.2848 4.89868C8.07345 4.89868 5.94309 5.73085 4.31726 7.22975L4.89528 7.79459Z" fill="#5A5564"/>
<path d="M4.36624 19.1085C3.02004 17.6349 2.2736 15.7111 2.2736 13.7152C2.2736 11.7193 3.02004 9.7955 4.36624 8.32192L3.8014 7.75708C2.30251 9.38291 1.47034 11.5133 1.47034 13.7246C1.47034 15.9359 2.30251 18.0663 3.8014 19.6921L4.36624 19.1085Z" fill="#5A5564"/>
<path d="M15.6799 19.6299C14.206 20.9777 12.2811 21.7251 10.2838 21.7251C8.28657 21.7251 6.36163 20.9777 4.88771 19.6299L4.32288 20.1947C5.94871 21.6936 8.07906 22.5258 10.2904 22.5258C12.5017 22.5258 14.6321 21.6936 16.2579 20.1947L15.6799 19.6299Z" fill="#5A5564"/>
<path d="M13.8518 11.8294C13.7388 10.6508 12.7221 10.2554 11.4361 10.1349V8.51196H10.442V10.1048C10.1803 10.1048 9.91294 10.1048 9.64747 10.1048V8.51196H8.66088V10.1462H6.64441V11.21C6.64441 11.21 7.3787 11.1968 7.3674 11.21C7.4998 11.1954 7.63268 11.2328 7.73805 11.3143C7.84342 11.3958 7.91304 11.515 7.93224 11.6468V16.1203C7.92941 16.1668 7.91729 16.2123 7.89659 16.254C7.8759 16.2957 7.84704 16.3328 7.81174 16.3632C7.7771 16.3942 7.73656 16.4178 7.69256 16.4327C7.64856 16.4476 7.602 16.4534 7.55568 16.4498C7.56886 16.4611 6.83269 16.4498 6.83269 16.4498L6.64441 17.6379H8.64206V19.2985H9.63617V17.6624H10.4307V19.291H11.4267V17.6492C13.1062 17.5475 14.2773 17.1333 14.4241 15.5612C14.5427 14.2959 13.9478 13.7311 12.997 13.5033C13.575 13.219 13.9327 12.6918 13.8518 11.8294ZM12.4585 15.3653C12.4585 16.6005 10.3422 16.4592 9.66818 16.4592V14.2677C10.3422 14.2696 12.4585 14.0756 12.4585 15.3653ZM11.9972 12.2776C11.9972 13.4072 10.2311 13.2698 9.67006 13.2698V11.2778C10.2311 11.2778 11.9972 11.1008 11.9972 12.2776Z" fill="#F09242"/>
<path d="M10.2838 23.9999C8.24967 23.9995 6.2613 23.396 4.57011 22.2657C2.87892 21.1353 1.56087 19.5289 0.782598 17.6495C0.00432976 15.7701 -0.199203 13.7021 0.197734 11.7071C0.59467 9.71202 1.57425 7.87946 3.01262 6.44109C4.45099 5.00272 6.28356 4.02314 8.27861 3.6262C10.2737 3.22926 12.3416 3.4328 14.221 4.21106C16.1004 4.98933 17.7068 6.30739 18.8372 7.99857C19.9675 9.68976 20.5711 11.6781 20.5714 13.7123C20.5717 15.0634 20.3058 16.4012 19.7888 17.6495C19.2719 18.8977 18.5142 20.0319 17.5588 20.9873C16.6035 21.9426 15.4693 22.7004 14.221 23.2173C12.9728 23.7342 11.6349 24.0001 10.2838 23.9999ZM10.2838 4.23054C8.40975 4.23203 6.57817 4.78908 5.02059 5.83127C3.46301 6.87346 2.24937 8.35402 1.53304 10.0858C0.816719 11.8176 0.629878 13.7229 0.996133 15.5608C1.36239 17.3988 2.2653 19.0869 3.59074 20.4118C4.91619 21.7367 6.60467 22.639 8.44276 23.0045C10.2809 23.37 12.1861 23.1824 13.9176 22.4654C15.6491 21.7484 17.1291 20.5342 18.1707 18.9762C19.2123 17.4182 19.7686 15.5864 19.7694 13.7123C19.7699 12.4667 19.5248 11.2332 19.0483 10.0823C18.5717 8.93148 17.873 7.88586 16.992 7.00525C16.111 6.12464 15.0651 5.42631 13.9141 4.95021C12.7631 4.4741 11.5295 4.22955 10.2838 4.23054Z" fill="#282138"/>
</g>
</g>
<path d="M17.1429 13.7143C20.93 13.7143 24.0001 10.6442 24.0001 6.85714C24.0001 3.07005 20.93 0 17.1429 0C13.3558 0 10.2858 3.07005 10.2858 6.85714C10.2858 10.6442 13.3558 13.7143 17.1429 13.7143Z" fill="#6C00F6"/>
<path d="M19.126 8.33691L21.066 7.21669C21.1687 7.15733 21.2323 7.04701 21.2323 6.9283V4.68813C21.2323 4.5697 21.1685 4.4591 21.066 4.39974L19.126 3.27952C19.0232 3.22016 18.8958 3.22044 18.7931 3.27952L16.853 4.39974C16.7503 4.4591 16.6867 4.5697 16.6867 4.68813V8.69165L15.3263 9.47702L13.9658 8.69165V7.12065L15.3263 6.33529L16.2236 6.85326V5.7994L15.4926 5.37746C15.4422 5.34834 15.3845 5.33294 15.326 5.33294C15.2675 5.33294 15.2098 5.34834 15.1597 5.37746L13.2197 6.49768C13.1169 6.55704 13.0533 6.66735 13.0533 6.78607V9.02624C13.0533 9.14467 13.1172 9.25527 13.2197 9.31462L15.1597 10.4348C15.2622 10.4939 15.3898 10.4939 15.4926 10.4348L17.4326 9.3149C17.5354 9.25555 17.5989 9.14495 17.5989 9.02652V5.02299L17.6236 5.009L18.9594 4.23763L20.3198 5.02299V6.594L18.9594 7.37936L18.0634 6.86194V7.91581L18.7931 8.33719C18.8958 8.39627 19.0232 8.39627 19.126 8.33719V8.33691Z" fill="white"/>
<defs>
<clipPath id="clip0_283_60864">
<rect width="20.5714" height="20.5714" fill="white" transform="translate(0 3.42847)"/>
</clipPath>
</defs>
</svg>
