<svg width="24" height="24" viewBox="0 0 24 24" fill="none" xmlns="http://www.w3.org/2000/svg">
<mask id="mask0_283_60831" style="mask-type:alpha" maskUnits="userSpaceOnUse" x="0" y="3" width="23" height="23">
<path d="M10.7041 3.43945C10.1619 4.45885 9.85449 5.62225 9.85449 6.85742C9.85464 10.8827 13.1173 14.1454 17.1426 14.1455C18.3776 14.1455 19.5403 13.837 20.5596 13.2949C20.5651 13.4339 20.5713 13.5735 20.5713 13.7139V15.5283C21.6233 16.627 22.2861 18.2231 22.2861 20C22.2861 23.3137 19.9829 26 17.1426 26C15.6198 25.9999 14.2522 25.2271 13.3105 24H0V3.42871H10.2861C10.4262 3.42872 10.5654 3.4339 10.7041 3.43945Z" fill="#FEFFFF"/>
</mask>
<g mask="url(#mask0_283_60831)">
<path d="M5.14282 6.85718H15.4285L18.4285 12L10.2857 19.7143L2.14282 12L5.14282 6.85718Z" fill="#FDFDFD"/>
<path fill-rule="evenodd" clip-rule="evenodd" d="M4.48022 5.14282H16.3291C16.6119 5.14282 16.8731 5.29542 17.0141 5.54299L20.4661 11.6042C20.6451 11.9185 20.592 12.3153 20.3366 12.5702L10.8347 22.0552C10.5269 22.3625 10.0317 22.3625 9.72392 22.0552L0.234813 12.583C-0.0264695 12.3222 -0.0753964 11.9139 0.116739 11.5976L3.80674 5.52354C3.95045 5.28699 4.20547 5.14282 4.48022 5.14282ZM14.7992 7.84895V9.54964H11.4239V10.7288C13.7945 10.8548 15.5731 11.3723 15.5863 11.9926L15.5862 13.2858C15.573 13.9061 13.7945 14.4236 11.4239 14.5497V17.4434H9.18271V14.5497C6.81212 14.4236 5.03357 13.9061 5.02041 13.2858L5.02045 11.9926C5.03366 11.3723 6.81212 10.8548 9.18271 10.7288V9.54964H5.80742V7.84895H14.7992ZM10.3034 13.6612C12.8332 13.6612 14.9477 13.2236 15.4651 12.6392C15.0263 12.1437 13.439 11.7536 11.4239 11.6465V12.8811C11.0628 12.9003 10.6879 12.9104 10.3034 12.9104C9.91881 12.9104 9.5439 12.9003 9.18271 12.8811V11.6465C7.16762 11.7536 5.58035 12.1437 5.14153 12.6392C5.659 13.2236 7.77351 13.6612 10.3034 13.6612Z" fill="#009393"/>
</g>
<g clip-path="url(#clip0_283_60831)">
<path d="M17.1429 0.822754V3.39418C14.5029 3.39418 12.3772 5.5199 12.3772 8.1599C12.3772 10.7999 14.5029 12.9256 17.1429 12.9256V10.3542C19.7829 10.3542 21.9086 8.22847 21.9086 5.58847C21.9086 2.94847 19.7829 0.822754 17.1429 0.822754ZM17.1772 9.22275C16.6629 8.19418 15.8743 7.40561 14.8458 6.89133C15.8743 6.34275 16.6629 5.55418 17.1772 4.49133C17.6915 5.5199 18.4801 6.30847 19.5086 6.82275C18.4801 7.37133 17.6915 8.1599 17.1772 9.22275Z" fill="white"/>
<path d="M17.1773 4.49146C16.663 5.55431 15.8744 6.34288 14.8458 6.89146C15.8744 7.40574 16.663 8.19431 17.1773 9.22288C17.6915 8.16003 18.4801 7.37145 19.5087 6.82288C18.4801 6.3086 17.6915 5.52003 17.1773 4.49146Z" fill="#FF0420"/>
<path d="M17.1429 0C13.3715 0 10.2858 3.08571 10.2858 6.85714C10.2858 10.6286 13.3715 13.7143 17.1429 13.7143C20.9143 13.7143 24.0001 10.6286 24.0001 6.85714C24.0001 3.08571 20.9143 0 17.1429 0ZM17.1429 10.3543V12.9257C14.5029 12.9257 12.3772 10.8 12.3772 8.16C12.3772 5.52 14.5029 3.39429 17.1429 3.39429V0.822857C19.7829 0.822857 21.9086 2.94857 21.9086 5.58857C21.9086 8.22857 19.7829 10.3543 17.1429 10.3543Z" fill="#FF0420"/>
</g>
<defs>
<clipPath id="clip0_283_60831">
<rect width="13.7143" height="13.7143" fill="white" transform="translate(10.2858)"/>
</clipPath>
</defs>
</svg>
