<svg width="24" height="24" viewBox="0 0 24 24" fill="none" xmlns="http://www.w3.org/2000/svg">
<mask id="mask0_283_60842" style="mask-type:alpha" maskUnits="userSpaceOnUse" x="0" y="3" width="23" height="23">
<path d="M10.7041 3.43945C10.1619 4.45885 9.85449 5.62225 9.85449 6.85742C9.85464 10.8827 13.1173 14.1454 17.1426 14.1455C18.3776 14.1455 19.5403 13.837 20.5596 13.2949C20.5651 13.4339 20.5713 13.5735 20.5713 13.7139V15.5283C21.6233 16.627 22.2861 18.2231 22.2861 20C22.2861 23.3137 19.9829 26 17.1426 26C15.6198 25.9999 14.2522 25.2271 13.3105 24H0V3.42871H10.2861C10.4262 3.42872 10.5654 3.4339 10.7041 3.43945Z" fill="#FEFFFF"/>
</mask>
<g mask="url(#mask0_283_60842)">
<path d="M10.2857 23.9999C15.9664 23.9999 20.5714 19.3948 20.5714 13.7142C20.5714 8.03354 15.9664 3.42847 10.2857 3.42847C4.60507 3.42847 0 8.03354 0 13.7142C0 19.3948 4.60507 23.9999 10.2857 23.9999Z" fill="#2775CA"/>
<path d="M8.35713 20.8659C8.35713 21.107 8.16427 21.2436 7.93927 21.1712C4.82141 20.1748 2.57141 17.2659 2.57141 13.8186C2.57141 10.3793 4.82141 7.46232 7.93927 6.46589C8.1723 6.39357 8.35713 6.53017 8.35713 6.77125V7.37392C8.35713 7.53464 8.23659 7.71946 8.08391 7.77571C5.61695 8.68375 3.85713 11.0543 3.85713 13.8186C3.85713 16.5909 5.61695 18.9534 8.08391 19.8534C8.23659 19.9096 8.35713 20.0945 8.35713 20.2552V20.8659Z" fill="#FDFDFD"/>
<path d="M10.9286 18.6401C10.9286 18.8169 10.7839 18.9615 10.6071 18.9615H9.96429C9.7875 18.9615 9.64286 18.8169 9.64286 18.6401V17.6276C8.23661 17.4347 7.55357 16.6552 7.36875 15.5785C7.33661 15.3936 7.48125 15.2329 7.66607 15.2329H8.39732C8.55 15.2329 8.67857 15.3454 8.71071 15.4901C8.84732 16.1249 9.21696 16.6151 10.342 16.6151C11.1696 16.6151 11.7643 16.149 11.7643 15.4579C11.7643 14.7669 11.4187 14.5017 10.1973 14.3008C8.39732 14.0597 7.54554 13.5133 7.54554 12.107C7.54554 11.0222 8.37321 10.1704 9.64286 9.99364V8.99721C9.64286 8.82042 9.7875 8.67578 9.96429 8.67578H10.6071C10.7839 8.67578 10.9286 8.82042 10.9286 8.99721V10.0177C11.9652 10.2026 12.6241 10.7892 12.8411 11.7695C12.8812 11.9544 12.7366 12.1231 12.5437 12.1231H11.8687C11.7241 12.1231 11.6036 12.0267 11.5634 11.8901C11.3786 11.2713 10.9366 10.9981 10.1652 10.9981C9.31339 10.9981 8.87143 11.4079 8.87143 11.9865C8.87143 12.5972 9.12054 12.9026 10.4304 13.0874C12.1982 13.3285 13.1143 13.8347 13.1143 15.3374C13.1143 16.4785 12.2625 17.4026 10.9366 17.6115V18.6401H10.9286Z" fill="#FDFDFD"/>
<path d="M12.6321 21.1713C12.3991 21.2436 12.2142 21.107 12.2142 20.8659V20.2633C12.2142 20.0865 12.3187 19.9177 12.4874 19.8615C14.9464 18.9615 16.7142 16.5909 16.7142 13.8266C16.7142 11.0543 14.9544 8.69182 12.4874 7.79182C12.3348 7.73557 12.2142 7.55075 12.2142 7.39004V6.78736C12.2142 6.54629 12.4071 6.40968 12.6321 6.482C15.7499 7.46236 17.9999 10.3793 17.9999 13.8186C17.9999 17.2659 15.7499 20.1749 12.6321 21.1713Z" fill="#FDFDFD"/>
</g>
<g clip-path="url(#clip0_283_60842)">
<path d="M17.1429 13.7143C20.93 13.7143 24.0001 10.6442 24.0001 6.85714C24.0001 3.07005 20.93 0 17.1429 0C13.3558 0 10.2858 3.07005 10.2858 6.85714C10.2858 10.6442 13.3558 13.7143 17.1429 13.7143Z" fill="black"/>
<path d="M13.1082 4.80878L11.0286 3.75C10.866 4.06957 10.7274 4.40465 10.6172 4.74593L12.8377 5.46393C12.9103 5.23946 13.001 5.01902 13.1082 4.80878Z" fill="white"/>
<path d="M14.8745 2.94285L16.0263 4.92744C16.1946 4.82989 16.3746 4.75486 16.5619 4.70451L15.9658 2.48854C16.1175 2.44774 16.2716 2.41407 16.4267 2.38959L16.0604 0.0847168C15.7061 0.14096 15.354 0.225853 15.0137 0.336782L15.726 2.51979C15.4995 2.59374 15.2788 2.68557 15.0663 2.79425L14.0194 0.750642C13.701 0.913823 13.393 1.10339 13.1036 1.31467L14.4794 3.19962C14.6061 3.10725 14.7387 3.02184 14.8745 2.94285Z" fill="white"/>
<path d="M21.0557 4.58717L19.0718 5.74005C19.1695 5.90808 19.2445 6.08827 19.295 6.27526L21.5108 5.67806C21.5517 5.82979 21.5853 5.98378 21.61 6.13862L23.9145 5.77163C23.8581 5.41751 23.773 5.06527 23.6617 4.72486L21.4791 5.4385C21.4049 5.21197 21.3131 4.99149 21.2043 4.779L23.2472 3.73066C23.084 3.41262 22.8941 3.10465 22.6828 2.81543L20.7984 4.19209C20.8909 4.31881 20.9767 4.45124 21.0557 4.58717Z" fill="white"/>
<path d="M20.2465 0.741231C19.9266 0.578745 19.5915 0.440384 19.2506 0.330322L18.5338 2.55118C18.7581 2.62357 18.9786 2.71453 19.1891 2.82147L20.2465 0.741231Z" fill="white"/>
<path d="M19.4179 2.90221L18.2529 4.92412C18.4217 5.02133 18.5772 5.14043 18.7156 5.27824L21.983 1.99966C21.7296 1.74708 21.4543 1.51255 21.1647 1.30249L19.817 3.16104C19.6886 3.06799 19.5554 2.98154 19.4179 2.90221Z" fill="white"/>
<path d="M13.1892 4.5799L15.2106 5.74615C15.3078 5.57759 15.4273 5.42188 15.5653 5.28333L12.2881 2.01465C12.0353 2.2681 11.8006 2.54326 11.5906 2.83264L13.4484 4.18117C13.3554 4.30944 13.2686 4.44243 13.1892 4.5799Z" fill="white"/>
<path d="M17.8501 2.35036L18.2027 0.0815923C17.8543 0.027429 17.4977 0 17.1427 0H17.1373V4.62884H17.1427C17.3378 4.62884 17.5309 4.65385 17.7166 4.70315L18.3152 2.44757C18.1621 2.40695 18.0069 2.37484 17.8501 2.35036Z" fill="white"/>
<path d="M14.9889 6.28177L12.7336 5.68164C12.6928 5.83476 12.6605 5.98995 12.6361 6.14671L10.3676 5.79308C10.3131 6.14273 10.2855 6.50068 10.2855 6.85675H14.9144C14.9144 6.66127 14.9394 6.46771 14.9889 6.28177Z" fill="white"/>
<path d="M21.1774 8.90567L23.257 9.96445C23.4196 9.64484 23.5581 9.3098 23.6684 8.96852L21.4479 8.25049C21.3753 8.47495 21.2846 8.69543 21.1774 8.90567Z" fill="white"/>
<path d="M19.4109 10.7712L18.2591 8.78662C18.0908 8.88417 17.9108 8.95915 17.7235 9.00951L18.3197 11.2255C18.1677 11.2663 18.0138 11.3 17.8588 11.3245L18.2249 13.6291C18.5792 13.5729 18.9312 13.488 19.2715 13.3771L18.5592 11.1941C18.7859 11.1201 19.0064 11.0283 19.2189 10.9196L20.2659 12.9632C20.5842 12.8 20.8922 12.6105 21.1816 12.3992L19.8058 10.5143C19.6791 10.6066 19.5467 10.6922 19.4109 10.7712Z" fill="white"/>
<path d="M13.2299 9.12751L15.214 7.97467C15.1163 7.8066 15.0412 7.62641 14.9907 7.43945L12.7749 8.03662C12.7341 7.88489 12.7004 7.7309 12.6758 7.57605L10.3711 7.94305C10.4275 8.29721 10.5126 8.64944 10.6239 8.98986L12.8065 8.27618C12.8806 8.50274 12.9725 8.72323 13.0813 8.93571L11.0384 9.98406C11.2016 10.3021 11.3915 10.6101 11.6028 10.8993L13.4872 9.52263C13.3947 9.3959 13.3089 9.26343 13.2299 9.12751Z" fill="white"/>
<path d="M14.0391 12.9731C14.359 13.1356 14.694 13.2739 15.035 13.384L15.7518 11.1631C15.5275 11.0907 15.307 10.9998 15.0964 10.8928L14.0391 12.9731Z" fill="white"/>
<path d="M14.8676 10.8125L16.0326 8.79064C15.8639 8.69343 15.7083 8.57433 15.57 8.43652L12.3025 11.7151C12.5559 11.9677 12.8313 12.2022 13.1208 12.4123L14.4685 10.5537C14.597 10.6468 14.7301 10.7332 14.8676 10.8125Z" fill="white"/>
<path d="M21.0964 9.13472L19.075 7.96851C18.9778 8.13706 18.8583 8.29277 18.7203 8.43129L21.9974 11.7002C22.2501 11.4467 22.4848 11.1716 22.6949 10.8822L20.837 9.53367C20.9301 9.40536 21.017 9.27222 21.0964 9.13472Z" fill="white"/>
<path d="M16.5689 9.01099L15.9703 11.2666C16.1235 11.3072 16.2786 11.3393 16.4354 11.3638L16.083 13.6325C16.4314 13.6867 16.788 13.7141 17.143 13.7141H17.1484V9.08529H17.143C16.9479 9.08529 16.7546 9.06029 16.5689 9.01099Z" fill="white"/>
<path d="M19.3713 6.85742C19.3713 7.0529 19.3461 7.24627 19.2966 7.43236L21.5519 8.03249C21.5927 7.87937 21.625 7.72419 21.6494 7.56742L23.918 7.92124C23.9725 7.57159 24.0001 7.21364 24.0001 6.85757L19.3713 6.85742Z" fill="white"/>
</g>
<defs>
<clipPath id="clip0_283_60842">
<rect width="13.7143" height="13.7143" fill="white" transform="translate(10.2858)"/>
</clipPath>
</defs>
</svg>
