<svg width="24" height="24" viewBox="0 0 24 24" fill="none" xmlns="http://www.w3.org/2000/svg">
<mask id="mask0_283_60829" style="mask-type:alpha" maskUnits="userSpaceOnUse" x="0" y="3" width="23" height="23">
<path d="M10.7041 3.43945C10.1619 4.45885 9.85449 5.62225 9.85449 6.85742C9.85464 10.8827 13.1173 14.1454 17.1426 14.1455C18.3776 14.1455 19.5403 13.837 20.5596 13.2949C20.5651 13.4339 20.5713 13.5735 20.5713 13.7139V15.5283C21.6233 16.627 22.2861 18.2231 22.2861 20C22.2861 23.3137 19.9829 26 17.1426 26C15.6198 25.9999 14.2522 25.2271 13.3105 24H0V3.42871H10.2861C10.4262 3.42872 10.5654 3.4339 10.7041 3.43945Z" fill="#FEFFFF"/>
</mask>
<g mask="url(#mask0_283_60829)">
<g clip-path="url(#clip0_283_60829)">
<path d="M10.2857 23.9999C15.9664 23.9999 20.5714 19.3948 20.5714 13.7142C20.5714 8.03354 15.9664 3.42847 10.2857 3.42847C4.60507 3.42847 0 8.03354 0 13.7142C0 19.3948 4.60507 23.9999 10.2857 23.9999Z" fill="#FCFC03"/>
<path d="M7.61734 12.5756L7.89832 11.7092L6.46685 10.6624L5.64845 13.1741L7.07223 14.2201L7.06973 14.2279H13.477L12.8599 16.1303H4.71145L4.16394 17.8186H12.3124L14.4443 16.7579L15.4922 13.5271L14.1736 12.5585L7.61734 12.5756Z" fill="black"/>
<path d="M8.67939 9.0022L6.46692 10.6624L16.2293 10.6656L16.7686 9.0022H8.67939Z" fill="black"/>
<path d="M8.85853 20.6937L13.4842 6.31714H11.8443L7.26733 20.6937H8.85853Z" fill="black"/>
</g>
</g>
<g clip-path="url(#clip1_283_60829)">
<path d="M17.1429 13.7143C20.93 13.7143 24.0001 10.6442 24.0001 6.85714C24.0001 3.07005 20.93 0 17.1429 0C13.3558 0 10.2858 3.07005 10.2858 6.85714C10.2858 10.6442 13.3558 13.7143 17.1429 13.7143Z" fill="black"/>
<path d="M20.1046 6.79615L21.7266 5.98792L22.2857 4.27179L21.1675 3.45801H13.7217L12 4.7368H20.7523L20.2873 6.17614H16.7775L16.4398 7.22796H19.9496L18.9642 10.2561L20.6083 9.44232L21.1951 7.62654L20.0935 6.8183L20.1046 6.79615Z" fill="#FCFC03"/>
<path d="M14.4746 8.95517L15.4877 5.79971L14.3639 4.95825L12.6754 10.2561H18.9642L19.3849 8.95517H14.4746Z" fill="#FCFC03"/>
</g>
<defs>
<clipPath id="clip0_283_60829">
<rect width="20.5714" height="20.5714" fill="white" transform="translate(0 3.42847)"/>
</clipPath>
<clipPath id="clip1_283_60829">
<rect width="13.7143" height="13.7143" fill="white" transform="translate(10.2858)"/>
</clipPath>
</defs>
</svg>
