<svg width="24" height="24" viewBox="0 0 24 24" fill="none" xmlns="http://www.w3.org/2000/svg">
<mask id="mask0_283_60838" style="mask-type:alpha" maskUnits="userSpaceOnUse" x="0" y="3" width="23" height="23">
<path d="M10.7041 3.43945C10.1619 4.45885 9.85449 5.62225 9.85449 6.85742C9.85464 10.8827 13.1173 14.1454 17.1426 14.1455C18.3776 14.1455 19.5403 13.837 20.5596 13.2949C20.5651 13.4339 20.5713 13.5735 20.5713 13.7139V15.5283C21.6233 16.627 22.2861 18.2231 22.2861 20C22.2861 23.3137 19.9829 26 17.1426 26C15.6198 25.9999 14.2522 25.2271 13.3105 24H0V3.42871H10.2861C10.4262 3.42872 10.5654 3.4339 10.7041 3.43945Z" fill="#FEFFFF"/>
</mask>
<g mask="url(#mask0_283_60838)">
<path d="M10.2857 23.9999C15.9664 23.9999 20.5714 19.3948 20.5714 13.7142C20.5714 8.03354 15.9664 3.42847 10.2857 3.42847C4.60507 3.42847 0 8.03354 0 13.7142C0 19.3948 4.60507 23.9999 10.2857 23.9999Z" fill="#2775CA"/>
<path d="M8.35725 20.8659C8.35725 21.107 8.16439 21.2436 7.93939 21.1712C4.82153 20.1748 2.57153 17.2659 2.57153 13.8186C2.57153 10.3793 4.82153 7.46232 7.93939 6.46589C8.17243 6.39357 8.35725 6.53017 8.35725 6.77125V7.37392C8.35725 7.53464 8.23671 7.71946 8.08403 7.77571C5.61707 8.68375 3.85725 11.0543 3.85725 13.8186C3.85725 16.5909 5.61707 18.9534 8.08403 19.8534C8.23671 19.9096 8.35725 20.0945 8.35725 20.2552V20.8659Z" fill="#FDFDFD"/>
<path d="M10.9286 18.6401C10.9286 18.8169 10.7839 18.9615 10.6071 18.9615H9.96429C9.7875 18.9615 9.64286 18.8169 9.64286 18.6401V17.6276C8.23661 17.4347 7.55357 16.6552 7.36875 15.5785C7.33661 15.3936 7.48125 15.2329 7.66607 15.2329H8.39732C8.55 15.2329 8.67857 15.3454 8.71071 15.4901C8.84732 16.1249 9.21696 16.6151 10.342 16.6151C11.1696 16.6151 11.7643 16.149 11.7643 15.4579C11.7643 14.7669 11.4187 14.5017 10.1973 14.3008C8.39732 14.0597 7.54554 13.5133 7.54554 12.107C7.54554 11.0222 8.37321 10.1704 9.64286 9.99364V8.99721C9.64286 8.82042 9.7875 8.67578 9.96429 8.67578H10.6071C10.7839 8.67578 10.9286 8.82042 10.9286 8.99721V10.0177C11.9652 10.2026 12.6241 10.7892 12.8411 11.7695C12.8812 11.9544 12.7366 12.1231 12.5437 12.1231H11.8687C11.7241 12.1231 11.6036 12.0267 11.5634 11.8901C11.3786 11.2713 10.9366 10.9981 10.1652 10.9981C9.31339 10.9981 8.87143 11.4079 8.87143 11.9865C8.87143 12.5972 9.12054 12.9026 10.4304 13.0874C12.1982 13.3285 13.1143 13.8347 13.1143 15.3374C13.1143 16.4785 12.2625 17.4026 10.9366 17.6115V18.6401H10.9286Z" fill="#FDFDFD"/>
<path d="M12.6322 21.1713C12.3992 21.2436 12.2144 21.107 12.2144 20.8659V20.2633C12.2144 20.0865 12.3188 19.9177 12.4876 19.8615C14.9465 18.9615 16.7144 16.5909 16.7144 13.8266C16.7144 11.0543 14.9545 8.69182 12.4876 7.79182C12.3349 7.73557 12.2144 7.55075 12.2144 7.39004V6.78736C12.2144 6.54629 12.4072 6.40968 12.6322 6.482C15.7501 7.46236 18.0001 10.3793 18.0001 13.8186C18.0001 17.2659 15.7501 20.1749 12.6322 21.1713Z" fill="#FDFDFD"/>
</g>
<g clip-path="url(#clip0_283_60838)">
<path d="M17.1428 13.7143C20.9299 13.7143 23.9999 10.6442 23.9999 6.85714C23.9999 3.07005 20.9299 0 17.1428 0C13.3557 0 10.2856 3.07005 10.2856 6.85714C10.2856 10.6442 13.3557 13.7143 17.1428 13.7143Z" fill="black"/>
<path d="M21.4037 9.47068C21.4055 9.24034 22.2849 9.25021 22.2788 9.03488C22.2745 8.86889 21.8851 8.87275 22.0075 8.52146C22.1878 7.99816 22.2857 7.43627 22.2857 6.85164C22.2857 4.01427 19.9824 1.71436 17.1429 1.71436C14.3024 1.71436 12 4.01427 12 6.85164C11.9994 7.43306 12.0979 8.01034 12.2911 8.55877C12.3641 8.79168 12.0009 8.88304 12.0009 9.02202C12.0009 9.23991 12.766 9.21075 12.766 9.46381C12.766 9.68514 12.0099 9.75291 12.0099 9.97596C12.0099 10.2835 13.6849 10.1763 13.706 10.4409C13.7227 10.6455 13.1306 10.6575 13.1267 10.8758C13.1212 11.2241 15.4133 11.11 15.4133 11.3421C15.4133 11.5175 14.3707 11.454 14.3707 11.6612C14.3707 11.8684 15.743 12.0001 17.2554 12.0001C18.7677 12.0001 19.8115 11.8319 19.8115 11.6501C19.8115 11.4686 18.8377 11.5064 18.8579 11.3421C18.8931 11.056 21.0538 11.2023 21.0538 10.8716C21.0538 10.697 20.4595 10.6562 20.4784 10.4684C20.5059 10.2024 22.2857 10.2423 22.2857 9.96652C22.2857 9.74991 21.4042 9.69629 21.405 9.47153L21.4037 9.47068ZM20.0254 8.80326C19.9781 8.97869 20.52 9.00486 20.52 9.18801C20.52 9.41063 18.8677 9.32184 18.8841 9.61651C18.8944 9.80181 20.058 9.83312 20.0357 10.027C20.0039 10.3075 18.2339 10.1677 18.2163 10.4362C18.2035 10.6335 19.0803 10.6399 19.082 10.8197C19.0837 10.9711 18.3933 11.0534 17.0724 11.0534C15.5666 11.0534 14.8353 10.9724 14.9182 10.8034C14.9959 10.6455 16.3287 10.6747 16.3154 10.4263C16.3017 10.1784 13.9486 10.2518 13.8773 10.0111C13.8185 9.81125 14.6507 9.77007 14.6455 9.58005C14.6399 9.38661 13.5793 9.43036 13.5561 9.19616C13.5411 9.04175 14.1105 9.05204 14.086 8.85817C14.068 8.71748 13.8327 8.73721 13.6935 8.44639C13.4253 7.86806 13.3073 7.23156 13.3503 6.59563C13.3932 5.9597 13.5958 5.34483 13.9394 4.80774C14.283 4.27064 14.7564 3.82864 15.316 3.52249C15.8757 3.21635 16.5035 3.05593 17.1416 3.05604C17.7671 3.05589 18.3829 3.21001 18.9345 3.50472C19.4861 3.79943 19.9562 4.22561 20.3033 4.74543C20.6504 5.26526 20.8636 5.86263 20.924 6.48454C20.9844 7.10644 20.8902 7.73363 20.6497 8.31042C20.4715 8.71447 20.07 8.63341 20.0241 8.80369H20.025L20.0254 8.80326Z" fill="white"/>
</g>
<defs>
<clipPath id="clip0_283_60838">
<rect width="13.7143" height="13.7143" fill="white" transform="translate(10.2856)"/>
</clipPath>
</defs>
</svg>
