<svg width="24" height="24" viewBox="0 0 24 24" fill="none" xmlns="http://www.w3.org/2000/svg">
<mask id="mask0_283_60833" style="mask-type:alpha" maskUnits="userSpaceOnUse" x="0" y="3" width="23" height="23">
<path d="M10.7041 3.43945C10.1619 4.45885 9.85449 5.62225 9.85449 6.85742C9.85464 10.8827 13.1173 14.1454 17.1426 14.1455C18.3776 14.1455 19.5403 13.837 20.5596 13.2949C20.5651 13.4339 20.5713 13.5735 20.5713 13.7139V15.5283C21.6233 16.627 22.2861 18.2231 22.2861 20C22.2861 23.3137 19.9829 26 17.1426 26C15.6198 25.9999 14.2522 25.2271 13.3105 24H0V3.42871H10.2861C10.4262 3.42872 10.5654 3.4339 10.7041 3.43945Z" fill="#FEFFFF"/>
</mask>
<g mask="url(#mask0_283_60833)">
<path d="M5.14282 6.85718H15.4285L18.4285 12L10.2857 19.7143L2.14282 12L5.14282 6.85718Z" fill="#FDFDFD"/>
<path fill-rule="evenodd" clip-rule="evenodd" d="M4.48022 5.14282H16.3291C16.6119 5.14282 16.8731 5.29542 17.0141 5.54299L20.4661 11.6042C20.6451 11.9185 20.592 12.3153 20.3366 12.5702L10.8347 22.0552C10.5269 22.3625 10.0317 22.3625 9.72392 22.0552L0.234813 12.583C-0.0264695 12.3222 -0.0753964 11.9139 0.116739 11.5976L3.80674 5.52354C3.95045 5.28699 4.20547 5.14282 4.48022 5.14282ZM14.7992 7.84895V9.54964H11.4239V10.7288C13.7945 10.8548 15.5731 11.3723 15.5863 11.9926L15.5862 13.2858C15.573 13.9061 13.7945 14.4236 11.4239 14.5497V17.4434H9.18271V14.5497C6.81212 14.4236 5.03357 13.9061 5.02041 13.2858L5.02045 11.9926C5.03366 11.3723 6.81212 10.8548 9.18271 10.7288V9.54964H5.80742V7.84895H14.7992ZM10.3034 13.6612C12.8332 13.6612 14.9477 13.2236 15.4651 12.6392C15.0263 12.1437 13.439 11.7536 11.4239 11.6465V12.8811C11.0628 12.9003 10.6879 12.9104 10.3034 12.9104C9.91881 12.9104 9.5439 12.9003 9.18271 12.8811V11.6465C7.16762 11.7536 5.58035 12.1437 5.14153 12.6392C5.659 13.2236 7.77351 13.6612 10.3034 13.6612Z" fill="#009393"/>
</g>
<path d="M17.1429 13.7143C20.93 13.7143 24.0001 10.6442 24.0001 6.85714C24.0001 3.07005 20.93 0 17.1429 0C13.3558 0 10.2858 3.07005 10.2858 6.85714C10.2858 10.6442 13.3558 13.7143 17.1429 13.7143Z" fill="#6C00F6"/>
<path d="M19.126 8.33691L21.066 7.21669C21.1687 7.15733 21.2323 7.04701 21.2323 6.9283V4.68813C21.2323 4.5697 21.1685 4.4591 21.066 4.39974L19.126 3.27952C19.0232 3.22016 18.8958 3.22044 18.7931 3.27952L16.853 4.39974C16.7503 4.4591 16.6867 4.5697 16.6867 4.68813V8.69165L15.3263 9.47702L13.9658 8.69165V7.12065L15.3263 6.33529L16.2236 6.85326V5.7994L15.4926 5.37746C15.4422 5.34834 15.3845 5.33294 15.326 5.33294C15.2675 5.33294 15.2098 5.34834 15.1597 5.37746L13.2197 6.49768C13.1169 6.55704 13.0533 6.66735 13.0533 6.78607V9.02624C13.0533 9.14467 13.1172 9.25527 13.2197 9.31462L15.1597 10.4348C15.2622 10.4939 15.3898 10.4939 15.4926 10.4348L17.4326 9.3149C17.5354 9.25555 17.5989 9.14495 17.5989 9.02652V5.02299L17.6236 5.009L18.9594 4.23763L20.3198 5.02299V6.594L18.9594 7.37936L18.0634 6.86194V7.91581L18.7931 8.33719C18.8958 8.39627 19.0232 8.39627 19.126 8.33719V8.33691Z" fill="white"/>
</svg>
