<svg width="24" height="24" viewBox="0 0 24 24" fill="none" xmlns="http://www.w3.org/2000/svg">
<mask id="mask0_283_60837" style="mask-type:alpha" maskUnits="userSpaceOnUse" x="0" y="3" width="23" height="23">
<path d="M10.7041 3.43945C10.1619 4.45885 9.85449 5.62225 9.85449 6.85742C9.85464 10.8827 13.1173 14.1454 17.1426 14.1455C18.3776 14.1455 19.5403 13.837 20.5596 13.2949C20.5651 13.4339 20.5713 13.5735 20.5713 13.7139V15.5283C21.6233 16.627 22.2861 18.2231 22.2861 20C22.2861 23.3137 19.9829 26 17.1426 26C15.6198 25.9999 14.2522 25.2271 13.3105 24H0V3.42871H10.2861C10.4262 3.42872 10.5654 3.4339 10.7041 3.43945Z" fill="#FEFFFF"/>
</mask>
<g mask="url(#mask0_283_60837)">
<path d="M5.14282 6.85718H15.4285L18.4285 12L10.2857 19.7143L2.14282 12L5.14282 6.85718Z" fill="#FDFDFD"/>
<path fill-rule="evenodd" clip-rule="evenodd" d="M4.48022 5.14282H16.3291C16.6119 5.14282 16.8731 5.29542 17.0141 5.54299L20.4661 11.6042C20.6451 11.9185 20.592 12.3153 20.3366 12.5702L10.8347 22.0552C10.5269 22.3625 10.0317 22.3625 9.72392 22.0552L0.234813 12.583C-0.0264695 12.3222 -0.0753964 11.9139 0.116739 11.5976L3.80674 5.52354C3.95045 5.28699 4.20547 5.14282 4.48022 5.14282ZM14.7992 7.84895V9.54964H11.4239V10.7288C13.7945 10.8548 15.5731 11.3723 15.5863 11.9926L15.5862 13.2858C15.573 13.9061 13.7945 14.4236 11.4239 14.5497V17.4434H9.18271V14.5497C6.81212 14.4236 5.03357 13.9061 5.02041 13.2858L5.02045 11.9926C5.03366 11.3723 6.81212 10.8548 9.18271 10.7288V9.54964H5.80742V7.84895H14.7992ZM10.3034 13.6612C12.8332 13.6612 14.9477 13.2236 15.4651 12.6392C15.0263 12.1437 13.439 11.7536 11.4239 11.6465V12.8811C11.0628 12.9003 10.6879 12.9104 10.3034 12.9104C9.91881 12.9104 9.5439 12.9003 9.18271 12.8811V11.6465C7.16762 11.7536 5.58035 12.1437 5.14153 12.6392C5.659 13.2236 7.77351 13.6612 10.3034 13.6612Z" fill="#009393"/>
</g>
<g clip-path="url(#clip0_283_60837)">
<path d="M17.1428 13.7143C20.9299 13.7143 23.9999 10.6442 23.9999 6.85714C23.9999 3.07005 20.9299 0 17.1428 0C13.3557 0 10.2856 3.07005 10.2856 6.85714C10.2856 10.6442 13.3557 13.7143 17.1428 13.7143Z" fill="black"/>
<path fill-rule="evenodd" clip-rule="evenodd" d="M13.7797 11.3649C12.4081 10.34 11.5182 8.70197 11.5182 6.85725C11.5182 3.75197 14.0376 1.23256 17.1429 1.23256C19.7067 1.23256 22.5062 2.7647 23.1826 5.1116C22.426 2.4897 20.009 0.571533 17.1429 0.571533C13.6721 0.571533 10.8572 3.38643 10.8572 6.85725C10.8572 10.3281 13.6721 13.143 17.1429 13.143C20.6137 13.143 23.4286 10.3281 23.4286 6.85725V6.52589H23.0836C23.0733 6.52589 23.0579 6.52589 23.0375 6.52589C22.9965 6.52589 22.9384 6.52418 22.8632 6.52075C22.7146 6.51565 22.5096 6.50538 22.2791 6.4849C21.8076 6.44388 21.2696 6.36361 20.9041 6.21671C20.3148 5.98099 19.9817 5.67014 19.6025 5.3046L19.5803 5.28412C19.1994 4.91858 18.7724 4.50694 18.0294 4.1585C17.2983 3.81517 16.4904 3.86983 15.8977 3.9928C15.5971 4.05429 15.3375 4.13629 15.1547 4.2029C15.0624 4.23535 14.989 4.26609 14.9378 4.2866C14.6389 4.413 14.3485 4.5616 14.0564 4.69994C14.0564 4.69994 14.632 4.85708 14.9156 4.94592C14.9258 4.94932 14.9412 4.95446 14.9634 4.96129C15.0061 4.97494 15.0676 4.99715 15.141 5.0279C15.2913 5.08939 15.4878 5.17993 15.6825 5.30633C15.9899 5.50276 16.2444 5.75211 16.3486 6.05616C15.6979 6.14157 15.0864 6.42851 14.6286 6.6967C14.3519 6.85895 14.1213 7.02293 13.959 7.14422C13.8788 7.20569 13.8138 7.25694 13.7694 7.2928C13.7319 7.32354 13.1443 7.84109 13.1443 7.84109C13.1443 7.84109 13.9027 7.92137 14.2767 7.99653C14.5261 8.04606 14.8609 8.12806 15.2128 8.24932C15.5646 8.37231 15.9199 8.53286 16.2154 8.73956C16.5109 8.94623 16.7278 9.18364 16.8337 9.45694C17.1446 10.2529 16.8389 11.0267 16.2256 11.4622C15.6193 11.8927 14.6986 11.9951 13.778 11.3631L13.7797 11.3649ZM15.925 12.3487C16.1727 12.2684 16.4033 12.1506 16.6117 12.0037C17.4452 11.411 17.8842 10.3246 17.4521 9.2178C17.2813 8.78225 16.9567 8.45089 16.5963 8.1981C16.2342 7.9453 15.8191 7.76082 15.4331 7.62589C15.1803 7.53707 14.9343 7.46874 14.7208 7.41749C14.7977 7.36796 14.878 7.31671 14.9651 7.26548C15.4741 6.96657 16.1163 6.69157 16.7312 6.69157C17.6587 6.69157 18.3488 6.97681 19.0081 7.28085C19.0679 7.30817 19.1277 7.33721 19.1891 7.36456C19.7784 7.64126 20.3968 7.93163 21.1159 7.93163C21.835 7.93163 22.3559 7.7352 22.73 7.53024C22.3969 10.3178 20.0244 12.4802 17.1463 12.4802C16.7278 12.4802 16.3196 12.4341 15.9285 12.3487H15.925ZM22.0126 7.12541C21.7649 7.20912 21.4643 7.27061 21.1142 7.27061C20.5505 7.27061 20.0654 7.04514 19.4505 6.75817C19.3958 6.73255 19.3412 6.70694 19.2848 6.68133C18.6682 6.39606 17.9559 6.09374 17.0284 6.03908C16.9038 5.42589 16.4392 5.00569 16.0395 4.74949C15.995 4.72045 15.9507 4.69313 15.9062 4.66749C15.9455 4.65895 15.9865 4.64871 16.0292 4.64017C16.5655 4.52915 17.2044 4.50181 17.7458 4.75803C18.3881 5.06035 18.7519 5.40881 19.1294 5.77092L19.1431 5.78286C19.5308 6.15524 19.9424 6.54637 20.6581 6.83334C21.0561 6.99218 21.5719 7.07759 22.0126 7.12541Z" fill="url(#paint0_linear_283_60837)"/>
</g>
<defs>
<linearGradient id="paint0_linear_283_60837" x1="10.7444" y1="6.9734" x2="23.5413" y2="6.73939" gradientUnits="userSpaceOnUse">
<stop stop-color="#29CCB9"/>
<stop offset="0.49" stop-color="#0091FF"/>
<stop offset="1" stop-color="#FF66B7"/>
</linearGradient>
<clipPath id="clip0_283_60837">
<rect width="13.7143" height="13.7143" fill="white" transform="translate(10.2856)"/>
</clipPath>
</defs>
</svg>
