<svg xmlns="http://www.w3.org/2000/svg" viewBox="0 0 39 39" fill="none">
    <g transform="matrix(1.045,0,0,1.045,-0.93,-0.93)">
        <path d="M19.5085 1.69995H19.5092C29.3448 1.69995 37.3181 9.67326 37.3181 19.5089V19.5095C37.3181 29.3451 29.3448 37.3184 19.5092 37.3184H19.5085C9.6729 37.3184 1.69958 29.3451 1.69958 19.5095V19.5089C1.69958 9.67326 9.6729 1.69995 19.5085 1.69995Z" fill="#111111" stroke="#111111" stroke-width="0.900384"/>
        <path d="M19.5092 1.37183H19.5084C9.49173 1.37183 1.37155 9.49201 1.37155 19.5088V19.5095C1.37155 29.5262 9.49173 37.6463 19.5084 37.6463H19.5092C29.5259 37.6463 37.6461 29.5262 37.6461 19.5095V19.5088C37.6461 9.49201 29.5259 1.37183 19.5092 1.37183Z" fill="url(#paint0_radial_3814_2007)" fill-opacity="0.7"/>
        <path d="M19.5092 1.37183H19.5084C9.49173 1.37183 1.37155 9.49201 1.37155 19.5088V19.5095C1.37155 29.5262 9.49173 37.6463 19.5084 37.6463H19.5092C29.5259 37.6463 37.6461 29.5262 37.6461 19.5095V19.5088C37.6461 9.49201 29.5259 1.37183 19.5092 1.37183Z" stroke="url(#paint1_linear_3814_2007)" stroke-width="0.911781"/>
    </g>
    <path fill-rule="evenodd" clip-rule="evenodd" d="M14.2246 5.25171C8.43708 7.39433 4.31183 12.9634 4.31183 19.496C4.31183 26.0285 8.43708 31.5976 14.2246 33.7403V32.2423C9.22416 30.172 5.7063 25.2449 5.7063 19.496C5.7063 13.7472 9.22416 8.81994 14.2246 6.7496V5.25171ZM24.768 6.7498V5.25188C30.5554 7.39463 34.6804 12.9636 34.6804 19.496C34.6804 26.0284 30.5554 31.5973 24.768 33.7401V32.2421C29.7682 30.1717 33.2859 25.2447 33.2859 19.496C33.2859 13.7473 29.7682 8.82025 24.768 6.7498Z" fill="white"/>
    <path fill-rule="evenodd" clip-rule="evenodd" d="M19.497 6.74854L20.2923 8.11501L25.1603 16.4787H28.2387V17.8732H10.7613V16.4787H13.8325L18.7015 8.11493L19.497 6.74854ZM19.4968 10.4074L23.0306 16.4787H15.9624L19.4968 10.4074ZM25.169 22.4284H28.2387V21.034H10.7613V22.4284H13.8238L18.7015 30.8071L19.497 32.1735L20.2923 30.807L25.169 22.4284ZM23.0392 22.4284H15.9537L19.4968 28.5146L23.0392 22.4284Z" fill="white"/>
    <defs>
        <radialGradient id="paint0_radial_3814_2007" cx="0" cy="0" r="1" gradientUnits="userSpaceOnUse" gradientTransform="translate(19.5478 6.66838) rotate(90) scale(38.2413 26.918)">
            <stop offset="0.03125" stop-color="#3A3A3A"/>
            <stop offset="1" stop-color="#1C1C1C"/>
        </radialGradient>
        <linearGradient id="paint1_linear_3814_2007" x1="19.5088" y1="1.02961" x2="19.5088" y2="37.9886" gradientUnits="userSpaceOnUse">
            <stop stop-color="white"/>
            <stop offset="1" stop-color="#111111"/>
        </linearGradient>
    </defs>
</svg>