<svg id="Calque_1" data-name="Calque 1" xmlns="http://www.w3.org/2000/svg" viewBox="0 0 600 600">
  <circle class="cls-1" cx="300" cy="300" r="300" fill="url(#background)"/>
  <path fill="#006699" d="M341.77,200.72c-7.68-3.76-12.87-5.62-21.49-2.84.86,13.28,11.56,17.68,20.08,25.03,7.97,6.88,7.24,14.77,20.05,4.28l-4.3-6.4c11.45,1.14,28.96,7.1,22.92,21.45,20.01,1.65,44.51,17.25,44.46,39.3,0,1.47-.9,8.89-2.89,9.37-3.88-20.28-23.59-26.55-42.32-24.35-5.31.62-12.39,5.85-4.89,5.13,15.2-1.45,23.48,7.7,35.72,14.96.34,2.65-2.89,1.07-4.37.79-7.99-1.56-15.96-3.93-24.27-1.53,4.69,4.22,10.86.83,16.82,3.24,12.42,5.01,21.84,32.8,20.12,45.06-.97,6.97-8.89,15.94-15.45,18.26,8.88-27.37-13.77-59.59-44.43-50.08-.41,3.76.04,2.27,2.11,2.88,17.05,5.05,29.2,15.05,26.42,34.92-.47,3.35-2.7,10.15-5.59,12.28,1.32-11.82-5.02-20.54-15.24-25.58-5.49-2.71-12.34-2.82-16.3-8.07l-2.86,1.48c2.16,5.07.97,13.9,4.2,18.32,1.39,1.9,10.32,5.81,13.63,9.65,6.94,8.05,11.04,24.99-.62,29.97,6.96-20.28-13.39-18.55-21.86-25.73-2.79-2.36-4.65-7.86-6.83-10.73-1.89-2.49-3.98,6.03-4.14,7.25-1.74,13.56,4.56,9.22,11.33,16.01,11.39,11.42,11.33,32.45-2.17,41.81,1.17-12.04,2.12-23.46-7.99-32.08-6.32-5.39-23.96-10.41-25.46-19.07-.58-3.37,3.15-8.78-.2-10.38-15.27,30,8.83,43.36,22.9,65.13-1.92,2.35-4.48-2.06-6.67-3.35-8.92-5.25-18.09-8.36-26.75-14.78-17.15-12.73-28.44-30.39-25.33-52.72-18.03,13.48-21.28,41.2-2.85,55.81-26.65-2.4-35.83-38.33-26.05-59.65,3.33-7.27,13.35-15.66,15.41-21.87.65-1.97,1.28-3.61-.77-5.12-10.4-4.02-25.51,5.11-30.44,14.07-6.01,10.91-4.08,25.88.28,36.8-30.1-13.85-21.08-70.06,10.88-74.31,4.1-.54,8.6-.01,12.79-.12,1.41-.04,4.83.77,2.86-1.44-35.46-23.39-61.22-5.58-57.23,35.71.11,1.18,1.72,4.34-1.51,2.93-6.35-2.77-14.04-19.83-14.94-26.59-5.22-39.11,35.7-62.94,69.99-48.4l2.96-1.6c-1.72-8.3-4.56-15.32-12.84-18.64l-11.51-2.07c10.61-5.04,20.41-6.04,31.09-.31,3.92,2.1,5.49,6.81,10.44,6.01.92-7.28-3.4-9.42-10.02-8.6l9.2-4.3c4.47-2.43-7.51-6.94-10.1-7.09-3.36-.2-5.9,1.46-9.13,1.38,3.47-13.58,22.96-14.65,34.46-12.24,10.95,2.29,15.78,11.48,25.71,15.1l-7.66-9.51-10.96-6.92c12.33-16.68,41.96-17.05,51.57,2.11ZM330.31,250.82l3.59-8.56c-10.35,7.38-19.66,25.71-30.1,7.17-12.22,17.53-20.1,2.46-32.23-5.75l1.4,7.16c-.37.46-5.2-5.96-5.8.75-.54,6.06,9.69,8.02,11.54,13.55-4.42.87-7.04-8.9-10.7-4.24-3.11,3.96-2.89,17.64-1.08,22.46,3.3,8.75,9.16,10.13,17.98,9.04,1-.24,3.41-5.69,3.55-6.81.29-2.42-2.76-7.23.27-7.54,3.6,5.74,4.77,20.41,7.41,24.81,1.81,3.01,5.86,3.2,8.86,2.14,4.34-1.52,8.13-19.23,9.56-24.1l4.37,10.65c15.9,7,21.68-11.14,19.83-24.12-2.49-17.49-11.09.3-18.5,2.72,4.06-6.64,9.23-12.97,16.96-15.25l.24-5.48-7.16,1.41Z"/>

  <defs>
    <radialGradient id="background" cx="0" cy="0" r="1" gradientUnits="userSpaceOnUse" gradientTransform="translate(196 143.5) rotate(54.1675) scale(497.082)">
        <stop stop-color="white"/>
        <stop stop-color="#0080B0" offset="1"/>
    </radialGradient>
  </defs>
</svg>